<svg width="60" height="60" viewBox="0 0 60 60" fill="none" xmlns="http://www.w3.org/2000/svg">
<g id="Icon / bg">
<circle id="Icon_bg" cx="30" cy="30" r="29.25" stroke="#1F1F1F" stroke-opacity="0.2" stroke-width="1.5" stroke-dasharray="6 6"/>
<g id="Icon">
<path id="Vector" d="M21.0428 22.314C20.2367 21.9586 19.9798 21.322 20.0214 20.4976C20.0539 19.856 20.0204 19.2123 20.0306 18.5696C20.0458 17.6376 20.6661 17.0081 21.5971 17.0061C24.6084 16.998 27.6197 16.998 30.6311 17.0061C31.5245 17.0081 32.1712 17.6285 32.2037 18.5239C32.2322 19.3006 32.224 20.0804 32.2058 20.8581C32.1895 21.5312 31.823 21.9921 31.1986 22.3109C31.1986 22.7353 31.1752 23.1739 31.2098 23.6064C31.223 23.7729 31.3478 23.9435 31.4544 24.0876C32.158 25.039 32.8626 25.9893 33.5845 26.9264C34.0363 27.5132 34.2526 28.162 34.2454 28.9011C34.2333 30.0849 34.2424 31.2697 34.2424 32.4535C34.2424 32.6211 34.2424 32.7876 34.2424 33.0383C34.7247 32.7612 35.144 32.5175 35.5653 32.2779C36.209 31.9114 36.8385 31.5286 37.5898 31.3844C39.666 30.9875 41.7727 32.3317 42.2641 34.3988C42.6783 36.138 41.99 37.9015 40.4478 38.8213C38.3461 40.0762 36.2263 41.3037 34.084 42.4885C32.289 43.4815 30.1518 42.9901 28.9264 41.3494C28.7254 41.0803 28.5264 40.9991 28.2137 41.0011C25.7273 41.0103 23.2398 41.0011 20.7534 41.0093C19.8762 41.0123 19.1259 40.7534 18.5614 40.0549C18.2122 39.6244 18.002 39.133 18.002 38.5716C17.999 35.2384 18 31.9053 18.001 28.5731C18.001 27.9924 18.2193 27.4888 18.5635 27.032C19.2742 26.0857 19.9717 25.1303 20.6996 24.1973C20.9534 23.8724 21.0905 23.5465 21.0489 23.1333C21.0215 22.8663 21.0438 22.5942 21.0438 22.314H21.0428ZM19.0386 36.9451C19.7239 36.9451 20.3646 36.9451 21.0062 36.9451C23.3911 36.9451 25.775 36.9451 28.1599 36.9451C28.3934 36.9451 28.6218 36.9766 28.7802 36.7177C29.1894 36.0517 29.7935 35.5989 30.4656 35.2202C31.2747 34.7643 32.0717 34.2881 32.8829 33.8374C33.1317 33.6993 33.2393 33.5419 33.2342 33.2434C33.2149 32.1276 33.2281 31.0108 33.2251 29.895C33.2251 29.7661 33.2007 29.6382 33.1885 29.5113H19.0386V36.9441V36.9451ZM33.2718 28.4544C33.0962 28.1213 32.9926 27.8523 32.8291 27.6289C32.1205 26.6614 31.3864 25.7111 30.6788 24.7425C30.5031 24.5019 30.3194 24.4004 30.0128 24.4044C28.6259 24.4227 27.239 24.4136 25.8522 24.4115C25.3476 24.4115 25.1222 24.2572 25.112 23.9201C25.1019 23.5607 25.3313 23.4034 25.8735 23.3993C25.9242 23.3993 25.975 23.3993 26.0258 23.3993C27.2441 23.3993 28.4614 23.3993 29.6797 23.3993C29.8402 23.3993 30.0006 23.3993 30.1508 23.3993V22.4175H22.0591C22.0591 22.7901 22.0398 23.1282 22.0642 23.4633C22.0936 23.8755 21.9667 24.2064 21.7129 24.5344C20.926 25.5496 20.1615 26.5812 19.4031 27.6178C19.2305 27.8543 19.1199 28.1356 18.9503 28.4533H33.2718V28.4544ZM36.4537 39.9899C35.4242 38.2071 34.4241 36.475 33.3936 34.6902C32.3286 35.3268 31.2555 35.871 30.293 36.5674C29.0482 37.469 28.7822 39.1584 29.5518 40.4722C30.3082 41.7626 31.9205 42.3677 33.2769 41.7464C34.3581 41.2509 35.3673 40.5981 36.4537 39.9899ZM26.1253 18.0153C24.6714 18.0153 23.2185 18.0122 21.7646 18.0163C21.2032 18.0183 21.0489 18.1767 21.0458 18.7392C21.0418 19.3646 21.0418 19.99 21.0458 20.6154C21.0489 21.2154 21.1941 21.3657 21.789 21.3667C24.6795 21.3687 27.569 21.3698 30.4595 21.3667C31.0077 21.3667 31.1884 21.187 31.1956 20.6428C31.2027 20.0347 31.1996 19.4255 31.1966 18.8173C31.1925 18.1737 31.0341 18.0163 30.3854 18.0153C28.966 18.0132 27.5456 18.0153 26.1263 18.0153H26.1253ZM34.28 34.1876C35.3074 35.9674 36.3075 37.6995 37.3329 39.4762C38.3025 38.9026 39.2772 38.398 40.1706 37.7776C41.3229 36.9786 41.6763 35.3907 41.0854 34.1074C40.4782 32.7896 39.0579 32.0626 37.6578 32.4261C36.4161 32.748 35.4435 33.6059 34.28 34.1876ZM28.167 37.9939H19.0488C18.9564 38.9645 19.2204 39.5676 19.9087 39.8407C20.1971 39.9554 20.5341 39.9838 20.8489 39.9859C23.1332 39.997 25.4176 39.993 27.702 39.9909C27.8665 39.9909 28.0299 39.9737 28.168 39.9666V37.9949L28.167 37.9939Z" fill="#1F1F1F"/>
<path id="Vector_2" d="M25.5862 33.9023C25.2044 33.9023 24.8684 33.9043 24.5323 33.9013C24.3638 33.8992 24.1942 33.8972 24.0267 33.8769C23.7566 33.8444 23.5962 33.6891 23.5891 33.4099C23.582 33.1317 23.7302 32.952 24.0013 32.9215C24.3018 32.888 24.6074 32.8921 24.911 32.885C25.1252 32.8799 25.3405 32.885 25.6156 32.885C25.6156 32.3367 25.6126 31.8504 25.6166 31.3651C25.6186 31.1387 25.7273 30.9407 25.9496 30.9224C26.1283 30.9072 26.3649 30.961 26.4857 31.0778C26.5964 31.1844 26.6136 31.4159 26.6217 31.5935C26.64 31.9966 26.6278 32.4007 26.6278 32.885C26.9395 32.885 27.2187 32.885 27.4979 32.885C27.6837 32.885 27.8705 32.8769 28.0553 32.8921C28.431 32.9246 28.6462 33.1134 28.6482 33.3946C28.6503 33.6779 28.436 33.8739 28.0614 33.8962C27.7578 33.9145 27.4533 33.9023 27.1487 33.9033C26.9984 33.9033 26.8482 33.9033 26.6278 33.9033C26.6278 34.2729 26.6278 34.6038 26.6278 34.9338C26.6278 35.1023 26.64 35.2739 26.6157 35.4404C26.5689 35.7674 26.3618 35.9318 26.0633 35.9085C25.7892 35.8872 25.6308 35.7206 25.6176 35.3958C25.6024 35.0242 25.6136 34.6516 25.6105 34.28C25.6105 34.1795 25.5983 34.0789 25.5862 33.9033V33.9023Z" fill="#1F1F1F"/>
<path id="Vector_3" d="M23.5848 24.4064C23.3066 24.4135 23.0741 24.176 23.0812 23.8917C23.0873 23.6308 23.3046 23.4115 23.5614 23.4033C23.8254 23.3962 24.0863 23.6561 24.0782 23.9181C24.0701 24.1607 23.8285 24.4003 23.5858 24.4054L23.5848 24.4064Z" fill="#1F1F1F"/>
</g>
</g>
</svg>
