<svg width="54" height="54" viewBox="0 0 54 54" fill="none" xmlns="http://www.w3.org/2000/svg">
<circle cx="27" cy="27" r="27" fill="#4D7B6B"/>
<path fill-rule="evenodd" clip-rule="evenodd" d="M15.6189 17.9981C16.0185 17.3353 18.2213 14.929 19.791 15.0016C20.2607 15.0418 20.6758 15.3246 21.0131 15.6541H21.0144C21.7876 16.4117 24.006 19.2707 24.1305 19.8726C24.438 21.3488 22.6775 22.1997 23.2159 23.6876C24.5885 27.046 26.9535 29.4108 30.3135 30.7819C31.8002 31.3216 32.6513 29.5626 34.1276 29.8687C34.7296 29.9945 37.5901 32.2114 38.3465 32.9859V32.9859C38.6747 33.3218 38.9601 33.7382 38.999 34.2078C39.0574 35.8617 36.5017 38.0942 36.0035 38.3796C34.8282 39.2215 33.2947 39.2059 31.4253 38.3368C26.2088 36.1666 17.8723 27.9878 15.6617 22.5746C14.8158 20.7157 14.7588 19.1721 15.6189 17.9981Z" stroke="white" stroke-width="1.6" stroke-linecap="round" stroke-linejoin="round"/>
<path d="M30.2383 15.3164C34.9145 15.8356 38.6067 19.524 39.1322 24.1989" stroke="white" stroke-width="1.6" stroke-linecap="round" stroke-linejoin="round"/>
<path d="M30.2383 19.791C32.4741 20.2268 34.221 21.9738 34.6568 24.2095" stroke="white" stroke-width="1.6" stroke-linecap="round" stroke-linejoin="round"/>
</svg>
