<svg width="18" height="18" viewBox="0 0 18 18" fill="none" xmlns="http://www.w3.org/2000/svg">
<g id="Icon" opacity="0.7">
<path id="Vector" d="M14.1746 12.8635L14.4866 15.3913C14.5666 16.0553 13.8546 16.5193 13.2866 16.1753L9.93477 14.1834C9.56678 14.1834 9.20681 14.1594 8.85482 14.1114C9.4468 13.4154 9.79877 12.5354 9.79877 11.5835C9.79877 9.3116 7.83087 7.47172 5.39898 7.47172C4.47102 7.47172 3.61507 7.73569 2.9031 8.19967C2.8791 7.99967 2.87109 7.79968 2.87109 7.59169C2.87109 3.95185 6.03095 1 9.93477 1C13.8386 1 16.9984 3.95185 16.9984 7.59169C16.9984 9.75159 15.8865 11.6635 14.1746 12.8635Z" stroke="#1F1F1F" stroke-width="1.5" stroke-linecap="round" stroke-linejoin="round"/>
<path id="Vector_2" d="M9.79959 11.5835C9.79959 12.5354 9.44761 13.4154 8.85564 14.1114C8.06368 15.0713 6.80773 15.6873 5.3998 15.6873L3.31189 16.9272C2.95991 17.1432 2.51193 16.8472 2.55993 16.4392L2.75992 14.8633C1.68797 14.1194 1 12.9274 1 11.5835C1 10.1755 1.75197 8.93559 2.90392 8.19962C3.61588 7.73565 4.47184 7.47168 5.3998 7.47168C7.83168 7.47168 9.79959 9.31156 9.79959 11.5835Z" stroke="#1F1F1F" stroke-width="1.5" stroke-linecap="round" stroke-linejoin="round"/>
</g>
</svg>
