<svg width="70" height="74" viewBox="0 0 70 74" fill="none" xmlns="http://www.w3.org/2000/svg">
<g id="Icon">
<g id="Shadow" opacity="0.6" filter="url(#filter0_f_73_101)">
<ellipse cx="35" cy="65.5" rx="30" ry="3.5" fill="#1F1F1F" fill-opacity="0.4"/>
</g>
<g id="Icon_2">
<path id="Vector" d="M31.7196 42.9489C31.7572 39.0857 31.4611 35.2517 30.6732 31.4636C30.6106 31.159 30.5439 30.8545 30.4626 30.5541C30.1687 29.4715 29.4453 28.8019 28.551 28.7768C27.6984 28.7539 26.6957 29.5382 26.4518 30.5249C26.1871 31.5991 25.9828 32.6922 25.8056 33.7852C25.1197 38.0197 25.1176 42.2918 25.1656 46.5659C25.1802 47.8842 24.684 48.9439 23.5167 49.601C22.0824 50.4062 20.4064 49.9535 19.4183 48.5079C18.0383 46.4866 17.0543 44.2714 16.2914 41.9538C14.7675 37.323 14.2026 32.5545 14.3381 27.6963C14.3735 26.4239 14.1922 25.2119 13.7085 24.0375C12.0033 19.8844 10.7567 15.5936 10.1188 11.1505C9.26828 5.21382 13.1061 1.1754 17.7402 0.197088C19.6372 -0.203416 21.4633 0.0302113 23.2561 0.683117C24.7216 1.21712 26.1871 1.74904 27.6338 2.32894C28.2196 2.56257 28.7324 2.573 29.3265 2.33937C30.9379 1.70524 32.5597 1.09614 34.2003 0.539186C39.2764 -1.18382 44.8361 1.51542 46.5413 6.46957C47.273 8.59725 47.125 10.7145 46.5434 12.8192C45.6136 16.1901 44.6234 19.5444 43.6583 22.9069C43.6395 22.9737 43.5915 23.03 43.5707 23.0947C43.3539 23.781 43.4477 23.8832 44.1877 23.7288C44.6964 23.6224 45.2113 23.5244 45.7012 23.3596C47.1667 22.8631 48.5988 22.9716 50.081 23.3533C52.964 24.0939 55.8741 24.728 58.7717 25.4164C59.8537 25.6729 59.9829 25.8294 59.9892 26.8786C60.0058 29.7239 60.0851 32.5733 59.3554 35.3664C57.7524 41.5075 54.2523 46.2259 48.849 49.5509C48.136 49.989 47.5586 49.9952 46.8456 49.5551C44.5484 48.1346 42.5263 46.4115 40.819 44.3172C40.2311 43.5976 40.2478 43.6164 39.8371 44.4257C39.1617 45.7545 38.5072 47.0978 37.7317 48.3661C36.8582 49.795 35.4344 50.2914 33.9773 49.8367C32.4951 49.3757 31.7196 48.2284 31.7176 46.4929C31.7176 45.3122 31.7176 44.1295 31.7176 42.9489H31.7196ZM33.7209 43.1887C33.7209 44.4049 33.7167 45.621 33.723 46.8371C33.7271 47.3878 34.0169 47.7758 34.5255 47.928C35.0113 48.0741 35.5011 48.0157 35.8618 47.5964C36.0411 47.3878 36.212 47.1583 36.3329 46.9122C37.0813 45.3894 37.8151 43.8604 38.5551 42.3335C38.8157 41.7953 38.7406 41.3281 38.4675 40.7753C37.8547 39.5362 37.2877 38.2659 36.829 36.9621C35.6408 33.5954 35.6075 30.0868 35.6908 26.5741C35.7054 25.9232 36.1036 25.5874 36.7165 25.4497C37.9318 25.1765 39.1409 24.8719 40.3604 24.6216C40.8232 24.5256 41.065 24.3087 41.2297 23.8644C42.7306 19.8322 43.9438 15.7187 44.8298 11.5072C45.1279 10.0908 45.1696 8.69112 44.7277 7.29561C43.4164 3.14455 38.7698 0.952206 34.5401 2.49582C32.2325 3.33854 29.9352 4.21882 27.6067 5.00106C25.6034 5.67273 23.6396 5.36193 21.7468 4.49208C21.6593 4.45245 21.5905 4.36692 21.5133 4.30434C21.6176 4.26263 21.7176 4.19379 21.826 4.18544C22.8579 4.08949 23.8898 4.01231 24.9217 3.90801C25.0301 3.89758 25.1239 3.74322 25.226 3.6577C25.126 3.58469 25.0343 3.48248 24.9217 3.44284C23.6501 2.99645 22.3972 2.46036 21.0902 2.15372C20.2355 1.95347 19.2724 1.93261 18.4093 2.0974C14.4361 2.84417 11.3008 5.95225 12.1096 11.1901C12.7517 15.3474 13.9066 19.3733 15.5305 23.2574C16.0746 24.5611 16.3018 25.9066 16.258 27.3167C16.1559 30.5895 16.4206 33.8353 17.046 37.0498C17.686 40.3351 18.722 43.4829 20.4147 46.3907C20.6586 46.81 20.8817 47.2772 21.2361 47.5839C21.5113 47.8196 22.0178 47.999 22.3388 47.9072C22.6599 47.8154 22.9142 47.3815 23.1289 47.054C23.2269 46.9038 23.1623 46.6473 23.1685 46.4387C23.2331 43.7311 23.2707 41.0235 23.3666 38.3159C23.4625 35.6063 23.869 32.9321 24.4568 30.2892C24.7237 29.0876 25.3657 28.1323 26.4184 27.4564C27.2169 26.9454 28.0757 26.8077 29.0034 26.8744C29.7538 26.9287 29.8018 26.8244 29.4453 26.1485C28.9346 25.1827 28.1299 24.6571 27.048 24.5486C26.8708 24.5298 26.6957 24.486 26.5206 24.4547C26.7061 24.3734 26.8875 24.2461 27.0814 24.219C28.5302 24.0167 29.6517 24.607 30.5356 25.7126C31.4215 26.8181 31.9302 28.1072 32.2616 29.4631C33.3644 33.9709 33.7084 38.5642 33.7209 43.1887ZM57.9879 29.8407C57.9879 29.2858 57.9525 28.7268 57.9963 28.174C58.0484 27.5086 57.8212 27.1936 57.1311 27.0434C54.2565 26.4176 51.3964 25.7272 48.5279 25.0743C48.1965 24.9992 47.8254 24.9262 47.5044 24.9992C44.4316 25.6875 41.3631 26.4093 38.2945 27.1185C37.8672 27.2165 37.6545 27.4377 37.6796 27.9174C37.7609 29.4402 37.7004 30.9775 37.888 32.4857C38.6614 38.7331 41.7383 43.6038 46.879 47.1896C47.8317 47.8529 47.8525 47.855 48.7739 47.2126C54.8172 43.0031 57.8358 37.1812 57.9858 29.8407H57.9879Z" fill="#1F1F1F"/>
<path id="Vector_2" d="M39.9972 30.8775C39.9972 30.6001 40.0055 30.3206 39.9972 30.0431C39.9742 29.3819 40.3203 28.9856 40.9269 28.8416C43.0845 28.3285 45.2442 27.8258 47.4101 27.3481C47.7374 27.2751 48.1105 27.298 48.442 27.371C50.5057 27.8299 52.5633 28.3097 54.6187 28.7978C55.5526 29.0189 55.8194 29.384 55.7673 30.3581C55.4692 35.9068 53.3241 40.5626 49.0632 44.186C48.025 45.0683 47.6686 45.0621 46.6346 44.1922C42.6363 40.8296 40.1744 35.8817 39.9993 30.8754L39.9972 30.8775ZM53.5514 32.0394C53.6139 30.7127 53.6118 30.696 52.6821 30.477C51.2333 30.1349 49.7824 29.7991 48.3273 29.4841C48.0334 29.4215 47.704 29.4111 47.4122 29.4737C45.8904 29.8074 44.3832 30.21 42.8552 30.5104C42.1652 30.646 42.0359 31.0089 42.1089 31.6014C42.6134 35.7149 44.3269 39.2172 47.3538 42.0666C47.6936 42.3858 47.9312 42.4421 48.3044 42.0958C51.35 39.2631 53.0782 35.7733 53.5534 32.0373L53.5514 32.0394Z" fill="#1F1F1F"/>
</g>
</g>
<defs>
<filter id="filter0_f_73_101" x="0" y="57" width="70" height="17" filterUnits="userSpaceOnUse" color-interpolation-filters="sRGB">
<feFlood flood-opacity="0" result="BackgroundImageFix"/>
<feBlend mode="normal" in="SourceGraphic" in2="BackgroundImageFix" result="shape"/>
<feGaussianBlur stdDeviation="2.5" result="effect1_foregroundBlur_73_101"/>
</filter>
</defs>
</svg>
