<svg width="62" height="62" viewBox="0 0 62 62" fill="none" xmlns="http://www.w3.org/2000/svg">
<g id="Icon / bg">
<path id="Icon_bg" d="M31 0.5C47.8447 0.5 61.5 14.1553 61.5 31C61.5 47.8447 47.8447 61.5 31 61.5C14.1553 61.5 0.5 47.8447 0.5 31C0.5 14.1553 14.1553 0.5 31 0.5Z" stroke="#1F1F1F" stroke-opacity="0.12"/>
<g id="Icon">
<path id="Vector" d="M20 26.8824C20 22.7647 22.2 21 25.5 21H36.5C39.8 21 42 22.7647 42 26.8824V35.1176C42 39.2353 39.8 41 36.5 41H25.5" stroke="#1F1F1F" stroke-width="1.5" stroke-miterlimit="10" stroke-linecap="round" stroke-linejoin="round"/>
<path id="Vector_2" d="M36.498 27.4697L33.055 30.4105C31.922 31.3751 30.063 31.3751 28.93 30.4105L25.498 27.4697" stroke="#1F1F1F" stroke-width="1.5" stroke-miterlimit="10" stroke-linecap="round" stroke-linejoin="round"/>
<path id="Vector_3" d="M20 36.293H26.6" stroke="#1F1F1F" stroke-width="1.5" stroke-miterlimit="10" stroke-linecap="round" stroke-linejoin="round"/>
<path id="Vector_4" d="M20 31.586H23.3" stroke="#1F1F1F" stroke-width="1.5" stroke-miterlimit="10" stroke-linecap="round" stroke-linejoin="round"/>
</g>
</g>
</svg>
