<svg width="52" height="52" viewBox="0 0 52 52" fill="none" xmlns="http://www.w3.org/2000/svg">
<g id="Icon / bg">
<path id="Iocn_bg" d="M25.999 0.5C40.0823 0.5 51.499 11.9167 51.499 26C51.499 40.0833 40.0823 51.5 25.999 51.5C11.9158 51.5 0.499023 40.0833 0.499023 26C0.499023 11.9167 11.9158 0.5 25.999 0.5Z" stroke="white" stroke-opacity="0.12"/>
<g id="Icon">
<path id="Vector" d="M16.999 22.7059C16.999 19.4118 18.8814 18 21.7049 18H31.1167C33.9402 18 35.8226 19.4118 35.8226 22.7059V29.2941C35.8226 32.5882 33.9402 34 31.1167 34H21.7049" stroke="white" stroke-width="1.5" stroke-miterlimit="10" stroke-linecap="round" stroke-linejoin="round"/>
<path id="Vector_2" d="M31.1159 23.1758L28.17 25.5284C27.2006 26.3001 25.61 26.3001 24.6406 25.5284L21.7041 23.1758" stroke="white" stroke-width="1.5" stroke-miterlimit="10" stroke-linecap="round" stroke-linejoin="round"/>
<path id="Vector_3" d="M16.999 30.2344H22.6461" stroke="white" stroke-width="1.5" stroke-miterlimit="10" stroke-linecap="round" stroke-linejoin="round"/>
<path id="Vector_4" d="M16.999 26.4688H19.8226" stroke="white" stroke-width="1.5" stroke-miterlimit="10" stroke-linecap="round" stroke-linejoin="round"/>
</g>
</g>
</svg>
