<svg width="18" height="18" viewBox="0 0 18 18" fill="none" xmlns="http://www.w3.org/2000/svg">
<g id="Icon">
<path id="Vector" d="M15.32 10.2002H2.68C1.48 10.2002 1 10.7122 1 11.9842V15.2162C1 16.4882 1.48 17.0002 2.68 17.0002H15.32C16.52 17.0002 17 16.4882 17 15.2162V11.9842C17 10.7122 16.52 10.2002 15.32 10.2002Z" stroke="#4D7B6B" stroke-width="1.5" stroke-linecap="round" stroke-linejoin="round"/>
<path id="Vector_2" d="M15.32 1H2.68C1.48 1 1 1.512 1 2.784V6.016C1 7.288 1.48 7.8 2.68 7.8H15.32C16.52 7.8 17 7.288 17 6.016V2.784C17 1.512 16.52 1 15.32 1Z" stroke="#4D7B6B" stroke-width="1.5" stroke-linecap="round" stroke-linejoin="round"/>
</g>
</svg>
