<svg width="18" height="18" viewBox="0 0 18 18" fill="none" xmlns="http://www.w3.org/2000/svg">
<g id="Icon">
<path id="Vector" d="M13.6096 1.13263L5.71842 3.11139C4.56612 3.39748 3.39794 4.56566 3.11185 5.71796L1.13309 13.6092C0.537077 15.9932 1.9993 17.4634 4.39129 16.8674L12.2825 14.8966C13.4268 14.6105 14.603 13.4343 14.8891 12.29L16.8678 4.39083C17.4638 2.00678 15.9937 0.536617 13.6096 1.13263Z" stroke="white" stroke-width="1.5" stroke-linecap="round" stroke-linejoin="round"/>
<path id="Vector_2" d="M9.00014 11.7814C10.5363 11.7814 11.7815 10.5361 11.7815 8.99996C11.7815 7.46384 10.5363 6.21857 9.00014 6.21857C7.46402 6.21857 6.21875 7.46384 6.21875 8.99996C6.21875 10.5361 7.46402 11.7814 9.00014 11.7814Z" stroke="white" stroke-width="1.5" stroke-linecap="round" stroke-linejoin="round"/>
</g>
</svg>
