<svg width="64" height="64" viewBox="0 0 64 64" fill="none" xmlns="http://www.w3.org/2000/svg">
<g id="Icon / bg">
<circle id="Icon_bg" cx="32" cy="32" r="32" fill="#EBF3ED"/>
<g id="Icon">
<path id="Vector" d="M26.2 25.6H23C21.1144 25.6 20.1716 25.6 19.5858 26.1858C19 26.7716 19 27.7144 19 29.6V40C19 41.8856 19 42.8284 19.5858 43.4142C20.1716 44 21.1144 44 23 44H40.6C42.4856 44 43.4284 44 44.0142 43.4142C44.6 42.8284 44.6 41.8856 44.6 40V29.6C44.6 27.7144 44.6 26.7716 44.0142 26.1858C43.4284 25.6 42.4856 25.6 40.6 25.6H37.4M26.2 25.6V23C26.2 21.5858 26.2 20.8787 26.6393 20.4393C27.0787 20 27.7858 20 29.2 20H34.4C35.8142 20 36.5213 20 36.9607 20.4393C37.4 20.8787 37.4 21.5858 37.4 23V25.6M26.2 25.6H37.4" stroke="#1F1F1F" stroke-width="1.5"/>
<path id="Vector_2" d="M30.0913 30.3409C30 30.5614 30 30.841 30 31.4001V32.5425C30 32.5697 30 32.5832 29.9916 32.5917C29.9831 32.6001 29.9696 32.6001 29.9424 32.6001H28.8C28.2409 32.6001 27.9613 32.6001 27.7408 32.6914C27.4467 32.8132 27.2131 33.0468 27.0913 33.3409C27 33.5614 27 33.841 27 34.4001C27 34.9592 27 35.2388 27.0913 35.4593C27.2131 35.7534 27.4467 35.987 27.7408 36.1088C27.9613 36.2001 28.2409 36.2001 28.8 36.2001H29.9424C29.9696 36.2001 29.9831 36.2001 29.9916 36.2085C30 36.217 30 36.2305 30 36.2577V37.4001C30 37.9592 30 38.2388 30.0913 38.4593C30.2131 38.7534 30.4467 38.987 30.7408 39.1088C30.9613 39.2001 31.2409 39.2001 31.8 39.2001C32.3591 39.2001 32.6387 39.2001 32.8592 39.1088C33.1533 38.987 33.3869 38.7534 33.5087 38.4593C33.6 38.2388 33.6 37.9592 33.6 37.4001V36.2577C33.6 36.2305 33.6 36.217 33.6084 36.2085C33.6169 36.2001 33.6304 36.2001 33.6576 36.2001H34.8C35.3591 36.2001 35.6387 36.2001 35.8592 36.1088C36.1533 35.987 36.3869 35.7534 36.5087 35.4593C36.6 35.2388 36.6 34.9592 36.6 34.4001C36.6 33.841 36.6 33.5614 36.5087 33.3409C36.3869 33.0468 36.1533 32.8132 35.8592 32.6914C35.6387 32.6001 35.3591 32.6001 34.8 32.6001H33.6576C33.6304 32.6001 33.6169 32.6001 33.6084 32.5917C33.6 32.5832 33.6 32.5697 33.6 32.5425V31.4001C33.6 30.841 33.6 30.5614 33.5087 30.3409C33.3869 30.0468 33.1533 29.8132 32.8592 29.6914C32.6387 29.6001 32.3591 29.6001 31.8 29.6001C31.2409 29.6001 30.9613 29.6001 30.7408 29.6914C30.4467 29.8132 30.2131 30.0468 30.0913 30.3409Z" stroke="#1F1F1F" stroke-width="1.5"/>
</g>
</g>
</svg>
