<svg width="64" height="64" viewBox="0 0 64 64" fill="none" xmlns="http://www.w3.org/2000/svg">
<g id="Icon / bg">
<circle id="Icon_bg" cx="32" cy="32" r="32" fill="white"/>
<g id="Icon">
<path id="Vector" d="M47 32C47 40.7203 40.7203 47 32 47C23.2797 47 17 40.7203 17 32C17 23.2797 23.2797 17 32 17C40.7203 17 47 23.2797 47 32Z" stroke="#1F1F1F" stroke-width="1.5"/>
<path id="Vector_2" d="M29.1894 25.3234C29.0392 25.6861 29.0392 26.1459 29.0392 27.0655V28.9792C29.0392 29.0075 29.0392 29.0216 29.0304 29.0304C29.0216 29.0392 29.0075 29.0392 28.9792 29.0392H27.0655C26.1459 29.0392 25.6861 29.0392 25.3234 29.1894C24.8398 29.3897 24.4555 29.774 24.2552 30.2576C24.105 30.6203 24.105 31.0801 24.105 31.9997C24.105 32.9193 24.105 33.3791 24.2552 33.7419C24.4555 34.2255 24.8398 34.6097 25.3234 34.81C25.6861 34.9602 26.1459 34.9602 27.0655 34.9602H28.9792C29.0075 34.9602 29.0216 34.9602 29.0304 34.969C29.0392 34.9778 29.0392 34.992 29.0392 35.0202V36.9339C29.0392 37.8535 29.0392 38.3134 29.1894 38.6761C29.3897 39.1597 29.774 39.5439 30.2576 39.7442C30.6203 39.8945 31.0801 39.8945 31.9997 39.8945C32.9193 39.8945 33.3791 39.8945 33.7419 39.7442C34.2255 39.5439 34.6097 39.1597 34.81 38.6761C34.9602 38.3134 34.9602 37.8535 34.9602 36.9339V35.0202C34.9602 34.992 34.9602 34.9778 34.969 34.969C34.9778 34.9602 34.992 34.9602 35.0202 34.9602H36.9339C37.8535 34.9602 38.3134 34.9602 38.6761 34.81C39.1597 34.6097 39.5439 34.2255 39.7442 33.7419C39.8945 33.3792 39.8945 32.9193 39.8945 31.9997C39.8945 31.0801 39.8945 30.6203 39.7442 30.2576C39.5439 29.774 39.1597 29.3897 38.6761 29.1894C38.3134 29.0392 37.8535 29.0392 36.9339 29.0392H35.0202C34.992 29.0392 34.9778 29.0392 34.969 29.0304C34.9602 29.0216 34.9602 29.0075 34.9602 28.9792V27.0655C34.9602 26.1459 34.9602 25.6861 34.81 25.3234C34.6097 24.8398 34.2255 24.4555 33.7419 24.2552C33.3791 24.105 32.9193 24.105 31.9997 24.105C31.0801 24.105 30.6203 24.105 30.2576 24.2552C29.774 24.4555 29.3897 24.8398 29.1894 25.3234Z" stroke="#1F1F1F" stroke-width="1.5"/>
</g>
</g>
</svg>
