<svg width="64" height="64" viewBox="0 0 64 64" fill="none" xmlns="http://www.w3.org/2000/svg">
<g id="Icon / bg">
<circle id="Icon_bg" cx="32" cy="32" r="32" fill="#EBF3ED"/>
<g id="Icon">
<path id="Vector" d="M44.0022 23.1279C44.0013 22.8439 43.8453 22.5692 43.6014 22.422L38.2754 19.294C37.9659 19.1122 37.584 19.1133 37.2645 19.277C33.6795 21.1138 29.3308 21.1127 25.7468 19.2736C25.4309 19.1115 25.0536 19.1084 24.7455 19.2848L19.4009 22.3453C19.157 22.4925 19.0011 22.7672 19.0001 23.0512C18.9704 31.5701 23.6441 39.6299 31.0233 43.8747C31.3139 44.0418 31.6885 44.0418 31.979 43.8747C39.3349 39.6432 44.0045 31.6198 44.0022 23.1279Z" stroke="#1F1F1F" stroke-width="1.5" stroke-miterlimit="10"/>
<path id="Vector_2" d="M29.6687 25.6772C29.5707 25.9137 29.5707 26.2135 29.5707 26.8131V28.0382C29.5707 28.0674 29.5707 28.0819 29.5617 28.091C29.5526 28.1 29.5381 28.1 29.5089 28.1H28.2838C27.6842 28.1 27.3844 28.1 27.1479 28.198C26.8326 28.3286 26.5821 28.5791 26.4515 28.8944C26.3535 29.1309 26.3535 29.4307 26.3535 30.0303C26.3535 30.6299 26.3535 30.9297 26.4515 31.1662C26.5821 31.4816 26.8326 31.7321 27.1479 31.8627C27.3844 31.9606 27.6842 31.9606 28.2838 31.9606H29.5089C29.5381 31.9606 29.5526 31.9606 29.5617 31.9697C29.5707 31.9787 29.5707 31.9933 29.5707 32.0224V33.2475C29.5707 33.8471 29.5707 34.1469 29.6687 34.3834C29.7993 34.6988 30.0498 34.9493 30.3651 35.0799C30.6016 35.1778 30.9014 35.1778 31.501 35.1778C32.1006 35.1778 32.4004 35.1778 32.6369 35.0799C32.9523 34.9493 33.2028 34.6988 33.3334 34.3834C33.4313 34.1469 33.4313 33.8471 33.4313 33.2475V32.0224C33.4313 31.9933 33.4313 31.9787 33.4404 31.9697C33.4494 31.9606 33.464 31.9606 33.4931 31.9606H34.7182C35.3178 31.9606 35.6176 31.9606 35.8541 31.8627C36.1695 31.7321 36.42 31.4816 36.5506 31.1662C36.6485 30.9297 36.6485 30.6299 36.6485 30.0303C36.6485 29.4307 36.6485 29.1309 36.5506 28.8944C36.42 28.5791 36.1695 28.3286 35.8541 28.198C35.6176 28.1 35.3178 28.1 34.7182 28.1H33.4931C33.464 28.1 33.4494 28.1 33.4404 28.091C33.4313 28.0819 33.4313 28.0674 33.4313 28.0382V26.8131C33.4313 26.2135 33.4313 25.9137 33.3334 25.6772C33.2028 25.3619 32.9523 25.1114 32.6369 24.9808C32.4004 24.8828 32.1006 24.8828 31.501 24.8828C30.9014 24.8828 30.6016 24.8828 30.3651 24.9808C30.0498 25.1114 29.7993 25.3619 29.6687 25.6772Z" stroke="#1F1F1F" stroke-width="1.5"/>
</g>
</g>
</svg>
