<svg width="64" height="64" viewBox="0 0 64 64" fill="none" xmlns="http://www.w3.org/2000/svg">
<g id="Icon / bg">
<circle id="Icon_bg" cx="32" cy="32" r="32" fill="#EBF3ED"/>
<g id="Icon">
<path id="Vector" d="M26.7933 31.9997L22.6284 36.1645C21.1908 37.6021 21.1908 39.933 22.6284 41.3706V41.3706C24.066 42.8082 26.3969 42.8082 27.8345 41.3706L31.9993 37.2058M26.7933 31.9997L31.9993 37.2058M26.7933 31.9997L31.9993 26.7937M31.9993 37.2058L37.2053 31.9997M31.9993 26.7937L36.1641 22.6289C37.6017 21.1913 39.9325 21.1913 41.3701 22.6289V22.6289C42.8077 24.0665 42.8077 26.3973 41.3701 27.8349L37.2053 31.9997M31.9993 26.7937L37.2053 31.9997" stroke="#1F1F1F" stroke-width="1.5"/>
<g id="Vector_2">
<path d="M37.8256 32.572L41.3908 36.1649C42.819 37.604 42.8145 39.9271 41.3808 41.3608C39.9393 42.8023 37.6008 42.7978 36.1648 41.3508L32.6109 37.7694C32.2731 37.429 32.2742 36.8795 32.6133 36.5404L36.584 32.5696C36.9271 32.2265 37.4838 32.2276 37.8256 32.572Z" stroke="#1F1F1F" stroke-width="1.5"/>
<path d="M27.8351 22.6492L31.389 26.2306C31.7268 26.571 31.7258 27.1205 31.3866 27.4596L27.4159 31.4303C27.0728 31.7735 26.5162 31.7724 26.1744 31.4279L22.6091 27.8351C21.181 26.3959 21.1854 24.0729 22.6191 22.6392C24.0606 21.1977 26.3992 21.2022 27.8351 22.6492Z" stroke="#1F1F1F" stroke-width="1.5"/>
</g>
<g id="Group">
<path id="Vector_3" d="M32 29.7768H32.0147V29.7915H32V29.7768Z" stroke="#1F1F1F" stroke-width="1.5" stroke-linejoin="round"/>
<path id="Vector_4" d="M32 32H32.0147V32.0147H32V32Z" stroke="#1F1F1F" stroke-width="1.5" stroke-linejoin="round"/>
<path id="Vector_5" d="M34.2085 32H34.2232V32.0147H34.2085V32Z" stroke="#1F1F1F" stroke-width="1.5" stroke-linejoin="round"/>
<path id="Vector_6" d="M29.791 32H29.8057V32.0147H29.791V32Z" stroke="#1F1F1F" stroke-width="1.5" stroke-linejoin="round"/>
<path id="Vector_7" d="M32 34.1944H32.0147V34.2091H32V34.1944Z" stroke="#1F1F1F" stroke-width="1.5" stroke-linejoin="round"/>
</g>
</g>
</g>
</svg>
