<svg width="44" height="50" viewBox="0 0 44 50" fill="none" xmlns="http://www.w3.org/2000/svg">
<g id="Icon">
<path id="Vector" d="M43.9978 15.9301C43.9028 24.8237 41.8332 32.1289 37.1001 38.641C33.6199 43.4292 29.12 47.06 23.6567 49.5977C22.4534 50.1578 21.3538 50.1224 20.1613 49.5582C11.4857 45.4653 5.62269 38.9595 2.39739 30.2407C0.41642 24.8945 -0.372081 19.3609 0.163667 13.6837C0.273842 12.5117 0.379695 11.3354 0.595723 10.18C0.841994 8.86009 1.67802 8.03984 3.09948 7.81292C9.35565 6.81988 14.981 4.432 20.0145 0.717975C21.3992 -0.304214 22.5895 -0.231349 24.1363 0.913668C28.1241 3.86365 32.5484 5.93925 37.4241 7.11342C38.5712 7.3903 39.7399 7.59016 40.8978 7.82125C42.3279 8.10646 43.218 8.92463 43.3951 10.3153C43.676 12.5137 43.8725 14.7226 44 15.9321L43.9978 15.9301ZM42.8162 15.9467C42.7168 14.9308 42.5375 12.9322 42.3236 10.9357C42.181 9.60331 41.6561 9.13906 40.3189 8.88924C38.8067 8.6061 37.2859 8.32714 35.8039 7.92118C31.2976 6.68872 27.206 4.64226 23.4817 1.90463C22.354 1.07397 21.6735 1.03025 20.6604 1.77555C15.5708 5.52288 9.91084 7.98988 3.55314 8.92671C2.39955 9.09742 1.87677 9.6845 1.70827 10.7941C0.924085 15.9946 1.07314 21.1659 2.36931 26.2748C4.94436 36.4238 10.9607 43.9559 20.777 48.5714C21.6325 48.9732 22.3778 48.9857 23.2268 48.5818C27.7785 46.4104 31.6821 43.4625 34.8318 39.6173C40.2735 32.9721 42.7384 25.3504 42.814 15.9467H42.8162Z" fill="#4D7B6B"/>
<path id="Vector_2" d="M5.81311 12.6928C11.7495 11.6102 17.0768 9.38887 22.0065 6.00378C26.8823 9.33058 32.2614 11.5998 38.2129 12.724C38.2799 13.0758 38.3793 13.4068 38.4009 13.7441C38.7379 19.1652 38.1481 24.4636 36.0462 29.5433C33.4387 35.8471 29.129 40.7374 22.9679 44.0871C22.2982 44.4514 21.7797 44.468 21.1014 44.0996C13.8666 40.1711 9.28251 34.2503 6.92565 26.6537C5.6122 22.4192 5.34649 18.0806 5.63164 13.6941C5.65109 13.3881 5.73966 13.0842 5.81311 12.6928ZM21.9655 30.3115C24.4109 30.3115 26.8585 30.3219 29.304 30.3052C30.207 30.299 30.4705 29.9763 30.3258 29.1498C30.2653 28.8105 30.194 28.469 30.0946 28.138C28.9886 24.4552 25.5451 22.0548 21.6091 22.2151C17.7357 22.3734 14.4996 25.1277 13.7629 28.8937C13.521 30.1324 13.6571 30.3031 14.9511 30.3073C17.2885 30.3135 19.6281 30.3073 21.9655 30.3073V30.3115ZM18.9627 16.8461C18.9476 18.4949 20.2891 19.8522 21.9698 19.8856C23.6354 19.9189 25.0547 18.5677 25.0698 16.9356C25.0871 15.2847 23.7456 13.9294 22.0627 13.8982C20.3928 13.8669 18.9778 15.2118 18.9627 16.844V16.8461Z" fill="#4D7B6B"/>
</g>
</svg>
