<svg width="15" height="14" viewBox="0 0 15 14" fill="none" xmlns="http://www.w3.org/2000/svg">
<g id="Icon">
<path id="Vector" d="M10.3079 4.41992C11.4801 4.41992 12.6043 4.8856 13.4332 5.7145C14.262 6.54341 14.7277 7.66765 14.7277 8.8399V13.9965H11.7812V8.8399C11.7812 8.44915 11.626 8.0744 11.3497 7.7981C11.0734 7.5218 10.6987 7.36657 10.3079 7.36657C9.9172 7.36657 9.54247 7.5218 9.26618 7.7981C8.98989 8.0744 8.83468 8.44915 8.83468 8.8399V13.9965H5.88818V8.8399C5.88818 7.66765 6.35383 6.54341 7.1827 5.7145C8.01156 4.8856 9.13574 4.41992 10.3079 4.41992Z" fill="black"/>
<path id="Vector_2" d="M2.9465 5.16016H0V14.0001H2.9465V5.16016Z" fill="black"/>
<path id="Vector_3" d="M1.47325 2.94665C2.2869 2.94665 2.9465 2.28702 2.9465 1.47333C2.9465 0.65963 2.2869 0 1.47325 0C0.659595 0 0 0.65963 0 1.47333C0 2.28702 0.659595 2.94665 1.47325 2.94665Z" fill="black"/>
</g>
</svg>
