<svg width="52" height="52" viewBox="0 0 52 52" fill="none" xmlns="http://www.w3.org/2000/svg">
<g id="Icon / bg">
<path id="Iocn_bg" d="M25.999 0.5C40.0823 0.5 51.499 11.9167 51.499 26C51.499 40.0833 40.0823 51.5 25.999 51.5C11.9158 51.5 0.499023 40.0833 0.499023 26C0.499023 11.9167 11.9158 0.5 25.999 0.5Z" stroke="white" stroke-opacity="0.12"/>
<g id="Icon">
<path id="Vector" d="M25.6257 27.433C27.3492 27.433 28.7464 26.0357 28.7464 24.3122C28.7464 22.5886 27.3492 21.1914 25.6257 21.1914C23.9021 21.1914 22.5049 22.5886 22.5049 24.3122C22.5049 26.0357 23.9021 27.433 25.6257 27.433Z" stroke="white" stroke-width="1.5"/>
<path id="Vector_2" d="M17.2418 22.4916C19.2123 13.8295 32.0455 13.8395 34.006 22.5016C35.1563 27.5829 31.9955 31.884 29.2248 34.5446C27.2143 36.4851 24.0335 36.4851 22.013 34.5446C19.2523 31.884 16.0916 27.5729 17.2418 22.4916Z" stroke="white" stroke-width="1.5"/>
</g>
</g>
</svg>
