<svg width="38" height="40" viewBox="0 0 38 40" fill="none" xmlns="http://www.w3.org/2000/svg">
<g id="Icon">
<path id="Vector" d="M37.3181 17.4206C37.3181 21.3798 37.3181 25.3407 37.3181 29.2999C37.3181 29.4661 37.3181 29.6323 37.3181 29.7985C37.3065 30.9204 36.9458 31.1964 35.877 30.8623C34.8199 30.5315 33.7728 30.1725 32.719 29.8334C32.0508 29.619 32.0408 29.619 31.6469 30.2041C29.6523 33.166 27.6611 36.1312 25.6699 39.0948C25.5768 39.2328 25.4887 39.3741 25.3906 39.507C24.8936 40.1752 24.3734 40.1636 23.8714 39.4755C23.7734 39.3408 23.6853 39.2012 23.5922 39.0633C21.6309 36.1445 19.6712 33.2258 17.7099 30.3088C17.3963 29.8423 16.9747 29.6949 16.445 29.8667C15.3912 30.2041 14.3324 30.5282 13.2836 30.8822C12.8365 31.0335 12.426 30.9936 11.9888 30.8523C8.80415 29.8185 5.61618 28.7962 2.4282 27.774C1.95449 27.6211 1.47247 27.4915 1.00042 27.3352C0.111179 27.0394 0.00313959 26.8931 0.00147746 25.964C-0.00184682 22.8907 0.00147746 19.8174 0.00147746 16.7424C0.00147746 11.5915 0.00147746 6.44216 0.00147746 1.2912C-0.000184682 0.00470516 0.313959 -0.221345 1.56555 0.180892C4.93802 1.26294 8.31216 2.34167 11.6747 3.45364C12.3678 3.68301 12.9944 3.68468 13.6892 3.45364C17.0517 2.34167 20.4275 1.27292 23.795 0.174243C24.3751 -0.0152405 24.9202 -0.0119162 25.4987 0.175905C29.0506 1.33441 32.6076 2.47464 36.1596 3.62816C37.2716 3.98885 37.3181 4.06364 37.3198 5.21052C37.3198 9.28109 37.3198 13.3517 37.3198 17.4222L37.3181 17.4206ZM11.914 29.1868V5.10746C8.47339 4.00214 5.06435 2.9068 1.58716 1.78984C1.56721 2.09235 1.54394 2.28183 1.54394 2.46965C1.54228 10.0257 1.54062 17.5801 1.54394 25.1362C1.54394 25.8775 1.55059 25.8875 2.26531 26.1202C5.21061 27.0809 8.15592 28.0366 11.1029 28.989C11.3555 29.0705 11.6215 29.117 11.9157 29.1868H11.914ZM16.4051 28.286C16.4051 28.0882 16.4118 28.0599 16.4051 28.035C16.3752 27.9286 16.3436 27.8222 16.307 27.7175C15.4028 25.1545 15.6904 22.7012 17.0384 20.3692C18.3764 18.0572 20.3793 16.6493 23.0021 16.1474C23.918 15.9729 23.9263 16.0028 23.9263 15.052C23.9263 10.9266 23.9263 6.80118 23.9263 2.67576C23.9263 2.40483 23.9263 2.1339 23.9263 1.74496C20.356 2.8935 16.8954 4.00713 13.4498 5.11578V29.2567C14.487 28.9159 15.4477 28.6018 16.4051 28.286ZM32.7888 28.2178C33.7827 28.6084 34.7219 28.9242 35.7092 29.1702C35.7424 28.9857 35.7707 28.9059 35.7707 28.8262C35.774 21.1338 35.7757 13.4398 35.7723 5.74739C35.7723 5.09417 35.7457 5.08087 35.0343 4.8515C32.0342 3.88247 29.0357 2.91511 26.0339 1.95107C25.8394 1.88791 25.6316 1.86962 25.4023 1.82474V15.9878C28.3027 16.3551 30.6097 17.6998 32.1339 20.1897C33.673 22.7045 33.8908 25.3839 32.7888 28.2195V28.2178ZM24.6294 37.8034C24.7956 37.6122 24.897 37.5191 24.9718 37.4078C26.9281 34.4841 28.9177 31.5836 30.8241 28.6284C32.6492 25.8027 32.2286 22.0928 29.8468 19.6827C27.8389 17.6516 25.3707 17.0749 22.6614 17.7846C19.9704 18.4893 18.295 20.3426 17.5669 22.9887C16.9686 25.1661 17.4306 27.2039 18.6955 29.0722C20.5272 31.7781 22.3423 34.4957 24.1673 37.205C24.2886 37.3845 24.4299 37.549 24.626 37.8017L24.6294 37.8034Z" fill="#4D7B6B"/>
<path id="Vector_2" d="M19.623 24.561C19.6363 21.9099 21.9118 19.5629 24.7025 19.6012C27.1758 19.6344 29.6225 21.5924 29.6358 24.6125C29.6491 27.5096 27.337 29.6438 24.6078 29.6172C21.7805 29.5889 19.6663 27.4365 19.623 24.561ZM24.7075 21.1652C22.5866 21.0073 21.1555 22.962 21.1456 24.5294C21.1323 26.4941 22.7595 28.0731 24.5529 28.103C26.476 28.1346 28.085 26.5938 28.1033 24.689C28.1232 22.6944 26.6688 21.1852 24.7075 21.1669V21.1652Z" fill="#4D7B6B"/>
</g>
</svg>
