<svg width="52" height="52" viewBox="0 0 52 52" fill="none" xmlns="http://www.w3.org/2000/svg">
<g id="Icon / bg">
<path id="bg" d="M26 0.5C40.0833 0.5 51.5 11.9167 51.5 26C51.5 40.0833 40.0833 51.5 26 51.5C11.9167 51.5 0.5 40.0833 0.5 26C0.5 11.9167 11.9167 0.5 26 0.5Z" stroke="#1F1F1F" stroke-opacity="0.12"/>
<g id="Icon">
<path id="Vector" d="M25.6286 27.433C27.3522 27.433 28.7494 26.0357 28.7494 24.3122C28.7494 22.5886 27.3522 21.1914 25.6286 21.1914C23.905 21.1914 22.5078 22.5886 22.5078 24.3122C22.5078 26.0357 23.905 27.433 25.6286 27.433Z" stroke="#1F1F1F" stroke-width="1.5"/>
<path id="Vector_2" d="M17.2428 22.4916C19.2133 13.8295 32.0465 13.8395 34.007 22.5016C35.1573 27.5829 31.9965 31.884 29.2258 34.5446C27.2153 36.4851 24.0345 36.4851 22.014 34.5446C19.2533 31.884 16.0925 27.5729 17.2428 22.4916Z" stroke="#1F1F1F" stroke-width="1.5"/>
</g>
</g>
</svg>
