<svg width="70" height="70" viewBox="0 0 70 70" fill="none" xmlns="http://www.w3.org/2000/svg">
<path id="Icon" d="M35.0154 69.9297C38.172 69.9297 41.3235 69.9041 44.4801 69.9399C45.9023 69.9553 46.4344 69.3362 46.4242 67.9293C46.3883 61.8106 46.4037 55.6867 46.4242 49.568C46.4344 46.6467 46.5572 46.5137 49.4375 46.5035C55.4028 46.483 61.3731 46.4574 67.3384 46.5342C69.3081 46.5597 70.0346 45.8537 69.9987 43.838C69.8913 37.9597 69.9066 32.0712 69.9936 26.1929C70.0243 24.2693 69.4974 23.3535 67.41 23.4354C64.4325 23.553 61.4448 23.4456 58.4621 23.4661C46.1735 23.5581 36.0489 27.6663 29.4083 38.676C27.0652 42.559 24.3281 46.2732 24.016 50.9186C23.6272 56.6894 23.6784 62.4859 23.53 68.2721C23.4942 69.7097 24.4202 69.9246 25.5508 69.9246C28.7074 69.9246 31.8589 69.9246 35.0154 69.9246V69.9297ZM11.8552 23.4609C8.78564 23.4609 5.71603 23.553 2.65154 23.4302C0.625594 23.3484 -0.0241398 24.1363 0.00144025 26.111C0.0884125 31.9893 0.103761 37.8779 0.00144025 43.7562C-0.0343718 45.8384 0.589784 46.6365 2.75897 46.5393C8.52984 46.2835 14.3109 46.1146 20.0869 46.1044C21.7701 46.1044 22.3533 45.47 23.0082 44.0427C24.5634 40.6456 25.868 36.9007 28.2725 34.179C32.7337 29.1397 38.0237 24.8883 44.6489 22.7856C46.0302 22.3456 46.4446 21.4913 46.4344 20.1151C46.3883 14.2317 46.3781 8.35335 46.4344 2.46994C46.4497 0.699796 45.7233 0.0500624 43.9992 0.0654104C38.0339 0.116571 32.0635 0.137034 26.0982 0.0602943C24.0825 0.0347142 23.4532 0.82258 23.4788 2.78713C23.5709 8.83937 23.4584 14.8916 23.5402 20.9439C23.5658 22.7907 23.003 23.5684 21.059 23.4916C17.9945 23.3688 14.9249 23.4609 11.8552 23.4609Z" fill="#4D7B6B"/>
</svg>
