<svg width="62" height="62" viewBox="0 0 62 62" fill="none" xmlns="http://www.w3.org/2000/svg">
<g id="Icon / bg">
<path id="Icon_bg" d="M31 0.5C47.8447 0.5 61.5 14.1553 61.5 31C61.5 47.8447 47.8447 61.5 31 61.5C14.1553 61.5 0.5 47.8447 0.5 31C0.5 14.1553 14.1553 0.5 31 0.5Z" stroke="#1F1F1F" stroke-opacity="0.12"/>
<g id="Icon">
<path id="Vector" d="M40.9696 37.33C40.9696 37.69 40.8896 38.06 40.7196 38.42C40.5496 38.78 40.3296 39.12 40.0396 39.44C39.5496 39.98 39.0096 40.37 38.3996 40.62C37.7996 40.87 37.1497 41 36.4497 41C35.4297 41 34.3397 40.76 33.1897 40.27C32.0398 39.78 30.8898 39.12 29.7498 38.29C28.5998 37.45 27.5099 36.52 26.4699 35.49C25.4399 34.45 24.5099 33.36 23.6799 32.22C22.86 31.08 22.2 29.94 21.72 28.81C21.24 27.67 21 26.58 21 25.54C21 24.86 21.12 24.21 21.36 23.61C21.6 23 21.98 22.44 22.51 21.94C23.15 21.31 23.8499 21 24.5899 21C24.8699 21 25.1499 21.06 25.3999 21.18C25.6599 21.3 25.8899 21.48 26.0699 21.74L28.3898 25.01C28.5698 25.26 28.6998 25.49 28.7898 25.71C28.8798 25.92 28.9298 26.13 28.9298 26.32C28.9298 26.56 28.8598 26.8 28.7198 27.03C28.5898 27.26 28.3998 27.5 28.1598 27.74L27.3999 28.53C27.2899 28.64 27.2399 28.77 27.2399 28.93C27.2399 29.01 27.2499 29.08 27.2699 29.16C27.2999 29.24 27.3299 29.3 27.3499 29.36C27.5299 29.69 27.8399 30.12 28.2798 30.64C28.7298 31.16 29.2098 31.69 29.7298 32.22C30.2698 32.75 30.7898 33.24 31.3198 33.69C31.8398 34.13 32.2698 34.43 32.6098 34.61C32.6598 34.63 32.7198 34.66 32.7898 34.69C32.8698 34.72 32.9497 34.73 33.0397 34.73C33.2097 34.73 33.3397 34.67 33.4497 34.56L34.2097 33.81C34.4597 33.56 34.6997 33.37 34.9297 33.25C35.1597 33.11 35.3897 33.04 35.6397 33.04C35.8297 33.04 36.0297 33.08 36.2497 33.17C36.4697 33.26 36.6997 33.39 36.9497 33.56L40.2596 35.91C40.5196 36.09 40.6996 36.3 40.8096 36.55C40.9096 36.8 40.9696 37.05 40.9696 37.33Z" stroke="#1F1F1F" stroke-width="1.5" stroke-miterlimit="10"/>
<path id="Vector_2" d="M37.4999 28C37.4999 27.4 37.0299 26.48 36.33 25.73C35.69 25.04 34.84 24.5 34 24.5" stroke="#1F1F1F" stroke-width="1.5" stroke-linecap="round" stroke-linejoin="round"/>
<path id="Vector_3" d="M40.9999 28C40.9999 24.13 37.8699 21 34 21" stroke="#1F1F1F" stroke-width="1.5" stroke-linecap="round" stroke-linejoin="round"/>
</g>
</g>
</svg>
