<svg width="80" height="80" viewBox="0 0 80 80" fill="none" xmlns="http://www.w3.org/2000/svg">
<path id="Icon" d="M40.0176 79.9198C43.6252 79.9198 47.2268 79.8906 50.8344 79.9315C52.4598 79.949 53.0679 79.2416 53.0562 77.6337C53.0152 70.6408 53.0328 63.6421 53.0562 56.6492C53.0679 53.3107 53.2082 53.1587 56.5 53.147C63.3174 53.1236 70.1407 53.0943 76.9582 53.182C79.2092 53.2113 80.0395 52.4044 79.9986 50.1007C79.8758 43.3827 79.8933 36.6529 79.9927 29.9349C80.0278 27.7365 79.4256 26.6899 77.04 26.7834C73.6372 26.9179 70.2226 26.7951 66.8139 26.8185C52.7697 26.9237 41.1987 31.6188 33.6095 44.2012C30.9316 48.639 27.8035 52.8839 27.4469 58.1928C27.0025 64.7881 27.061 71.4126 26.8914 78.0254C26.8505 79.6684 27.9088 79.9139 29.2009 79.9139C32.8085 79.9139 36.4101 79.9139 40.0176 79.9139V79.9198ZM13.5489 26.8126C10.0407 26.8126 6.5326 26.9179 3.03033 26.7776C0.714965 26.684 -0.0275884 27.5844 0.001646 29.8413C0.101043 36.5594 0.118583 43.2891 0.001646 50.0072C-0.0392821 52.3869 0.674038 53.299 3.15311 53.1879C9.74838 52.8955 16.3554 52.7026 22.9565 52.6909C24.8801 52.6909 25.5466 51.9659 26.295 50.3346C28.0725 46.4523 29.5634 42.1724 32.3115 39.0618C37.4099 33.3027 43.4556 28.4439 51.0273 26.0409C52.606 25.538 53.0796 24.5616 53.0679 22.9888C53.0152 16.2649 53.0036 9.54683 53.0679 2.82293C53.0854 0.799907 52.2551 0.0573536 50.2848 0.0748943C43.4673 0.133363 36.644 0.15675 29.8265 0.0690473C27.5229 0.0398129 26.8037 0.940231 26.8329 3.18543C26.9382 10.1023 26.8096 17.0191 26.9031 23.936C26.9323 26.0467 26.2892 26.9354 24.0674 26.8477C20.5651 26.7074 17.057 26.8126 13.5489 26.8126Z" fill="#C5ED82"/>
</svg>
