<svg width="70" height="74" viewBox="0 0 70 74" fill="none" xmlns="http://www.w3.org/2000/svg">
<g id="Icon">
<g id="Shadow" opacity="0.6" filter="url(#filter0_f_73_127)">
<ellipse cx="35" cy="65.5" rx="30" ry="3.5" fill="#1F1F1F" fill-opacity="0.4"/>
</g>
<g id="Icon_2">
<path id="Vector" d="M21.7041 46.1344C17.9415 45.9723 15.4962 43.1477 15.0087 40.0809C14.9284 39.5711 14.9207 39.0436 14.9399 38.526C14.9551 38.1138 14.871 37.8033 14.6014 37.4673C12.7297 35.1408 12.4907 32.4159 13.9265 29.7534C14.156 29.3295 14.1464 29.0111 13.9265 28.5951C12.3588 25.5966 12.8463 22.3462 15.0049 20.1526C15.2515 19.9006 15.3662 19.676 15.2821 19.3009C14.4351 15.525 15.3987 13.0716 18.5667 10.8662C18.6183 10.8311 18.6527 10.7725 18.7426 10.6709C18.6661 9.5692 18.8439 8.45383 19.3716 7.4244C20.0446 6.11173 21.033 5.11747 22.4134 4.61936C22.9373 4.43183 23.247 4.13297 23.5128 3.64853C24.4917 1.8651 25.9428 0.671589 27.9101 0.185199C30.0323 -0.340258 31.8754 0.280915 33.4871 1.68734C34.0339 2.16397 34.4775 2.7656 35.0204 3.36724C35.1543 3.19535 35.2843 3.02931 35.4124 2.86132C36.7086 1.15798 38.3682 0.0640901 40.5114 0.0230692C43.1689 -0.0257651 45.1171 1.31034 46.4459 3.60165C46.7403 4.11148 47.0787 4.40644 47.6083 4.63889C49.8969 5.64097 51.1339 7.44003 51.2295 9.99308C51.2486 10.5342 51.3881 10.8448 51.8489 11.1612C54.0151 12.6497 55.08 14.773 55.0532 17.4374C55.0475 17.9824 54.9538 18.5469 54.7817 19.0606C54.6097 19.5705 54.7148 19.8752 55.0743 20.2542C56.4527 21.7036 57.0932 23.4635 56.9594 25.4853C56.8848 26.5968 56.6019 27.6633 56.0436 28.6302C55.8275 29.0033 55.8218 29.3022 56.0379 29.7026C57.5196 32.4452 57.2882 35.0666 55.3553 37.4927C55.0207 37.9126 55.0513 38.3111 55.0628 38.7604C55.1335 41.7471 53.3975 44.5326 50.7247 45.6031C49.9676 45.9058 49.1359 46.0211 48.2584 46.2438C45.0751 51.2542 38.3643 51.3772 35.0109 45.857C34.8101 46.1324 34.6342 46.3766 34.4564 46.6208C32.8772 48.7929 30.8009 50.0431 28.1166 49.9825C25.7248 49.9278 23.7728 48.873 22.2796 46.9548C22.0827 46.7009 21.9106 46.4274 21.7041 46.1305V46.1344ZM15.6033 30.6715C14.8557 32.0174 14.7142 33.3535 15.2209 34.7521C15.4905 35.4983 15.9073 36.1448 16.4923 36.6703C16.9435 37.0766 17.1098 37.5435 16.9359 38.1529C16.7236 38.8952 16.8498 39.6394 17.0391 40.3661C17.6318 42.6398 19.5991 44.1927 21.8953 44.1126C22.6792 44.0853 23.0291 44.4662 23.3636 45.0835C25.0767 48.2382 29.7016 49.459 32.6115 45.8785C34.0817 44.0716 34.5023 41.9678 33.6228 39.7586C32.7663 37.606 31.1584 36.3421 28.8508 36.0941C28.5353 36.0608 28.2084 36.0276 27.9159 35.9124C27.522 35.76 27.3251 35.4123 27.371 34.9806C27.4149 34.5587 27.6386 34.2501 28.0707 34.1661C28.2562 34.1309 28.4493 34.1231 28.6405 34.129C30.3593 34.1719 31.8639 34.7853 33.1793 35.9065C33.4393 36.1273 33.6936 36.3519 34.0454 36.6566C34.0454 36.3656 34.0454 36.2073 34.0454 36.0472C34.0454 33.9649 34.0454 31.8806 34.0454 29.7983C34.0454 26.0557 34.0492 22.3111 34.0454 18.5684C34.0454 17.1053 33.5425 16.4861 32.1736 16.2107C32.1105 16.1989 32.0455 16.2048 31.9844 16.1892C31.5026 16.0564 31.1795 15.6618 31.189 15.2203C31.1986 14.7417 31.5905 14.312 32.1105 14.2768C32.3897 14.2573 32.6803 14.3081 32.9575 14.3686C33.294 14.4429 33.6228 14.5601 33.9517 14.6577C33.988 14.5659 34.032 14.5073 34.032 14.4468C34.0358 11.8761 34.1486 9.29768 34.0014 6.73486C33.8829 4.68382 32.7721 3.14261 30.8774 2.30461C28.9081 1.43536 26.4093 2.36126 25.5394 4.25993C25.9294 4.39862 26.3481 4.48457 26.6999 4.68772C27.3041 5.03542 27.9044 5.41047 28.434 5.8617C28.9234 6.28168 28.9234 6.82667 28.5659 7.24078C28.2256 7.63341 27.7858 7.67834 27.2754 7.35017C27.088 7.22906 26.9293 7.06302 26.7515 6.92824C24.6484 5.34601 21.6276 6.35395 20.8591 8.90701C20.7444 9.28792 20.536 9.68836 20.7921 10.124C21.0369 10.1122 21.2567 10.1005 21.4766 10.0927C25.092 9.95206 28.174 13.1654 28.2982 16.9354C28.3231 17.6737 27.9197 18.1543 27.3538 18.1562C26.8223 18.1562 26.4934 17.7402 26.3883 17.0389C26.3022 16.4646 26.2219 15.8727 26.0116 15.3395C25.3252 13.601 24.1246 12.4094 22.2643 12.1066C20.3237 11.7902 18.8344 12.6458 17.7733 14.2436C16.7236 15.8278 16.498 17.5312 17.3488 19.3204C17.7675 20.1975 17.6758 20.4553 16.9301 21.0668C16.8804 21.1078 16.8231 21.1371 16.7734 21.1781C15.3241 22.3931 14.6684 23.9675 15.0068 25.8447C15.3815 27.9172 16.5822 29.3588 18.5801 30.023C18.9376 30.1421 19.3372 30.1265 19.71 30.2027C20.3562 30.3355 20.6832 30.7066 20.6468 31.2243C20.6067 31.7849 20.1842 32.1658 19.4844 32.0838C18.735 31.9978 17.9817 31.8318 17.2685 31.5818C16.7103 31.3864 16.2113 31.0114 15.6052 30.6734L15.6033 30.6715ZM49.2736 10.0615C49.2927 8.56322 48.5796 7.29157 47.289 6.63328C45.9297 5.93984 44.5856 6.02383 43.3085 6.88331C43.0963 7.02591 42.9204 7.22515 42.7062 7.36384C42.2206 7.67443 41.7388 7.61388 41.4195 7.22906C41.0907 6.83253 41.0658 6.30121 41.5132 5.92421C42.0925 5.43391 42.7502 5.03347 43.4041 4.6467C43.7406 4.44746 44.1402 4.36346 44.5245 4.22087C43.2282 2.23819 41.1041 1.45098 39.1922 2.27531C37.1866 3.14065 36.0739 4.75804 35.9783 6.94973C35.8731 9.38558 35.9515 11.8312 35.9554 14.2729C35.9554 14.394 35.9955 14.5132 36.0242 14.6675C36.3932 14.5562 36.722 14.437 37.0585 14.3647C37.3357 14.3042 37.6263 14.2593 37.9074 14.2807C38.3835 14.3159 38.7582 14.7066 38.806 15.1461C38.8519 15.5739 38.5421 16.0349 38.0871 16.1736C37.9074 16.2283 37.7047 16.2048 37.5212 16.2478C36.615 16.4607 36.0318 17.1542 35.9592 18.1015C35.9439 18.2949 35.9515 18.4922 35.9515 18.6875C35.9515 24.3523 35.9515 30.0152 35.9515 35.6799V36.6703C36.288 36.3734 36.5213 36.1644 36.7584 35.9593C38.0642 34.8302 39.5593 34.1934 41.28 34.1348C42.1422 34.1055 42.5896 34.3907 42.6317 35.0041C42.6737 35.6018 42.2742 35.9495 41.41 36.0745C41.0027 36.1331 40.584 36.1566 40.1883 36.2679C36.9782 37.1801 35.2212 40.5438 36.246 43.7825C37.07 46.3883 39.3853 48.1737 41.8956 48.0389C43.9757 47.9256 45.6028 46.9372 46.6333 45.0639C47.0042 44.392 47.4152 44.054 48.2144 44.1263C50.8566 44.3685 53.6365 41.3877 53.0725 38.231C52.9463 37.5239 53.128 37.0844 53.5658 36.5785C54.0399 36.0276 54.4854 35.4006 54.7569 34.7286C55.319 33.3378 55.1603 31.9685 54.365 30.691C53.7398 31.0348 53.193 31.361 52.6251 31.6423C51.8948 32.0037 51.1071 32.1268 50.3041 32.0896C49.7286 32.0642 49.373 31.7068 49.3481 31.2028C49.3252 30.7457 49.6082 30.3804 50.1186 30.2398C50.3328 30.1812 50.5565 30.1519 50.7763 30.1206C52.7704 29.8472 54.3172 28.4075 54.8869 26.2959C55.4069 24.366 54.7741 22.4283 53.2102 21.1625C52.258 20.3909 52.2294 20.3206 52.7437 19.1271C53.3172 17.7968 53.3153 16.4607 52.7245 15.1598C51.9923 13.5463 50.8528 12.3899 49.0461 12.0969C46.5186 11.6847 44.4862 13.6049 43.8725 15.6286C43.7138 16.1501 43.6832 16.7107 43.5895 17.2518C43.4959 17.7929 43.0924 18.1679 42.624 18.1562C42.1556 18.1445 41.7637 17.748 41.7006 17.2088C41.6815 17.0487 41.6872 16.8826 41.7006 16.7205C41.9377 13.7748 43.8343 11.0069 47.0252 10.2255C47.723 10.0556 48.4725 10.1142 49.2774 10.0634L49.2736 10.0615Z" fill="#1F1F1F"/>
<path id="Vector_2" d="M26.2257 23.948C23.746 23.3639 22.0272 21.9907 21.1344 19.6701C20.8724 18.9884 20.7539 18.2305 20.6793 17.494C20.6029 16.7459 21.0005 16.2615 21.5607 16.2243C22.1133 16.1872 22.5205 16.6287 22.5702 17.3885C22.7193 19.715 24.2144 21.5063 26.5431 21.9868C27.7954 22.2446 28.9387 21.9399 29.996 21.2425C30.2101 21.1019 30.3994 20.9202 30.6174 20.7894C31.145 20.4768 31.6536 20.5823 31.9576 21.0453C32.2367 21.4711 32.1755 21.9458 31.7243 22.3462C30.9213 23.0592 30.0036 23.5983 28.9578 23.7995C28.3996 23.907 28.1816 24.1589 28 24.6824C27.369 26.4913 26.0498 27.5148 24.2278 27.8801C23.9812 27.9289 23.7173 27.9407 23.4669 27.9133C22.9966 27.8645 22.6218 27.4679 22.5817 27.0304C22.5434 26.6046 22.8685 26.1397 23.3197 26.0166C23.5013 25.9658 23.702 25.9951 23.8875 25.958C24.9849 25.7334 25.7975 25.1571 26.2257 23.948Z" fill="#1F1F1F"/>
<path id="Vector_3" d="M21.9046 38.0299C24.4627 38.0728 26.9788 40.0125 27.8755 42.7062C28.1068 43.4016 28.2196 44.1537 28.2808 44.8881C28.342 45.6109 27.8984 46.0953 27.3344 46.0875C26.8067 46.0797 26.4511 45.6675 26.3918 44.9604C26.2274 43.0168 25.3651 41.5069 23.6922 40.5458C23.2353 40.2841 22.6885 40.1825 22.178 40.0223C22.0289 39.9754 21.8626 39.9832 21.7077 39.952C20.9812 39.8113 20.637 39.4675 20.6657 38.9225C20.6963 38.3326 21.1341 38.0181 21.9027 38.0299H21.9046Z" fill="#1F1F1F"/>
<path id="Vector_4" d="M30.2047 31.2398C30.155 31.6031 29.9753 31.9313 29.5528 32.0446C29.2774 32.1188 28.9926 32.1735 28.7096 32.195C26.5645 32.3552 24.9375 33.4139 23.7119 35.1778C23.5838 35.3634 23.4653 35.5587 23.3123 35.7209C22.9281 36.1311 22.5266 36.1916 22.1174 35.9299C21.6949 35.6603 21.5439 35.1583 21.7943 34.6602C22.2799 33.6933 22.9759 32.8982 23.7922 32.2087C25.316 30.9214 27.0597 30.2456 29.0385 30.2182C29.7822 30.2084 30.2238 30.5835 30.2066 31.2379L30.2047 31.2398Z" fill="#1F1F1F"/>
<path id="Vector_5" d="M30.2083 8.15676C30.7628 8.15286 31.1853 8.58065 31.1605 9.12368C31.1375 9.63156 30.7398 10.0047 30.2217 10.0086C29.6673 10.0125 29.2447 9.58468 29.2696 9.04164C29.2925 8.53377 29.6883 8.16067 30.2083 8.15676Z" fill="#1F1F1F"/>
<path id="Vector_6" d="M43.7904 23.9519C44.1575 25.1493 44.9815 25.708 46.0655 25.9541C46.251 25.9971 46.4517 25.9639 46.6353 26.0088C47.0999 26.1241 47.4306 26.5577 47.4115 26.9914C47.3924 27.468 46.9947 27.8938 46.4709 27.9173C45.5531 27.9583 44.7157 27.6594 43.9414 27.1769C42.9492 26.5597 42.2743 25.6631 41.9397 24.5399C41.8058 24.0926 41.5974 23.9031 41.1711 23.8269C40.1138 23.6374 39.1999 23.1159 38.374 22.4381C37.8196 21.9829 37.7259 21.4672 38.0643 21.0004C38.4027 20.5374 38.8883 20.5042 39.4982 20.8676C40.0718 21.2094 40.6281 21.6313 41.2495 21.8306C44.1326 22.7565 47.0903 20.7093 47.4115 17.6171C47.4287 17.455 47.4115 17.289 47.4364 17.1308C47.5243 16.5897 47.9296 16.2127 48.3961 16.2244C48.8645 16.2361 49.3253 16.6307 49.3081 17.1679C49.2871 17.8418 49.2182 18.5372 49.0232 19.1779C48.2833 21.5981 46.6601 23.1178 44.2875 23.8191C44.1422 23.8621 43.993 23.8992 43.7923 23.9519H43.7904Z" fill="#1F1F1F"/>
<path id="Vector_7" d="M48.1529 38.0298C48.2083 38.0337 48.3995 38.0337 48.585 38.0649C49.0171 38.1392 49.2427 38.4361 49.3134 38.8541C49.3841 39.2721 49.1318 39.6882 48.7131 39.8425C48.5066 39.9187 48.281 39.9519 48.063 39.9851C45.5776 40.368 43.832 42.2471 43.6045 44.7943C43.593 44.9232 43.6045 45.0561 43.5835 45.183C43.4917 45.7222 43.0902 46.0972 42.6256 46.0874C42.1591 46.0777 41.7155 45.6851 41.7098 45.1498C41.7041 44.6048 41.771 44.0501 41.8838 43.5149C42.5166 40.491 45.1703 38.1314 48.1548 38.0298H48.1529Z" fill="#1F1F1F"/>
<path id="Vector_8" d="M41.3449 30.2397C44.2319 30.48 46.4439 31.8649 48.0212 34.3301C48.1245 34.4922 48.2105 34.67 48.2774 34.8497C48.438 35.2794 48.2545 35.6193 47.9371 35.8732C47.6102 36.1369 47.2221 36.1936 46.8856 35.9006C46.6485 35.6935 46.4573 35.4259 46.2757 35.1642C45.0425 33.4061 43.4155 32.3494 41.2704 32.1911C40.9874 32.1696 40.6987 32.1228 40.4291 32.0349C39.9894 31.8923 39.7504 31.5016 39.7886 31.0719C39.8288 30.6343 40.1213 30.3081 40.5859 30.2436C40.8345 30.2085 41.0926 30.2378 41.3449 30.2378V30.2397Z" fill="#1F1F1F"/>
<path id="Vector_9" d="M39.731 10.0086C39.2186 9.98907 38.8286 9.59058 38.8267 9.08661C38.8248 8.54748 39.2645 8.13532 39.8189 8.15681C40.3313 8.17634 40.7213 8.57483 40.7233 9.0788C40.7252 9.61793 40.2854 10.0301 39.731 10.0086Z" fill="#1F1F1F"/>
</g>
</g>
<defs>
<filter id="filter0_f_73_127" x="0" y="57" width="70" height="17" filterUnits="userSpaceOnUse" color-interpolation-filters="sRGB">
<feFlood flood-opacity="0" result="BackgroundImageFix"/>
<feBlend mode="normal" in="SourceGraphic" in2="BackgroundImageFix" result="shape"/>
<feGaussianBlur stdDeviation="2.5" result="effect1_foregroundBlur_73_127"/>
</filter>
</defs>
</svg>
