<svg width="40" height="40" viewBox="0 0 40 40" fill="none" xmlns="http://www.w3.org/2000/svg">
<g id="Icon">
<path id="Vector" d="M17.3757 34.3591C17.4057 31.2685 17.1689 28.2013 16.5385 25.1708C16.4885 24.9272 16.4351 24.6836 16.3701 24.4433C16.1349 23.5772 15.5563 23.0415 14.8408 23.0215C14.1587 23.0031 13.3566 23.6306 13.1614 24.4199C12.9496 25.2793 12.7862 26.1537 12.6445 27.0282C12.0958 30.4158 12.0941 33.8334 12.1325 37.2527C12.1441 38.3074 11.7472 39.1551 10.8133 39.6808C9.66595 40.3249 8.32512 39.9628 7.53464 38.8064C6.43062 37.1893 5.64347 35.4171 5.03309 33.5631C3.81401 29.8584 3.36206 26.0436 3.47046 22.157C3.49881 21.1391 3.35372 20.1695 2.96682 19.23C1.60264 15.9075 0.605359 12.4749 0.095044 8.92037C-0.585376 4.17106 2.48485 0.940323 6.19214 0.157671C7.70974 -0.162733 9.17065 0.024169 10.6049 0.546494C11.7773 0.973698 12.9496 1.39923 14.107 1.86315C14.5756 2.05005 14.9859 2.0584 15.4612 1.8715C16.7503 1.36419 18.0478 0.87691 19.3603 0.431349C23.4211 -0.947054 27.8689 1.21233 29.233 5.17566C29.8184 6.8778 29.7 8.5716 29.2347 10.2554C28.4909 12.9521 27.6987 15.6355 26.9266 18.3256C26.9116 18.379 26.8732 18.424 26.8566 18.4757C26.6831 19.0248 26.7582 19.1065 27.3502 18.983C27.7571 18.8979 28.169 18.8195 28.5609 18.6877C29.7333 18.2905 30.879 18.3773 32.0648 18.6827C34.3712 19.2751 36.6993 19.7824 39.0174 20.3331C39.8829 20.5383 39.9863 20.6635 39.9913 21.5029C40.0047 23.7791 40.068 26.0586 39.4844 28.2931C38.2019 33.206 35.4018 36.9807 31.0792 39.6407C30.5088 39.9912 30.0469 39.9962 29.4765 39.6441C27.6387 38.5076 26.021 37.1292 24.6552 35.4538C24.1849 34.8781 24.1983 34.8931 23.8697 35.5406C23.3294 36.6036 22.8057 37.6783 22.1853 38.6929C21.4866 39.836 20.3475 40.2331 19.1818 39.8694C17.9961 39.5006 17.3757 38.5827 17.374 37.1943C17.374 36.2498 17.374 35.3036 17.374 34.3591H17.3757ZM18.9767 34.551C18.9767 35.5239 18.9734 36.4968 18.9784 37.4697C18.9817 37.9102 19.2135 38.2206 19.6204 38.3424C20.009 38.4592 20.4009 38.4125 20.6894 38.0771C20.8328 37.9102 20.9696 37.7267 21.0663 37.5297C21.665 36.3115 22.2521 35.0883 22.8441 33.8668C23.0525 33.4363 22.9925 33.0625 22.774 32.6202C22.2837 31.629 21.8301 30.6127 21.4632 29.5697C20.5126 26.8763 20.486 24.0695 20.5527 21.2592C20.5643 20.7386 20.8829 20.4699 21.3732 20.3598C22.3454 20.1412 23.3127 19.8975 24.2883 19.6973C24.6585 19.6205 24.852 19.447 24.9837 19.0915C26.1845 15.8658 27.1551 12.575 27.8638 9.20573C28.1023 8.07264 28.1357 6.9529 27.7821 5.83649C26.7332 2.51564 23.0159 0.761765 19.6321 1.99665C17.786 2.67084 15.9482 3.37506 14.0853 4.00084C12.4827 4.53819 10.9117 4.28954 9.39745 3.59366C9.32741 3.56196 9.27238 3.49354 9.21067 3.44348C9.29405 3.4101 9.3741 3.35503 9.46082 3.34836C10.2863 3.27159 11.1118 3.20985 11.9374 3.12641C12.0241 3.11807 12.0991 2.99458 12.1808 2.92616C12.1008 2.86775 12.0274 2.78598 11.9374 2.75427C10.9201 2.39716 9.91777 1.96828 8.87213 1.72298C8.18837 1.56277 7.4179 1.54609 6.72747 1.67792C3.54884 2.27534 1.04063 4.7618 1.68769 8.95208C2.20134 12.2779 3.12525 15.4987 4.42438 18.6059C4.85965 19.6489 5.04143 20.7252 5.00641 21.8533C4.92469 24.4716 5.13649 27.0682 5.6368 29.6398C6.14878 32.2681 6.97762 34.7863 8.33179 37.1125C8.52691 37.448 8.70536 37.8218 8.98887 38.0671C9.209 38.2557 9.61425 38.3992 9.87108 38.3257C10.1279 38.2523 10.3314 37.9052 10.5031 37.6432C10.5815 37.5231 10.5298 37.3178 10.5348 37.1509C10.5865 34.9849 10.6165 32.8188 10.6933 30.6527C10.77 28.485 11.0952 26.3457 11.5655 24.2313C11.7789 23.2701 12.2926 22.5058 13.1348 21.9651C13.7735 21.5563 14.4606 21.4462 15.2027 21.4996C15.8031 21.5429 15.8414 21.4595 15.5563 20.9188C15.1477 20.1462 14.5039 19.7257 13.6384 19.6389C13.4966 19.6239 13.3566 19.5888 13.2165 19.5638C13.3649 19.4987 13.51 19.3969 13.6651 19.3752C14.8241 19.2133 15.7214 19.6856 16.4285 20.57C17.1372 21.4545 17.5441 22.4858 17.8093 23.5705C18.6915 27.1767 18.9667 30.8513 18.9767 34.551ZM38.3903 23.8725C38.3903 23.4286 38.362 22.9814 38.397 22.5392C38.4387 22.0069 38.2569 21.7549 37.7049 21.6347C35.4052 21.1341 33.1171 20.5817 30.8223 20.0594C30.5572 19.9993 30.2603 19.9409 30.0035 19.9993C27.5453 20.55 25.0905 21.1274 22.6356 21.6948C22.2937 21.7732 22.1236 21.9501 22.1437 22.3339C22.2087 23.5521 22.1603 24.782 22.3104 25.9885C22.9291 30.9865 25.3907 34.8831 29.5032 37.7517C30.2653 38.2824 30.282 38.284 31.0191 37.77C35.8538 34.4025 38.2686 29.7449 38.3887 23.8725H38.3903Z" fill="#1F1F1F"/>
<path id="Vector_2" d="M23.9979 24.702C23.9979 24.4801 24.0046 24.2565 23.9979 24.0345C23.9796 23.5055 24.2564 23.1884 24.7417 23.0733C26.4678 22.6628 28.1955 22.2606 29.9283 21.8785C30.1901 21.8201 30.4886 21.8384 30.7538 21.8968C32.4048 22.264 34.0508 22.6478 35.6951 23.0383C36.4423 23.2151 36.6557 23.5072 36.614 24.2865C36.3756 28.7254 34.6595 32.4501 31.2507 35.3488C30.4202 36.0547 30.1351 36.0496 29.3079 35.3538C26.1092 32.6637 24.1397 28.7054 23.9996 24.7004L23.9979 24.702ZM34.8413 25.6315C34.8913 24.5702 34.8897 24.5568 34.1459 24.3816C32.9868 24.1079 31.8261 23.8393 30.662 23.5873C30.4269 23.5372 30.1634 23.5289 29.9299 23.5789C28.7125 23.8459 27.5068 24.168 26.2843 24.4083C25.7323 24.5168 25.6289 24.8072 25.6873 25.2811C26.0909 28.5719 27.4617 31.3738 29.8832 33.6533C30.1551 33.9086 30.3452 33.9537 30.6437 33.6767C33.0802 31.4105 34.4627 28.6186 34.843 25.6299L34.8413 25.6315Z" fill="#1F1F1F"/>
</g>
</svg>
