<svg width="40" height="40" viewBox="0 0 40 40" fill="none" xmlns="http://www.w3.org/2000/svg">
<g id="Icon">
<path id="Vector" d="M20.0474 0.00319565C24.0758 0.00319565 28.1042 0.00997394 32.1326 0.00150108C35.6555 -0.00697179 38.809 2.44677 39.6973 5.81728C39.8602 6.43749 39.9794 7.0899 39.9828 7.72706C40.0046 13.9089 40.0029 20.0924 39.9929 26.2759C39.9861 29.8904 37.2121 33.3304 33.4138 33.9116C32.9453 33.9828 32.4718 34.0523 31.9999 34.0523C23.9985 34.0607 15.9989 34.0641 7.9975 34.0556C4.34525 34.0523 1.26897 31.7121 0.28832 28.184C0.123759 27.5942 0.0230078 26.9656 0.0213286 26.3555C0.0028575 20.1161 -0.0156136 13.8767 0.0213286 7.63894C0.041479 4.11254 2.78696 0.853871 6.21588 0.18621C6.84221 0.0658949 7.49038 0.0116685 8.12848 0.00997394C12.1014 -0.00527722 16.0744 0.00150108 20.0474 0.00150108V0.00319565ZM19.9584 31.5934C23.8205 31.5934 27.6827 31.6019 31.5432 31.5867C32.1813 31.585 32.8412 31.5663 33.4541 31.4104C35.9897 30.7597 37.6101 28.5805 37.6134 25.8522C37.6218 19.9788 37.6218 14.1037 37.6134 8.23035C37.6084 4.87848 35.2323 2.43321 31.921 2.42474C23.9734 2.4061 16.0257 2.4078 8.0781 2.43491C7.3678 2.4366 6.62224 2.57895 5.95224 2.82466C3.7525 3.63128 2.39067 5.69696 2.38395 8.14393C2.37388 12.5769 2.3806 17.0116 2.3806 21.4446C2.3806 22.9697 2.36548 24.4949 2.38395 26.02C2.41586 28.6127 4.05811 30.7665 6.53996 31.4104C7.15287 31.5697 7.81279 31.585 8.45088 31.5883C12.2845 31.6036 16.1181 31.5951 19.9517 31.5951L19.9584 31.5934Z" fill="#1F1F1F"/>
<path id="Vector_2" d="M20.0101 39.9952C16.3209 39.9952 12.6334 39.9952 8.94419 39.9952C8.72086 39.9952 8.49584 40.0105 8.27419 39.9867C7.6277 39.9139 7.21798 39.4445 7.21294 38.7921C7.2079 38.121 7.59076 37.6787 8.26076 37.6042C8.50928 37.5771 8.76284 37.5838 9.01471 37.5838C16.336 37.5838 23.6573 37.5838 30.9786 37.5838C31.2304 37.5838 31.4823 37.577 31.7325 37.6025C32.4109 37.6753 32.7955 38.1075 32.7955 38.7768C32.7955 39.4258 32.3857 39.9071 31.746 39.9833C31.526 40.0105 31.2993 39.9935 31.076 39.9935C27.3868 39.9935 23.6993 39.9935 20.0101 39.9935V39.9952Z" fill="#1F1F1F"/>
<path id="Vector_3" d="M13.2025 15.7287C13.577 15.0237 13.9329 14.3578 14.2856 13.6884C14.8363 12.6446 15.3955 11.6058 15.9278 10.5518C16.1763 10.0586 16.529 9.70955 17.0764 9.6943C17.6675 9.67905 18.0319 10.0519 18.2972 10.5704C19.8185 13.5478 21.3516 16.5183 22.883 19.4906C23.0224 19.7618 23.1769 20.0261 23.3834 20.3989C23.5295 20.1464 23.6404 19.9736 23.7344 19.7923C24.2667 18.7704 24.8108 17.7554 25.3196 16.7217C25.642 16.0676 26.1189 15.7575 26.8476 15.7677C28.2447 15.788 29.6435 15.7727 31.0422 15.7744C31.1548 15.7744 31.2673 15.7693 31.3781 15.7846C32.0632 15.8778 32.5552 16.3794 32.5703 16.9945C32.5854 17.5893 32.0884 18.1367 31.4134 18.2366C31.1665 18.2739 30.9113 18.257 30.6594 18.257C29.5444 18.2587 28.4294 18.257 27.2926 18.257C27.1129 18.5857 26.9467 18.8738 26.7939 19.1704C26.097 20.5175 25.4069 21.8681 24.7066 23.2153C24.5774 23.4627 24.4497 23.7237 24.2684 23.9287C23.7629 24.4981 22.8998 24.4591 22.4431 23.8525C22.2769 23.6305 22.161 23.3678 22.0334 23.1187C20.5137 20.1718 18.9974 17.225 17.4794 14.2781C17.377 14.0799 17.2628 13.8884 17.1016 13.5986C16.9672 13.8375 16.8648 14.0104 16.7708 14.1883C16.2318 15.2067 15.6843 16.2201 15.1638 17.247C14.8515 17.8638 14.4082 18.1604 13.6995 18.1468C12.106 18.1146 10.5124 18.1367 8.91887 18.1367C8.80636 18.1367 8.69386 18.1434 8.58303 18.1316C7.92646 18.0621 7.42103 17.5063 7.44621 16.8895C7.4714 16.2964 7.95669 15.7982 8.58135 15.7422C8.83155 15.7202 9.08343 15.7287 9.33531 15.7287C10.593 15.7287 11.8507 15.7287 13.2075 15.7287H13.2025Z" fill="#1F1F1F"/>
</g>
</svg>
