<svg width="70" height="74" viewBox="0 0 70 74" fill="none" xmlns="http://www.w3.org/2000/svg">
<g id="Icon">
<g id="Shadow" opacity="0.6" filter="url(#filter0_f_73_114)">
<ellipse cx="35" cy="65.5" rx="30" ry="3.5" fill="#1F1F1F" fill-opacity="0.4"/>
</g>
<g id="Icon_2">
<path id="Vector" d="M12.6117 37.7363C12.8703 37.9161 12.9423 37.9981 13.0317 38.0235C14.8851 38.549 16.3573 39.723 17.8645 40.8502C20.3051 42.6786 22.8197 44.3918 25.6415 45.5932C27.9072 46.5583 30.2778 46.9822 32.7224 47.072C36.6625 47.2185 40.5384 46.7302 44.3656 45.8276C44.846 45.7143 45.233 45.7476 45.6628 45.9566C49.2878 47.7186 53.1092 48.5098 57.1368 48.2656C57.4597 48.2461 57.7844 48.2265 58.1092 48.2382C58.6576 48.2558 58.9435 48.4981 58.9882 48.9434C59.0349 49.4064 58.8113 49.7209 58.2881 49.8245C57.8447 49.9124 57.3916 49.9671 56.9404 49.9846C52.9284 50.1351 49.0894 49.3947 45.4411 47.703C45.0463 47.5194 44.6904 47.4647 44.2392 47.5702C40.8553 48.3515 37.4248 48.7813 33.9476 48.7969C29.3716 48.8165 25.1067 47.6913 21.2522 45.181C19.5155 44.05 17.8119 42.8623 16.1433 41.6316C15.0659 40.8385 13.9827 40.0844 12.7011 39.6801C11.5032 39.303 11.0539 38.4865 11.0072 37.2636C10.9431 35.5094 11.3145 33.8313 11.7599 32.1728C13.9166 24.1226 16.1278 16.0898 18.2709 8.03566C18.5704 6.91046 19.1733 6.27753 20.2059 5.81651C24.2219 4.02322 28.2086 2.16741 32.207 0.333095C33.3136 -0.174809 33.4225 -0.149414 34.1459 0.792162C35.41 2.4409 36.6741 4.09159 37.9343 5.74423C39.0467 7.19957 39.0234 8.16654 37.8079 9.56133C36.6352 10.9092 35.4509 12.2474 34.249 13.5679C33.1152 14.8142 31.7481 14.8474 30.4995 13.6968C30.2623 13.48 30.0211 13.269 29.7916 13.0639C29.0468 13.2964 28.3428 13.5152 27.5668 13.7554C27.8138 17.973 28.0608 22.2374 28.3195 26.6523C30.4431 25.4802 32.5901 24.7164 34.9394 24.8395C37.2789 24.9625 39.4221 25.7439 41.4641 27.0645C41.7441 26.7715 42.0086 26.4999 42.2672 26.2225C43.7958 24.5738 45.5675 23.3001 47.7398 22.6614C49.984 21.9991 52.2147 22.13 54.4239 22.8508C55.7541 23.2845 56.9968 23.9038 58.152 24.6949C58.3659 24.8414 58.5837 24.9919 58.7607 25.1755C59.0524 25.4783 59.0699 25.9315 58.8385 26.244C58.5993 26.5664 58.1967 26.664 57.7981 26.4648C57.5977 26.3651 57.4208 26.2147 57.2321 26.0878C55.3729 24.8239 53.3387 24.0327 51.0906 23.9057C49.5115 23.8159 48.0101 24.1812 46.6021 24.9235C45.0871 25.7225 43.8658 26.8535 42.7845 28.1741C43.1929 28.7269 43.6247 29.186 43.9067 29.7251C44.3112 30.4928 44.6768 31.2977 44.9238 32.1279C45.1183 32.7765 44.6476 33.259 44.0467 33.2082C43.6227 33.173 43.4496 32.8956 43.3232 32.5303C42.065 28.9281 39.0137 26.7129 35.2019 26.5312C32.983 26.4238 30.9915 27.0176 29.1207 28.176C28.5664 28.5179 28.23 28.9457 28.0375 29.5767C27.8294 30.2526 27.526 30.9089 27.1779 31.5243C26.999 31.8427 26.6606 32.1064 26.3377 32.2959C25.9196 32.542 25.4509 32.3936 25.2409 32.0107C25.0309 31.6278 25.0717 31.2508 25.4062 30.95C26.3689 30.0846 26.7267 28.934 26.682 27.7189C26.5692 24.6969 26.3533 21.6788 26.1763 18.6587C26.1102 17.5217 26.011 16.3868 25.9838 15.2479C25.9682 14.6267 25.7777 14.1129 25.3751 13.6597C25.3109 13.5874 25.2487 13.5113 25.1981 13.4273C24.7703 12.7162 25.0756 12.1321 25.8963 12.0852C26.4116 12.0559 26.9328 12.0618 27.4424 11.9915C28.0802 11.9035 28.6987 11.7844 29.181 11.2472C29.5058 10.8838 29.953 10.9698 30.3148 11.2882C30.7776 11.6965 31.221 12.1243 31.6858 12.5306C32.2479 13.0209 32.4871 13.0287 32.9966 12.4681C34.2432 11.0987 35.4587 9.70393 36.6916 8.32087C37.0281 7.94385 37.1875 7.53557 36.8511 7.09408C35.5423 5.3633 34.2198 3.64033 32.8857 1.89588C32.5862 2.01113 32.3451 2.08927 32.1156 2.19476C28.3836 3.90796 24.6555 5.63288 20.9158 7.33045C20.346 7.58831 20.0037 7.91064 19.8306 8.55528C17.9228 15.664 15.9722 22.761 14.0547 29.8677C13.6152 31.495 13.2087 33.1339 12.8859 34.7885C12.6953 35.7633 12.6953 36.7772 12.6136 37.7402L12.6117 37.7363Z" fill="#1F1F1F"/>
<path id="Vector_2" d="M50.2988 4.86718C50.7383 4.53119 51.1233 4.17761 51.5609 3.91193C53.3637 2.81994 55.6002 3.23408 56.979 4.89063C58.3073 6.48466 58.2762 8.85033 56.8351 10.417C55.7596 11.5852 54.6064 12.6811 53.4862 13.8102C52.755 14.5467 52.0257 15.2851 51.2886 16.0157C50.4563 16.842 50.2229 16.842 49.3731 15.9922C47.652 14.2732 45.9386 12.5463 44.2253 10.8214C44.0211 10.6143 43.8169 10.4014 43.6458 10.167C42.5898 8.71944 42.4556 7.14885 43.2685 5.58411C44.0872 4.00375 45.4874 3.25752 47.2591 3.3337C48.4785 3.38449 49.482 3.96272 50.2988 4.87109V4.86718ZM50.3493 14.6033C52.1113 12.8315 53.8188 11.1476 55.4874 9.42856C56.5531 8.3307 56.5434 6.7855 55.5263 5.75797C54.5306 4.74997 52.9825 4.74607 51.8604 5.75406C51.5706 6.01388 51.3178 6.31471 51.0261 6.57062C50.5302 7.00624 50.1451 7.0082 49.6609 6.57452C49.3244 6.27173 49.0327 5.91425 48.6866 5.62318C47.1852 4.36709 45.0499 5.04104 44.5053 6.92615C44.2214 7.9068 44.5248 8.73898 45.1938 9.42465C46.8682 11.1418 48.5757 12.8257 50.3474 14.6033H50.3493Z" fill="#1F1F1F"/>
<path id="Vector_3" d="M34.3966 44.5462C29.1185 44.4016 24.8479 42.6122 21.6273 38.5861C21.4251 38.3341 21.2228 38.0723 21.0867 37.7832C20.8767 37.3339 21.0264 36.9159 21.4056 36.6854C21.8218 36.4334 22.1446 36.5994 22.4402 36.9022C22.5064 36.9706 22.5511 37.0604 22.6094 37.1386C25.4663 40.9889 29.3286 42.8193 34.0641 42.8056C35.3165 42.8017 36.5708 42.581 37.8233 42.4599C38.0158 42.4403 38.2103 42.3798 38.3989 42.3993C38.7898 42.4403 39.0601 42.6611 39.1243 43.0654C39.1865 43.4581 39.0699 43.8078 38.6751 43.9347C38.185 44.093 37.6774 44.2199 37.1698 44.2844C36.1761 44.4075 35.1745 44.4778 34.3966 44.5481V44.5462Z" fill="#1F1F1F"/>
<path id="Vector_4" d="M58.1108 41.5515C56.6172 41.2702 55.2286 40.9713 53.9762 40.2446C53.3792 39.8989 52.8483 39.4769 52.5565 38.8264C52.3076 38.2697 52.4165 37.7696 52.8191 37.5371C53.2411 37.2949 53.7176 37.4316 54.0132 37.9903C54.2952 38.5236 54.7386 38.8401 55.252 39.0237C56.131 39.3402 57.0392 39.5707 57.9377 39.8325C58.0913 39.8774 58.2625 39.8715 58.4103 39.9262C58.8809 40.102 59.0734 40.4537 58.9742 40.9205C58.8848 41.3386 58.5055 41.5847 58.1127 41.5515H58.1108Z" fill="#1F1F1F"/>
</g>
</g>
<defs>
<filter id="filter0_f_73_114" x="0" y="57" width="70" height="17" filterUnits="userSpaceOnUse" color-interpolation-filters="sRGB">
<feFlood flood-opacity="0" result="BackgroundImageFix"/>
<feBlend mode="normal" in="SourceGraphic" in2="BackgroundImageFix" result="shape"/>
<feGaussianBlur stdDeviation="2.5" result="effect1_foregroundBlur_73_114"/>
</filter>
</defs>
</svg>
