<svg width="37" height="40" viewBox="0 0 37 40" fill="none" xmlns="http://www.w3.org/2000/svg">
<g id="Icon">
<path id="Vector" d="M4.59241 8.17532C3.37573 7.62863 2.98805 6.64928 3.05088 5.38097C3.09991 4.39381 3.04935 3.40352 3.06467 2.4148C3.08765 0.980914 4.02391 0.0124957 5.42906 0.00937179C9.97397 -0.00312393 14.5189 -0.00312393 19.0638 0.00937179C20.4122 0.0124957 21.3883 0.966856 21.4374 2.34451C21.4803 3.53941 21.468 4.739 21.4404 5.93546C21.4159 6.97105 20.8627 7.68018 19.9204 8.17064C19.9204 8.82354 19.8851 9.49831 19.9372 10.1637C19.9571 10.4199 20.1456 10.6823 20.3065 10.9041C21.3684 12.3676 22.4318 13.8296 23.5213 15.2713C24.2032 16.1741 24.5296 17.1722 24.5189 18.3093C24.5005 20.1306 24.5143 21.9534 24.5143 23.7747C24.5143 24.0324 24.5143 24.2885 24.5143 24.6744C25.2421 24.2479 25.875 23.8731 26.5109 23.5044C27.4824 22.9406 28.4325 22.3517 29.5664 22.1299C32.7 21.5192 35.8796 23.5872 36.6213 26.7674C37.2465 29.443 36.2075 32.1562 33.8799 33.5713C30.708 35.5019 27.5085 37.3903 24.2752 39.2131C21.5661 40.7407 18.3405 39.9847 16.491 37.4606C16.1876 37.0467 15.8872 36.9217 15.4153 36.9248C11.6626 36.9389 7.90838 36.9248 4.15569 36.9373C2.83175 36.942 1.69936 36.5437 0.847381 35.4691C0.320258 34.8068 0.00306467 34.0508 0.00306467 33.1871C-0.00153233 28.0591 0 22.9312 0.00153233 17.8048C0.00153233 16.9114 0.330984 16.1367 0.850446 15.4338C1.92308 13.978 2.97579 12.5082 4.07448 11.0728C4.45756 10.5729 4.66443 10.0715 4.6016 9.43583C4.56023 9.02503 4.59394 8.60642 4.59394 8.17532H4.59241ZM1.56758 30.6848C2.6019 30.6848 3.56881 30.6848 4.53724 30.6848C8.1367 30.6848 11.7346 30.6848 15.3341 30.6848C15.6865 30.6848 16.0313 30.7332 16.2703 30.3349C16.8879 29.3103 17.7996 28.6136 18.814 28.031C20.0353 27.3297 21.2382 26.5971 22.4625 25.9036C22.8379 25.6912 23.0003 25.4491 22.9927 24.9899C22.9636 23.2733 22.9835 21.5551 22.9789 19.8385C22.9789 19.6401 22.9421 19.4433 22.9237 19.2481H1.56758V30.6832V30.6848ZM23.0494 17.6221C22.7843 17.1098 22.628 16.6958 22.3813 16.3522C21.3117 14.8637 20.2038 13.4017 19.1358 11.9115C18.8707 11.5414 18.5933 11.3852 18.1306 11.3914C16.0374 11.4195 13.9442 11.4055 11.8511 11.4023C11.0895 11.4023 10.7493 11.1649 10.734 10.6463C10.7187 10.0934 11.065 9.85131 11.8833 9.84506C11.9599 9.84506 12.0365 9.84506 12.1131 9.84506C13.9519 9.84506 15.7892 9.84506 17.628 9.84506C17.8701 9.84506 18.1122 9.84506 18.339 9.84506V8.33464H6.12627C6.12627 8.90788 6.09716 9.42802 6.13394 9.94347C6.17837 10.5776 5.98683 11.0868 5.60375 11.5913C4.41619 13.1533 3.26234 14.7403 2.11769 16.335C1.85719 16.699 1.69017 17.1316 1.43427 17.6205H23.0494V17.6221ZM27.8517 35.3691C26.2979 32.6263 24.7886 29.9616 23.2333 27.2157C21.6258 28.195 20.0062 29.0322 18.5535 30.1037C16.6749 31.4908 16.2734 34.0899 17.4349 36.1111C18.5765 38.0963 21.0098 39.0272 23.057 38.0713C24.689 37.3091 26.2121 36.3047 27.8517 35.3691ZM12.2633 1.56196C10.069 1.56196 7.8762 1.55728 5.6819 1.56353C4.83452 1.56665 4.6016 1.81032 4.597 2.67564C4.59087 3.63781 4.59087 4.59999 4.597 5.56216C4.6016 6.48528 4.82072 6.71645 5.71867 6.71801C10.0812 6.72113 14.4423 6.72269 18.8048 6.71801C19.6323 6.71801 19.905 6.44154 19.9158 5.60433C19.9265 4.66871 19.9219 3.73153 19.9173 2.79592C19.9112 1.80563 19.6721 1.56353 18.693 1.56196C16.5507 1.55884 14.407 1.56196 12.2648 1.56196H12.2633ZM24.571 26.4425C26.1217 29.1806 27.6311 31.8453 29.1787 34.5788C30.6421 33.6963 32.1131 32.92 33.4616 31.9656C35.2008 30.7363 35.734 28.2934 34.8422 26.3191C33.9259 24.2917 31.7822 23.1733 29.6691 23.7325C27.795 24.2276 26.327 25.5475 24.571 26.4425ZM15.3448 32.2983H1.5829C1.44346 33.7915 1.84187 34.7193 2.88079 35.1395C3.31597 35.316 3.82471 35.3597 4.29973 35.3629C7.74748 35.3801 11.1952 35.3738 14.643 35.3707C14.8912 35.3707 15.1379 35.3441 15.3463 35.3332V32.2999L15.3448 32.2983Z" fill="white"/>
<path id="Vector_2" d="M11.45 26.0035C10.8739 26.0035 10.3667 26.0067 9.85945 26.002C9.60509 25.9989 9.34919 25.9957 9.09635 25.9645C8.68875 25.9145 8.44664 25.6755 8.43592 25.246C8.42519 24.818 8.64891 24.5415 9.05804 24.4947C9.51161 24.4431 9.97285 24.4494 10.431 24.4384C10.7543 24.4306 11.0792 24.4384 11.4945 24.4384C11.4945 23.595 11.4899 22.8468 11.496 22.1002C11.4991 21.7519 11.663 21.4473 11.9986 21.4192C12.2683 21.3957 12.6253 21.4785 12.8077 21.6582C12.9747 21.8222 13.0007 22.1783 13.013 22.4516C13.0406 23.0717 13.0222 23.6934 13.0222 24.4384C13.4926 24.4384 13.914 24.4384 14.3354 24.4384C14.6158 24.4384 14.8978 24.426 15.1767 24.4494C15.7436 24.4994 16.0685 24.7899 16.0715 25.2226C16.0746 25.6583 15.7513 25.9598 15.1859 25.9942C14.7277 26.0223 14.268 26.0035 13.8083 26.0051C13.5815 26.0051 13.3547 26.0051 13.0222 26.0051C13.0222 26.5737 13.0222 27.0829 13.0222 27.5905C13.0222 27.8498 13.0406 28.1138 13.0038 28.3699C12.9333 28.8729 12.6207 29.1259 12.1702 29.09C11.7565 29.0572 11.5174 28.801 11.4975 28.3012C11.4745 27.7295 11.4914 27.1563 11.4868 26.5846C11.4868 26.43 11.4684 26.2753 11.45 26.0051V26.0035Z" fill="white"/>
<path id="Vector_3" d="M8.42922 11.3945C8.00936 11.4054 7.65846 11.0399 7.66918 10.6026C7.67838 10.2012 8.0063 9.86379 8.39398 9.85129C8.79239 9.84036 9.1862 10.2402 9.17394 10.6432C9.16168 11.0165 8.79698 11.3851 8.43076 11.393L8.42922 11.3945Z" fill="white"/>
</g>
</svg>
