<svg width="510" height="340" viewBox="0 0 510 340" fill="none" xmlns="http://www.w3.org/2000/svg">
<g opacity="0.3">
<path d="M113.668 318.632L113.67 318.729L89.5869 362.79L39.3105 364.011L13.1151 321.073L13.1127 320.975L37.196 276.915L87.4724 275.694L87.4748 275.791L113.668 318.632ZM89.3634 362.425L113.239 318.642L87.2693 276.167L37.4219 277.377L13.5442 321.063L39.5161 363.635L89.3634 362.425Z" fill="#1F1F1F" fill-opacity="0.16"/>
<path d="M337.903 269.809L313.822 313.968L263.546 315.188L263.544 315.091L237.409 272.249L261.453 228.189L311.73 226.968L337.903 269.809ZM313.599 313.602L337.475 269.839L311.503 227.286L261.656 228.496L237.78 272.24L263.752 314.812L313.599 313.602Z" fill="#1F1F1F" fill-opacity="0.16"/>
<path d="M414.059 311.339L414.061 311.436L389.958 355.498L339.76 356.717L313.625 313.875L313.623 313.777L337.645 269.62L387.922 268.4L387.924 268.497L414.059 311.339ZM389.754 355.132L413.63 311.349L387.641 268.875L337.793 270.085L313.915 313.77L339.887 356.343L389.754 355.132Z" fill="#1F1F1F" fill-opacity="0.16"/>
<path d="M411.953 224.633L411.956 224.73L387.855 268.869L337.656 270.088L337.654 269.991L311.519 227.149L335.54 182.914L385.816 181.693L411.953 224.633ZM387.648 268.406L411.524 224.643L385.552 182.07L335.685 183.281L311.81 227.064L337.781 269.617L387.648 268.406Z" fill="#1F1F1F" fill-opacity="0.16"/>
<path d="M409.848 137.926L385.747 182.065L335.549 183.284L309.414 140.442L333.435 96.2074L383.711 94.9868L409.848 137.926ZM385.543 181.7L409.419 137.937L383.426 95.306L333.579 96.5161L309.704 140.299L335.676 182.91L385.543 181.7Z" fill="#1F1F1F" fill-opacity="0.16"/>
<path d="M407.743 51.2004L407.745 51.2979L383.641 95.3008L333.442 96.5195L333.44 96.422L307.306 53.5803L331.33 9.50128L381.606 8.28068L407.743 51.2004ZM383.438 94.9935L407.314 51.2108L381.342 8.65785L331.475 9.8685L307.599 53.6317L333.571 96.2042L383.438 94.9935Z" fill="#1F1F1F" fill-opacity="0.16"/>
<path d="M488.089 266.163L464.008 310.322L413.732 311.542L413.729 311.445L387.595 268.603L411.639 224.543L461.915 223.322L488.089 266.163ZM463.784 309.956L487.66 266.193L461.689 223.64L411.842 224.85L387.965 268.594L413.937 311.166L463.784 309.956Z" fill="#1F1F1F" fill-opacity="0.16"/>
<path d="M485.984 179.456L461.903 223.614L411.627 224.835L385.432 181.897L385.429 181.8L409.473 137.74L459.75 136.519L459.752 136.617L485.984 179.456ZM461.679 223.23L485.555 179.466L459.583 136.894L409.736 138.104L385.861 181.887L411.832 224.44L461.679 223.23Z" fill="#1F1F1F" fill-opacity="0.16"/>
<path d="M483.878 92.7314L459.854 136.791L409.519 138.013L409.516 137.915L383.382 95.0737L407.426 51.0137L457.702 49.7931L483.878 92.7314ZM459.574 136.525L483.449 92.7418L457.478 50.1888L407.631 51.399L383.755 95.1622L409.727 137.735L459.574 136.525Z" fill="#1F1F1F" fill-opacity="0.16"/>
<path d="M518.253 352.012L490.092 352.696L464.121 310.143L487.996 266.36L516.157 265.677L516.148 265.306L487.753 265.996L463.728 310.055L463.672 310.154L489.826 352.995L489.867 353.072L518.262 352.383L518.253 352.012Z" fill="#1F1F1F" fill-opacity="0.16"/>
<path d="M516.148 265.306L487.987 265.99L462.015 223.418L485.891 179.654L514.052 178.971L514.043 178.6L485.648 179.289L461.623 223.349L461.566 223.428L487.72 266.27L487.762 266.366L516.157 265.677L516.148 265.306Z" fill="#1F1F1F" fill-opacity="0.16"/>
<path d="M514.043 178.6L485.882 179.284L459.91 136.711L483.786 92.9286L511.947 92.2449L511.938 91.8743L483.543 92.5637L459.518 136.623L459.462 136.722L485.616 179.563L485.657 179.66L514.052 178.971L514.043 178.6Z" fill="#1F1F1F" fill-opacity="0.16"/>
<path d="M511.938 91.874L483.777 92.5577L457.805 50.0047L481.681 6.22196L509.842 5.53828L509.833 5.16774L481.438 5.8571L457.413 49.9166L457.357 50.0155L483.511 92.8568L483.552 92.9339L511.947 92.2445L511.938 91.874Z" fill="#1F1F1F" fill-opacity="0.16"/>
<path d="M228.458 329.562L196.7 387.86L130.393 389.469L95.844 332.782L127.602 274.505L193.909 272.895L228.458 329.562ZM195.482 385.918L226.196 329.617L192.786 274.873L128.683 276.43L97.9697 332.73L131.379 387.474L195.482 385.918Z" fill="#1F1F1F" fill-opacity="0.16"/>
<path d="M225.715 216.568L193.957 274.846L127.65 276.455L93.1013 219.788L124.859 161.491L191.166 159.881L225.715 216.568ZM192.74 272.924L223.453 216.623L190.043 161.859L125.94 163.416L95.227 219.736L128.636 274.48L192.74 272.924Z" fill="#1F1F1F" fill-opacity="0.16"/>
<path d="M194.941 386.927L211.422 413.943L213.704 413.888L197.203 386.872L227.916 330.571L292.039 329.015L325.429 383.759L310.278 411.543L312.54 411.488L327.711 383.704L293.123 327.017L226.737 328.629L194.941 386.927Z" fill="#1F1F1F" fill-opacity="0.16"/>
<path d="M324.948 270.689L293.191 328.986L226.884 330.596L192.334 273.909L224.092 215.612L290.399 214.002L324.948 270.689ZM291.992 327.044L322.686 270.744L289.296 216L225.154 217.557L194.46 273.857L227.85 328.602L291.992 327.044Z" fill="#1F1F1F" fill-opacity="0.16"/>
<path d="M322.204 157.675L290.446 215.972L224.139 217.582L189.59 160.895L221.348 102.598L287.655 100.988L322.204 157.675ZM289.248 214.031L319.942 157.73L286.552 102.986L222.41 104.543L191.716 160.843L225.106 215.588L289.248 214.031Z" fill="#1F1F1F" fill-opacity="0.16"/>
<path d="M424.2 324.81L392.443 383.107L326.135 384.717L291.586 328.03L323.344 269.752L389.651 268.143L424.2 324.81ZM391.225 381.166L421.938 324.865L388.529 270.121L324.406 271.678L293.712 327.978L327.102 382.723L391.225 381.166Z" fill="#1F1F1F" fill-opacity="0.16"/>
<path d="M421.458 211.816L389.699 270.093L323.392 271.703L288.843 215.035L320.601 156.738L386.908 155.129L421.458 211.816ZM388.482 268.172L419.195 211.871L385.786 157.107L321.663 158.664L290.969 214.984L324.359 269.728L388.482 268.172Z" fill="#1F1F1F" fill-opacity="0.16"/>
<path d="M390.684 382.175L407.165 409.191L409.428 409.136L392.946 382.12L423.66 325.819L487.763 324.263L518.815 375.142L518.72 371.222L488.866 322.265L422.481 323.877L390.684 382.175Z" fill="#1F1F1F" fill-opacity="0.16"/>
<path d="M516.261 269.986L487.715 322.293L423.611 323.849L390.202 269.105L420.915 212.804L485.019 211.248L516.071 262.127L515.976 258.207L486.122 209.27L419.737 210.882L387.94 269.16L422.528 325.846L488.913 324.235L516.357 273.906L516.261 269.986Z" fill="#1F1F1F" fill-opacity="0.16"/>
<path d="M513.518 156.972L484.972 209.298L420.869 210.855L387.459 156.111L418.173 99.8098L482.276 98.2536L513.328 149.113L513.232 145.193L483.379 96.2559L416.994 97.8676L385.197 156.166L419.785 212.832L486.17 211.221L513.613 160.892L513.518 156.972Z" fill="#1F1F1F" fill-opacity="0.16"/>
<path d="M518.719 371.222L489.455 323.246L516.357 273.906L516.261 269.967L487.173 323.301L518.814 375.142L518.719 371.222Z" fill="#1F1F1F" fill-opacity="0.16"/>
<path d="M515.975 258.208L486.711 210.232L513.613 160.892L513.517 156.972L484.429 210.287L516.07 262.128L515.975 258.208Z" fill="#1F1F1F" fill-opacity="0.16"/>
<path d="M513.232 145.193L483.968 97.2169L510.869 47.8774L510.774 43.9575L481.686 97.2723L513.327 149.113L513.232 145.193Z" fill="#1F1F1F" fill-opacity="0.16"/>
<path d="M40.4183 277.031C40.4034 276.414 40.2057 275.815 39.8504 275.311C39.495 274.806 38.998 274.418 38.4221 274.195C37.8462 273.973 37.2173 273.926 36.615 274.062C36.0126 274.197 35.4638 274.507 35.038 274.954C34.6122 275.401 34.3285 275.964 34.2228 276.573C34.1171 277.181 34.1942 277.807 34.4442 278.371C34.6942 278.936 35.106 279.413 35.6274 279.744C36.1489 280.074 36.7566 280.242 37.3738 280.227C37.7835 280.218 38.1873 280.127 38.5621 279.961C38.9369 279.795 39.2753 279.557 39.558 279.26C39.8407 278.963 40.0622 278.614 40.2098 278.231C40.3574 277.849 40.4283 277.441 40.4183 277.031Z" fill="#1F1F1F" fill-opacity="0.16"/>
<path d="M109.475 318.734C109.494 319.505 109.741 320.254 110.185 320.885C110.629 321.516 111.251 322.001 111.97 322.279C112.69 322.557 113.476 322.615 114.229 322.446C114.982 322.277 115.668 321.889 116.201 321.33C116.733 320.771 117.087 320.067 117.219 319.307C117.352 318.547 117.255 317.764 116.943 317.059C116.63 316.353 116.116 315.756 115.464 315.343C114.812 314.93 114.052 314.72 113.281 314.739C112.246 314.764 111.264 315.199 110.551 315.948C109.837 316.697 109.45 317.699 109.475 318.734Z" fill="#1F1F1F" fill-opacity="0.16"/>
<path d="M19.1608 320.946C19.0826 317.726 16.4086 315.178 13.1881 315.256C9.96768 315.335 7.42039 318.009 7.49857 321.229C7.57676 324.45 10.2508 326.997 13.4713 326.919C16.6917 326.841 19.239 324.166 19.1608 320.946Z" fill="#1F1F1F" fill-opacity="0.16"/>
<path d="M92.2741 275.772C92.2544 274.799 91.9463 273.854 91.389 273.056C90.8316 272.258 90.0501 271.644 89.1433 271.291C88.2365 270.938 87.2453 270.862 86.2953 271.072C85.3452 271.283 84.4791 271.771 83.8065 272.474C83.1339 273.177 82.6851 274.064 82.5171 275.023C82.349 275.981 82.4692 276.968 82.8624 277.858C83.2556 278.748 83.9042 279.502 84.7259 280.023C85.5477 280.544 86.5056 280.81 87.4785 280.786C88.123 280.773 88.7586 280.633 89.3488 280.374C89.939 280.114 90.4722 279.741 90.9177 279.275C91.3633 278.809 91.7125 278.26 91.9453 277.659C92.178 277.058 92.2898 276.416 92.2741 275.772Z" fill="#1F1F1F" fill-opacity="0.16"/>
<path d="M259.075 315.101C259.097 316.004 259.386 316.879 259.906 317.618C260.426 318.356 261.152 318.924 261.995 319.249C262.837 319.574 263.757 319.642 264.638 319.444C265.519 319.247 266.321 318.793 266.944 318.139C267.567 317.485 267.982 316.661 268.136 315.772C268.291 314.882 268.178 313.967 267.812 313.142C267.447 312.316 266.845 311.618 266.082 311.134C265.319 310.651 264.431 310.405 263.528 310.427C262.318 310.456 261.169 310.965 260.334 311.842C259.498 312.718 259.046 313.891 259.075 315.101Z" fill="#1F1F1F" fill-opacity="0.16"/>
<path d="M160.375 317.497C160.391 318.118 160.589 318.721 160.947 319.229C161.304 319.737 161.805 320.127 162.384 320.351C162.964 320.575 163.596 320.622 164.203 320.486C164.809 320.35 165.361 320.037 165.789 319.587C166.218 319.138 166.503 318.571 166.61 317.959C166.716 317.347 166.639 316.717 166.387 316.149C166.135 315.581 165.721 315.101 165.196 314.768C164.672 314.436 164.06 314.266 163.439 314.281C162.606 314.302 161.816 314.652 161.241 315.255C160.667 315.858 160.355 316.665 160.375 317.497Z" fill="#1F1F1F" fill-opacity="0.16"/>
<path d="M261.603 231.113C262.168 231.103 262.717 230.925 263.18 230.602C263.644 230.28 264.001 229.826 264.207 229.3C264.412 228.773 264.456 228.198 264.333 227.646C264.211 227.095 263.927 226.592 263.518 226.203C263.108 225.813 262.593 225.554 262.036 225.458C261.479 225.362 260.907 225.434 260.391 225.665C259.875 225.895 259.439 226.274 259.139 226.753C258.84 227.232 258.689 227.789 258.706 228.354C258.725 229.103 259.04 229.816 259.583 230.333C260.126 230.85 260.853 231.131 261.603 231.113Z" fill="#1F1F1F" fill-opacity="0.16"/>
<path d="M243.084 272.111C243.057 271.015 242.706 269.951 242.074 269.055C241.443 268.158 240.559 267.469 239.536 267.075C238.513 266.681 237.395 266.6 236.326 266.841C235.256 267.083 234.282 267.636 233.527 268.431C232.772 269.227 232.27 270.228 232.085 271.309C231.899 272.39 232.039 273.501 232.486 274.503C232.932 275.504 233.666 276.351 234.594 276.935C235.523 277.519 236.603 277.814 237.699 277.784C238.426 277.766 239.141 277.605 239.806 277.31C240.47 277.016 241.069 276.592 241.569 276.065C242.07 275.538 242.461 274.918 242.721 274.239C242.981 273.561 243.104 272.838 243.084 272.111Z" fill="#1F1F1F" fill-opacity="0.16"/>
<path d="M316.295 226.955C316.288 226.022 316.004 225.112 315.478 224.342C314.952 223.571 314.208 222.974 313.342 222.627C312.476 222.28 311.526 222.199 310.613 222.394C309.701 222.588 308.867 223.05 308.217 223.72C307.568 224.391 307.133 225.239 306.967 226.157C306.802 227.076 306.913 228.023 307.288 228.877C307.662 229.732 308.282 230.456 309.069 230.957C309.856 231.458 310.775 231.714 311.708 231.692C312.941 231.662 314.113 231.149 314.971 230.263C315.829 229.377 316.305 228.189 316.295 226.955Z" fill="#1F1F1F" fill-opacity="0.16"/>
<path d="M309.435 138.081C308.992 138.091 308.561 138.234 308.198 138.489C307.835 138.744 307.557 139.102 307.397 139.515C307.237 139.929 307.203 140.381 307.301 140.814C307.398 141.247 307.621 141.642 307.942 141.948C308.263 142.254 308.668 142.458 309.105 142.534C309.543 142.61 309.992 142.554 310.398 142.375C310.804 142.195 311.147 141.899 311.385 141.524C311.622 141.149 311.743 140.713 311.732 140.269C311.728 139.974 311.664 139.682 311.546 139.412C311.428 139.141 311.256 138.897 311.043 138.693C310.829 138.489 310.576 138.33 310.3 138.225C310.024 138.12 309.73 138.071 309.435 138.081Z" fill="#1F1F1F" fill-opacity="0.16"/>
<path d="M337.789 96.2777C337.768 95.4205 337.493 94.5889 336.999 93.8881C336.505 93.1873 335.815 92.6488 335.014 92.3409C334.214 92.0331 333.341 91.9696 332.504 92.1587C331.668 92.3477 330.907 92.7807 330.317 93.4029C329.727 94.025 329.335 94.8082 329.19 95.6533C329.046 96.4984 329.156 97.3674 329.505 98.1501C329.855 98.9329 330.43 99.5941 331.156 100.05C331.882 100.506 332.727 100.736 333.584 100.712C334.151 100.698 334.711 100.572 335.23 100.342C335.749 100.111 336.217 99.7804 336.608 99.3684C336.998 98.9564 337.304 98.4712 337.506 97.9409C337.709 97.4105 337.805 96.8452 337.789 96.2777Z" fill="#1F1F1F" fill-opacity="0.16"/>
<path d="M307.284 49.4827C306.457 49.5028 305.656 49.7677 304.98 50.2438C304.305 50.7199 303.786 51.3858 303.489 52.1572C303.192 52.9286 303.131 53.7707 303.313 54.5769C303.496 55.383 303.913 56.1169 304.513 56.6856C305.113 57.2543 305.868 57.6321 306.682 57.7712C307.497 57.9104 308.335 57.8046 309.089 57.4672C309.844 57.1298 310.481 56.5761 310.921 55.8761C311.36 55.1761 311.582 54.3615 311.558 53.5353C311.545 52.9882 311.424 52.449 311.201 51.9489C310.979 51.4487 310.66 50.9974 310.263 50.6208C309.866 50.2443 309.398 49.9499 308.887 49.7546C308.376 49.5592 307.831 49.4669 307.284 49.4827Z" fill="#1F1F1F" fill-opacity="0.16"/>
<path d="M336.249 9.55785C336.214 8.59809 335.896 7.66998 335.336 6.88992C334.776 6.10987 333.998 5.51258 333.099 5.17298C332.201 4.83338 331.222 4.7666 330.286 4.98098C329.35 5.19536 328.498 5.68137 327.837 6.37807C327.176 7.07476 326.735 7.95111 326.57 8.89724C326.405 9.84336 326.523 10.8171 326.91 11.6964C327.296 12.5757 327.933 13.3214 328.742 13.8399C329.55 14.3584 330.494 14.6267 331.454 14.6112C332.102 14.6007 332.742 14.4609 333.336 14.2C333.93 13.9391 334.466 13.5623 334.913 13.0917C335.359 12.6211 335.707 12.0662 335.937 11.4594C336.166 10.8526 336.272 10.2061 336.249 9.55785Z" fill="#1F1F1F" fill-opacity="0.16"/>
<path d="M416.652 311.296C416.615 309.745 415.327 308.518 413.776 308.555C412.225 308.593 410.998 309.881 411.036 311.432C411.073 312.983 412.361 314.21 413.912 314.172C415.463 314.134 416.69 312.847 416.652 311.296Z" fill="#1F1F1F" fill-opacity="0.16"/>
<path d="M318.109 313.688C318.05 311.253 316.029 309.328 313.594 309.387C311.16 309.446 309.235 311.467 309.294 313.902C309.353 316.336 311.374 318.261 313.808 318.202C316.243 318.143 318.168 316.122 318.109 313.688Z" fill="#1F1F1F" fill-opacity="0.16"/>
<path d="M387.839 272.226C388.556 272.209 389.252 271.979 389.839 271.566C390.426 271.153 390.877 270.575 391.136 269.906C391.394 269.236 391.448 268.505 391.291 267.805C391.134 267.105 390.773 266.467 390.253 265.972C389.734 265.477 389.079 265.147 388.372 265.024C387.665 264.901 386.937 264.991 386.281 265.281C385.625 265.572 385.07 266.051 384.686 266.657C384.302 267.263 384.106 267.97 384.123 268.687C384.147 269.649 384.551 270.562 385.248 271.226C385.945 271.89 386.877 272.25 387.839 272.226Z" fill="#1F1F1F" fill-opacity="0.16"/>
<path d="M337.589 267.319C337.096 267.331 336.617 267.489 336.213 267.774C335.809 268.058 335.498 268.455 335.321 268.916C335.143 269.377 335.105 269.88 335.214 270.362C335.322 270.844 335.57 271.283 335.928 271.623C336.285 271.964 336.736 272.191 337.222 272.276C337.709 272.36 338.21 272.299 338.661 272.098C339.113 271.898 339.495 271.569 339.759 271.152C340.024 270.735 340.158 270.249 340.146 269.755C340.13 269.093 339.852 268.464 339.372 268.007C338.893 267.551 338.251 267.303 337.589 267.319Z" fill="#1F1F1F" fill-opacity="0.16"/>
<path d="M333.595 183.156C333.623 183.537 333.762 183.901 333.995 184.203C334.228 184.505 334.545 184.732 334.906 184.856C335.267 184.98 335.656 184.996 336.025 184.901C336.395 184.806 336.729 184.605 336.985 184.322C337.241 184.04 337.409 183.688 337.468 183.311C337.526 182.934 337.473 182.548 337.314 182.201C337.156 181.854 336.899 181.561 336.576 181.358C336.252 181.156 335.877 181.052 335.495 181.061C335.231 181.067 334.97 181.127 334.729 181.237C334.489 181.347 334.273 181.505 334.095 181.701C333.917 181.897 333.781 182.127 333.695 182.377C333.609 182.627 333.575 182.892 333.595 183.156Z" fill="#1F1F1F" fill-opacity="0.16"/>
<path d="M409.698 141.365C410.376 141.349 411.035 141.131 411.59 140.74C412.146 140.35 412.573 139.803 412.817 139.169C413.062 138.536 413.113 137.844 412.964 137.181C412.816 136.519 412.474 135.915 411.982 135.447C411.491 134.978 410.871 134.666 410.202 134.55C409.533 134.434 408.845 134.519 408.224 134.794C407.603 135.069 407.077 135.522 406.714 136.095C406.351 136.669 406.165 137.337 406.182 138.016C406.204 138.926 406.587 139.791 407.246 140.419C407.905 141.047 408.787 141.387 409.698 141.365Z" fill="#1F1F1F" fill-opacity="0.16"/>
<path d="M380.692 182.014C380.716 182.993 381.029 183.944 381.593 184.745C382.157 185.547 382.947 186.163 383.861 186.516C384.775 186.869 385.773 186.943 386.73 186.728C387.686 186.514 388.557 186.02 389.233 185.311C389.909 184.601 390.359 183.707 390.527 182.742C390.695 181.776 390.573 180.783 390.176 179.887C389.779 178.99 389.125 178.232 388.297 177.708C387.47 177.183 386.505 176.916 385.525 176.94C384.211 176.972 382.964 177.524 382.058 178.476C381.151 179.427 380.66 180.7 380.692 182.014Z" fill="#1F1F1F" fill-opacity="0.16"/>
<path d="M386.779 8.33104C386.753 7.27419 386.414 6.24867 385.806 5.38418C385.197 4.51969 384.346 3.85504 383.36 3.47431C382.374 3.09357 381.297 3.01385 380.265 3.2452C379.234 3.47654 378.294 4.00858 377.565 4.77404C376.836 5.53949 376.35 6.50398 376.169 7.54553C375.988 8.58709 376.12 9.65893 376.548 10.6255C376.976 11.5921 377.681 12.41 378.574 12.9759C379.467 13.5417 380.508 13.83 381.565 13.8044C382.266 13.7873 382.958 13.6322 383.6 13.3479C384.242 13.0637 384.821 12.6558 385.305 12.1475C385.789 11.6393 386.169 11.0406 386.421 10.3858C386.674 9.73098 386.796 9.03277 386.779 8.33104Z" fill="#1F1F1F" fill-opacity="0.16"/>
<path d="M411.798 227.915C412.452 227.903 413.087 227.697 413.623 227.323C414.16 226.949 414.573 226.424 414.81 225.815C415.047 225.206 415.098 224.54 414.956 223.902C414.814 223.264 414.485 222.683 414.012 222.232C413.538 221.781 412.942 221.481 412.298 221.37C411.653 221.259 410.991 221.342 410.394 221.608C409.797 221.875 409.293 222.313 408.945 222.867C408.598 223.42 408.423 224.065 408.442 224.718C408.469 225.585 408.836 226.407 409.464 227.006C410.092 227.604 410.931 227.931 411.798 227.915Z" fill="#1F1F1F" fill-opacity="0.16"/>
<path d="M467.261 223.29C467.235 222.225 466.894 221.192 466.281 220.322C465.668 219.451 464.811 218.781 463.817 218.398C462.824 218.014 461.739 217.934 460.7 218.167C459.661 218.4 458.714 218.936 457.98 219.707C457.245 220.478 456.756 221.45 456.574 222.499C456.391 223.548 456.524 224.627 456.956 225.601C457.387 226.575 458.097 227.399 458.997 227.969C459.896 228.539 460.944 228.829 462.009 228.803C462.716 228.786 463.412 228.63 464.059 228.343C464.705 228.057 465.289 227.646 465.777 227.134C466.265 226.622 466.647 226.019 466.901 225.36C467.156 224.7 467.278 223.997 467.261 223.29Z" fill="#1F1F1F" fill-opacity="0.16"/>
<path d="M389.157 95.0499C389.082 91.9479 386.506 89.4944 383.404 89.5697C380.302 89.645 377.848 92.2206 377.924 95.3226C377.999 98.4246 380.575 100.878 383.677 100.803C386.779 100.728 389.232 98.1518 389.157 95.0499Z" fill="#1F1F1F" fill-opacity="0.16"/>
<path d="M409.595 51.1752C409.568 50.0335 408.62 49.1304 407.478 49.1582C406.336 49.1859 405.433 50.1339 405.461 51.2756C405.489 52.4173 406.437 53.3203 407.578 53.2926C408.72 53.2649 409.623 52.3169 409.595 51.1752Z" fill="#1F1F1F" fill-opacity="0.16"/>
<path d="M485.693 5.92958C485.673 5.10968 485.411 4.31401 484.939 3.64281C484.468 2.97161 483.809 2.45489 483.044 2.15774C482.28 1.8606 481.445 1.79632 480.644 1.973C479.843 2.14968 479.112 2.55944 478.544 3.15062C477.975 3.74181 477.595 4.48797 477.449 5.29517C477.304 6.10237 477.401 6.93447 477.728 7.68666C478.055 8.43885 478.597 9.07751 479.286 9.52215C479.975 9.96678 480.781 10.1975 481.601 10.1853C482.15 10.1798 482.694 10.0647 483.198 9.8468C483.703 9.62891 484.159 9.31259 484.54 8.91635C484.921 8.5201 485.219 8.05188 485.417 7.53905C485.615 7.02622 485.709 6.47906 485.693 5.92958Z" fill="#1F1F1F" fill-opacity="0.16"/>
<path d="M463.929 49.8563C463.844 46.3558 460.938 43.587 457.437 43.672C453.937 43.757 451.168 46.6635 451.253 50.164C451.338 53.6645 454.244 56.4333 457.745 56.3483C461.245 56.2633 464.014 53.3567 463.929 49.8563Z" fill="#1F1F1F" fill-opacity="0.16"/>
<path d="M461.195 310.195C461.204 310.732 461.373 311.255 461.681 311.697C461.988 312.139 462.419 312.479 462.921 312.674C463.422 312.87 463.97 312.912 464.495 312.795C465.02 312.678 465.498 312.408 465.87 312.018C466.241 311.629 466.487 311.138 466.579 310.608C466.67 310.078 466.601 309.532 466.382 309.041C466.162 308.55 465.801 308.135 465.345 307.85C464.889 307.564 464.359 307.421 463.821 307.438C463.107 307.455 462.43 307.755 461.937 308.272C461.445 308.789 461.178 309.481 461.195 310.195Z" fill="#1F1F1F" fill-opacity="0.16"/>
<path d="M480.971 266.336C481.004 267.704 481.443 269.031 482.232 270.149C483.02 271.267 484.123 272.126 485.401 272.616C486.679 273.106 488.073 273.205 489.407 272.901C490.741 272.598 491.955 271.905 492.895 270.91C493.834 269.915 494.457 268.664 494.684 267.314C494.911 265.965 494.733 264.579 494.17 263.331C493.608 262.083 492.688 261.031 491.527 260.307C490.366 259.584 489.016 259.221 487.648 259.266C485.829 259.331 484.109 260.108 482.86 261.432C481.61 262.755 480.931 264.516 480.971 266.336Z" fill="#1F1F1F" fill-opacity="0.16"/>
<path d="M481.596 179.563C481.616 180.391 481.882 181.194 482.36 181.87C482.837 182.547 483.506 183.066 484.279 183.361C485.053 183.657 485.897 183.715 486.704 183.53C487.511 183.344 488.245 182.923 488.812 182.319C489.379 181.716 489.753 180.957 489.888 180.14C490.023 179.323 489.911 178.484 489.568 177.73C489.225 176.977 488.665 176.342 487.96 175.908C487.255 175.473 486.437 175.258 485.609 175.29C484.511 175.327 483.472 175.797 482.72 176.598C481.968 177.399 481.564 178.465 481.596 179.563Z" fill="#1F1F1F" fill-opacity="0.16"/>
<path d="M464.435 136.601C464.416 135.659 464.117 134.743 463.578 133.971C463.038 133.199 462.282 132.604 461.404 132.262C460.526 131.92 459.566 131.846 458.646 132.05C457.726 132.253 456.887 132.726 456.236 133.407C455.585 134.088 455.15 134.946 454.987 135.875C454.825 136.803 454.941 137.758 455.322 138.62C455.702 139.482 456.33 140.211 457.126 140.716C457.922 141.221 458.849 141.478 459.791 141.455C461.05 141.425 462.245 140.897 463.115 139.987C463.986 139.077 464.46 137.86 464.435 136.601Z" fill="#1F1F1F" fill-opacity="0.16"/>
<path d="M483.473 87.3161C482.395 87.3384 481.348 87.6803 480.465 88.2985C479.582 88.9167 478.902 89.7833 478.512 90.7884C478.122 91.7935 478.039 92.8917 478.274 93.9439C478.509 94.9961 479.051 95.9548 479.832 96.6985C480.612 97.4421 481.596 97.9371 482.659 98.1208C483.721 98.3044 484.814 98.1684 485.799 97.73C486.784 97.2916 487.617 96.5706 488.191 95.6584C488.766 94.7461 489.056 93.6838 489.026 92.606C488.991 91.1682 488.387 89.8031 487.345 88.811C486.304 87.8189 484.911 87.2812 483.473 87.3161Z" fill="#1F1F1F" fill-opacity="0.16"/>
</g>
</svg>
