<svg width="126" height="386" viewBox="0 0 126 386" fill="none" xmlns="http://www.w3.org/2000/svg">
<mask id="path-1-inside-1_65_245" fill="white">
<path d="M-75.849 16.436C-157.133 -13.6275 -247.424 27.9565 -277.515 109.314C-307.605 190.671 -266.103 281 -184.82 311.063C-103.536 341.127 -13.2448 299.543 16.8459 218.186C46.9366 136.828 5.43452 46.4995 -75.849 16.436ZM-184.296 309.647C-264.796 279.874 -305.889 190.414 -276.088 109.841C-246.287 29.2681 -156.877 -11.91 -76.3771 17.8637C4.12311 47.6375 45.2202 137.085 15.4195 217.658C-14.3813 298.231 -103.796 339.421 -184.296 309.647Z"/>
</mask>
<path d="M-75.849 16.436L-34.2219 -96.1126C-177.76 -149.202 -337.018 -75.7334 -390.063 67.6865L-277.515 109.314L-164.966 150.941C-157.83 131.646 -136.505 121.947 -117.476 128.985L-75.849 16.436ZM-277.515 109.314L-390.063 67.6865C-443.108 211.106 -369.985 370.523 -226.447 423.612L-184.82 311.063L-143.193 198.515C-162.221 191.477 -172.102 170.235 -164.966 150.941L-277.515 109.314ZM-184.82 311.063L-226.447 423.612C-82.9083 476.701 76.3493 403.233 129.394 259.813L16.8459 218.186L-95.7027 176.559C-102.839 195.853 -124.164 205.553 -143.193 198.515L-184.82 311.063ZM16.8459 218.186L129.394 259.813C182.44 116.393 109.317 -43.0235 -34.2219 -96.1126L-75.849 16.436L-117.476 128.985C-98.4476 136.022 -88.5664 157.264 -95.7027 176.559L16.8459 218.186ZM-184.296 309.647L-142.669 197.099C-160.902 190.355 -170.39 169.991 -163.54 151.468L-276.088 109.841L-388.637 68.2141C-441.388 210.838 -368.69 369.392 -225.923 422.196L-184.296 309.647ZM-276.088 109.841L-163.54 151.468C-156.693 132.958 -136.249 123.664 -118.004 130.412L-76.3771 17.8637L-34.7499 -94.6848C-177.505 -147.484 -335.882 -74.4217 -388.637 68.2141L-276.088 109.841ZM-76.3771 17.8637L-118.004 130.412C-99.759 137.16 -90.2828 157.521 -97.1291 176.031L15.4195 217.658L127.968 259.285C180.723 116.649 108.005 -41.8855 -34.7499 -94.6848L-76.3771 17.8637ZM15.4195 217.658L-97.1291 176.031C-103.98 194.553 -124.435 203.843 -142.669 197.099L-184.296 309.647L-225.923 422.196C-83.1562 475 75.2172 401.909 127.968 259.285L15.4195 217.658Z" fill="white" fill-opacity="0.16" mask="url(#path-1-inside-1_65_245)"/>
<mask id="path-3-inside-2_65_245" fill="white">
<path d="M-58.9667 22.6801C-140.25 -7.3834 -230.542 34.2005 -260.632 115.558C-290.723 196.915 -249.221 287.244 -167.937 317.307C-86.6538 347.371 3.6375 305.787 33.7282 224.43C63.819 143.073 22.3168 52.7436 -58.9667 22.6801ZM-167.414 315.891C-247.914 286.118 -289.007 196.658 -259.206 116.085C-229.405 35.5122 -139.995 -5.66593 -59.4948 24.1078C21.0054 53.8816 62.1025 143.329 32.3018 223.902C2.50107 304.475 -86.9135 345.665 -167.414 315.891Z"/>
</mask>
<path d="M-58.9667 22.6801L-17.3395 -89.8685C-160.878 -142.958 -320.136 -69.4893 -373.181 73.9306L-260.632 115.558L-148.084 157.185C-140.947 137.89 -119.622 128.191 -100.594 135.229L-58.9667 22.6801ZM-260.632 115.558L-373.181 73.9306C-426.226 217.351 -353.103 376.767 -209.565 429.856L-167.937 317.307L-126.31 204.759C-145.339 197.721 -155.22 176.479 -148.084 157.185L-260.632 115.558ZM-167.937 317.307L-209.565 429.856C-66.026 482.945 93.2316 409.477 146.277 266.057L33.7282 224.43L-78.8203 182.803C-85.9566 202.097 -107.282 211.797 -126.31 204.759L-167.937 317.307ZM33.7282 224.43L146.277 266.057C199.322 122.637 126.199 -36.7794 -17.3395 -89.8685L-58.9667 22.6801L-100.594 135.229C-81.5653 142.267 -71.6841 163.508 -78.8203 182.803L33.7282 224.43ZM-167.414 315.891L-125.787 203.343C-144.02 196.599 -153.508 176.235 -146.657 157.712L-259.206 116.085L-371.754 74.4582C-424.505 217.082 -351.808 375.636 -209.041 428.44L-167.414 315.891ZM-259.206 116.085L-146.657 157.712C-139.811 139.202 -119.367 129.908 -101.122 136.656L-59.4948 24.1078L-17.8676 -88.4408C-160.623 -141.24 -318.999 -68.1777 -371.754 74.4582L-259.206 116.085ZM-59.4948 24.1078L-101.122 136.656C-82.8767 143.405 -73.4005 163.765 -80.2468 182.275L32.3018 223.902L144.85 265.529C197.606 122.894 124.888 -35.6414 -17.8676 -88.4408L-59.4948 24.1078ZM32.3018 223.902L-80.2468 182.275C-87.0974 200.797 -107.553 210.087 -125.787 203.343L-167.414 315.891L-209.041 428.44C-66.2739 481.244 92.0995 408.153 144.85 265.529L32.3018 223.902Z" fill="white" fill-opacity="0.16" mask="url(#path-3-inside-2_65_245)"/>
<mask id="path-5-inside-3_65_245" fill="white">
<path d="M-38.6214 30.2049C-119.905 0.141455 -210.196 41.7254 -240.287 123.083C-270.378 204.44 -228.876 294.769 -147.592 324.832C-66.3086 354.896 23.9828 313.312 54.0735 231.955C84.1643 150.597 42.6621 60.2684 -38.6214 30.2049ZM-147.064 323.405C-227.564 293.631 -268.661 204.183 -238.856 123.598C-209.051 43.0136 -119.65 1.85892 -39.1495 31.6327C41.3507 61.4064 82.4478 150.854 52.6471 231.427C22.8463 312 -66.5682 353.19 -147.068 323.416L-147.064 323.405Z"/>
</mask>
<path d="M-147.064 323.405L-34.5155 365.032L7.11165 252.483L-105.437 210.856L-147.064 323.405ZM-147.068 323.416L-259.617 281.789L-301.244 394.338L-188.696 435.965L-147.068 323.416ZM-38.6214 30.2049L3.00571 -82.3436C-140.533 -135.433 -299.79 -61.9645 -352.836 81.4554L-240.287 123.083L-127.739 164.71C-120.602 145.415 -99.2772 135.716 -80.2486 142.754L-38.6214 30.2049ZM-240.287 123.083L-352.836 81.4554C-405.881 224.875 -332.758 384.292 -189.219 437.381L-147.592 324.832L-105.965 212.284C-124.994 205.246 -134.875 184.004 -127.739 164.71L-240.287 123.083ZM-147.592 324.832L-189.219 437.381C-45.6808 490.47 113.577 417.002 166.622 273.582L54.0735 231.955L-58.475 190.327C-65.6113 209.622 -86.9364 219.322 -105.965 212.284L-147.592 324.832ZM54.0735 231.955L166.622 273.582C219.667 130.162 146.544 -29.2546 3.00571 -82.3436L-38.6214 30.2049L-80.2486 142.754C-61.22 149.791 -51.3388 171.033 -58.475 190.327L54.0735 231.955ZM-147.064 323.405L-105.437 210.856C-123.676 204.11 -133.161 183.754 -126.308 165.226L-238.856 123.598L-351.405 81.9713C-404.162 224.613 -331.452 383.152 -188.691 435.953L-147.064 323.405ZM-238.856 123.598L-126.308 165.226C-119.464 146.721 -99.0395 137.427 -80.7766 144.181L-39.1495 31.6327L2.47765 -80.9159C-140.26 -133.709 -298.639 -60.6939 -351.405 81.9713L-238.856 123.598ZM-39.1495 31.6327L-80.7766 144.181C-62.5314 150.929 -53.0552 171.29 -59.9015 189.8L52.6471 231.427L165.196 273.054C217.951 130.418 145.233 -28.1166 2.47765 -80.9159L-39.1495 31.6327ZM52.6471 231.427L-59.9015 189.8C-66.7521 208.322 -87.2078 217.612 -105.441 210.868L-147.068 323.416L-188.696 435.965C-45.9287 488.769 112.445 415.678 165.196 273.054L52.6471 231.427ZM-147.068 323.416L-34.5198 365.043L-34.5155 365.032L-147.064 323.405L-259.613 281.777L-259.617 281.789L-147.068 323.416Z" fill="white" fill-opacity="0.16" mask="url(#path-5-inside-3_65_245)"/>
<mask id="path-7-inside-4_65_245" fill="white">
<path d="M-21.7391 36.449C-103.023 6.38553 -193.314 47.9695 -223.405 129.327C-253.496 210.684 -211.993 301.013 -130.71 331.076C-49.4263 361.14 40.8651 319.556 70.9559 238.199C101.047 156.842 59.5444 66.5125 -21.7391 36.449ZM-130.182 329.649C-210.682 299.875 -251.779 210.427 -221.974 129.843C-192.169 49.2577 -102.767 8.10299 -22.2672 37.8767C58.233 67.6505 99.3301 157.098 69.5294 237.671C39.7287 318.244 -49.6859 359.434 -130.186 329.66L-130.182 329.649Z"/>
</mask>
<path d="M-130.182 329.649L-17.6332 371.276L23.994 258.727L-88.5546 217.1L-130.182 329.649ZM-130.186 329.66L-242.735 288.033L-284.362 400.582L-171.813 442.209L-130.186 329.66ZM-21.7391 36.449L19.888 -76.0996C-123.65 -129.189 -282.908 -55.7204 -335.953 87.6995L-223.405 129.327L-110.856 170.954C-103.72 151.659 -82.3949 141.96 -63.3663 148.998L-21.7391 36.449ZM-223.405 129.327L-335.953 87.6995C-388.999 231.119 -315.875 390.536 -172.337 443.625L-130.71 331.076L-89.0827 218.528C-108.111 211.49 -117.992 190.248 -110.856 170.954L-223.405 129.327ZM-130.71 331.076L-172.337 443.625C-28.7985 496.714 130.459 423.246 183.504 279.826L70.9559 238.199L-41.5927 196.572C-48.729 215.866 -70.054 225.566 -89.0827 218.528L-130.71 331.076ZM70.9559 238.199L183.504 279.826C236.55 136.406 163.427 -23.0105 19.888 -76.0996L-21.7391 36.449L-63.3663 148.998C-44.3376 156.036 -34.4565 177.277 -41.5927 196.572L70.9559 238.199ZM-130.182 329.649L-88.5546 217.1C-106.794 210.354 -116.278 189.998 -109.425 171.47L-221.974 129.843L-334.523 88.2154C-387.28 230.857 -314.57 389.396 -171.809 442.197L-130.182 329.649ZM-221.974 129.843L-109.425 171.47C-102.581 152.965 -82.1572 143.671 -63.8943 150.425L-22.2672 37.8767L19.36 -74.6718C-123.378 -127.465 -281.757 -54.4498 -334.523 88.2154L-221.974 129.843ZM-22.2672 37.8767L-63.8943 150.425C-45.6491 157.173 -36.1729 177.534 -43.0192 196.044L69.5294 237.671L182.078 279.298C234.833 136.662 162.115 -21.8725 19.36 -74.6718L-22.2672 37.8767ZM69.5294 237.671L-43.0192 196.044C-49.8698 214.566 -70.3254 223.856 -88.5589 217.112L-130.186 329.66L-171.813 442.209C-29.0463 495.013 129.327 421.922 182.078 279.298L69.5294 237.671ZM-130.186 329.66L-17.6375 371.288L-17.6332 371.276L-130.182 329.649L-242.73 288.021L-242.735 288.033L-130.186 329.66Z" fill="white" fill-opacity="0.16" mask="url(#path-7-inside-4_65_245)"/>
</svg>
