<svg width="217" height="438" viewBox="0 0 217 438" fill="none" xmlns="http://www.w3.org/2000/svg">
<path d="M216.635 415.332C214.012 417.227 211.219 417.868 207.936 418.085C208.921 419.821 211.06 423.122 214.265 425.604C214.605 425.867 214.706 426.336 214.503 426.716C214.3 427.094 213.854 427.271 213.448 427.137C211.388 426.453 209.39 425.586 207.51 424.559C205.482 423.457 203.567 422.166 201.788 420.703C202.173 421.72 202.621 422.71 203.128 423.666C204.371 426.009 205.977 428.152 207.902 430.036C208.184 430.313 208.248 430.744 208.058 431.09C207.868 431.437 207.473 431.615 207.086 431.525C204.226 430.86 200.978 427.991 198.725 425.66C199.583 428.386 200.621 431.76 200.984 433.228C201.079 433.614 200.905 434.016 200.558 434.21C200.209 434.403 199.777 434.34 199.498 434.057C197.178 431.686 194.941 429.309 193.105 426.549C193.211 427.259 193.303 427.971 193.383 428.682C193.62 430.786 193.746 432.897 193.759 434.956C193.762 435.385 193.455 435.753 193.033 435.829C192.611 435.902 192.195 435.666 192.049 435.263C191.072 432.573 188.304 430.102 186.816 428.919C185.763 432.242 183.979 436.63 181.896 436.63C181.886 436.63 181.875 436.63 181.865 436.63C181.382 436.62 180.997 436.222 181.002 435.739C181.027 433.487 180.756 431.271 180.197 429.152C180.021 428.486 179.789 427.845 179.539 427.258C179.43 428.798 179.11 430.65 178.337 432.499C177.84 433.681 177.148 434.789 176.28 435.792C176.042 436.066 175.662 436.167 175.321 436.046C174.98 435.926 174.747 435.609 174.733 435.247C174.648 432.976 173.388 430.591 172.46 429.129C171.698 430.967 169.973 433.936 166.176 436.832C166.019 436.952 165.83 437.012 165.642 437.012C165.473 437.012 165.304 436.964 165.157 436.867C164.844 436.661 164.696 436.28 164.787 435.917C165.23 434.145 165.462 432.335 165.477 430.535C165.479 430.295 165.477 430.054 165.472 429.813C165.314 430.186 165.137 430.566 164.938 430.95C164.167 432.423 163.193 433.744 162.04 434.874C161.738 435.169 161.271 435.21 160.925 434.972C160.578 434.734 160.447 434.284 160.613 433.897C160.937 433.143 161.047 432.36 161.066 431.706C158.69 433.549 158.229 433.154 157.851 432.826C157.571 432.586 157.472 432.197 157.6 431.851L159.169 427.633C160.129 425.063 160.156 421.217 160.175 418.408L160.176 418.296C160.194 415.747 159.767 413.121 159.355 410.581C159.241 409.883 159.128 409.187 159.024 408.492C158.488 404.937 158.169 401.371 158.049 397.867L157.275 398.166C157.172 398.205 157.064 398.225 156.957 398.225C156.817 398.225 156.677 398.191 156.549 398.124C156.324 398.007 156.161 397.798 156.101 397.552C155.24 394.023 154.543 390.437 154.028 386.893C153.11 380.577 153.242 377.687 153.286 376.737C153.365 374.984 153.558 373.218 153.859 371.486L152.608 364.114C152.575 363.928 152.592 363.744 152.644 363.571C143.479 340.275 133.514 315.2 121.42 285.012C121.415 285.201 121.412 285.389 121.407 285.578C121.289 289.657 120.993 293.72 120.525 297.654C120.422 308.181 120.125 318.851 119.643 329.368C119.178 339.465 118.53 349.704 117.717 359.812C118.424 360.493 119.166 361.333 120.094 362.386C122.718 365.36 126.683 369.855 126.285 374.522C126.151 376.094 125.403 377.417 124.059 378.453C121.69 380.282 117.875 380.874 114.712 380.874C113.371 380.874 112.148 380.768 111.201 380.605C108.799 380.189 106.558 379.4 104.891 378.382C104.087 377.891 103.365 377.322 102.665 376.772C101.692 376.005 100.773 375.282 99.6846 374.788C98.0325 374.038 96.2801 373.02 94.7278 371.912C93.3959 370.962 92.7957 370.37 92.3481 369.568C91.4231 367.911 91.5297 366.092 91.852 364.713C90.7781 342.21 88.5642 311.102 84.1135 290.438C83.0519 285.501 81.7786 279.928 81.766 279.872C78.7499 268.175 76.5653 256.082 74.453 244.386C73.1642 237.251 71.8374 229.908 70.3249 222.673C68.3331 230.007 66.7368 237.159 65.5719 243.981C65.0681 246.935 63.8067 253.481 61.294 266.523L61.1614 267.209C60.8079 269.045 60.2163 272.116 59.0876 276.097C57.9003 280.297 56.4203 284.45 54.6885 288.438C52.9343 300.85 50.7624 313.382 48.2324 325.686C45.1046 340.899 41.3244 356.227 36.9982 371.256C37.657 372.045 38.1836 373.141 38.2603 374.978C38.3613 377.409 39.0051 379.321 39.7511 381.535C39.9111 382.011 40.0748 382.497 40.2377 383.001C41.1938 385.966 40.9475 389.519 38.2425 390.777C36.7373 391.477 30.8923 391.851 26.3847 391.851C24.4027 391.851 22.6801 391.779 21.6977 391.63C15.5973 390.704 11.7808 387.623 10.951 382.955C10.8168 382.203 10.8431 381.799 10.8822 381.186C10.9167 380.658 10.9631 379.935 10.9373 378.556C10.9172 377.485 10.8673 376.743 10.8266 376.146C10.7543 375.071 10.7101 374.422 10.9603 373.346C11.1418 372.562 11.4014 371.469 12.1088 370.483C12.1122 370.064 12.1125 369.708 12.1125 369.579C12.1193 368.093 12.1234 366.706 12.1274 365.389C12.1487 357.92 12.1641 352.523 12.7023 344.839C13.17 338.134 14.242 328.145 18.8819 300.683C20.5075 291.073 22.1419 281.843 23.8794 272.464C24.339 270.311 24.731 268.154 25.0494 266.03C25.4237 263.555 25.7179 261.006 25.9239 258.451C26.0289 254.523 26.0289 250.386 25.9216 246.205C25.6508 235.915 24.7647 228.589 24.0526 222.702C23.1867 215.541 22.5022 209.885 23.282 202.606C23.3721 201.781 23.4861 200.925 23.6128 200.06C21.423 198.773 19.2583 197.435 17.127 196.032C16.3117 195.502 15.9879 194.453 16.3622 193.54C22.2089 179.094 27.6149 164.388 32.4294 149.832C34.6383 143.159 36.795 136.589 38.8904 129.79L34.5204 131.724C34.4883 131.738 34.4555 131.75 34.4217 131.761C31.5376 132.645 28.3391 133.4 24.833 133.4C21.4767 133.4 17.8385 132.708 13.9256 130.774C11.7657 129.71 7.26967 127.495 3.89216 122.548C0.288513 117.274 -0.774172 111.925 0.734868 106.648C2.0495 102.053 4.71273 98.0335 7.28855 94.1461C7.62422 93.6391 7.95936 93.1336 8.28983 92.6289C13.9668 83.954 20.9722 76.9283 26.4414 71.7765C30.7388 67.7278 35.1647 63.7012 39.5953 59.8081C40.0968 59.3673 40.5937 58.9253 41.0895 58.4846C44.6254 55.3399 48.2813 52.0883 52.8903 50.0676C54.1015 49.5419 55.1205 49.1757 55.8101 48.9472C57.363 47.5995 59.7387 47.5702 61.6631 47.5497C62.1422 47.5445 62.6013 47.5402 63.0196 47.5149C65.0435 47.3924 67.0874 47.313 69.0947 47.2788L69.8206 47.2667C75.0643 47.1783 81.0075 47.0782 86.6328 46.4037C89.833 46.0192 91.6584 45.448 93.125 44.9889C93.9564 44.7288 94.6686 44.5128 95.4262 44.3854C95.4247 44.3788 95.4234 44.3731 95.4221 44.3666C94.8958 41.7308 94.5777 40.1204 95.1791 38.7729C94.5287 38.6811 93.9339 38.4299 93.4338 37.886C92.7389 37.1312 92.7889 36.4359 92.9088 34.7569C92.9702 33.8958 93.0546 32.7163 93.1022 30.9954C93.1424 29.521 93.1286 28.6327 93.1166 27.8489C93.1011 26.8025 93.0884 25.9762 93.2038 24.3017C93.3525 22.1126 93.5928 20.3567 94.3325 18.372C94.8007 17.1343 95.3005 16.2397 95.9541 15.4668C96.2697 15.0935 96.6164 14.7512 96.9882 14.4451C96.6944 10.2535 98.2626 6.81623 101.437 4.72836C107.805 0.53742 115.627 0 121.729 0C123.578 0 125.463 0.16044 127.33 0.476528C134.618 1.72956 141.14 4.85371 146.195 9.51149C149.266 12.3468 159.061 22.3263 156.232 31.7664C155.933 32.7632 155.502 33.7255 154.948 34.6394C155.371 34.8689 155.756 35.1496 156.099 35.4794C157.973 37.2741 158.137 40.1085 157.496 41.9818C156.502 44.8765 153.726 45.9278 152.392 46.433C151.639 46.7106 150.659 46.9944 148.29 47.024C147.935 48.0044 147.405 48.76 146.702 49.2683C146.584 49.3521 146.452 49.4364 146.306 49.5291C145.81 49.8442 145.192 50.2362 144.653 51.0128C143.547 52.6256 143.281 54.7183 143.024 56.7423L142.948 57.3385C142.906 57.6573 142.867 57.9752 142.827 58.2919C142.558 60.4762 142.278 62.7348 141.185 64.8275C139.652 67.7609 138.042 68.9414 136.486 70.0827C136.417 70.133 136.349 70.1832 136.281 70.2333C136.674 70.4235 137.071 70.6139 137.455 70.8031C140.37 72.2486 143.147 73.973 145.709 75.9288C146.023 76.169 146.434 76.4969 146.734 76.9738C146.917 77.1895 147.192 77.5288 147.52 77.9559C147.635 78.1051 150.36 81.6749 152.257 86.158C156.344 95.7848 156.584 114.848 156.592 115.655C156.665 123.063 156.347 126.761 155.979 131.043C155.639 134.998 155.254 139.48 155.123 147.92L155.121 148.056C155.09 149.831 155.034 153.136 154.373 157.516C153.333 164.42 151.454 169.67 150.427 172.184C149.015 175.644 145.264 184.834 136.391 192.78C135.894 193.225 135.412 193.661 134.94 194.088C131.976 196.773 129.416 199.092 125.794 201.21C125.156 201.583 123.05 202.523 121.785 201.964L121.026 201.629L120.554 202.005C121.064 209.712 121.503 214.914 121.789 216.666C121.877 217.21 121.746 217.757 121.419 218.202C121.091 218.65 120.608 218.94 120.059 219.023C120.366 225.019 120.623 230.98 120.818 236.751C121.017 242.635 121.172 248.663 121.28 254.671C133.907 286.111 148.727 323.11 163.031 359.478C163.232 359.573 163.409 359.719 163.534 359.914L167.58 366.202C168.969 367.276 170.302 368.45 171.544 369.693C172.219 370.369 174.272 372.424 177.843 377.694C179.853 380.658 181.756 383.776 183.5 386.962C183.622 387.186 183.642 387.45 183.555 387.689C183.468 387.927 183.282 388.116 183.045 388.208L182.507 388.416C185.079 390.388 187.387 392.657 189.379 395.182C190.271 396.31 191.068 397.525 191.837 398.699C192.93 400.366 193.962 401.94 195.256 403.315C198.125 406.36 201.694 407.795 206.167 407.701L206.421 407.696C208.895 407.645 211.231 407.598 213.178 406.166C213.524 405.911 214.005 405.944 214.314 406.244C214.623 406.544 214.67 407.023 214.426 407.377C213.577 408.608 212.699 409.881 211.571 410.97C210.559 411.948 209.478 412.641 208.356 413.031C208.918 413.206 209.494 413.322 210.047 413.422C212.364 413.836 214.262 413.938 216.02 413.741C216.414 413.7 216.796 413.927 216.94 414.3C217.085 414.674 216.96 415.097 216.635 415.332ZM162.295 361.246L154.422 364.267L155.442 370.279L165.595 366.373L162.295 361.246ZM154.115 362.497L161.249 359.759C146.967 323.456 132.182 286.542 119.585 255.178C119.577 255.159 119.57 255.14 119.564 255.12L106.084 221.582C105.846 220.989 105.608 220.394 105.367 219.803C104.983 218.842 104.599 217.887 104.214 216.93L104.146 216.761C102.768 217.618 101.283 218.371 99.7069 218.991L99.3166 219.146C98.6886 219.397 97.9505 219.687 97.1801 219.923L97.932 221.793C98.3709 222.886 98.8094 223.978 99.249 225.069L103.271 235.071C109.267 249.982 115.321 265.039 121.379 280.165C121.387 280.184 121.394 280.203 121.4 280.222C134.173 312.086 144.581 338.261 154.115 362.497ZM90.1141 212.861C90.1502 213.047 90.2553 213.308 90.5507 213.49C90.9524 213.739 92.022 214.102 92.3566 214.054C92.3689 214.049 92.3817 214.048 92.3941 214.045C92.4245 214.036 92.4537 214.024 92.4857 214.018C93.2059 213.886 93.9209 213.701 94.6117 213.47C96.8692 212.713 98.9327 211.446 100.744 209.704C101.095 209.365 101.653 209.377 101.991 209.728C102.328 210.079 102.317 210.637 101.967 210.974C99.965 212.899 97.6789 214.3 95.1719 215.14C94.4439 215.385 93.6904 215.578 92.932 215.724C92.5144 215.904 92.2008 216.42 92.2144 216.919C92.2328 217.451 92.5817 217.994 93.1033 218.295C93.7593 218.673 94.6417 218.73 95.8003 218.469C96.7873 218.257 97.784 217.86 98.6631 217.509L99.0608 217.351C100.868 216.64 102.553 215.754 104.069 214.717C104.633 214.334 105.186 213.918 105.714 213.48C107.611 211.896 109.426 209.827 110.825 207.657C112.586 204.925 112.735 201.258 111.211 198.087C110.67 196.952 109.665 194.845 107.543 192.579C105.621 190.523 103.806 188.581 101.187 188.298C99.773 188.144 98.6046 188.524 97.2504 188.962L97.146 188.996C96.4748 189.209 95.8338 189.472 95.2018 189.792L95.6032 190.786C95.6733 190.788 95.7442 190.794 95.8151 190.813C96.2856 190.939 96.5651 191.421 96.4394 191.892C96.3544 192.21 96.2538 192.495 96.1332 192.766C96.1304 192.773 96.1278 192.78 96.125 192.787C96.1232 192.79 96.1221 192.794 96.1204 192.798C95.5276 194.148 94.4391 195.396 92.7967 196.605C92.2452 197.013 91.66 197.39 91.0941 197.755C90.126 198.378 89.2119 198.968 88.455 199.697C88.0016 200.123 87.6287 200.593 87.3389 201.099C86.9383 201.805 86.7731 202.54 86.8741 203.164C86.8873 203.253 86.9188 203.359 86.9693 203.493C87.1483 203.957 87.4892 204.368 87.7957 204.487C87.9236 204.538 88.0304 204.531 88.1635 204.465C88.1679 204.463 88.1727 204.464 88.1771 204.462C88.2539 204.425 88.3352 204.396 88.4235 204.383C89.2211 204.266 89.9935 204.045 90.7194 203.728C93.4481 202.536 94.9314 200.208 95.5723 198.927C95.791 198.491 96.3218 198.316 96.755 198.533C97.1905 198.751 97.3667 199.28 97.1492 199.715C96.401 201.21 94.6628 203.928 91.4253 205.343C90.6655 205.675 89.8627 205.913 89.0371 206.063C88.6263 206.652 88.5265 207.467 88.808 208.133C89.1334 208.898 89.9919 209.532 90.7418 209.574C91.4861 209.472 92.2179 209.303 92.9167 209.064C95.7876 208.081 97.7094 206.129 98.8161 204.666C99.1094 204.276 99.6626 204.2 100.051 204.494C100.439 204.787 100.516 205.34 100.222 205.728C98.9671 207.388 96.7802 209.604 93.4881 210.732C92.7183 210.996 91.914 211.18 91.098 211.299C90.7507 211.513 90.5033 211.72 90.3389 211.943C90.1364 212.217 90.0543 212.552 90.1141 212.861ZM54.7465 116.267C54.7581 116.263 54.7691 116.258 54.7809 116.254C57.7425 115.221 60.0722 114.876 60.1698 114.862C60.9847 114.744 61.6802 114.683 62.2936 114.63C63.07 114.561 63.6828 114.508 64.2349 114.369C64.7594 114.239 65.1954 114.033 65.6545 113.699C65.9615 113.476 67.0633 112.329 66.8401 110.796C66.665 109.585 65.8008 108.922 65.4554 108.701L62.7114 108.901C62.6895 108.903 62.6678 108.904 62.646 108.904C62.1886 108.904 61.8018 108.55 61.768 108.086C61.7324 107.601 62.0975 107.179 62.5829 107.143L65.0461 106.963C65.1971 106.492 65.3401 105.697 64.9907 104.828C64.552 103.749 63.6518 103.274 63.2322 103.105L60.4654 103.174C60.4579 103.174 60.4505 103.174 60.4431 103.174C59.9667 103.174 59.5743 102.794 59.5622 102.315C59.5502 101.828 59.9352 101.424 60.4218 101.412L62.8528 101.351C63.0256 100.975 63.1934 100.42 63.0975 99.7755C62.919 98.5588 61.9298 97.8851 61.5364 97.6612L58.0025 97.5919C57.5159 97.5824 57.1291 97.1801 57.1383 96.6936C57.1481 96.2127 57.5405 95.8294 58.0191 95.8294C58.0254 95.8294 58.0312 95.8294 58.0369 95.8296L61.0514 95.8888C61.0596 95.8618 61.0675 95.8344 61.0759 95.8076C61.1884 95.4444 61.2945 95.1016 61.2227 94.7867C60.8095 92.9607 59.3268 91.5064 57.2558 90.8959L57.2532 90.8946C57.2493 90.8934 57.2451 90.894 57.2409 90.8928C56.3624 90.6239 55.3266 90.4561 54.2455 90.4079C53.8157 90.3818 53.359 90.378 52.8356 90.3964C52.3439 90.4062 51.941 90.0329 51.9238 89.5466C51.9066 89.0603 52.2871 88.652 52.7736 88.6348C53.3526 88.6144 53.865 88.6184 54.3391 88.6477C55.5261 88.7005 56.6401 88.8808 57.6454 89.1775C58.1442 89.2203 58.6537 89.2585 59.06 89.1363C59.4077 89.0336 59.6976 88.7489 59.6867 88.5257C59.6643 88.1826 59.0313 87.7748 58.761 87.6009C57.5089 86.7903 55.9545 85.7842 54.3948 85.7842C54.3827 85.7842 54.3707 85.7842 54.3587 85.7845C53.8915 85.7888 53.3963 85.8826 52.8874 86.0628C51.9526 86.3887 51.0276 86.968 50.1324 87.5284L49.8449 87.708C49.3606 88.0081 48.8734 88.3013 48.3869 88.5946C47.2208 89.2961 46.0152 90.022 44.9089 90.8141C44.4613 91.1286 44.0372 91.4517 43.643 91.7799C42.2079 92.9835 40.3877 94.9489 39.8839 97.4631C39.8798 97.4841 39.8746 97.505 39.869 97.5257L39.4169 99.1809C39.395 99.2598 38.9871 100.755 38.9641 100.839C38.9621 100.846 38.9566 100.852 38.9542 100.86C38.9284 100.944 38.8913 101.023 38.8435 101.094C38.8396 101.1 38.8384 101.107 38.8344 101.113C38.0626 102.206 37.3958 103.381 36.8524 104.607C36.8203 104.672 35.8636 106.545 35.6135 108.329C34.9702 112.919 35.8304 117.214 37.9139 119.819C40.3264 122.835 44.9251 122.734 47.8046 120.909C48.4874 120.476 49.0917 119.907 49.732 119.304C50.6605 118.429 51.6205 117.525 52.9001 116.98C53.476 116.736 54.0877 116.5 54.7172 116.278C54.7266 116.273 54.7368 116.271 54.7465 116.267ZM45.7136 123.649C44.9155 123.838 44.0877 123.944 43.2566 123.944C40.7478 123.944 38.2281 123.034 36.5371 120.92C34.1562 117.944 33.1584 113.145 33.8676 108.084C34.1598 105.998 35.2184 103.931 35.2632 103.845C35.6292 103.017 36.0653 102.194 36.5502 101.394C36.2526 101.396 35.9517 101.402 35.6425 101.412C34.893 101.434 34.1218 101.456 33.3334 101.372C33.1687 101.531 32.9093 101.812 32.5581 102.211C32.4617 102.321 32.3877 102.405 32.3504 102.444C31.7381 103.083 31.2481 103.717 30.8522 104.384C28.4903 108.359 27.9176 113.763 29.3585 118.488C30.0178 120.649 32.0256 125.797 36.4241 126.927C38.6913 127.509 40.9442 126.857 41.3722 126.72C41.5397 126.667 41.7027 126.61 41.8611 126.549C43.3261 125.99 44.6486 124.989 45.7136 123.649ZM49.4569 79.6663C48.6868 77.7107 46.4627 76.7412 44.499 77.509C42.5445 78.2797 41.5763 80.5041 42.3437 82.4666C43.1671 84.5592 43.992 86.6587 44.8164 88.7578C45.6963 88.1748 46.5931 87.6164 47.4772 87.0842C47.9581 86.7947 48.4384 86.5056 48.9146 86.2106L49.1969 86.0341C49.9211 85.5807 50.6644 85.1168 51.4554 84.7478L50.6367 82.6663L49.4569 79.6663ZM56.2364 117.629C67.0759 144.946 77.9054 171.952 87.0859 194.809L88.2074 197.603C88.8319 197.123 89.4909 196.691 90.1392 196.273C90.7068 195.907 91.2427 195.562 91.7494 195.187C92.9992 194.267 93.852 193.352 94.353 192.4L93.2723 189.721C84.4948 167.861 74.1537 142.067 63.9001 116.226C63.4453 116.295 62.9702 116.34 62.4472 116.386C61.8567 116.438 61.1881 116.496 60.4228 116.607C60.4034 116.61 58.6076 116.879 56.2364 117.629ZM82.2135 204.069C82.4345 204.702 82.9423 205.192 83.4771 205.29C84.0871 205.401 84.3677 205.098 84.9995 203.999C85.0612 203.892 85.125 203.793 85.1869 203.688C85.1651 203.601 85.1443 203.515 85.1326 203.435C84.9691 202.427 85.2077 201.284 85.8074 200.227C86.0869 199.738 86.4233 199.28 86.8107 198.856L85.9211 196.639C83.5422 198.857 81.3318 201.549 82.2135 204.069ZM101.804 186.609C104.833 187.106 106.865 189.272 108.83 191.374C111.139 193.84 112.262 196.194 112.801 197.326C114.011 199.845 114.311 202.643 113.73 205.194L120.127 200.091C120.388 198.87 119.561 196.061 117.048 192.424C114.091 188.146 109.473 183.842 105.683 183.642L101.804 186.609ZM107.459 220.277C107.546 220.494 107.633 220.709 107.72 220.926L119.425 250.048C119.327 245.604 119.204 241.167 119.058 236.811C118.864 231.095 118.611 225.192 118.306 219.254C114.722 219.729 111.081 220.071 107.459 220.277ZM118.877 203.344L112.337 208.561C112.326 208.578 112.317 208.595 112.306 208.612C110.815 210.927 108.874 213.138 106.842 214.835C106.453 215.157 106.05 215.463 105.642 215.758L105.849 216.273C106.156 217.034 106.46 217.793 106.764 218.553C110.847 218.338 114.965 217.949 119.018 217.387C119.21 217.365 119.375 217.341 119.539 217.317L119.802 217.28C119.906 217.265 119.971 217.198 119.999 217.16C120.03 217.117 120.065 217.045 120.05 216.95C119.702 214.817 119.239 208.689 118.877 203.344ZM146.762 79.9179C146.444 80.6838 145.969 81.4131 145.561 82.0374C145.368 82.3335 145.188 82.6073 145.053 82.8471C142.502 87.3835 139.581 92.682 137.2 98.1638C136.164 100.547 135.136 102.829 134.142 105.036C132.067 109.643 130.107 113.995 128.285 118.772C126.836 122.573 125.576 126.649 124.539 130.887C123.414 135.49 121.802 142.437 120.511 149.389C120.116 151.526 119.969 153.726 119.841 155.87C120.035 155.44 120.238 155.007 120.426 154.58C121.091 153.066 121.678 151.822 122.274 150.664C123.195 148.876 123.9 146.988 124.37 145.053C124.629 143.987 124.82 142.889 124.938 141.789C124.99 141.305 125.42 140.957 125.909 141.006C126.392 141.058 126.743 141.493 126.691 141.977C126.564 143.153 126.36 144.328 126.084 145.47C125.58 147.539 124.826 149.559 123.842 151.471C123.263 152.595 122.69 153.808 122.04 155.289C121.222 157.152 120.336 159.045 119.405 160.914C119.403 160.918 119.401 160.922 119.399 160.926L119.398 160.929C118.298 163.164 117.139 165.343 115.856 167.587C115.545 168.131 115.241 168.692 114.935 169.258C114.6 169.878 114.261 170.504 113.907 171.118C113.878 171.17 113.839 171.212 113.801 171.256C113.793 171.265 113.791 171.277 113.782 171.287L110.073 175.176C110.047 175.204 110.019 175.23 109.989 175.254C108.876 176.152 107.801 177.099 106.794 178.068C105.69 179.129 105.462 179.454 105.372 179.837C105.196 180.591 105.555 181.365 105.894 181.892C110.544 182.219 115.552 187.159 118.498 191.422C119.439 192.783 122.236 197.131 121.902 200.088L122.498 200.351C122.804 200.483 124.074 200.175 124.906 199.688C128.369 197.663 130.867 195.401 133.758 192.782C134.232 192.352 134.716 191.914 135.216 191.466C143.787 183.791 147.426 174.874 148.797 171.518C149.6 169.551 151.581 164.226 152.631 157.253C153.275 152.989 153.33 149.76 153.359 148.025L153.361 147.891C153.493 139.39 153.881 134.875 154.224 130.892C154.588 126.655 154.903 122.996 154.83 115.672C154.829 115.479 154.585 96.1512 150.634 86.8454C149.364 83.8417 147.669 81.2253 146.762 79.9179ZM146.377 46.9993C146.207 46.9944 146.045 46.9908 145.862 46.9843C142.347 46.8432 139.696 46.4627 139.2 46.3878C133.543 45.5287 131.354 45.2682 130.046 45.1127C128.891 44.975 128.413 44.9182 126.915 44.6172C122.45 43.7232 118.208 42.5188 114.466 41.3728C114.429 41.3654 114.393 41.3521 114.357 41.34C113.063 40.9429 111.827 40.553 110.665 40.1864C109.776 39.9058 109.032 39.6644 108.39 39.4568C106.177 38.7392 105.269 38.4454 103.941 38.3119C104.346 38.8519 104.658 39.475 104.843 40.161L104.997 40.7313C105.124 41.2013 104.847 41.6853 104.377 41.8127C103.908 41.9407 103.423 41.6627 103.296 41.1927L103.142 40.6209C102.831 39.4689 102.018 38.5718 100.965 38.2185C100.946 38.2136 100.927 38.2082 100.909 38.2019C100.594 38.097 100.263 38.0366 99.9249 38.0234C99.8985 38.0225 98.5856 37.9543 97.6049 38.5749C97.3553 38.7349 97.155 38.9183 96.9984 39.1326C96.3752 39.9755 96.5795 41.1559 97.1441 43.9818C97.3771 45.1487 97.5671 45.6844 97.7679 46.2513C97.99 46.8765 98.219 47.5229 98.4755 48.8775C98.616 49.626 98.6929 50.2039 98.7548 50.6684C98.8713 51.5457 98.915 51.7652 99.0756 51.9078C99.1198 51.946 99.16 51.9752 99.1921 51.9913C99.5903 52.2108 100.591 52.3924 103.142 51.3145C103.591 51.1249 104.108 51.3355 104.298 51.7834C104.487 52.2319 104.277 52.7488 103.829 52.9385C102.279 53.5935 101.004 53.9197 99.9794 53.9197C99.3499 53.9197 98.8157 53.7966 98.3698 53.5505C98.2734 53.5024 98.1655 53.4286 98.0533 53.3426C97.4056 55.9016 96.3556 58.3351 94.9164 60.5825C95.2378 62.1969 95.7255 63.7994 96.3671 65.3514C97.6422 68.4254 99.2236 70.5021 100.073 71.618C101.421 73.3968 102.994 75.0654 104.748 76.5793C107.939 79.3316 110.935 81.9167 115.244 82.4415C115.729 82.4998 116.202 82.5313 116.676 82.5365C116.855 82.0676 117.061 81.6046 117.29 81.1533C117.494 80.7587 117.719 80.3753 117.96 80.0015C111.976 77.5081 107.141 72.0289 104.042 67.6677C103.775 67.2922 103.507 66.9229 103.24 66.555C102.47 65.4952 101.674 64.3991 100.952 63.2056C100.7 62.7892 100.833 62.2473 101.25 61.9954C101.665 61.7431 102.208 61.8763 102.46 62.2932C103.144 63.4231 103.883 64.4414 104.666 65.5193C104.937 65.892 105.209 66.2661 105.479 66.6465C108.712 71.1959 113.889 77.0229 120.195 78.9477C122.334 79.6004 125.315 80.0825 127.374 78.6754C128.915 77.6162 129.24 76.9623 130.607 74.2102C131.717 71.977 132.876 70.7156 134.029 69.7495C134.034 69.7455 134.038 69.742 134.043 69.7382C134.512 69.3462 134.98 69.0011 135.444 68.6612C136.902 67.5915 138.28 66.5817 139.624 64.0108C140.569 62.2012 140.817 60.1971 141.079 58.0753C141.119 57.7543 141.159 57.4319 141.201 57.1087L141.277 56.5202C141.547 54.3918 141.853 51.98 143.203 50.0118C143.948 48.9385 144.799 48.3982 145.363 48.0404C145.48 47.9665 145.585 47.9002 145.675 47.8359C145.953 47.6353 146.184 47.3535 146.377 46.9993ZM98.7303 13.9606C99.018 13.9603 99.3406 13.9616 99.6971 13.9671C102.171 14.0081 103.805 14.0354 105.696 14.6038L105.775 14.6282C106.484 14.8454 107.217 15.07 108.054 15.5745C110.426 17.0145 111.413 19.3133 111.834 20.2948C112.977 22.9128 112.981 25.2455 112.987 28.4739C112.987 29.2856 112.932 30.1159 112.879 30.9193C112.737 33.0612 112.604 35.0844 113.387 36.9339C113.785 37.8809 114.381 38.8213 115.146 39.7366C118.809 40.8552 122.937 42.0228 127.263 42.8889C128.692 43.176 129.118 43.2268 130.255 43.3622C131.573 43.5192 133.78 43.7817 139.462 44.6444C139.944 44.7171 142.511 45.0855 145.928 45.2225C146.575 45.2455 147.143 45.257 147.654 45.263C150.207 45.2814 151.111 45.0269 151.759 44.7884C152.935 44.3428 155.105 43.5208 155.83 41.41C156.295 40.0506 156.196 38.0121 154.879 36.7508C154.468 36.3548 153.961 36.0633 153.37 35.8824C152.681 35.6798 151.97 35.4855 151.258 35.3059C148.121 34.5151 144.052 33.7574 135.588 33.5678C127.507 33.3868 121.394 33.6688 116.263 38.9789C116.09 39.1577 115.86 39.2478 115.629 39.2478C115.409 39.2478 115.188 39.1654 115.017 39.0001C114.667 38.6618 114.657 38.1038 114.995 37.7537C121.059 31.4794 128.8 31.6522 135.627 31.8054C144.266 31.9988 148.452 32.7807 151.688 33.5964C152.213 33.7286 152.734 33.8704 153.249 34.0157C153.816 33.1421 154.256 32.2195 154.545 31.2594C157.08 22.7986 147.882 13.4664 145.002 10.8078C138.932 5.21458 131.881 3.04725 127.034 2.21404C125.266 1.91448 123.481 1.7624 121.73 1.7624C115.874 1.7624 108.384 2.26677 102.407 6.20068C99.2581 8.27203 98.6234 11.4259 98.7303 13.9606ZM94.7322 36.6926C95.0662 37.0557 95.5965 37.1273 96.8492 36.9758C98.2412 36.1891 99.8256 36.2513 100.01 36.2626C100.44 36.2796 100.873 36.3581 101.293 36.4826C102.057 36.45 102.797 36.4567 103.549 36.5101C105.401 36.6343 106.363 36.9462 108.935 37.7796C109.572 37.9863 110.312 38.2264 111.196 38.5056C111.587 38.6291 111.997 38.7579 112.404 38.886C112.163 38.4664 111.942 38.0443 111.763 37.6187C110.817 35.3859 110.971 33.0562 111.12 30.8028C111.174 29.9928 111.224 29.2273 111.224 28.4753C111.218 25.0635 111.171 23.1806 110.216 20.9951C109.83 20.0938 109.029 18.2283 107.141 17.0827C106.493 16.6918 105.921 16.5163 105.258 16.3134L105.183 16.2905C103.605 15.8159 102.207 15.7717 99.6687 15.7298C99.0932 15.7209 98.6 15.7223 98.2253 15.726C97.8932 15.9864 97.5791 16.2752 97.3011 16.6043C96.9304 17.043 96.484 17.6694 95.9836 18.9918C95.3202 20.7715 95.1011 22.3894 94.9627 24.4217C94.8526 26.0229 94.8652 26.8168 94.8801 27.8219C94.8921 28.6233 94.9059 29.5314 94.8646 31.0435C94.8164 32.8031 94.7309 34.005 94.6678 34.8824C94.5606 36.3876 94.5774 36.5245 94.7322 36.6926ZM56.8685 50.3612C56.107 51.0998 56.0674 51.8753 56.0629 53.1828C56.0618 53.6129 56.0601 54.0579 56.0164 54.527C55.8511 56.3173 55.6692 58.1306 55.4765 59.9173C55.0082 64.2546 54.4521 68.6451 53.8238 72.9662C53.3795 76.0246 52.8832 79.1319 52.3509 82.2081L53.1222 84.1694C53.5342 84.0787 53.9426 84.0255 54.3414 84.0217C54.3604 84.0214 54.3787 84.0213 54.397 84.0213C56.4754 84.0213 58.2715 85.184 59.7176 86.1198C60.2512 86.4639 61.3661 87.182 61.4465 88.4246C61.4907 89.3034 60.9846 90.0291 60.3247 90.4675C61.6565 91.4528 62.5844 92.8182 62.9419 94.3972C63.118 95.1715 62.9109 95.8403 62.7599 96.3284C62.7582 96.3339 62.7565 96.3393 62.7547 96.3447C63.491 96.8448 64.5973 97.8556 64.8412 99.5183C64.976 100.425 64.8084 101.212 64.5749 101.812C65.2653 102.223 66.13 102.951 66.6247 104.168C67.1543 105.485 66.9741 106.69 66.7423 107.448C67.4516 107.995 68.3622 109.008 68.5842 110.543C68.9303 112.921 67.335 114.657 66.6906 115.125C66.3363 115.383 65.9798 115.586 65.6085 115.751C75.6978 141.176 85.8649 166.541 94.5424 188.154C95.214 187.823 95.8958 187.544 96.6073 187.317L96.7083 187.284C97.3794 187.068 98.0628 186.85 98.7847 186.699L104.223 182.539C103.629 181.489 103.427 180.409 103.655 179.436C103.859 178.563 104.334 177.986 105.571 176.798C106.602 175.806 107.701 174.838 108.836 173.919L112.428 170.151C112.755 169.578 113.072 168.997 113.384 168.42C113.697 167.841 114.008 167.268 114.325 166.712C115.565 164.545 116.686 162.438 117.752 160.278C117.888 158.933 117.973 157.558 118.052 156.226C118.191 153.886 118.334 151.466 118.778 149.068C120.075 142.075 121.696 135.093 122.827 130.468C123.88 126.159 125.163 122.013 126.638 118.144C128.478 113.318 130.448 108.944 132.534 104.312C133.526 102.111 134.551 99.834 135.582 97.4614C137.997 91.903 140.944 86.5575 143.516 81.9833C143.667 81.7139 143.868 81.4055 144.086 81.0726C144.707 80.1217 145.643 78.6882 145.268 77.9444C145.265 77.9387 145.264 77.9324 145.261 77.9266C145.152 77.7325 144.934 77.5553 144.639 77.3286C142.168 75.4422 139.487 73.778 136.675 72.3833C136.05 72.0755 135.408 71.7663 134.76 71.4546C133.879 72.264 133.024 73.3082 132.186 74.9945C130.767 77.8485 130.29 78.8099 128.37 80.1295C127.184 80.9391 125.706 81.3457 123.992 81.3457C122.683 81.3457 121.237 81.1089 119.68 80.6335C119.677 80.6324 119.673 80.6308 119.669 80.6295C119.374 81.0574 119.096 81.4975 118.859 81.9572C118.574 82.516 118.331 83.099 118.137 83.6866C118.021 84.0373 117.699 84.2785 117.33 84.2911C117.159 84.2971 116.989 84.3001 116.819 84.3001C116.227 84.3001 115.638 84.2642 115.032 84.1914C110.189 83.6017 106.847 80.7183 103.615 77.9295C101.748 76.3196 100.09 74.5599 98.6696 72.6841C97.7727 71.5067 96.1011 69.3117 94.7382 66.026C94.0037 64.2497 93.4581 62.4108 93.1166 60.5597C93.0753 60.3356 93.1229 60.1041 93.248 59.9141C94.7635 57.6202 95.8429 55.1152 96.4569 52.4681C96.6454 51.6627 96.7865 50.843 96.883 50.0283C96.8442 49.7777 96.7997 49.5074 96.7425 49.2045C96.5118 47.9842 96.3145 47.4287 96.1062 46.8406C96.0239 46.6082 95.9404 46.3716 95.8544 46.0978C95.1622 46.2002 94.4957 46.4075 93.6525 46.6716C92.1973 47.1269 90.2049 47.7504 86.8434 48.154C81.1286 48.8395 75.1372 48.9402 69.8511 49.0295L69.1252 49.0418C67.1438 49.0754 65.1257 49.1537 63.127 49.2745C62.6817 49.3014 62.1928 49.3072 61.6826 49.3126C59.9138 49.331 57.9089 49.3522 56.8685 50.3612ZM36.7829 128.795C36.5186 128.753 36.253 128.703 35.9856 128.634C30.7219 127.282 28.4185 121.447 27.6725 119.002C26.0916 113.818 26.7291 107.871 29.3366 103.484C29.8012 102.7 30.3709 101.961 31.0766 101.225L26.5335 100.969C26.0474 100.942 25.6756 100.526 25.7026 100.04C25.7301 99.554 26.1541 99.1911 26.6322 99.2095L33.1693 99.5768C33.1826 99.5775 33.1948 99.5815 33.2078 99.5829C33.2217 99.5845 33.2348 99.5827 33.249 99.5848C34.0036 99.6958 34.7743 99.6738 35.5914 99.6494C36.2008 99.6317 36.8242 99.6159 37.4596 99.6549C37.5763 99.2278 37.7036 98.7612 37.7157 98.7161L38.1616 97.0861C38.7739 94.0856 40.8643 91.8094 42.513 90.4267C42.774 90.2097 43.0475 89.997 43.3268 89.7875C42.452 87.5601 41.5775 85.3326 40.7025 83.1102C39.5818 80.2431 40.9963 76.9951 43.8552 75.8682C46.7205 74.7468 49.9682 76.1612 51.0956 79.0169C51.4419 76.9089 51.776 74.8 52.0792 72.7126C52.7047 68.4126 53.2578 64.044 53.7238 59.728C53.9155 57.9505 54.0962 56.1462 54.2615 54.3646C54.2976 53.9736 54.2988 53.5684 54.2999 53.1765C54.3019 52.5861 54.3106 51.96 54.4349 51.332C54.168 51.4399 53.8885 51.5562 53.5957 51.6831C49.2455 53.5908 45.8531 56.6077 42.262 59.8016C41.7633 60.2449 41.2635 60.6893 40.7597 61.1323C36.344 65.012 31.9336 69.0248 27.6504 73.0594C22.2524 78.1447 15.3412 85.074 9.76522 93.5941C9.43302 94.102 9.09614 94.6101 8.75873 95.1197C6.25686 98.8955 3.67003 102.8 2.43056 107.133C1.07227 111.881 2.05418 116.733 5.34847 121.554C8.46437 126.119 12.5248 128.118 14.7059 129.193C20.6956 132.153 26.2463 132.415 33.8559 130.09L36.7829 128.795ZM18.0929 194.557C32.7968 204.237 48.9393 211.135 66.0756 215.062C74.23 216.931 82.5666 218.09 90.9254 218.542C90.641 218.063 90.4716 217.526 90.4525 216.974C90.4381 216.455 90.5576 215.95 90.7796 215.504C90.2534 215.322 89.8098 215.105 89.6239 214.989C88.9697 214.586 88.5285 213.949 88.3833 213.195C88.23 212.403 88.4264 211.565 88.9209 210.896C88.9399 210.87 88.96 210.844 88.98 210.818C88.2014 210.367 87.5408 209.657 87.1851 208.821C86.8189 207.954 86.7943 206.977 87.0755 206.097C86.7519 205.957 86.4483 205.736 86.1767 205.461C85.6728 206.249 84.9501 207.076 83.7163 207.076C83.5418 207.076 83.357 207.059 83.1619 207.024C82.005 206.814 80.9796 205.882 80.5492 204.651C79.1415 200.628 83.0565 196.814 85.2186 194.889C76.0792 172.135 65.3302 145.327 54.5701 118.21C54.2345 118.338 53.9055 118.468 53.5901 118.602C52.6003 119.024 51.7941 119.783 50.9402 120.587C50.3121 121.179 49.6592 121.785 48.9032 122.29L47.4152 124.333C46.117 126.115 44.4308 127.442 42.5373 128.175C42.5352 128.177 42.5335 128.178 42.5312 128.179L41.0377 128.84L40.9481 129.111L40.9476 129.112C40.9417 129.13 40.9385 129.149 40.9314 129.166C38.7204 136.394 36.44 143.328 34.1034 150.386C29.2775 164.978 23.8577 179.72 17.9954 194.204C17.9404 194.338 17.9823 194.485 18.0929 194.557ZM38.0807 382.098C37.325 379.853 36.6105 377.733 36.4992 375.051C36.4098 372.9 35.6195 372.255 34.6188 371.437C31.6544 369.015 27.229 368.599 24.0311 368.678C22.8225 368.707 21.5722 368.811 20.3155 368.986L20.0486 369.023C17.9283 369.316 15.5251 369.647 14.0177 370.975C13.1409 371.748 12.8844 372.855 12.6778 373.745C12.4873 374.565 12.5183 375.023 12.5861 376.027C12.628 376.642 12.6796 377.409 12.7008 378.523C12.7277 379.975 12.6785 380.74 12.6422 381.299C12.6055 381.868 12.5906 382.104 12.687 382.646C13.5679 387.601 18.2176 389.319 21.9624 389.887C25.3199 390.396 35.9208 389.912 37.5 389.178C39.3363 388.325 39.1405 385.34 38.5605 383.542C38.4004 383.046 38.2385 382.567 38.0807 382.098ZM114.775 359.781C111.766 358.18 108.699 358.663 107.544 358.845C105.267 359.203 103.563 360.083 102.437 360.666C101.443 361.18 100.722 361.66 100.025 362.124C99.0945 362.743 98.1323 363.384 96.5875 364.068C95.6057 364.504 94.5889 364.869 93.5594 365.157C93.3465 366.106 93.2209 367.515 93.8877 368.709C94.1511 369.181 94.5264 369.603 95.7521 370.478C97.2148 371.522 98.8622 372.479 100.391 373.173C101.696 373.765 102.743 374.589 103.756 375.386C104.445 375.929 105.096 376.441 105.811 376.877C107.292 377.782 109.313 378.489 111.502 378.867C114.51 379.388 120.242 379.173 122.983 377.058C123.932 376.326 124.438 375.447 124.53 374.372C124.863 370.456 121.197 366.301 118.772 363.552C116.877 361.403 115.989 360.426 114.775 359.781ZM119.681 280.667C113.644 265.593 107.61 250.589 101.636 235.729L97.6141 225.728C97.174 224.637 96.735 223.544 96.2961 222.449L95.5074 220.486C85.4861 220.262 75.4547 219.02 65.6822 216.78C51.4446 213.517 37.8872 208.224 25.2573 201.016C25.1748 201.619 25.0988 202.216 25.0353 202.796C24.2773 209.873 24.951 215.441 25.8037 222.49C26.5198 228.414 27.4115 235.786 27.6842 246.16C27.7932 250.372 27.7932 254.539 27.6842 258.546C27.4724 261.188 27.1734 263.779 26.7936 266.293C26.4699 268.451 26.0711 270.644 25.6086 272.809C23.8779 282.154 22.2448 291.376 20.6208 300.977C15.994 328.364 14.9262 338.302 14.4614 344.961C13.9277 352.588 13.9128 357.682 13.891 365.394C13.8876 366.514 13.8842 367.69 13.879 368.927C15.6816 367.859 17.9324 367.536 19.8078 367.277L20.0724 367.24C21.3951 367.056 22.7126 366.947 23.9875 366.915C27.4168 366.833 32.1698 367.296 35.5431 369.928C39.7562 355.211 43.4463 340.216 46.5059 325.332C48.9779 313.31 51.104 301.073 52.834 288.942C52.0049 289.478 51.1272 289.945 50.202 290.311C48.888 290.831 47.5001 291.176 46.0886 291.35C44.6798 291.523 43.2349 291.586 41.8292 291.337C40.427 291.095 39.0558 290.671 37.8068 290.001C37.7849 289.989 37.7768 289.962 37.7884 289.94C37.7976 289.923 37.8164 289.914 37.8346 289.917C39.2298 290.124 40.5832 290.345 41.9445 290.463C43.3003 290.575 44.6582 290.739 46.0249 290.648C47.3879 290.567 48.7452 290.32 50.0528 289.896C51.0264 289.603 51.9678 289.199 52.8679 288.709C52.898 288.497 52.9304 288.285 52.9603 288.073C52.9712 287.994 52.993 287.917 53.0251 287.844C54.7459 283.895 56.215 279.781 57.3919 275.617C58.5006 271.708 59.083 268.683 59.4314 266.875L59.5633 266.189C62.0738 253.16 63.334 246.62 63.835 243.684C65.1928 235.736 67.1294 227.345 69.5911 218.745C69.7018 218.357 70.0685 218.081 70.4662 218.107C70.8702 218.12 71.2133 218.405 71.2993 218.799C73.1379 227.185 74.6883 235.77 76.1884 244.073C78.2949 255.737 80.4737 267.798 83.4789 279.456C83.4979 279.535 84.7734 285.119 85.8379 290.067C90.2277 310.451 92.4497 340.867 93.5493 363.321C94.3383 363.08 95.1172 362.792 95.8736 362.457C97.2807 361.833 98.1392 361.262 99.0486 360.656C99.7854 360.166 100.547 359.659 101.626 359.101C102.78 358.504 104.711 357.506 107.27 357.103C108.459 356.916 112.077 356.348 115.602 358.224C115.757 358.306 115.904 358.396 116.051 358.487C116.818 348.784 117.437 338.971 117.883 329.287C118.35 319.09 118.639 308.751 118.75 298.538C118.429 298.822 118.093 299.093 117.747 299.35C117.043 299.854 116.287 300.294 115.497 300.67C114.705 301.032 113.891 301.408 113.016 301.527C112.146 301.655 111.256 301.668 110.391 301.461C110.367 301.455 110.352 301.43 110.357 301.406C110.361 301.39 110.373 301.378 110.388 301.373C111.226 301.095 112.033 300.897 112.831 300.665C113.623 300.431 114.442 300.295 115.229 300.017C116.469 299.577 117.653 298.958 118.754 298.195C118.756 297.994 118.761 297.79 118.763 297.589C118.764 297.557 118.765 297.525 118.769 297.493C119.234 293.596 119.528 289.57 119.645 285.526C119.705 283.486 119.695 281.801 119.681 280.667ZM157.58 396.158L158.519 395.795C158.528 395.791 158.537 395.788 158.546 395.785L180.356 387.357C180.369 387.352 180.383 387.346 180.397 387.342L181.467 386.928C179.885 384.097 178.178 381.328 176.386 378.683C172.908 373.551 170.944 371.585 170.298 370.939C169.189 369.829 168.002 368.782 166.769 367.811L155.543 372.13C155.288 373.679 155.118 375.252 155.047 376.817C155.005 377.726 154.879 380.49 155.773 386.64C156.232 389.802 156.839 392.999 157.58 396.158ZM212.445 415.522C211.595 415.45 210.698 415.329 209.737 415.157C208.816 414.992 207.832 414.781 206.867 414.354C206.373 414.135 205.048 413.282 204.589 412.867C204.582 412.861 204.576 412.855 204.57 412.85C204.554 412.835 204.531 412.817 204.518 412.804C204.507 412.793 204.502 412.779 204.492 412.768C204.474 412.748 204.453 412.731 204.436 412.709C204.17 412.354 203.86 412.044 203.512 411.786C202.526 411.051 201.445 410.876 200.713 410.858C200.227 410.847 199.841 410.443 199.852 409.956C199.864 409.477 200.256 409.096 200.733 409.096C200.741 409.096 200.748 409.096 200.755 409.096C201.743 409.119 203.207 409.36 204.566 410.372C204.951 410.659 205.292 411.003 205.606 411.375C206.217 411.493 207.064 411.612 207.762 411.371C208.647 411.067 209.516 410.506 210.347 409.703C210.562 409.496 210.768 409.278 210.968 409.052C209.487 409.397 207.958 409.428 206.457 409.459L206.204 409.464C201.195 409.557 197.204 407.952 193.974 404.523C192.573 403.035 191.45 401.323 190.364 399.666C189.615 398.523 188.841 397.342 187.997 396.275C185.873 393.582 183.371 391.196 180.562 389.168L159.788 397.195C159.887 400.827 160.211 404.535 160.767 408.23C160.87 408.918 160.982 409.607 161.095 410.298C161.519 412.91 161.958 415.611 161.939 418.309L161.938 418.421C161.917 421.361 161.89 425.388 160.821 428.249L160.086 430.224C160.471 429.925 160.87 429.599 161.229 429.288C161.463 429.087 161.786 429.024 162.078 429.117C162.371 429.213 162.594 429.455 162.664 429.755C162.674 429.801 162.792 430.323 162.825 431.096C163.019 430.785 163.202 430.465 163.374 430.135C164.403 428.159 164.766 426.292 164.89 425.06C164.848 423.447 164.848 421.809 164.891 420.189C164.977 416.868 165.243 413.509 165.681 410.204C165.745 409.722 166.183 409.38 166.671 409.446C167.153 409.51 167.492 409.953 167.429 410.436C166.998 413.678 166.737 416.976 166.652 420.234C166.611 421.825 166.611 423.433 166.651 425.015C167.056 426.847 167.256 428.709 167.24 430.551C167.231 431.641 167.148 432.735 166.992 433.822C169.961 430.978 170.928 428.347 171.198 427.397C169.698 425.531 169.789 423.53 170.038 421.476C170.287 419.414 170.884 417.416 171.812 415.536C172.027 415.1 172.555 414.921 172.992 415.136C173.429 415.352 173.608 415.88 173.393 416.317C172.553 418.017 172.014 419.824 171.788 421.688C171.514 423.953 171.596 425.26 172.808 426.565C172.814 426.572 172.816 426.581 172.822 426.588C172.83 426.597 172.841 426.603 172.848 426.612C172.966 426.758 175.246 429.626 176.142 432.964C176.357 432.592 176.546 432.21 176.711 431.818C178.332 427.938 177.702 423.909 177.684 423.795L177.684 423.793L177.683 423.786C177.682 423.784 177.683 423.782 177.683 423.78C177.674 423.726 177.669 423.672 177.671 423.616C177.685 423.071 177.685 422.518 177.671 421.973C177.559 417.743 176.579 413.514 174.759 409.404C174.561 408.959 174.762 408.438 175.207 408.241C175.651 408.043 176.173 408.244 176.37 408.69C178.285 413.012 179.315 417.465 179.432 421.927C179.445 422.403 179.441 422.885 179.432 423.364C179.9 424.059 181.236 426.185 181.901 428.702C182.353 430.414 182.629 432.183 182.727 433.983C183.573 432.644 184.69 429.976 185.491 427.213C185.495 427.201 185.502 427.191 185.506 427.178C185.512 427.159 185.516 427.139 185.524 427.119C185.825 426.395 186.076 425.645 186.266 424.892C187.11 421.556 186.849 417.876 185.511 414.249C185.342 413.792 185.575 413.285 186.032 413.117C186.489 412.947 186.996 413.182 187.164 413.638C188.627 417.602 188.907 421.643 187.975 425.324C187.82 425.936 187.62 426.541 187.398 427.138C188.347 427.851 190.301 429.432 191.863 431.452C191.805 430.596 191.727 429.737 191.632 428.879C191.353 426.401 190.915 423.917 190.328 421.496C190.214 421.022 190.505 420.546 190.978 420.432C191.454 420.318 191.928 420.609 192.042 421.081C192.127 421.436 192.423 421.921 192.683 422.35C192.842 422.612 192.996 422.865 193.117 423.101C194.489 425.767 196.304 428.057 198.295 430.237C197.337 427.069 196.067 423.11 195.825 422.357C195.531 421.973 195.25 421.577 194.994 421.172C193.834 419.34 193.051 417.28 192.667 415.048C192.584 414.568 192.906 414.112 193.386 414.029C193.863 413.949 194.322 414.269 194.404 414.749C194.749 416.75 195.449 418.594 196.484 420.229C196.737 420.631 197.017 421.027 197.312 421.404C197.354 421.456 200.31 425.177 203.555 427.682C202.821 426.664 202.158 425.6 201.571 424.493C200.508 422.492 199.693 420.351 199.146 418.129L199.145 418.127C198.964 417.415 198.731 416.715 198.451 416.046C196.084 410.378 190.705 407.322 186.61 405.757C186.155 405.583 185.928 405.073 186.101 404.619C186.275 404.164 186.787 403.937 187.239 404.11C191.657 405.798 197.47 409.121 200.078 415.366C200.356 416.033 200.586 416.729 200.777 417.434C203.038 419.628 205.585 421.506 208.353 423.012C208.818 423.265 209.291 423.509 209.77 423.742C207.139 420.713 205.786 417.805 205.71 417.64C205.588 417.372 205.607 417.06 205.762 416.81C205.916 416.559 206.187 416.402 206.482 416.392C208.745 416.315 210.679 416.111 212.445 415.522Z" fill="#F2D701"/>
</svg>
