<svg width="242" height="188" viewBox="0 0 242 188" fill="none" xmlns="http://www.w3.org/2000/svg">
<g id="Shape_01" opacity="0.3">
<path id="Vector" d="M51.4575 149.683V149.73L39.2738 170.79H14.9064L2.72266 149.683V149.636L14.9064 128.577H39.2738V128.624L51.4575 149.683ZM39.1698 170.61L51.2495 149.683L39.1698 128.804H15.0103L2.9306 149.683L15.0103 170.61H39.1698Z" fill="#1F1F1F" fill-opacity="0.2"/>
<path id="Vector_2" d="M160.648 128.671L148.464 149.777H124.097V149.73L111.941 128.671L124.106 107.612H148.474L160.648 128.671ZM148.36 149.598L160.44 128.68L148.36 107.763H124.201L112.121 128.671L124.201 149.598H148.36Z" fill="#1F1F1F" fill-opacity="0.2"/>
<path id="Vector_3" d="M197.047 149.683V149.73L184.854 170.79H160.524L148.369 149.73V149.683L160.524 128.577H184.892V128.624L197.047 149.683ZM184.76 170.61L196.839 149.683L184.75 128.804H160.591L148.511 149.683L160.591 170.61H184.76Z" fill="#1F1F1F" fill-opacity="0.2"/>
<path id="Vector_4" d="M197.047 107.659V107.706L184.854 128.803H160.524V128.756L148.369 107.697L160.524 86.5528H184.892L197.047 107.659ZM184.76 128.577L196.839 107.659L184.76 86.7324H160.591L148.511 107.659L160.591 128.577H184.76Z" fill="#1F1F1F" fill-opacity="0.2"/>
<path id="Vector_5" d="M197.047 65.6352L184.854 86.7322H160.524L148.369 65.673L160.524 44.5287H184.892L197.047 65.6352ZM184.76 86.5526L196.839 65.6352L184.75 44.68H160.591L148.511 65.6068L160.591 86.5526H184.76Z" fill="#1F1F1F" fill-opacity="0.2"/>
<path id="Vector_6" d="M197.047 23.6023V23.6496L184.854 44.6804H160.524V44.6332L148.369 23.574L160.524 2.50534H184.892L197.047 23.6023ZM184.76 44.5292L196.839 23.6023L184.76 2.68493H160.591L148.511 23.6023L160.591 44.5292H184.76Z" fill="#1F1F1F" fill-opacity="0.2"/>
<path id="Vector_7" d="M233.437 128.671L221.253 149.777H196.886V149.73L184.73 128.671L196.895 107.612H221.263L233.437 128.671ZM221.149 149.598L233.229 128.68L221.149 107.763H196.99L184.91 128.671L196.99 149.598H221.149Z" fill="#1F1F1F" fill-opacity="0.2"/>
<path id="Vector_8" d="M233.438 86.647L221.254 107.753H196.887L184.703 86.647V86.5997L196.868 65.5405H221.235V65.5878L233.438 86.647ZM221.15 107.564L233.23 86.647L221.15 65.7201H196.991L184.911 86.647L196.991 107.564H221.15Z" fill="#1F1F1F" fill-opacity="0.2"/>
<path id="Vector_9" d="M233.437 44.614L221.282 65.6732H196.886V65.626L184.73 44.5668L196.895 23.5076H221.263L233.437 44.614ZM221.149 65.5409L233.229 44.614L221.149 23.6966H196.99L184.91 44.614L196.99 65.5409H221.149Z" fill="#1F1F1F" fill-opacity="0.2"/>
<path id="Vector_10" d="M247.039 170.61H233.39L221.31 149.693L233.39 128.766H247.039V128.586H233.276L221.121 149.645L221.093 149.693L233.258 170.752L233.276 170.79H247.039V170.61Z" fill="#1F1F1F" fill-opacity="0.2"/>
<path id="Vector_11" d="M247.039 128.586H233.39L221.31 107.659L233.39 86.7416H247.039V86.5621H233.276L221.121 107.621L221.093 107.659L233.258 128.718L233.276 128.766H247.039V128.586Z" fill="#1F1F1F" fill-opacity="0.2"/>
<path id="Vector_12" d="M247.039 86.5619H233.39L221.31 65.635L233.39 44.7082H247.039V44.5286H233.276L221.121 65.5877L221.093 65.635L233.258 86.6942L233.276 86.7415H247.039V86.5619Z" fill="#1F1F1F" fill-opacity="0.2"/>
<path id="Vector_13" d="M247.039 44.529H233.39L221.31 23.6116L233.39 2.68476H247.039V2.50517H233.276L221.121 23.5644L221.093 23.6116L233.258 44.6708L233.276 44.7086H247.039V44.529Z" fill="#1F1F1F" fill-opacity="0.2"/>
<path id="Vector_14" d="M50.7295 197H51.8354L59.2269 184.192H90.2958L97.6873 197H98.7932L90.844 183.247H58.6787L50.7295 197Z" fill="#1F1F1F" fill-opacity="0.2"/>
<path id="Vector_15" d="M106.93 156.328L90.8617 184.192H58.7247L42.6562 156.328L58.7247 128.473H90.8617L106.93 156.328ZM90.2946 183.238L105.834 156.328L90.2946 129.418H59.2257L43.6865 156.328L59.2257 183.238H90.2946Z" fill="#1F1F1F" fill-opacity="0.2"/>
<path id="Vector_16" d="M106.93 101.563L90.8617 129.418H58.7247L42.6562 101.563L58.7247 73.6978H90.8617L106.93 101.563ZM90.2946 128.473L105.834 101.563L90.2946 74.643H59.2257L43.6865 101.563L59.2257 128.473H90.2946Z" fill="#1F1F1F" fill-opacity="0.2"/>
<path id="Vector_17" d="M90.0215 183.72L97.6871 197H98.793L91.1179 183.72L106.657 156.81H137.735L153.265 183.72L145.6 197H146.696L154.371 183.72L138.284 155.855H106.109L90.0215 183.72Z" fill="#1F1F1F" fill-opacity="0.2"/>
<path id="Vector_18" d="M154.362 128.945L138.293 156.81H106.156L90.0879 128.945L106.156 101.08H138.293L154.362 128.945ZM137.736 155.855L153.265 128.945L137.736 102.035H106.648L91.1182 128.945L106.648 155.855H137.736Z" fill="#1F1F1F" fill-opacity="0.2"/>
<path id="Vector_19" d="M154.362 74.1707L138.293 102.035H106.156L90.0879 74.1707L106.156 46.3061H138.293L154.362 74.1707ZM137.736 101.081L153.265 74.1707L137.736 47.2607H106.648L91.1182 74.1707L106.648 101.081H137.736Z" fill="#1F1F1F" fill-opacity="0.2"/>
<path id="Vector_20" d="M145.6 197H146.696L154.088 184.192H185.166L192.557 197H193.654L185.714 183.247H153.539L145.6 197Z" fill="#1F1F1F" fill-opacity="0.2"/>
<path id="Vector_21" d="M201.802 156.328L185.734 184.192H153.597L137.528 156.328L153.597 128.473H185.734L201.802 156.328ZM185.167 183.238L200.706 156.328L185.167 129.418H154.088L138.559 156.328L154.088 183.238H185.167Z" fill="#1F1F1F" fill-opacity="0.2"/>
<path id="Vector_22" d="M201.802 101.563L185.734 129.418H153.597L137.528 101.563L153.597 73.6978H185.734L201.802 101.563ZM185.167 128.473L200.706 101.563L185.167 74.643H154.088L138.559 101.563L154.088 128.473H185.167Z" fill="#1F1F1F" fill-opacity="0.2"/>
<path id="Vector_23" d="M241.566 197L247.039 187.52V185.62L240.47 197H241.566Z" fill="#1F1F1F" fill-opacity="0.2"/>
<path id="Vector_24" d="M184.893 183.72L192.558 197H193.655L185.989 183.72L201.528 156.81H232.597L247.04 181.82V179.92L233.155 155.855H200.98L184.893 183.72Z" fill="#1F1F1F" fill-opacity="0.2"/>
<path id="Vector_25" d="M247.04 130.854L232.597 155.855H201.528L185.989 128.945L201.528 102.035H232.597L247.04 127.045V125.145L233.155 101.09H200.98L184.893 128.945L200.98 156.81H233.155L247.04 132.754V130.854Z" fill="#1F1F1F" fill-opacity="0.2"/>
<path id="Vector_26" d="M247.04 76.08L232.597 101.09H201.528L185.989 74.1802L201.528 47.2702H232.597L247.04 72.2709V70.371L233.155 46.3155H200.98L184.893 74.1802L200.98 102.035H233.155L247.04 77.9799V76.08Z" fill="#1F1F1F" fill-opacity="0.2"/>
<path id="Vector_27" d="M240.47 197H241.566L247.039 187.52V185.62L240.47 197Z" fill="#1F1F1F" fill-opacity="0.2"/>
<path id="Vector_28" d="M247.039 179.92L233.428 156.337L247.039 132.754V130.845L232.322 156.337L247.039 181.82V179.92Z" fill="#1F1F1F" fill-opacity="0.2"/>
<path id="Vector_29" d="M247.039 125.146L233.428 101.563L247.039 77.9798V76.0799L232.322 101.563L247.039 127.045V125.146Z" fill="#1F1F1F" fill-opacity="0.2"/>
<path id="Vector_30" d="M247.039 70.3709L233.428 46.788L247.039 23.2051V21.3053L232.322 46.788L247.039 72.2708V70.3709Z" fill="#1F1F1F" fill-opacity="0.2"/>
<path id="Vector_31" d="M16.4651 128.671C16.4651 128.372 16.3764 128.08 16.2102 127.831C16.044 127.582 15.8078 127.389 15.5315 127.274C15.2552 127.16 14.9511 127.13 14.6577 127.188C14.3644 127.246 14.0949 127.39 13.8834 127.602C13.6719 127.813 13.5278 128.083 13.4695 128.376C13.4111 128.67 13.4411 128.974 13.5555 129.25C13.67 129.526 13.8639 129.763 14.1126 129.929C14.3613 130.095 14.6537 130.184 14.9528 130.184C15.1514 130.184 15.348 130.144 15.5315 130.068C15.715 129.992 15.8817 129.881 16.0221 129.741C16.1626 129.6 16.274 129.433 16.35 129.25C16.426 129.067 16.4651 128.87 16.4651 128.671Z" fill="#1F1F1F" fill-opacity="0.2"/>
<path id="Vector_32" d="M49.4238 149.683C49.4238 150.057 49.5347 150.422 49.7424 150.733C49.9501 151.044 50.2454 151.286 50.5908 151.429C50.9362 151.572 51.3163 151.61 51.683 151.537C52.0497 151.464 52.3866 151.284 52.651 151.019C52.9153 150.755 53.0954 150.418 53.1683 150.052C53.2413 149.685 53.2038 149.305 53.0608 148.959C52.9177 148.614 52.6754 148.319 52.3645 148.111C52.0536 147.903 51.6881 147.792 51.3142 147.792C50.8129 147.792 50.332 147.991 49.9775 148.346C49.623 148.701 49.4238 149.181 49.4238 149.683Z" fill="#1F1F1F" fill-opacity="0.2"/>
<path id="Vector_33" d="M40.4455 170.704C40.4455 170.031 39.8996 169.485 39.2262 169.485C38.5527 169.485 38.0068 170.031 38.0068 170.704C38.0068 171.378 38.5527 171.923 39.2262 171.923C39.8996 171.923 40.4455 171.378 40.4455 170.704Z" fill="#1F1F1F" fill-opacity="0.2"/>
<path id="Vector_34" d="M15.908 170.695C15.908 170.508 15.8526 170.325 15.7487 170.17C15.6448 170.014 15.4972 169.893 15.3245 169.822C15.1518 169.75 14.9617 169.731 14.7784 169.768C14.595 169.804 14.4266 169.894 14.2944 170.026C14.1622 170.159 14.0722 170.327 14.0357 170.51C13.9993 170.694 14.018 170.884 14.0895 171.057C14.1611 171.229 14.2822 171.377 14.4377 171.481C14.5931 171.585 14.7758 171.64 14.9628 171.64C15.2135 171.64 15.4539 171.54 15.6311 171.363C15.8084 171.186 15.908 170.945 15.908 170.695Z" fill="#1F1F1F" fill-opacity="0.2"/>
<path id="Vector_35" d="M5.65233 149.693C5.65233 148.132 4.38701 146.866 2.82616 146.866C1.26532 146.866 0 148.132 0 149.693C0 151.253 1.26532 152.519 2.82616 152.519C4.38701 152.519 5.65233 151.253 5.65233 149.693Z" fill="#1F1F1F" fill-opacity="0.2"/>
<path id="Vector_36" d="M41.5978 128.671C41.5997 128.199 41.4616 127.738 41.201 127.345C40.9404 126.952 40.569 126.645 40.134 126.464C39.6989 126.282 39.2197 126.233 38.757 126.324C38.2943 126.415 37.8691 126.641 37.535 126.974C37.2009 127.307 36.9731 127.731 36.8805 128.193C36.7878 128.656 36.8344 129.135 37.0144 129.571C37.1944 130.007 37.4997 130.379 37.8916 130.641C38.2835 130.903 38.7444 131.043 39.2159 131.043C39.5282 131.045 39.8378 130.984 40.1267 130.866C40.4156 130.747 40.6783 130.572 40.8996 130.352C41.1209 130.131 41.2965 129.87 41.4163 129.581C41.5361 129.293 41.5978 128.983 41.5978 128.671Z" fill="#1F1F1F" fill-opacity="0.2"/>
<path id="Vector_37" d="M121.932 149.683C121.932 150.12 122.061 150.548 122.304 150.912C122.547 151.275 122.893 151.559 123.297 151.726C123.701 151.894 124.146 151.937 124.575 151.852C125.004 151.767 125.398 151.556 125.707 151.247C126.017 150.938 126.227 150.543 126.313 150.114C126.398 149.685 126.354 149.241 126.187 148.836C126.019 148.432 125.736 148.087 125.372 147.844C125.008 147.601 124.581 147.471 124.143 147.471C123.557 147.471 122.994 147.704 122.579 148.119C122.165 148.534 121.932 149.096 121.932 149.683Z" fill="#1F1F1F" fill-opacity="0.2"/>
<path id="Vector_38" d="M112.215 170.704C112.215 170.595 112.126 170.506 112.017 170.506C111.907 170.506 111.818 170.595 111.818 170.704C111.818 170.814 111.907 170.903 112.017 170.903C112.126 170.903 112.215 170.814 112.215 170.704Z" fill="#1F1F1F" fill-opacity="0.2"/>
<path id="Vector_39" d="M89.5204 170.705C89.5204 169.728 88.7291 168.937 87.7529 168.937C86.7767 168.937 85.9854 169.728 85.9854 170.705C85.9854 171.681 86.7767 172.472 87.7529 172.472C88.7291 172.472 89.5204 171.681 89.5204 170.705Z" fill="#1F1F1F" fill-opacity="0.2"/>
<path id="Vector_40" d="M74.0947 149.683C74.0947 149.984 74.184 150.278 74.3512 150.528C74.5184 150.779 74.7561 150.974 75.0341 151.089C75.3122 151.204 75.6182 151.234 75.9134 151.175C76.2086 151.117 76.4797 150.972 76.6926 150.759C76.9054 150.546 77.0503 150.275 77.109 149.98C77.1678 149.685 77.1376 149.379 77.0225 149.101C76.9073 148.822 76.7122 148.585 76.462 148.418C76.2117 148.25 75.9175 148.161 75.6165 148.161C75.2129 148.161 74.8258 148.321 74.5404 148.607C74.2551 148.892 74.0947 149.279 74.0947 149.683Z" fill="#1F1F1F" fill-opacity="0.2"/>
<path id="Vector_41" d="M124.144 109.03C124.418 109.032 124.686 108.952 124.914 108.801C125.143 108.65 125.321 108.435 125.427 108.182C125.532 107.93 125.56 107.651 125.507 107.383C125.454 107.114 125.323 106.868 125.129 106.674C124.936 106.48 124.689 106.349 124.42 106.296C124.152 106.243 123.874 106.271 123.621 106.377C123.368 106.482 123.153 106.661 123.002 106.889C122.851 107.117 122.772 107.385 122.773 107.659C122.773 108.023 122.918 108.371 123.175 108.628C123.432 108.885 123.781 109.03 124.144 109.03Z" fill="#1F1F1F" fill-opacity="0.2"/>
<path id="Vector_42" d="M114.691 128.671C114.691 128.14 114.533 127.62 114.238 127.179C113.943 126.737 113.523 126.393 113.032 126.19C112.541 125.987 112 125.935 111.479 126.039C110.958 126.143 110.48 126.4 110.105 126.776C109.73 127.153 109.475 127.632 109.373 128.153C109.27 128.675 109.325 129.215 109.529 129.705C109.734 130.195 110.079 130.614 110.522 130.908C110.965 131.202 111.485 131.357 112.016 131.356C112.368 131.356 112.717 131.286 113.042 131.151C113.367 131.016 113.662 130.818 113.911 130.569C114.159 130.319 114.356 130.023 114.49 129.698C114.624 129.372 114.692 129.023 114.691 128.671Z" fill="#1F1F1F" fill-opacity="0.2"/>
<path id="Vector_43" d="M150.684 107.659C150.692 107.207 150.565 106.763 150.319 106.383C150.073 106.004 149.72 105.706 149.305 105.528C148.889 105.349 148.43 105.299 147.986 105.383C147.541 105.466 147.132 105.68 146.81 105.997C146.487 106.314 146.267 106.72 146.176 107.163C146.085 107.606 146.127 108.066 146.299 108.484C146.47 108.902 146.762 109.26 147.137 109.512C147.513 109.764 147.954 109.899 148.407 109.899C149.004 109.899 149.578 109.664 150.004 109.245C150.43 108.826 150.675 108.257 150.684 107.659Z" fill="#1F1F1F" fill-opacity="0.2"/>
<path id="Vector_44" d="M148.407 64.5294C148.192 64.5294 147.982 64.5931 147.803 64.7126C147.625 64.832 147.485 65.0018 147.403 65.2004C147.321 65.399 147.299 65.6176 147.341 65.8284C147.383 66.0393 147.487 66.233 147.639 66.385C147.791 66.537 147.984 66.6405 148.195 66.6825C148.406 66.7244 148.625 66.7029 148.823 66.6206C149.022 66.5384 149.192 66.399 149.311 66.2203C149.431 66.0415 149.494 65.8314 149.494 65.6164C149.496 65.4733 149.468 65.3314 149.414 65.1989C149.36 65.0665 149.28 64.9461 149.179 64.845C149.078 64.7438 148.957 64.6638 148.825 64.6096C148.692 64.5554 148.55 64.5281 148.407 64.5294Z" fill="#1F1F1F" fill-opacity="0.2"/>
<path id="Vector_45" d="M162.632 44.6137C162.632 44.1982 162.509 43.7922 162.278 43.4469C162.047 43.1016 161.719 42.8327 161.335 42.6741C160.951 42.5156 160.528 42.4746 160.121 42.5563C159.714 42.6381 159.34 42.8389 159.047 43.1333C158.754 43.4277 158.555 43.8025 158.475 44.2101C158.395 44.6178 158.438 45.04 158.598 45.4232C158.758 45.8065 159.029 46.1336 159.375 46.363C159.721 46.5924 160.128 46.7139 160.543 46.712C160.818 46.712 161.091 46.6577 161.345 46.5521C161.599 46.4465 161.83 46.2918 162.024 46.0969C162.218 45.9019 162.372 45.6705 162.476 45.416C162.58 45.1614 162.633 44.8888 162.632 44.6137Z" fill="#1F1F1F" fill-opacity="0.2"/>
<path id="Vector_46" d="M148.407 21.5887C148.006 21.5887 147.615 21.7076 147.282 21.9302C146.949 22.1529 146.69 22.4694 146.537 22.8395C146.384 23.2097 146.345 23.6169 146.423 24.0095C146.502 24.4021 146.696 24.7625 146.98 25.0451C147.263 25.3276 147.625 25.5195 148.018 25.5964C148.411 25.6734 148.818 25.632 149.187 25.4775C149.557 25.3229 149.872 25.0622 150.093 24.7283C150.314 24.3944 150.431 24.0024 150.429 23.602C150.429 23.3368 150.377 23.0742 150.275 22.8293C150.173 22.5844 150.024 22.3621 149.836 22.175C149.648 21.9879 149.425 21.8398 149.18 21.7392C148.935 21.6386 148.672 21.5874 148.407 21.5887Z" fill="#1F1F1F" fill-opacity="0.2"/>
<path id="Vector_47" d="M162.907 2.59036C162.901 2.12506 162.758 1.67177 162.496 1.28733C162.234 0.902897 161.864 0.604429 161.433 0.429369C161.001 0.254309 160.528 0.210454 160.072 0.303286C159.616 0.396119 159.198 0.621517 158.869 0.951211C158.541 1.28091 158.317 1.70021 158.226 2.15656C158.135 2.61291 158.181 3.08598 158.358 3.51643C158.535 3.94689 158.834 4.31557 159.22 4.57624C159.605 4.83691 160.059 4.97798 160.525 4.98173C160.839 4.98427 161.151 4.92408 161.441 4.80468C161.732 4.68528 161.996 4.50908 162.218 4.28639C162.44 4.06369 162.615 3.79899 162.733 3.50776C162.851 3.21654 162.91 2.90466 162.907 2.59036Z" fill="#1F1F1F" fill-opacity="0.2"/>
<path id="Vector_48" d="M198.304 149.692C198.304 148.941 197.695 148.331 196.943 148.331C196.191 148.331 195.582 148.941 195.582 149.692C195.582 150.444 196.191 151.054 196.943 151.054C197.695 151.054 198.304 150.444 198.304 149.692Z" fill="#1F1F1F" fill-opacity="0.2"/>
<path id="Vector_49" d="M185.894 170.704C185.894 170.104 185.407 169.617 184.807 169.617C184.206 169.617 183.72 170.104 183.72 170.704C183.72 171.305 184.206 171.791 184.807 171.791C185.407 171.791 185.894 171.305 185.894 170.704Z" fill="#1F1F1F" fill-opacity="0.2"/>
<path id="Vector_50" d="M160.525 171.215C160.661 171.212 160.791 171.156 160.886 171.059C160.982 170.962 161.035 170.831 161.035 170.695C161.035 170.559 160.981 170.43 160.886 170.334C160.79 170.238 160.66 170.184 160.525 170.184C160.388 170.184 160.258 170.238 160.16 170.333C160.063 170.429 160.007 170.559 160.005 170.695C160.005 170.833 160.06 170.965 160.157 171.062C160.255 171.16 160.387 171.215 160.525 171.215Z" fill="#1F1F1F" fill-opacity="0.2"/>
<path id="Vector_51" d="M150.544 149.692C150.544 148.513 149.587 147.556 148.408 147.556C147.228 147.556 146.271 148.513 146.271 149.692C146.271 150.872 147.228 151.829 148.408 151.829C149.587 151.829 150.544 150.872 150.544 149.692Z" fill="#1F1F1F" fill-opacity="0.2"/>
<path id="Vector_52" d="M184.806 130.429C185.154 130.429 185.494 130.326 185.783 130.133C186.072 129.94 186.297 129.665 186.43 129.344C186.563 129.023 186.598 128.669 186.53 128.328C186.462 127.987 186.295 127.674 186.049 127.428C185.803 127.182 185.49 127.015 185.149 126.947C184.808 126.879 184.454 126.914 184.133 127.047C183.812 127.18 183.537 127.405 183.344 127.694C183.151 127.983 183.048 128.323 183.048 128.671C183.048 129.137 183.233 129.585 183.563 129.914C183.892 130.244 184.34 130.429 184.806 130.429Z" fill="#1F1F1F" fill-opacity="0.2"/>
<path id="Vector_53" d="M160.524 127.461C160.285 127.461 160.051 127.532 159.852 127.665C159.653 127.798 159.498 127.987 159.407 128.208C159.315 128.429 159.291 128.672 159.338 128.907C159.384 129.142 159.5 129.357 159.669 129.527C159.838 129.696 160.054 129.811 160.288 129.858C160.523 129.904 160.766 129.88 160.987 129.789C161.208 129.697 161.397 129.542 161.53 129.343C161.663 129.144 161.734 128.91 161.734 128.671C161.734 128.35 161.607 128.043 161.38 127.816C161.153 127.589 160.845 127.461 160.524 127.461Z" fill="#1F1F1F" fill-opacity="0.2"/>
<path id="Vector_54" d="M159.578 86.647C159.588 86.8316 159.651 87.0095 159.76 87.1586C159.869 87.3077 160.02 87.4215 160.193 87.4858C160.367 87.5502 160.555 87.5623 160.735 87.5206C160.915 87.479 161.079 87.3855 161.207 87.2516C161.334 87.1177 161.42 86.9494 161.453 86.7674C161.485 86.5855 161.464 86.3979 161.391 86.2279C161.319 86.0579 161.198 85.913 161.043 85.8111C160.889 85.7092 160.708 85.6547 160.524 85.6545C160.395 85.6543 160.268 85.6803 160.151 85.7307C160.033 85.7811 159.926 85.855 159.838 85.9479C159.749 86.0407 159.681 86.1505 159.636 86.2707C159.592 86.3909 159.572 86.5189 159.578 86.647Z" fill="#1F1F1F" fill-opacity="0.2"/>
<path id="Vector_55" d="M196.933 67.2991C197.262 67.2991 197.584 67.2015 197.857 67.0187C198.131 66.8359 198.344 66.5761 198.47 66.2721C198.596 65.9681 198.629 65.6337 198.565 65.311C198.501 64.9883 198.342 64.6918 198.109 64.4592C197.877 64.2265 197.58 64.0681 197.258 64.0039C196.935 63.9397 196.6 63.9727 196.296 64.0986C195.993 64.2245 195.733 64.4377 195.55 64.7113C195.367 64.9849 195.27 65.3065 195.27 65.6355C195.27 66.0767 195.445 66.4998 195.757 66.8118C196.069 67.1238 196.492 67.2991 196.933 67.2991Z" fill="#1F1F1F" fill-opacity="0.2"/>
<path id="Vector_56" d="M182.406 86.6472C182.406 87.122 182.547 87.5862 182.811 87.981C183.075 88.3758 183.45 88.6835 183.888 88.8652C184.327 89.0469 184.81 89.0945 185.275 89.0018C185.741 88.9092 186.169 88.6805 186.505 88.3448C186.84 88.009 187.069 87.5812 187.162 87.1155C187.254 86.6498 187.207 86.1671 187.025 85.7284C186.843 85.2897 186.536 84.9147 186.141 84.6509C185.746 84.3871 185.282 84.2463 184.807 84.2463C184.17 84.2463 183.56 84.4993 183.109 84.9495C182.659 85.3998 182.406 86.0104 182.406 86.6472Z" fill="#1F1F1F" fill-opacity="0.2"/>
<path id="Vector_57" d="M187.397 2.58982C187.397 2.07759 187.245 1.57687 186.96 1.15097C186.675 0.725066 186.271 0.393114 185.798 0.197093C185.325 0.00107241 184.804 -0.0502086 184.301 0.0497222C183.799 0.149652 183.338 0.396312 182.975 0.758511C182.613 1.12071 182.366 1.58218 182.267 2.08456C182.167 2.58695 182.218 3.10768 182.414 3.58092C182.61 4.05415 182.942 4.45864 183.368 4.74321C183.794 5.02779 184.294 5.17969 184.807 5.17969C185.147 5.17969 185.484 5.1127 185.798 4.98254C186.112 4.85239 186.397 4.66162 186.638 4.42113C186.878 4.18063 187.069 3.89513 187.199 3.58092C187.33 3.2667 187.397 2.92992 187.397 2.58982Z" fill="#1F1F1F" fill-opacity="0.2"/>
<path id="Vector_58" d="M196.934 109.247C197.25 109.249 197.561 109.157 197.825 108.982C198.089 108.807 198.295 108.558 198.417 108.265C198.539 107.973 198.572 107.651 198.51 107.34C198.449 107.03 198.297 106.744 198.073 106.52C197.849 106.296 197.563 106.144 197.252 106.083C196.942 106.021 196.62 106.054 196.327 106.176C196.035 106.298 195.786 106.504 195.611 106.768C195.436 107.032 195.344 107.342 195.346 107.659C195.348 108.08 195.516 108.482 195.814 108.779C196.111 109.077 196.513 109.245 196.934 109.247Z" fill="#1F1F1F" fill-opacity="0.2"/>
<path id="Vector_59" d="M223.853 107.659C223.853 107.143 223.7 106.639 223.414 106.21C223.127 105.781 222.72 105.446 222.243 105.249C221.766 105.052 221.242 105 220.736 105.101C220.23 105.201 219.765 105.45 219.4 105.814C219.035 106.179 218.787 106.644 218.686 107.15C218.585 107.656 218.637 108.181 218.834 108.658C219.032 109.134 219.366 109.542 219.795 109.828C220.224 110.115 220.729 110.268 221.245 110.268C221.587 110.268 221.926 110.2 222.243 110.069C222.559 109.938 222.847 109.746 223.089 109.504C223.331 109.262 223.524 108.974 223.655 108.658C223.786 108.341 223.853 108.002 223.853 107.659Z" fill="#1F1F1F" fill-opacity="0.2"/>
<path id="Vector_60" d="M187.529 44.6233C187.529 43.1198 186.311 41.9011 184.807 41.9011C183.304 41.9011 182.085 43.1198 182.085 44.6233C182.085 46.1267 183.304 47.3455 184.807 47.3455C186.311 47.3455 187.529 46.1267 187.529 44.6233Z" fill="#1F1F1F" fill-opacity="0.2"/>
<path id="Vector_61" d="M197.945 23.6116C197.945 23.0583 197.497 22.6097 196.943 22.6097C196.39 22.6097 195.941 23.0583 195.941 23.6116C195.941 24.165 196.39 24.6135 196.943 24.6135C197.497 24.6135 197.945 24.165 197.945 23.6116Z" fill="#1F1F1F" fill-opacity="0.2"/>
<path id="Vector_62" d="M235.337 2.59002C235.337 2.19264 235.219 1.80415 234.999 1.47349C234.779 1.14283 234.465 0.884779 234.099 0.731859C233.732 0.578938 233.328 0.537977 232.938 0.614141C232.548 0.690304 232.189 0.880191 231.907 1.15987C231.625 1.43954 231.431 1.7965 231.352 2.18578C231.272 2.57507 231.309 2.97926 231.458 3.34746C231.608 3.71565 231.863 4.03138 232.192 4.25486C232.52 4.47834 232.908 4.59958 233.305 4.60331C233.571 4.60709 233.836 4.55773 234.083 4.45812C234.33 4.35852 234.554 4.21066 234.744 4.0232C234.933 3.83575 235.083 3.61246 235.185 3.36638C235.287 3.1203 235.338 2.85637 235.337 2.59002Z" fill="#1F1F1F" fill-opacity="0.2"/>
<path id="Vector_63" d="M224.279 23.6113C224.279 21.9147 222.903 20.5394 221.207 20.5394C219.51 20.5394 218.135 21.9147 218.135 23.6113C218.135 25.3079 219.51 26.6832 221.207 26.6832C222.903 26.6832 224.279 25.3079 224.279 23.6113Z" fill="#1F1F1F" fill-opacity="0.2"/>
<path id="Vector_64" d="M233.305 170.298C233.247 170.289 233.188 170.293 233.132 170.309C233.075 170.325 233.023 170.353 232.979 170.391C232.934 170.429 232.899 170.477 232.874 170.53C232.85 170.583 232.837 170.641 232.837 170.7C232.837 170.758 232.85 170.816 232.874 170.869C232.899 170.923 232.934 170.97 232.979 171.008C233.023 171.046 233.075 171.074 233.132 171.09C233.188 171.106 233.247 171.11 233.305 171.101C233.363 171.11 233.422 171.106 233.479 171.09C233.535 171.074 233.587 171.046 233.632 171.008C233.676 170.97 233.712 170.923 233.736 170.869C233.761 170.816 233.773 170.758 233.773 170.7C233.773 170.641 233.761 170.583 233.736 170.53C233.712 170.477 233.676 170.429 233.632 170.391C233.587 170.353 233.535 170.325 233.479 170.309C233.422 170.293 233.363 170.289 233.305 170.298Z" fill="#1F1F1F" fill-opacity="0.2"/>
<path id="Vector_65" d="M219.893 149.683C219.891 149.944 219.966 150.199 220.11 150.417C220.254 150.634 220.459 150.804 220.699 150.905C220.94 151.005 221.205 151.032 221.46 150.982C221.716 150.931 221.951 150.806 222.135 150.622C222.32 150.437 222.445 150.202 222.495 149.947C222.546 149.691 222.519 149.426 222.418 149.185C222.318 148.945 222.148 148.74 221.93 148.596C221.713 148.453 221.458 148.377 221.197 148.379C220.851 148.379 220.519 148.516 220.275 148.761C220.03 149.005 219.893 149.337 219.893 149.683Z" fill="#1F1F1F" fill-opacity="0.2"/>
<path id="Vector_66" d="M229.988 128.671C229.988 129.334 230.185 129.982 230.554 130.533C230.923 131.084 231.447 131.513 232.06 131.765C232.674 132.017 233.348 132.082 233.998 131.951C234.647 131.819 235.244 131.498 235.71 131.027C236.177 130.556 236.494 129.957 236.619 129.306C236.745 128.655 236.675 127.982 236.417 127.371C236.16 126.76 235.727 126.239 235.173 125.875C234.619 125.511 233.969 125.319 233.306 125.325C232.424 125.335 231.582 125.692 230.961 126.318C230.34 126.944 229.991 127.789 229.988 128.671Z" fill="#1F1F1F" fill-opacity="0.2"/>
<path id="Vector_67" d="M231.311 86.6473C231.311 87.0485 231.43 87.4407 231.654 87.7739C231.877 88.1071 232.195 88.3664 232.566 88.5186C232.937 88.6708 233.345 88.7092 233.738 88.6288C234.132 88.5484 234.492 88.353 234.774 88.0672C235.055 87.7815 235.246 87.4184 235.321 87.0242C235.395 86.63 235.351 86.2224 235.194 85.8533C235.036 85.4843 234.773 85.1704 234.436 84.9515C234.1 84.7327 233.706 84.6189 233.305 84.6245C232.773 84.6295 232.264 84.8451 231.89 85.2242C231.516 85.6033 231.308 86.1149 231.311 86.6473Z" fill="#1F1F1F" fill-opacity="0.2"/>
<path id="Vector_68" d="M223.503 65.6354C223.505 65.1789 223.371 64.732 223.119 64.3515C222.867 63.971 222.507 63.6739 222.086 63.4979C221.665 63.3219 221.201 63.2749 220.753 63.3628C220.305 63.4507 219.893 63.6696 219.569 63.9918C219.246 64.314 219.025 64.7249 218.936 65.1725C218.846 65.6202 218.891 66.0844 219.065 66.5063C219.24 66.9283 219.535 67.2891 219.915 67.5429C220.294 67.7967 220.74 67.9322 221.197 67.9323C221.807 67.9323 222.392 67.6906 222.824 67.2601C223.257 66.8296 223.501 66.2454 223.503 65.6354Z" fill="#1F1F1F" fill-opacity="0.2"/>
<path id="Vector_69" d="M233.305 41.9861C232.782 41.9843 232.271 42.1376 231.836 42.4266C231.401 42.7157 231.062 43.1275 230.861 43.6097C230.66 44.092 230.607 44.623 230.708 45.1354C230.81 45.6478 231.061 46.1186 231.431 46.488C231.8 46.8574 232.271 47.1087 232.783 47.2102C233.296 47.3116 233.827 47.2586 234.309 47.0578C234.791 46.857 235.203 46.5176 235.492 46.0825C235.781 45.6474 235.934 45.1362 235.932 44.6138C235.932 43.9169 235.656 43.2486 235.163 42.7558C234.67 42.263 234.002 41.9861 233.305 41.9861Z" fill="#1F1F1F" fill-opacity="0.2"/>
</g>
</svg>
