<svg width="408" height="609" viewBox="0 0 408 609" fill="none" xmlns="http://www.w3.org/2000/svg">
<g filter="url(#filter0_d_11387_7190)">
<rect x="50" y="40" width="308" height="509" rx="154" fill="#3CA200"/>
</g>
<g filter="url(#filter1_d_11387_7190)">
<path d="M70 194C70 119.994 129.994 60 204 60C278.006 60 338 119.994 338 194V395C338 403.12 337.278 411.071 335.894 418.793C334.698 425.466 328.673 430 321.894 430H273.726C265.546 430 259.083 423.322 256.778 415.473C250.077 392.658 228.984 376 204 376C179.016 376 157.923 392.658 151.222 415.473C148.917 423.322 142.454 430 134.274 430H86.1057C79.3266 430 73.3017 425.466 72.1059 418.793C70.7222 411.071 70 403.12 70 395V194Z" fill="white"/>
</g>
<defs>
<filter id="filter0_d_11387_7190" x="0" y="0" width="408" height="609" filterUnits="userSpaceOnUse" color-interpolation-filters="sRGB">
<feFlood flood-opacity="0" result="BackgroundImageFix"/>
<feColorMatrix in="SourceAlpha" type="matrix" values="0 0 0 0 0 0 0 0 0 0 0 0 0 0 0 0 0 0 127 0" result="hardAlpha"/>
<feOffset dy="10"/>
<feGaussianBlur stdDeviation="25"/>
<feComposite in2="hardAlpha" operator="out"/>
<feColorMatrix type="matrix" values="0 0 0 0 0 0 0 0 0 0 0 0 0 0 0 0 0 0 0.08 0"/>
<feBlend mode="normal" in2="BackgroundImageFix" result="effect1_dropShadow_11387_7190"/>
<feBlend mode="normal" in="SourceGraphic" in2="effect1_dropShadow_11387_7190" result="shape"/>
</filter>
<filter id="filter1_d_11387_7190" x="20" y="20" width="368" height="470" filterUnits="userSpaceOnUse" color-interpolation-filters="sRGB">
<feFlood flood-opacity="0" result="BackgroundImageFix"/>
<feColorMatrix in="SourceAlpha" type="matrix" values="0 0 0 0 0 0 0 0 0 0 0 0 0 0 0 0 0 0 127 0" result="hardAlpha"/>
<feOffset dy="10"/>
<feGaussianBlur stdDeviation="25"/>
<feComposite in2="hardAlpha" operator="out"/>
<feColorMatrix type="matrix" values="0 0 0 0 0 0 0 0 0 0 0 0 0 0 0 0 0 0 0.08 0"/>
<feBlend mode="normal" in2="BackgroundImageFix" result="effect1_dropShadow_11387_7190"/>
<feBlend mode="normal" in="SourceGraphic" in2="effect1_dropShadow_11387_7190" result="shape"/>
</filter>
</defs>
</svg>
