<svg width="308" height="390" viewBox="0 0 308 390" fill="none" xmlns="http://www.w3.org/2000/svg">
<path d="M0 141.243C0 63.2367 68.9482 0 154 0C239.052 0 308 63.2368 308 141.243V353.108C308 361.667 307.17 370.048 305.58 378.187C304.206 385.221 297.281 390 289.49 390H234.133C224.732 390 217.304 382.961 214.655 374.688C206.954 350.64 182.713 333.081 154 333.081C125.287 333.081 101.046 350.64 93.3448 374.688C90.6956 382.961 83.268 390 73.8671 390H18.5096C10.7186 390 3.79447 385.221 2.42025 378.187C0.830016 370.048 0 361.667 0 353.108V141.243Z" fill="white"/>
</svg>
