<svg width="166" height="200" viewBox="0 0 166 200" fill="none" xmlns="http://www.w3.org/2000/svg">
<path d="M157.485 198.699C148.595 195.482 141.399 188.66 137.734 179.973L135.264 174.117C129.74 161.017 132.616 146.109 142.588 136.141C157.542 121.197 165.856 101.341 165.998 80.2191C166.283 36.6095 131.221 0.629195 87.831 0.00711961C65.9866 -0.300343 45.5089 8.15845 30.163 23.839C14.8242 39.5125 6.74552 60.2269 7.41459 82.1711C7.91995 98.581 13.3793 114.204 23.2089 127.354C26.8817 132.28 26.4048 139.259 22.0985 143.585L21.5932 144.1C19.0592 146.645 15.6712 147.961 12.2902 147.711C11.8916 147.682 11.5002 147.675 11.0945 147.682C5.0586 147.868 0.190084 152.759 0.0050223 158.822C-0.0875086 162.033 1.10113 165.05 3.35746 167.31C5.61379 169.576 8.62461 170.763 11.8134 170.67C17.7567 170.477 22.6181 165.658 22.8815 159.702C22.8957 159.323 22.8957 158.929 22.8743 158.522C22.6893 155.197 24.0061 151.858 26.4902 149.362L27.8995 147.947C31.9993 143.828 38.5334 143.17 43.4376 146.388C52.9469 152.63 63.4385 156.677 74.5991 158.408C74.9194 158.458 75.2326 158.236 75.2824 157.907C75.3322 157.578 75.1116 157.271 74.7842 157.221C63.7873 155.519 53.4594 151.536 44.0924 145.387C38.7185 141.862 31.558 142.584 27.0596 147.103L25.6503 148.519C22.9242 151.257 21.4793 154.925 21.6857 158.593C21.707 158.958 21.7071 159.316 21.6928 159.652C21.4579 164.993 17.1019 169.305 11.7849 169.476C8.92357 169.569 6.23304 168.497 4.2116 166.466C2.19016 164.435 1.12247 161.74 1.20788 158.865C1.37159 153.438 5.73479 149.055 11.1372 148.89C11.5002 148.876 11.8489 148.89 12.2048 148.912C15.9345 149.184 19.6642 147.739 22.4402 144.951L22.9456 144.436C27.6717 139.688 28.1984 132.037 24.1698 126.639C14.4896 113.682 9.10861 98.295 8.61037 82.1354C7.94842 60.52 15.9061 40.1131 31.0171 24.6828C46.1352 9.23815 66.3212 0.900906 87.8168 1.21552C130.552 1.83044 165.087 37.2673 164.802 80.2119C164.667 101.012 156.475 120.575 141.748 135.291C131.42 145.608 128.445 161.032 134.168 174.589L136.638 180.445C140.431 189.44 147.884 196.504 157.08 199.836C157.144 199.858 157.215 199.872 157.279 199.872C157.521 199.872 157.756 199.722 157.841 199.472C157.955 199.157 157.792 198.814 157.478 198.699H157.485Z" fill="#D8DDE1"/>
</svg>
