<svg width="84" height="66" viewBox="0 0 84 66" fill="none" xmlns="http://www.w3.org/2000/svg">
<g id="07">
<path id="Vector" d="M52.8961 12.5978C49.4391 12.315 45.0896 14.1597 44.0525 17.1137C43.0154 14.1628 37.7104 12.3464 34.2534 12.6293C25.1301 13.3709 22.0439 23.5433 25.9126 30.3846C27.9931 34.0677 30.985 37.2856 34.2503 40.1768C36.9845 42.5965 44.0336 47.7314 44.0525 47.7126C44.0745 47.7314 51.1236 42.5965 53.8547 40.1768C57.1168 37.2856 60.1087 34.0677 62.1923 30.3846C66.061 23.5433 62.0195 13.3426 52.8961 12.601V12.5978ZM60.2658 29.2753C57.7517 29.3381 55.2375 29.4041 52.7264 29.467C52.5159 29.4733 52.3084 29.3193 52.255 29.1307C51.5008 26.3904 50.7434 23.6501 49.9891 20.9067C49.9011 21.1675 49.8131 21.4284 49.7251 21.6892C47.8772 27.1478 46.0261 32.6064 44.1782 38.065C44.0305 38.5049 43.3894 38.4986 43.2385 38.065C43.0374 37.4899 42.8362 36.9117 42.632 36.3366C41.3434 32.6504 40.0518 28.9642 38.7633 25.278C37.9807 26.7738 37.195 28.2697 36.4125 29.7655C36.3371 29.9069 36.1548 29.9918 35.9914 29.9918H27.6694C27.0409 29.9918 27.0409 29.0742 27.6694 29.0742H35.6897C36.6042 27.3301 37.5187 25.5828 38.4333 23.8387C38.6313 23.4647 39.2032 23.5999 39.3258 23.9487C39.5269 24.5238 39.7281 25.102 39.9324 25.6771C41.1895 29.269 42.4465 32.8641 43.7036 36.456C43.8105 36.1386 43.9173 35.8243 44.0242 35.5069C45.8721 30.0484 47.7232 24.5898 49.5711 19.1312C49.7125 18.7132 50.3882 18.6787 50.5108 19.1312C51.3751 22.2674 52.2393 25.4037 53.1036 28.5368C55.492 28.4771 57.8805 28.4142 60.269 28.3545C60.8975 28.3388 60.8944 29.2564 60.269 29.2722L60.2658 29.2753Z" fill="#1F1F1F" fill-opacity="0.2"/>
<path id="Vector_2" d="M82.2811 63.7174H47.3905C47.2867 63.6892 47.1799 63.6703 47.0573 63.6703H43.7575C43.4086 63.2649 43.6663 61.6025 43.6663 61.1311C43.6663 60.7415 43.5469 60.3392 43.8832 60.1538C44.1912 59.981 45.0428 60.1538 45.3885 60.1538C46.5136 60.1538 48.0064 60.3958 48.965 59.6793C50.0618 58.8559 50.2409 56.7504 49.6029 55.5814C48.8393 54.1767 47.2773 54.359 45.9228 54.359C45.244 54.359 45.0868 54.4312 45.002 53.7619C44.9706 53.5105 44.9674 53.2465 44.9737 52.9794C46.3345 52.9354 47.7016 52.7845 49.0592 52.5237C61.4196 50.1574 70.3576 38.9794 70.4581 26.5003C70.3701 15.4386 63.4373 5.42962 53.0348 1.58629C42.5884 -2.27274 30.3914 1.08663 23.3894 9.7349C16.4188 18.3423 15.4666 30.7082 21.2303 40.2144C25.8564 47.8413 34.0495 52.5143 42.7361 52.9542C42.7046 53.6802 42.6952 54.4375 42.9309 55.0597C43.484 56.521 44.8731 56.5839 46.1962 56.5839C46.5891 56.5839 47.4407 56.4047 47.6733 56.7787C47.9781 57.2627 47.6167 57.8189 47.249 57.9226C46.2559 58.2054 44.9171 57.8597 43.8769 57.9226C40.9824 58.0954 41.2936 61.3637 41.4318 63.4912C41.435 63.554 41.4444 63.6106 41.4507 63.6703H1.12313C-0.372806 63.6703 -0.375949 65.9958 1.12313 65.9958H47.0573C47.1799 65.9958 47.2867 65.9769 47.3905 65.9486H82.2811C83.7142 65.9486 83.7173 63.7206 82.2811 63.7206V63.7174ZM25.2122 41.9836C18.6659 34.1399 17.8739 22.6224 23.16 13.9082C28.4272 5.21907 38.8956 0.624676 48.8613 2.70504C60.0777 5.04623 68.1419 15.0929 68.2331 26.5003C68.1545 36.5785 61.8187 45.893 52.2648 49.334C42.6512 52.794 31.7554 49.8211 25.2122 41.9868V41.9836Z" fill="#1F1F1F" fill-opacity="0.2"/>
</g>
</svg>
