<svg width="79" height="66" viewBox="0 0 79 66" fill="none" xmlns="http://www.w3.org/2000/svg">
<path id="01" d="M37.0074 16.9899C51.2045 11.3436 66.7306 15.8026 73.7806 22.6301C75.3082 24.1093 76.6057 25.61 77.7168 27.1014C78.3505 23.5995 78.4021 20.1115 77.7922 16.7381C75.5647 4.42138 63.9447 -2.55627 53.5275 1.04805C43.1573 4.63621 39.1125 11.61 39.1125 11.61C39.1125 11.61 35.0678 4.63621 24.6975 1.04805C14.2796 -2.55627 2.65965 4.42215 0.432841 16.7381C-1.21109 25.8279 1.90198 35.7515 8.50773 44.5209C9.8991 44.9883 11.3575 45.3394 12.9021 45.5419C22.1558 46.7585 25.4822 44.2838 29.3914 42.6268C31.987 41.5272 33.9397 42.7754 33.845 43.6501C33.698 45.006 28.5814 47.3229 29.6786 47.8096C34.0106 49.7315 39.3451 49.7476 43.3652 46.3142C48.3609 42.0485 50.2297 44.9645 50.2297 44.9645C50.2297 44.9645 47.7487 51.293 40.2783 54.4353C34.0452 57.0572 27.5142 57.7032 21.546 57.0317C26.6934 60.6699 32.6038 63.7199 39.1125 65.8966C57.7209 59.672 71.4675 46.3373 76.3139 32.3959C73.0306 29.1565 69.0036 27.1484 64.2034 26.4208C54.9751 25.0217 51.601 27.431 47.6594 29.0102C45.0422 30.059 43.1149 28.7723 43.2274 27.8992C43.4006 26.5463 48.5626 24.331 47.4746 23.8221C43.1819 21.8155 37.8482 21.6938 33.7611 25.0471C28.6822 29.2135 26.8712 26.2614 26.8712 26.2614C26.8712 26.2614 29.4761 19.9844 37.0074 16.9899ZM33.4754 34.337H37.0605V30.752H41.163V34.337H44.7481V38.4396H41.163V42.0246H37.0605V38.4396H33.4754V34.337Z" fill="#1F1F1F" fill-opacity="0.2"/>
</svg>
