<svg width="66" height="66" viewBox="0 0 66 66" fill="none" xmlns="http://www.w3.org/2000/svg">
<path id="04" d="M46.0865 19.9126V18.2405C42.4063 20.975 42.2105 23.6018 41.2334 25.0028C39.5023 27.4848 37.9585 27.162 37.6687 26.2625C37.2203 24.8687 37.8244 21.2045 36.5359 21.2067C31.4489 21.2153 27.395 21.4362 24.138 27.6907C20.8811 33.9451 18.5747 31.3928 18.5747 31.3928C18.5747 31.3928 22.7556 21.1672 25.8927 17.7125C28.2565 15.1093 33.9892 14.2478 38.7254 13.1524C41.5268 12.5046 43.9631 11.5054 46.0865 10.3871V0H19.914V19.9118H0V46.0825H19.9133V49.3062C23.8754 46.4964 24.0584 43.7698 25.0606 42.333C26.7916 39.851 28.3355 40.1738 28.6253 41.0733C29.0737 42.4664 28.4696 46.1313 29.758 46.1291C34.845 46.1205 38.899 45.8996 42.156 39.6451C45.4129 33.3906 47.7193 35.9429 47.7193 35.9429C47.7193 35.9429 43.5384 46.1686 40.4012 49.6233C38.0374 52.2265 32.3048 53.088 27.5686 54.1834C24.6344 54.862 22.1064 55.9265 19.9133 57.1094V65.9958H46.0858V46.0839H65.9998V19.9133H46.0865V19.9126ZM32.9999 39.5992C28.9467 38.2434 26.3483 34.7564 26.8791 31.8211C27.2314 29.8721 29.0701 28.7681 30.7186 29.3384C32.36 29.9058 32.9999 31.0098 32.9999 31.0098C32.9999 31.0098 33.6398 29.9065 35.2812 29.3384C36.9298 28.7681 38.7685 29.8721 39.1207 31.8211C39.6516 34.7564 37.0532 38.2434 32.9999 39.5992Z" fill="#1F1F1F" fill-opacity="0.2"/>
</svg>
