<svg width="137" height="303" viewBox="0 0 137 303" fill="none" xmlns="http://www.w3.org/2000/svg">
<g clip-path="url(#clip0_13309_5803)">
<g opacity="0.15">
<path d="M-250.328 610.522L-251.693 610.758C-267.383 521.519 -241.717 432.373 -184.731 378.098C-161.176 355.66 -132.553 338.97 -104.873 322.827C-91.8276 315.224 -78.3556 307.356 -65.5647 298.992C17.6791 244.526 80.7523 162.525 112.013 68.0962C119.308 46.0479 124.965 23.054 130.419 0.834328C137.58 -28.3118 144.987 -58.4542 156.204 -86.8255C166.804 -113.649 181.188 -137.783 197.8 -156.635C217.082 -178.51 239.138 -193.345 263.329 -200.72L263.728 -199.39C237.604 -191.427 189.045 -166.132 157.507 -86.3063C146.321 -58.0098 138.942 -27.9229 131.787 1.18432C126.319 23.4317 120.668 46.4561 113.345 68.5599C81.9906 163.283 18.719 245.552 -64.7979 300.186C-77.611 308.568 -91.1136 316.441 -104.171 324.052C-131.794 340.154 -160.343 356.805 -183.78 379.121C-240.42 433.07 -265.937 521.742 -250.328 610.522Z" fill="white"/>
<path d="M-249.047 613.827L-250.423 614.072C-263.458 541.077 -247.641 465.324 -208.107 411.442C-201.084 401.862 -193.269 392.905 -184.886 384.806C-161.695 362.413 -133.482 345.614 -106.205 329.371C-93.6543 321.894 -80.6803 314.172 -68.3543 305.997C-58.5169 299.481 -48.8022 292.451 -39.4695 285.117C28.3664 231.791 80.3418 158.524 106.876 78.8365C114.601 55.6205 120.395 31.3661 125.998 7.92754C132.523 -19.3961 139.266 -47.6606 149.116 -74.3069C158.904 -100.803 172.166 -124.675 187.502 -143.357C205.264 -165.019 225.6 -179.839 247.93 -187.388L248.371 -186.072C224.263 -177.911 179.488 -152.487 150.414 -73.8183C140.606 -47.2552 133.86 -19.0407 127.35 8.25524C121.74 31.7326 115.944 56.0065 108.199 79.2891C81.5859 159.243 29.4484 232.735 -38.5911 286.229C-47.9573 293.588 -57.6943 300.635 -67.5652 307.175C-79.9135 315.367 -92.9098 323.106 -105.46 330.583C-132.673 346.795 -160.808 363.536 -183.885 385.826C-192.21 393.865 -199.977 402.77 -206.961 412.286C-246.299 465.849 -262.016 541.199 -249.047 613.827Z" fill="white"/>
<path d="M-247.771 617.133L-249.139 617.389C-262.1 545.914 -246.625 471.331 -207.737 417.861C-200.862 408.408 -193.231 399.553 -185.037 391.525C-162.196 369.151 -134.394 352.241 -107.505 335.872C-95.4637 328.549 -83.007 320.969 -71.1459 312.984C-61.5115 306.498 -51.9777 299.55 -42.826 292.298C24.4037 239.112 75.734 167.12 101.697 89.5523C109.895 65.0855 115.809 39.4787 121.53 14.7074C127.395 -10.7079 133.468 -36.9862 141.975 -61.8046C168.782 -139.844 210.187 -165.634 232.488 -174.061L232.971 -172.759C210.912 -164.426 169.909 -138.864 143.307 -61.3408C134.811 -36.6001 128.752 -10.3496 122.892 15.0268C117.168 39.8176 111.249 65.4632 103.02 90.005C76.9616 167.816 25.4856 240.055 -41.9559 293.399C-51.1382 300.656 -60.6972 307.64 -70.365 314.151C-82.2568 322.141 -94.7246 329.73 -106.777 337.061C-133.599 353.381 -161.326 370.252 -184.061 392.512C-192.207 400.488 -199.791 409.29 -206.616 418.671C-245.291 471.845 -260.678 546.033 -247.771 617.133Z" fill="white"/>
<path d="M-246.491 620.438L-247.859 620.694C-260.749 550.758 -245.613 477.327 -207.372 424.268C-200.656 414.951 -193.197 406.189 -185.173 398.235C-162.671 375.871 -135.265 358.824 -108.768 342.348C-97.2357 335.178 -85.3188 327.756 -73.9282 320C-64.4773 313.546 -55.1411 306.659 -46.1537 299.512C20.4807 246.457 71.1608 175.709 96.5664 100.304C105.282 74.4831 111.286 47.3907 117.097 21.203C122.278 -2.19834 127.646 -26.3962 134.884 -49.2669C145.327 -82.2886 169.887 -140.664 217.066 -160.712L217.601 -159.432C170.941 -139.596 146.58 -81.628 136.201 -48.8449C128.992 -26.0296 123.618 -1.86234 118.443 21.5001C112.626 47.7267 106.608 74.8469 97.8618 100.742C72.3773 176.414 21.535 247.386 -45.3114 300.599C-54.3127 307.774 -63.6824 314.686 -73.1639 321.145C-84.5685 328.929 -96.5049 336.347 -108.048 343.525C-134.482 359.971 -161.821 376.969 -184.216 399.22C-192.173 407.124 -199.593 415.822 -206.262 425.086C-244.279 477.841 -259.316 550.869 -246.491 620.438Z" fill="white"/>
<path d="M-245.219 623.731L-246.587 623.987C-259.406 555.59 -244.609 483.311 -207.006 430.674C-200.438 421.484 -193.143 412.827 -185.328 404.942C-163.154 382.579 -136.134 365.386 -110.003 348.767C-99.0016 341.767 -87.619 334.535 -76.7268 326.993C-67.4594 320.572 -58.3012 313.748 -49.5172 306.701C17.4815 252.994 66.2164 185.336 91.3808 111.026C100.642 83.7275 106.723 55.0381 112.605 27.2924C117.101 6.04385 121.753 -15.9263 127.764 -36.7437C137.161 -69.2641 159.247 -126.892 201.624 -147.367L202.224 -146.117C160.318 -125.87 138.422 -68.6618 129.096 -36.3494C123.102 -15.5791 118.455 6.3521 113.962 27.5812C108.074 55.3658 101.996 84.1052 92.7039 111.479C67.4328 186.041 18.5551 253.926 -48.6471 307.801C-57.4646 314.874 -66.6451 321.715 -75.9347 328.152C-86.8382 335.702 -98.2319 342.942 -109.255 349.959C-135.32 366.528 -162.273 383.672 -184.343 405.941C-192.112 413.773 -199.347 422.369 -205.876 431.495C-243.255 483.827 -257.973 555.701 -245.219 623.731Z" fill="white"/>
<path d="M-243.94 627.037L-245.308 627.292C-258.045 560.426 -243.589 489.318 -206.63 437.073C-200.221 428.018 -193.099 419.456 -185.473 411.642C-163.61 389.233 -136.956 371.897 -111.18 355.126C-100.713 348.316 -89.8954 341.279 -79.5154 333.979C-70.4427 327.599 -61.4738 320.847 -52.8512 313.884C13.5551 260.289 61.6538 193.848 86.2439 121.747C96.1209 92.8315 102.224 62.3783 108.119 32.9271C111.91 13.9674 115.835 -5.62793 120.674 -24.2251C129.027 -56.2636 148.648 -113.132 186.213 -134.027L186.888 -132.816C149.777 -112.171 130.313 -55.6973 122.023 -23.878C117.178 -5.31138 113.276 14.2673 109.479 33.1965C103.578 62.6866 97.4778 93.1898 87.5588 122.189C62.8924 194.536 14.6316 261.202 -51.9783 314.966C-60.6232 321.945 -69.6144 328.714 -78.7094 335.11C-89.1005 342.418 -99.9405 349.472 -110.407 356.282C-136.128 373.011 -162.718 390.317 -184.464 412.604C-192.042 420.365 -199.116 428.876 -205.487 437.866C-242.244 489.823 -256.612 560.538 -243.94 627.037Z" fill="white"/>
<path d="M-242.661 630.343L-244.021 630.61C-256.688 565.283 -242.571 495.326 -206.258 443.493C-200.007 434.573 -193.059 426.104 -185.622 418.362C-164.061 395.919 -137.757 378.392 -112.302 361.445C-102.392 354.841 -92.1416 348.018 -82.3074 340.986C-73.4182 334.639 -64.6357 327.938 -56.2081 321.086C9.61993 267.575 57.0906 202.361 81.076 132.475C91.6418 101.784 97.6871 69.367 103.533 38.0322C106.61 21.5585 109.781 4.51293 113.545 -11.7108C120.864 -43.2757 138.013 -99.3954 170.742 -120.693L171.503 -119.529C147.549 -103.94 127.446 -65.5381 114.899 -11.4025C111.149 4.79347 107.973 21.8085 104.896 38.2822C99.0415 69.6753 92.971 102.129 82.3797 132.925C58.3099 203.047 10.6964 268.488 -55.3435 322.156C-63.8045 329.033 -72.5982 335.742 -81.5208 342.114C-91.3856 349.152 -101.638 355.994 -111.557 362.587C-136.936 379.495 -163.186 396.981 -184.64 419.311C-192.041 427.008 -198.939 435.406 -205.142 444.272C-241.234 495.821 -255.252 565.375 -242.661 630.343Z" fill="white"/>
<path d="M-241.39 633.636L-242.75 633.903C-255.327 570.119 -241.559 501.321 -205.902 449.888C-199.799 441.096 -193.026 432.74 -185.786 425.058C-164.512 402.533 -138.526 384.811 -113.389 367.668C-104.061 361.306 -94.4122 354.722 -85.1155 347.968C-76.4098 341.654 -67.8166 335.025 -59.5617 328.266C5.69928 274.831 52.5531 210.837 75.9085 143.201C87.2366 110.507 93.164 75.9285 98.8751 42.4793C101.228 28.6887 103.669 14.4347 106.425 0.812428C112.711 -30.2789 127.428 -85.6639 155.296 -107.329L156.147 -106.231C128.638 -84.8507 114.042 -29.8152 107.793 1.09297C105.041 14.6958 102.611 28.9416 100.249 42.7209C94.5101 76.2256 88.5935 110.866 77.2205 143.661C53.7695 211.542 6.77293 275.763 -58.6805 329.359C-66.9577 336.134 -75.5732 342.779 -84.3012 349.111C-93.609 355.873 -103.269 362.464 -112.608 368.835C-137.678 385.928 -163.6 403.62 -184.768 426.032C-191.969 433.65 -198.694 441.953 -204.761 450.701C-240.203 501.818 -253.902 570.219 -241.39 633.636Z" fill="white"/>
<path d="M-240.111 636.941L-241.471 637.208C-253.966 574.954 -240.529 507.319 -205.537 456.294C-199.594 447.638 -192.993 439.376 -185.935 431.776C-164.932 409.142 -139.239 391.188 -114.388 373.824C-105.664 367.721 -96.6218 361.416 -87.9072 354.973C-79.3822 348.672 -70.9782 342.114 -62.9071 335.458C1.78962 282.078 48.0154 219.312 70.752 153.918C82.9379 118.978 88.621 81.9511 94.0958 46.1342C95.7545 35.2992 97.4788 24.0867 99.3261 13.3192C110.991 -54.4867 127.807 -82.452 139.843 -93.9755L140.797 -92.9716C128.911 -81.5947 112.292 -53.8786 100.692 13.5497C98.8475 24.2978 97.1343 35.502 95.4673 46.3259C89.9728 82.2094 84.3005 119.298 72.0586 154.348C49.2375 219.978 2.86071 282.96 -62.0285 336.5C-70.1107 343.165 -78.5481 349.747 -87.0843 356.057C-95.8183 362.497 -104.852 368.813 -113.587 374.925C-138.371 392.238 -164 410.162 -184.908 432.692C-191.93 440.246 -198.483 448.456 -204.38 457.06C-239.184 507.825 -252.542 575.054 -240.111 636.941Z" fill="white"/>
<path d="M-238.831 640.247L-240.194 640.534C-252.599 579.822 -239.503 513.358 -205.174 462.722C-199.378 454.193 -192.962 446.032 -186.081 438.496C-165.314 415.708 -139.892 397.506 -115.301 379.886C-107.198 374.088 -98.816 368.083 -90.7086 361.988C-82.3671 355.719 -74.1412 349.225 -66.2652 342.679C-1.19281 288.57 43.1694 228.677 65.5912 164.676C78.7835 127.154 84.0351 87.3338 89.1222 48.8292C90.1213 41.2526 91.1465 33.4318 92.2122 25.875C97.4225 -11.043 107.231 -59.4757 124.39 -80.5507L125.472 -79.6769C108.529 -58.8482 98.7877 -10.6736 93.6032 26.0695C92.5375 33.6263 91.504 41.436 90.505 49.0126C85.4175 87.5866 80.1462 127.474 66.9032 165.137C44.4052 229.385 -0.10513 289.474 -65.3699 343.743C-73.2683 350.306 -81.5082 356.828 -89.8692 363.094C-97.9876 369.197 -106.381 375.211 -114.495 381.017C-139.031 398.595 -164.397 416.756 -185.069 439.439C-191.894 446.934 -198.29 455.028 -204.039 463.504C-238.152 513.825 -251.171 579.903 -238.831 640.247Z" fill="white"/>
<path d="M-237.56 643.541L-238.923 643.827C-251.238 584.657 -238.481 519.344 -204.798 469.12C-199.17 460.715 -192.909 452.671 -186.226 445.195C-165.681 422.225 -140.468 403.694 -116.095 385.804C-108.647 380.337 -100.953 374.687 -93.497 368.973C-85.3167 362.72 -77.2801 356.297 -69.6073 349.85C-5.07399 295.762 38.6771 237.05 60.4269 175.382C74.7778 134.854 79.383 91.8112 83.8289 50.1845C84.2556 46.2168 84.6766 42.2879 85.0947 38.3785C90.9049 -14.7121 98.926 -50.2242 108.912 -67.1616L110.109 -66.4595C100.218 -49.6968 92.2647 -14.3733 86.4832 38.523C86.0568 42.4213 85.6329 46.3696 85.2173 50.329C80.76 92.0334 76.1433 135.154 61.7389 175.843C39.8935 237.755 -3.99459 296.655 -68.7204 350.904C-76.4126 357.348 -84.4632 363.798 -92.6547 370.06C-100.13 375.771 -107.835 381.429 -115.275 386.907C-139.595 404.775 -164.738 423.237 -185.2 446.11C-191.835 453.533 -198.048 461.525 -203.649 469.874C-237.122 519.822 -249.799 584.729 -237.56 643.541Z" fill="white"/>
<path d="M-236.278 646.846L-237.641 647.132C-249.857 589.515 -237.45 525.362 -204.431 475.527C-198.953 467.268 -192.885 459.315 -186.38 451.902C-166.005 428.679 -140.983 409.822 -116.775 391.57C-110.04 386.495 -103.07 381.245 -96.2829 375.959C-88.2861 369.738 -80.4359 363.367 -72.9498 357.042C-8.04339 302.174 33.8944 246.264 55.2816 186.111C71.0271 141.986 74.743 93.6006 78.0159 50.9081C82.1394 -2.72825 87.2012 -36.9579 93.4881 -53.7241L94.7861 -53.2356C88.547 -36.5913 83.5052 -2.4977 79.3906 51.0109C76.1063 93.7811 72.3955 142.266 56.5853 186.561C35.1137 246.949 -6.95283 303.059 -72.0517 358.087C-79.5489 364.421 -87.4215 370.809 -95.4294 377.037C-102.216 382.324 -109.186 387.573 -115.933 392.657C-140.085 410.868 -165.051 429.683 -185.331 452.801C-191.788 460.161 -197.829 468.059 -203.27 476.273C-236.088 525.821 -248.427 589.577 -236.278 646.846Z" fill="white"/>
<path d="M-235 650.151L-236.355 650.448C-248.481 594.374 -236.404 531.383 -204.059 481.945C-198.74 473.822 -192.836 465.974 -186.521 458.632C-166.289 435.1 -141.373 415.821 -117.278 397.185C-111.294 392.565 -105.107 387.776 -99.0672 382.975C-91.2176 376.743 -83.5566 370.444 -76.2878 364.245C-11.9007 309.331 29.4483 254.584 50.1325 196.84C65.8764 153.062 69.1128 105.033 70.9136 63.4349C72.8669 18.3149 74.7722 -20.6276 78.0579 -40.2672L79.4238 -40.0366C76.1495 -20.4748 74.2611 18.4205 72.2941 63.4989C70.4901 105.186 67.2448 153.343 51.4334 197.309C30.6675 255.27 -10.8213 310.224 -75.3897 365.291C-82.6696 371.497 -90.353 377.813 -98.2137 384.054C-104.262 388.843 -110.449 393.632 -116.435 398.272C-140.475 416.866 -165.335 436.104 -185.472 459.531C-191.751 466.828 -197.608 474.624 -202.902 482.711C-235.051 531.831 -247.05 594.435 -235 650.151Z" fill="white"/>
<path d="M-233.73 653.446L-235.085 653.744C-247.102 599.214 -235.375 537.384 -203.704 488.342C-198.533 480.347 -192.813 472.6 -186.686 465.331C-166.545 441.398 -141.657 421.638 -117.601 402.53C-112.35 398.368 -107.097 394.186 -101.876 389.96C-94.1879 383.744 -86.705 377.508 -79.6424 371.428C-14.8653 315.687 24.7294 263.611 44.9641 207.568C60.909 163.571 63.4304 116.351 63.8004 75.9716C64.2439 27.4926 63.0203 -14.9375 62.6444 -26.7863L64.031 -26.8307C64.4151 -14.9708 65.6441 27.49 65.1978 75.9884C64.83 116.487 62.2968 163.855 46.2732 208.048C25.9429 264.336 -13.7776 316.592 -78.736 372.484C-85.8098 378.572 -93.2927 384.809 -101.003 391.041C-106.224 395.267 -111.486 399.438 -116.739 403.619C-140.74 422.686 -165.56 442.397 -185.618 466.232C-191.708 473.458 -197.392 481.16 -202.527 489.111C-234.013 537.842 -245.671 599.276 -233.73 653.446Z" fill="white"/>
<path d="M-232.451 656.75L-233.805 657.047C-245.716 604.082 -234.328 543.403 -203.339 494.748C-198.327 486.888 -192.782 479.254 -186.842 472.037C-166.712 447.577 -141.78 427.247 -117.652 407.584C-113.318 404.051 -108.985 400.519 -104.676 396.953C-97.09 390.692 -89.7963 384.527 -83.0067 378.616C1.45801 305.249 27.5281 251.979 39.7887 218.282C52.6987 182.942 58.0707 141.7 56.6719 88.483C55.5789 46.6478 51.9753 7.63021 47.238 -13.3474L48.5924 -13.6447C53.3459 7.42467 56.9741 46.5451 58.0556 88.458C59.448 141.853 54.0613 183.262 41.0867 218.77C28.7671 252.598 2.60433 306.093 -82.1003 379.672C-88.9094 385.58 -96.2059 391.765 -103.803 398.034C-108.112 401.6 -112.457 405.141 -116.779 408.665C-140.852 428.287 -165.728 448.575 -185.771 472.919C-191.675 480.092 -197.194 487.689 -202.178 495.494C-232.954 543.853 -244.282 604.124 -232.451 656.75Z" fill="white"/>
<path d="M-231.179 660.044L-232.536 660.361C-244.511 608.171 -233.733 550.142 -202.976 501.175C-198.123 493.45 -192.751 485.91 -187 478.764C-166.803 453.649 -141.668 432.614 -117.37 412.271C-114.073 409.509 -110.777 406.748 -107.488 403.975C-99.8795 397.559 -92.9675 391.625 -86.3646 385.835C-3.45312 313.104 21.8484 263.832 34.628 229.039C47.8123 193.253 52.701 151.384 49.5776 101.041C46.933 58.2825 40.3089 20.5582 31.8798 0.110093L33.1685 -0.415235C41.65 20.1498 48.3065 58.0575 50.9699 100.957C54.1147 151.493 49.2084 193.548 35.9454 229.53C11.5115 296.065 -41.7487 348.574 -85.4277 386.887C-92.0306 392.676 -98.9536 398.618 -106.574 405.043C-109.862 407.815 -113.17 410.585 -116.466 413.347C-140.709 433.649 -165.788 454.642 -185.91 479.649C-191.635 486.759 -196.971 494.254 -201.796 501.924C-232.357 550.572 -243.069 608.224 -231.179 660.044Z" fill="white"/>
<path d="M-229.899 663.351L-231.256 663.667C-243.108 613.063 -232.665 556.167 -202.611 507.583C-197.916 499.993 -192.709 492.559 -187.156 485.473C-166.763 459.503 -141.26 437.589 -116.599 416.406L-110.287 410.97C-102.633 404.382 -95.9076 398.501 -89.7173 393.017C-7.85689 320.479 16.4721 274.836 29.4642 239.747C42.8356 203.77 47.2047 161.318 42.4607 113.546C38.2057 70.6008 28.7447 34.1373 16.5101 13.5071L17.6969 12.798C30.0252 33.6009 39.5546 70.273 43.8311 113.41C48.5935 161.393 44.1928 204.059 30.7539 240.224C7.49584 303.03 -42.742 353.224 -88.8052 394.035C-94.9955 399.518 -101.74 405.396 -109.386 411.996L-115.699 417.432C-140.303 438.574 -165.75 460.446 -186.068 486.308C-191.604 493.347 -196.778 500.756 -201.444 508.29C-231.298 556.586 -241.674 613.105 -229.899 663.351Z" fill="white"/>
<path d="M-228.621 666.656L-229.97 666.984C-241.706 617.955 -231.58 562.193 -202.227 513.992C-197.695 506.558 -192.671 499.226 -187.274 492.186C-166.503 465.07 -140.381 442.057 -115.135 419.798L-113.057 417.959C-107.146 412.752 -100.147 406.564 -93.0437 400.212C-48.3929 360.226 1.20063 312.38 24.3239 250.487C37.7896 214.544 41.6168 171.526 35.3756 126.095C29.5699 83.8353 17.1042 47.6846 1.17509 26.9283L2.2737 26.0772C18.3518 47.0341 30.922 83.4186 36.7545 125.901C43.0307 171.565 39.1803 214.808 25.6219 250.976C2.37497 313.168 -47.3387 361.156 -92.1151 401.252C-99.2207 407.623 -106.228 413.8 -112.139 419.007L-114.218 420.846C-139.428 443.061 -165.502 466.022 -186.178 493.032C-191.539 500.027 -196.537 507.324 -201.033 514.714C-230.221 562.601 -240.27 617.978 -228.621 666.656Z" fill="white"/>
<path d="M-227.349 669.948L-228.698 670.276C-240.3 622.826 -230.521 568.204 -201.87 520.387C-197.496 513.088 -192.637 505.86 -187.437 498.881C-167.684 472.4 -144.338 450.636 -115.856 424.952L-109.659 419.36C-105.229 415.375 -100.818 411.387 -96.3961 407.391C-49.9745 365.363 -2.81254 319.462 19.1605 261.192C36.4863 215.374 33.6852 169.237 28.2786 138.601C20.9579 97.1211 5.48742 61.2833 -14.1773 40.2757L-13.1644 39.3326C6.68282 60.5159 22.2826 96.621 29.6438 138.365C35.0746 169.173 37.9051 215.582 20.4668 261.692C-1.62704 320.242 -48.9202 366.292 -95.4563 408.423C-99.8671 412.411 -104.289 416.407 -108.719 420.392L-114.916 425.983C-143.342 451.626 -166.649 473.327 -186.319 499.711C-191.493 506.654 -196.328 513.845 -200.665 521.1C-229.142 568.615 -238.855 622.86 -227.349 669.948Z" fill="white"/>
<path d="M-226.068 673.253L-227.409 673.592C-238.869 627.732 -229.434 574.231 -201.496 526.805C-197.284 519.661 -192.598 512.527 -187.584 505.6C-167.43 477.818 -142.477 453.977 -118.646 431.957C-112.84 426.586 -107.008 421.249 -101.188 415.919L-99.7431 414.603C-59.0946 377.384 -8.51347 331.053 14.0108 271.941C27.7236 236.005 30.2723 193.107 21.1757 151.147C12.2342 109.886 -5.77835 75.2628 -29.5437 53.6525L-28.6083 52.6285C-4.6326 74.4285 13.5399 109.313 22.5301 150.85C31.6783 193.065 29.1089 236.238 15.2976 272.438C-7.34201 331.86 -58.0598 378.311 -98.8115 415.624L-100.257 416.94C-106.077 422.269 -111.919 427.615 -117.714 432.978C-141.501 454.965 -166.404 478.733 -186.474 506.419C-191.471 513.298 -196.132 520.396 -200.318 527.504C-228.052 574.623 -237.441 627.743 -226.068 673.253Z" fill="white"/>
<path d="M-224.798 676.548L-226.15 676.896C-237.467 632.625 -228.357 580.247 -201.152 533.21C-197.102 526.221 -192.599 519.189 -187.761 512.306C-168.179 484.499 -144.331 460.615 -121.466 438.949C-114.853 432.684 -108.178 426.478 -103.117 421.782L-100.804 419.63C-57.3213 379.353 -12.3627 337.685 8.82585 282.646C22.7002 246.624 24.5597 204.36 14.0571 163.653C3.63639 123.266 -17.3086 88.9365 -44.9259 66.9884L-44.0596 65.8947C-16.2097 88.016 4.91462 122.61 15.4007 163.294C25.9715 204.279 24.0995 246.83 10.1238 283.135C-11.1689 338.476 -56.2614 380.244 -99.85 420.634L-102.163 422.786C-107.236 427.49 -113.899 433.688 -120.501 439.945C-143.311 461.569 -167.1 485.392 -186.617 513.1C-191.439 519.936 -195.916 526.931 -199.941 533.885C-226.975 580.639 -236.028 632.628 -224.798 676.548Z" fill="white"/>
<path d="M-223.52 679.853L-224.863 680.212C-236.193 636.902 -227.644 586.983 -200.771 539.639C-175.976 495.95 -139.082 459.619 -106.446 428.996C-103.762 426.482 -101.077 423.968 -98.3818 421.445C-58.0032 383.7 -16.2545 344.678 3.69421 293.397C17.7047 257.395 18.8692 215.803 7.00263 176.265C-4.86682 136.748 -28.7608 102.69 -60.2742 80.3674L-59.4716 79.2345C-27.7062 101.733 -3.62169 136.047 8.3325 175.865C20.2867 215.683 19.1039 257.601 4.98102 293.894C-15.0719 345.477 -56.9461 384.61 -97.4391 422.457C-100.135 424.98 -102.819 427.494 -105.503 430.008C-138.058 460.554 -174.86 496.799 -199.571 540.322C-226.257 587.336 -234.762 636.893 -223.52 679.853Z" fill="white"/>
</g>
</g>
<defs>
<clipPath id="clip0_13309_5803">
<rect width="137" height="303" fill="white" transform="translate(0 0.00585938)"/>
</clipPath>
</defs>
</svg>
