<svg width="137" height="303" viewBox="0 0 137 303" fill="none" xmlns="http://www.w3.org/2000/svg">
<g clip-path="url(#clip0_13309_5850)">
<g opacity="0.15">
<path d="M387.328 610.522L388.693 610.758C404.383 521.519 378.717 432.373 321.731 378.098C298.176 355.66 269.553 338.97 241.873 322.827C228.828 315.224 215.356 307.356 202.565 298.992C119.321 244.526 56.2477 162.525 24.9866 68.0962C17.6918 46.0479 12.0345 23.054 6.58093 0.834328C-0.580004 -28.3118 -7.98723 -58.4542 -19.2036 -86.8255C-29.8044 -113.649 -44.1878 -137.783 -60.8 -156.635C-80.0822 -178.51 -102.138 -193.345 -126.329 -200.72L-126.728 -199.39C-100.604 -191.427 -52.0451 -166.132 -20.5069 -86.3063C-9.32146 -58.0098 -1.9423 -27.9229 5.21287 1.18432C10.6805 23.4317 16.3323 46.4561 23.6551 68.5599C55.0094 163.283 118.281 245.552 201.798 300.186C214.611 308.568 228.114 316.441 241.171 324.052C268.794 340.154 297.343 356.805 320.78 379.121C377.42 433.07 402.937 521.742 387.328 610.522Z" fill="white"/>
<path d="M386.047 613.827L387.423 614.072C400.458 541.077 384.641 465.324 345.107 411.442C338.084 401.862 330.269 392.905 321.886 384.806C298.695 362.413 270.482 345.614 243.205 329.371C230.654 321.894 217.68 314.172 205.354 305.997C195.517 299.481 185.802 292.451 176.469 285.117C108.634 231.791 56.6582 158.524 30.1243 78.8365C22.3991 55.6205 16.6054 31.3661 11.0017 7.92754C4.47715 -19.3961 -2.26569 -47.6606 -12.1156 -74.3069C-21.9035 -100.803 -35.1662 -124.675 -50.5024 -143.357C-68.2638 -165.019 -88.5997 -179.839 -110.93 -187.388L-111.371 -186.072C-87.2628 -177.911 -42.4876 -152.487 -13.4135 -73.8183C-3.60579 -47.2552 3.13966 -19.0407 9.65022 8.25524C15.2597 31.7326 21.0562 56.0065 28.8012 79.2891C55.4141 159.243 107.552 232.735 175.591 286.229C184.957 293.588 194.694 300.635 204.565 307.175C216.913 315.367 229.91 323.106 242.46 330.583C269.673 346.795 297.808 363.536 320.885 385.826C329.21 393.865 336.977 402.77 343.961 412.286C383.299 465.849 399.016 541.199 386.047 613.827Z" fill="white"/>
<path d="M384.771 617.133L386.139 617.389C399.1 545.914 383.625 471.331 344.737 417.861C337.862 408.408 330.231 399.553 322.037 391.525C299.196 369.151 271.394 352.241 244.505 335.872C232.464 328.549 220.007 320.969 208.146 312.984C198.511 306.498 188.978 299.55 179.826 292.298C112.596 239.112 61.266 167.12 35.303 89.5523C27.1052 65.0855 21.1914 39.4787 15.4705 14.7074C9.6048 -10.7079 3.53234 -36.9862 -4.97546 -61.8046C-31.7824 -139.844 -73.1865 -165.634 -95.4876 -174.061L-95.9706 -172.759C-73.9116 -164.426 -32.9086 -138.864 -6.30691 -61.3408C2.18945 -36.6001 8.24791 -10.3496 14.1078 15.0268C19.8317 39.8176 25.7512 65.4632 33.9799 90.005C60.0384 167.816 111.514 240.055 178.956 293.399C188.138 300.656 197.697 307.64 207.365 314.151C219.257 322.141 231.725 329.73 243.777 337.061C270.599 353.381 298.326 370.252 321.061 392.512C329.207 400.488 336.791 409.29 343.616 418.671C382.291 471.845 397.678 546.033 384.771 617.133Z" fill="white"/>
<path d="M383.491 620.438L384.859 620.694C397.749 550.758 382.613 477.327 344.372 424.268C337.656 414.951 330.197 406.189 322.173 398.235C299.671 375.871 272.265 358.824 245.768 342.348C234.236 335.178 222.319 327.756 210.928 320C201.477 313.546 192.141 306.659 183.154 299.512C116.519 246.457 65.8392 175.709 40.4336 100.304C31.7183 74.4831 25.7143 47.3907 19.9034 21.203C14.7222 -2.19834 9.35387 -26.3962 2.11636 -49.2669C-8.32688 -82.2886 -32.887 -140.664 -80.0655 -160.712L-80.6014 -159.432C-33.9406 -139.596 -9.57964 -81.628 0.798648 -48.8449C8.00809 -26.0296 13.3818 -1.86234 18.5573 21.5001C24.374 47.7267 30.392 74.8469 39.1382 100.742C64.6227 176.414 115.465 247.386 182.311 300.599C191.313 307.774 200.682 314.686 210.164 321.145C221.569 328.929 233.505 336.347 245.048 343.525C271.482 359.971 298.821 376.969 321.216 399.22C329.173 407.124 336.593 415.822 343.262 425.086C381.279 477.841 396.316 550.869 383.491 620.438Z" fill="white"/>
<path d="M382.219 623.731L383.587 623.987C396.406 555.59 381.609 483.311 344.006 430.674C337.438 421.484 330.143 412.827 322.328 404.942C300.154 382.579 273.134 365.386 247.003 348.767C236.002 341.767 224.619 334.535 213.727 326.993C204.459 320.572 195.301 313.748 186.517 306.701C119.519 252.994 70.7836 185.336 45.6192 111.026C36.3582 83.7275 30.2773 55.0381 24.3953 27.2924C19.8991 6.04385 15.2468 -15.9263 9.23569 -36.7437C-0.160637 -69.2641 -22.2473 -126.892 -64.6243 -147.367L-65.2241 -146.117C-23.3178 -125.87 -1.42196 -68.6618 7.90397 -36.3494C13.8982 -15.5791 18.5448 6.3521 23.0381 27.5812C28.9258 55.3658 35.0041 84.1052 44.2961 111.479C69.5672 186.041 118.445 253.926 185.647 307.801C194.465 314.874 203.645 321.715 212.935 328.152C223.838 335.702 235.232 342.942 246.255 349.959C272.32 366.528 299.273 383.672 321.343 405.941C329.112 413.773 336.347 422.369 342.876 431.495C380.255 483.827 394.973 555.701 382.219 623.731Z" fill="white"/>
<path d="M380.94 627.037L382.308 627.292C395.045 560.426 380.589 489.318 343.63 437.073C337.221 428.018 330.099 419.456 322.473 411.642C300.61 389.233 273.956 371.897 248.18 355.126C237.713 348.316 226.895 341.279 216.515 333.979C207.443 327.599 198.474 320.847 189.851 313.884C123.445 260.289 75.3462 193.848 50.7561 121.747C40.8791 92.8315 34.7762 62.3783 28.8808 32.9271C25.0897 13.9674 21.1652 -5.62793 16.3256 -24.2251C7.97338 -56.2636 -11.6483 -113.132 -49.2125 -134.027L-49.8876 -132.816C-12.7775 -112.171 6.68689 -55.6973 14.977 -23.878C19.822 -5.31138 23.7242 14.2673 27.5207 33.1965C33.4218 62.6866 39.5222 93.1898 49.4412 122.189C74.1076 194.536 122.368 261.202 188.978 314.966C197.623 321.945 206.614 328.714 215.709 335.11C226.101 342.418 236.941 349.472 247.407 356.282C273.128 373.011 299.718 390.317 321.464 412.604C329.042 420.365 336.116 428.876 342.487 437.866C379.244 489.823 393.612 560.538 380.94 627.037Z" fill="white"/>
<path d="M379.662 630.343L381.021 630.61C393.688 565.283 379.571 495.326 343.259 443.493C337.008 434.573 330.059 426.104 322.622 418.362C301.062 395.919 274.757 378.392 249.302 361.445C239.392 354.841 229.142 348.018 219.308 340.986C210.419 334.639 201.636 327.938 193.209 321.086C127.381 267.575 79.9099 202.361 55.9245 132.475C45.3586 101.784 39.3134 69.367 33.4676 38.0322C30.3909 21.5585 27.22 4.51293 23.4555 -11.7108C16.1361 -43.2757 -1.01228 -99.3954 -33.7414 -120.693L-34.5028 -119.529C-10.5489 -103.94 9.5543 -65.5381 22.1011 -11.4025C25.8516 4.79347 29.028 21.8085 32.1046 38.2822C37.959 69.6753 44.0294 102.129 54.6208 132.925C78.6906 203.047 126.304 268.488 192.344 322.156C200.805 329.033 209.599 335.742 218.521 342.114C228.386 349.152 238.639 355.994 248.557 362.587C273.937 379.495 300.186 396.981 321.64 419.311C329.041 427.008 335.939 435.406 342.143 444.272C378.234 495.821 392.252 565.375 379.662 630.343Z" fill="white"/>
<path d="M378.39 633.636L379.75 633.903C392.327 570.119 378.559 501.321 342.902 449.888C336.799 441.096 330.026 432.74 322.786 425.058C301.512 402.533 275.526 384.811 250.389 367.668C241.061 361.306 231.412 354.722 222.115 347.968C213.41 341.654 204.817 335.025 196.562 328.266C131.301 274.831 84.4469 210.837 61.0915 143.201C49.7634 110.507 43.836 75.9285 38.1249 42.4793C35.7719 28.6887 33.3306 14.4347 30.5755 0.812428C24.2891 -30.2789 9.57235 -85.6639 -18.2965 -107.329L-19.1471 -106.231C8.36198 -84.8507 22.9577 -29.8152 29.2071 1.09297C31.9593 14.6958 34.3895 28.9416 36.7507 42.7209C42.4899 76.2256 48.4065 110.866 59.7795 143.661C83.2305 211.542 130.227 275.763 195.68 329.359C203.958 336.134 212.573 342.779 221.301 349.111C230.609 355.873 240.269 362.464 249.608 368.835C274.678 385.928 300.6 403.62 321.768 426.032C328.969 433.65 335.694 441.953 341.761 450.701C377.203 501.818 390.902 570.219 378.39 633.636Z" fill="white"/>
<path d="M377.111 636.941L378.471 637.208C390.966 574.954 377.529 507.319 342.537 456.294C336.594 447.638 329.993 439.376 322.935 431.776C301.932 409.142 276.239 391.188 251.388 373.824C242.664 367.721 233.622 361.416 224.907 354.973C216.382 348.672 207.978 342.114 199.907 335.458C135.21 282.078 88.9846 219.312 66.248 153.918C54.0621 118.978 48.379 81.9511 42.9042 46.1342C41.2455 35.2992 39.5212 24.0867 37.6739 13.3192C26.0086 -54.4867 9.1931 -82.452 -2.84278 -93.9755L-3.79661 -92.9716C8.08855 -81.5947 24.7084 -53.8786 36.3081 13.5497C38.1525 24.2978 39.8657 35.502 41.5327 46.3259C47.0272 82.2094 52.6995 119.298 64.9414 154.348C87.7625 219.978 134.139 282.96 199.028 336.5C207.111 343.165 215.548 349.747 224.084 356.057C232.818 362.497 241.852 368.813 250.587 374.925C275.371 392.238 301 410.162 321.908 432.692C328.93 440.246 335.483 448.456 341.38 457.06C376.184 507.825 389.542 575.054 377.111 636.941Z" fill="white"/>
<path d="M375.831 640.247L377.194 640.534C389.599 579.822 376.503 513.358 342.174 462.722C336.378 454.193 329.962 446.032 323.081 438.496C302.314 415.708 276.892 397.506 252.301 379.886C244.198 374.088 235.816 368.083 227.709 361.988C219.367 355.719 211.141 349.225 203.265 342.679C138.193 288.57 93.8306 228.677 71.4088 164.676C58.2165 127.154 52.9649 87.3338 47.8778 48.8292C46.8787 41.2526 45.8535 33.4318 44.7878 25.875C39.5775 -11.043 29.7686 -59.4757 12.61 -80.5507L11.5277 -79.6769C28.4713 -58.8482 38.2123 -10.6736 43.3968 26.0695C44.4625 33.6263 45.496 41.436 46.495 49.0126C51.5825 87.5866 56.8538 127.474 70.0968 165.137C92.5948 229.385 137.105 289.474 202.37 343.743C210.268 350.306 218.508 356.828 226.869 363.094C234.988 369.197 243.381 375.211 251.495 381.017C276.031 398.595 301.397 416.756 322.069 439.439C328.894 446.934 335.29 455.028 341.039 463.504C375.152 513.825 388.171 579.903 375.831 640.247Z" fill="white"/>
<path d="M374.56 643.541L375.923 643.827C388.238 584.657 375.481 519.344 341.798 469.12C336.17 460.715 329.909 452.671 323.226 445.195C302.681 422.225 277.468 403.694 253.095 385.804C245.647 380.337 237.953 374.687 230.497 368.973C222.317 362.72 214.28 356.297 206.607 349.85C142.074 295.762 98.3229 237.05 76.5731 175.382C62.2222 134.854 57.617 91.8112 53.1711 50.1845C52.7444 46.2168 52.3234 42.2879 51.9053 38.3785C46.0951 -14.7121 38.074 -50.2242 28.0885 -67.1616L26.8915 -66.4595C36.7818 -49.6968 44.7353 -14.3733 50.5168 38.523C50.9432 42.4213 51.3671 46.3696 51.7827 50.329C56.24 92.0334 60.8567 135.154 75.2611 175.843C97.1065 237.755 140.995 296.655 205.72 350.904C213.413 357.348 221.463 363.798 229.655 370.06C237.13 375.771 244.835 381.429 252.275 386.907C276.595 404.775 301.738 423.237 322.2 446.11C328.835 453.533 335.048 461.525 340.649 469.874C374.122 519.822 386.799 584.729 374.56 643.541Z" fill="white"/>
<path d="M373.278 646.846L374.641 647.132C386.857 589.515 374.45 525.362 341.431 475.527C335.953 467.268 329.885 459.315 323.38 451.902C303.005 428.679 277.983 409.822 253.775 391.57C247.04 386.495 240.07 381.245 233.283 375.959C225.286 369.738 217.436 363.367 209.95 357.042C145.043 302.174 103.106 246.264 81.7184 186.111C65.9729 141.986 62.257 93.6006 58.9841 50.9081C54.8606 -2.72825 49.7988 -36.9579 43.5119 -53.7241L42.2139 -53.2356C48.453 -36.5913 53.4948 -2.4977 57.6094 51.0109C60.8937 93.7811 64.6045 142.266 80.4147 186.561C101.886 246.949 143.953 303.059 209.052 358.087C216.549 364.421 224.421 370.809 232.429 377.037C239.216 382.324 246.186 387.573 252.933 392.657C277.085 410.868 302.051 429.683 322.331 452.801C328.788 460.161 334.829 468.059 340.27 476.273C373.088 525.821 385.427 589.577 373.278 646.846Z" fill="white"/>
<path d="M372.001 650.151L373.355 650.448C385.481 594.374 373.405 531.383 341.06 481.945C335.741 473.822 329.837 465.974 323.521 458.632C303.29 435.1 278.374 415.821 254.278 397.185C248.295 392.565 242.108 387.776 236.068 382.975C228.218 376.743 220.557 370.444 213.288 364.245C148.901 309.331 107.552 254.584 86.8679 196.84C71.124 153.062 67.8877 105.033 66.0868 63.4349C64.1336 18.3149 62.2283 -20.6276 58.9426 -40.2672L57.5767 -40.0366C60.851 -20.4748 62.7394 18.4205 64.7064 63.4989C66.5104 105.186 69.7557 153.343 85.5671 197.309C106.333 255.27 147.822 310.224 212.39 365.291C219.67 371.497 227.353 377.813 235.214 384.054C241.262 388.843 247.449 393.632 253.436 398.272C277.476 416.866 302.336 436.104 322.472 459.531C328.752 466.828 334.608 474.624 339.902 482.711C372.051 531.831 384.051 594.435 372.001 650.151Z" fill="white"/>
<path d="M370.73 653.446L372.085 653.744C384.102 599.214 372.375 537.384 340.704 488.342C335.533 480.347 329.813 472.6 323.686 465.331C303.545 441.398 278.657 421.638 254.601 402.53C249.35 398.368 244.097 394.186 238.876 389.96C231.188 383.744 223.705 377.508 216.642 371.428C151.865 315.687 112.271 263.611 92.0359 207.568C76.091 163.571 73.5696 116.351 73.1996 75.9716C72.7561 27.4926 73.9797 -14.9375 74.3556 -26.7863L72.969 -26.8307C72.5849 -14.9708 71.3559 27.49 71.8022 75.9884C72.17 116.487 74.7032 163.855 90.7268 208.048C111.057 264.336 150.778 316.592 215.736 372.484C222.81 378.572 230.293 384.809 238.003 391.041C243.224 395.267 248.486 399.438 253.739 403.619C277.74 422.686 302.56 442.397 322.618 466.232C328.708 473.458 334.392 481.16 339.527 489.111C371.013 537.842 382.671 599.276 370.73 653.446Z" fill="white"/>
<path d="M369.451 656.75L370.805 657.047C382.716 604.082 371.328 543.403 340.339 494.748C335.327 486.888 329.782 479.254 323.842 472.037C303.712 447.577 278.78 427.247 254.652 407.584C250.318 404.051 245.985 400.519 241.676 396.953C234.09 390.692 226.796 384.527 220.007 378.616C135.542 305.249 109.472 251.979 97.2113 218.282C84.3013 182.942 78.9293 141.7 80.3281 88.483C81.4211 46.6478 85.0247 7.63021 89.762 -13.3474L88.4076 -13.6447C83.6541 7.42467 80.0259 46.5451 78.9444 88.458C77.552 141.853 82.9387 183.262 95.9133 218.77C108.233 252.598 134.396 306.093 219.1 379.672C225.909 385.58 233.206 391.765 240.803 398.034C245.112 401.6 249.457 405.141 253.779 408.665C277.852 428.287 302.728 448.575 322.771 472.919C328.675 480.092 334.194 487.689 339.178 495.494C369.954 543.853 381.282 604.124 369.451 656.75Z" fill="white"/>
<path d="M368.179 660.044L369.536 660.361C381.511 608.171 370.733 550.142 339.976 501.175C335.123 493.45 329.751 485.91 324 478.764C303.803 453.649 278.668 432.614 254.37 412.271C251.073 409.509 247.777 406.748 244.488 403.975C236.879 397.559 229.968 391.625 223.365 385.835C140.453 313.104 115.152 263.832 102.372 229.039C89.1877 193.253 84.299 151.384 87.4224 101.041C90.067 58.2825 96.6911 20.5582 105.12 0.110093L103.831 -0.415235C95.35 20.1498 88.6935 58.0575 86.0301 100.957C82.8853 151.493 87.7916 193.548 101.055 229.53C125.488 296.065 178.749 348.574 222.428 386.887C229.031 392.676 235.954 398.618 243.574 405.043C246.862 407.815 250.17 410.585 253.466 413.347C277.709 433.649 302.788 454.642 322.91 479.649C328.635 486.759 333.971 494.254 338.796 501.924C369.357 550.572 380.069 608.224 368.179 660.044Z" fill="white"/>
<path d="M366.899 663.351L368.256 663.667C380.108 613.063 369.665 556.167 339.611 507.583C334.916 499.993 329.709 492.559 324.156 485.473C303.763 459.503 278.26 437.589 253.599 416.406L247.287 410.97C239.633 404.382 232.908 398.501 226.717 393.017C144.857 320.479 120.528 274.836 107.536 239.747C94.1644 203.77 89.7953 161.318 94.5393 113.546C98.7943 70.6008 108.255 34.1373 120.49 13.5071L119.303 12.798C106.975 33.6009 97.4454 70.273 93.1689 113.41C88.4065 161.393 92.8072 204.059 106.246 240.224C129.504 303.03 179.742 353.224 225.805 394.035C231.995 399.518 238.74 405.396 246.386 411.996L252.699 417.432C277.303 438.574 302.75 460.446 323.068 486.308C328.604 493.347 333.778 500.756 338.444 508.29C368.298 556.586 378.674 613.105 366.899 663.351Z" fill="white"/>
<path d="M365.621 666.656L366.97 666.984C378.706 617.955 368.58 562.193 339.227 513.992C334.695 506.558 329.671 499.226 324.274 492.186C303.503 465.07 277.381 442.057 252.135 419.798L250.057 417.959C244.146 412.752 237.147 406.564 230.044 400.212C185.393 360.226 135.799 312.38 112.676 250.487C99.2104 214.544 95.3832 171.526 101.624 126.095C107.43 83.8353 119.896 47.6846 135.825 26.9283L134.726 26.0772C118.648 47.0341 106.078 83.4186 100.245 125.901C93.9693 171.565 97.8197 214.808 111.378 250.976C134.625 313.168 184.339 361.156 229.115 401.252C236.221 407.623 243.228 413.8 249.139 419.007L251.218 420.846C276.428 443.061 302.502 466.022 323.178 493.032C328.539 500.027 333.537 507.324 338.033 514.714C367.221 562.601 377.27 617.978 365.621 666.656Z" fill="white"/>
<path d="M364.349 669.948L365.698 670.276C377.3 622.826 367.521 568.204 338.87 520.387C334.496 513.088 329.637 505.86 324.437 498.881C304.684 472.4 281.338 450.636 252.856 424.952L246.659 419.36C242.229 415.375 237.818 411.387 233.396 407.391C186.974 365.363 139.813 319.462 117.839 261.192C100.514 215.374 103.315 169.237 108.721 138.601C116.042 97.1211 131.513 61.2833 151.177 40.2757L150.164 39.3326C130.317 60.5159 114.717 96.621 107.356 138.365C101.925 169.173 99.0949 215.582 116.533 261.692C138.627 320.242 185.92 366.292 232.456 408.423C236.867 412.411 241.289 416.407 245.719 420.392L251.916 425.983C280.342 451.626 303.649 473.327 323.319 499.711C328.493 506.654 333.328 513.845 337.665 521.1C366.142 568.615 375.855 622.86 364.349 669.948Z" fill="white"/>
<path d="M363.068 673.253L364.409 673.592C375.869 627.732 366.434 574.231 338.496 526.805C334.284 519.661 329.598 512.527 324.584 505.6C304.43 477.818 279.477 453.977 255.646 431.957C249.84 426.586 244.008 421.249 238.188 415.919L236.743 414.603C196.095 377.384 145.513 331.053 122.989 271.941C109.276 236.005 106.728 193.107 115.824 151.147C124.766 109.886 142.778 75.2628 166.544 53.6525L165.608 52.6285C141.633 74.4285 123.46 109.313 114.47 150.85C105.322 193.065 107.891 236.238 121.702 272.438C144.342 331.86 195.06 378.311 235.812 415.624L237.257 416.94C243.077 422.269 248.919 427.615 254.714 432.978C278.501 454.965 303.404 478.733 323.474 506.419C328.471 513.298 333.132 520.396 337.318 527.504C365.052 574.623 374.441 627.743 363.068 673.253Z" fill="white"/>
<path d="M361.799 676.548L363.151 676.896C374.468 632.625 365.357 580.247 338.152 533.21C334.102 526.221 329.6 519.189 324.761 512.306C305.18 484.499 281.332 460.615 258.467 438.949C251.853 432.684 245.179 426.478 240.117 421.782L237.804 419.63C194.322 379.353 149.363 337.685 128.175 282.646C114.3 246.624 112.441 204.36 122.943 163.653C133.364 123.266 154.309 88.9365 181.926 66.9884L181.06 65.8947C153.21 88.016 132.086 122.61 121.6 163.294C111.029 204.279 112.901 246.83 126.877 283.135C148.169 338.476 193.262 380.244 236.85 420.634L239.164 422.786C244.236 427.49 250.899 433.688 257.502 439.945C280.311 461.569 304.1 485.392 323.618 513.1C328.439 519.936 332.917 526.931 336.941 533.885C363.976 580.639 373.029 632.628 361.799 676.548Z" fill="white"/>
<path d="M360.52 679.853L361.863 680.212C373.193 636.902 364.644 586.983 337.771 539.639C312.976 495.95 276.082 459.619 243.446 428.996C240.762 426.482 238.077 423.968 235.382 421.445C195.003 383.7 153.255 344.678 133.306 293.397C119.295 257.395 118.131 215.803 129.997 176.265C141.867 136.748 165.761 102.69 197.274 80.3674L196.472 79.2345C164.706 101.733 140.622 136.047 128.668 175.865C116.713 215.683 117.896 257.601 132.019 293.894C152.072 345.477 193.946 384.61 234.439 422.457C237.135 424.98 239.819 427.494 242.503 430.008C275.058 460.554 311.86 496.799 336.571 540.322C363.257 587.336 371.762 636.893 360.52 679.853Z" fill="white"/>
</g>
</g>
<defs>
<clipPath id="clip0_13309_5850">
<rect width="137" height="303" fill="white" transform="matrix(-1 0 0 1 137 0.00585938)"/>
</clipPath>
</defs>
</svg>
