<svg width="516" height="647" viewBox="0 0 516 647" fill="none" xmlns="http://www.w3.org/2000/svg">
<g opacity="0.3">
<path d="M123.897 134.737H123.773L68.6309 102.835V39.0302L123.897 7.12793H124.021L179.163 39.0302V102.835H179.039L123.897 134.737ZM69.1011 102.563L123.897 134.193L178.569 102.563V39.3025L123.897 7.67242L69.1011 39.3025V102.563Z" fill="#1F1F1F" fill-opacity="0.2"/>
<path d="M178.915 420.645L123.649 388.742V324.938H123.773L178.915 293.11L234.058 324.963V388.767L178.915 420.645ZM124.12 388.47L178.891 420.1L233.662 388.47V325.21L178.915 293.58L124.12 325.21V388.47Z" fill="#1F1F1F" fill-opacity="0.2"/>
<path d="M123.897 515.956H123.773L68.6309 484.029V420.323L123.773 388.495H123.897L179.163 420.323V484.128H179.039L123.897 515.956ZM69.1011 483.781L123.897 515.411L178.569 483.756V420.496L123.897 388.866L69.1011 420.496V483.781Z" fill="#1F1F1F" fill-opacity="0.2"/>
<path d="M233.933 515.956H233.81L178.568 484.029V420.323H178.692L233.834 388.495L289.199 420.323V484.128L233.933 515.956ZM179.162 483.781L233.933 515.411L288.729 483.781V420.496L233.933 388.866L179.162 420.496V483.781Z" fill="#1F1F1F" fill-opacity="0.2"/>
<path d="M343.971 515.956L288.729 484.029V420.323L343.872 388.495L399.237 420.323V484.128L343.971 515.956ZM289.2 483.781L343.971 515.411L398.841 483.756V420.496L344.045 388.866L289.2 420.496V483.781Z" fill="#1F1F1F" fill-opacity="0.2"/>
<path d="M454.032 515.956H453.908L398.84 484.029V420.323H398.964L454.106 388.495L509.273 420.323V484.128L454.032 515.956ZM399.236 483.781L454.032 515.411L508.802 483.781V420.496L454.032 388.866L399.236 420.496V483.781Z" fill="#1F1F1F" fill-opacity="0.2"/>
<path d="M178.915 611.241L123.649 579.339V515.535H123.773L178.915 483.707L234.058 515.559V579.364L178.915 611.241ZM124.12 579.067L178.891 610.697L233.662 579.067V515.807L178.915 484.177L124.12 515.807V579.067Z" fill="#1F1F1F" fill-opacity="0.2"/>
<path d="M288.952 611.242L233.687 579.34V515.535L288.952 483.633H289.076L344.218 515.486V579.29H344.095L288.952 611.242ZM234.182 579.067L288.952 610.697L343.748 579.067V515.807L288.952 484.177L234.182 515.807V579.067Z" fill="#1F1F1F" fill-opacity="0.2"/>
<path d="M399.013 611.241L343.871 579.413V515.535H343.995L399.137 483.707L454.279 515.559V579.364L399.013 611.241ZM344.218 579.067L399.013 610.697L453.784 579.067V515.807L399.013 484.177L344.218 515.807V579.067Z" fill="#1F1F1F" fill-opacity="0.2"/>
<path d="M69.1011 646.857V611.118L123.872 579.488L178.668 611.118V646.857H179.138V610.821L123.996 578.993L123.872 578.919L68.7299 610.772L68.6309 610.821V646.857H69.1011Z" fill="#1F1F1F" fill-opacity="0.2"/>
<path d="M179.138 646.857V611.118L233.934 579.488L288.705 611.118V646.857H289.175V610.821L234.033 578.993L233.934 578.919L178.792 610.772L178.668 610.821V646.857H179.138Z" fill="#1F1F1F" fill-opacity="0.2"/>
<path d="M289.175 646.857V611.118L343.971 579.488L398.767 611.118V646.857H399.237V610.821L344.095 578.993L343.971 578.919L288.829 610.772L288.705 610.821V646.857H289.175Z" fill="#1F1F1F" fill-opacity="0.2"/>
<path d="M399.236 646.857V611.118L454.007 579.488L508.803 611.118V646.857H509.273V610.821L454.131 578.993L454.007 578.919L398.865 610.772L398.766 610.821V646.857H399.236Z" fill="#1F1F1F" fill-opacity="0.2"/>
<path d="M0 132.832V135.727L33.5358 155.081V236.434L0 255.788V258.683L36.0107 237.869V153.646L0 132.832Z" fill="#1F1F1F" fill-opacity="0.2"/>
<path d="M106.498 279.993L33.5361 237.918V153.77L106.498 111.695L179.435 153.77V237.918L106.498 279.993ZM36.0358 236.433L106.498 277.122L176.96 236.433V155.081L106.498 114.393L36.0358 155.081V236.433Z" fill="#1F1F1F" fill-opacity="0.2"/>
<path d="M249.897 279.993L176.96 237.918V153.77L249.897 111.695L322.859 153.77V237.918L249.897 279.993ZM179.435 236.433L249.897 277.122L320.384 236.433V155.081L249.897 114.393L179.435 155.081V236.433Z" fill="#1F1F1F" fill-opacity="0.2"/>
<path d="M34.7732 235.715L0 255.787V258.683L34.7732 238.586L105.235 279.275V360.651L34.7732 401.315L0 381.243V384.114L34.7732 404.211L107.735 362.087V277.839L34.7732 235.715Z" fill="#1F1F1F" fill-opacity="0.2"/>
<path d="M178.197 404.186L105.235 362.112V277.963L178.197 235.889L251.159 277.963V362.112L178.197 404.186ZM107.735 360.652L178.197 401.315L248.659 360.652V279.25L178.197 238.586L107.735 279.25V360.652Z" fill="#1F1F1F" fill-opacity="0.2"/>
<path d="M321.621 404.186L248.659 362.112V277.963L321.621 235.889L394.583 277.963V362.112L321.621 404.186ZM251.159 360.652L321.621 401.315L392.083 360.652V279.25L321.621 238.586L251.159 279.25V360.652Z" fill="#1F1F1F" fill-opacity="0.2"/>
<path d="M0 381.243V384.114L33.5358 403.468V484.845L0 504.199V507.07L36.0107 486.281V402.033L0 381.243Z" fill="#1F1F1F" fill-opacity="0.2"/>
<path d="M106.498 528.405L33.5361 486.331V402.182L106.498 360.107L179.435 402.182V486.331L106.498 528.405ZM36.0358 484.846L106.498 525.534L176.96 484.846V403.469L106.498 362.805L36.0358 403.469V484.846Z" fill="#1F1F1F" fill-opacity="0.2"/>
<path d="M249.897 528.405L176.96 486.331V402.182L249.897 360.107L322.859 402.182V486.331L249.897 528.405ZM179.435 484.846L249.897 525.534L320.384 484.846V403.469L249.897 362.805L179.435 403.469V484.846Z" fill="#1F1F1F" fill-opacity="0.2"/>
<path d="M0 632.527L24.8239 646.857H29.7986L0 629.656V632.527Z" fill="#1F1F1F" fill-opacity="0.2"/>
<path d="M34.7732 484.127L0 504.199V507.07L34.7732 486.998L105.235 527.687V609.039L39.7479 646.856H44.7226L107.735 610.499V526.251L34.7732 484.127Z" fill="#1F1F1F" fill-opacity="0.2"/>
<path d="M173.198 646.856L107.735 609.039V527.687L178.197 486.998L248.66 527.687V609.039L183.172 646.856H188.147L251.134 610.499V526.251L178.197 484.127L105.235 526.251V610.499L168.223 646.856H173.198Z" fill="#1F1F1F" fill-opacity="0.2"/>
<path d="M316.622 646.856L251.134 609.039V527.687L321.596 486.998L392.059 527.687V609.039L326.596 646.856H331.57L394.558 610.499V526.251L321.596 484.127L248.659 526.251V610.499L311.647 646.856H316.622Z" fill="#1F1F1F" fill-opacity="0.2"/>
<path d="M0 629.656V632.527L24.8239 646.857H29.7986L0 629.656Z" fill="#1F1F1F" fill-opacity="0.2"/>
<path d="M44.7227 646.856L106.473 611.217L168.223 646.856H173.223L106.473 608.321L39.748 646.856H44.7227Z" fill="#1F1F1F" fill-opacity="0.2"/>
<path d="M188.147 646.856L249.897 611.217L311.647 646.856H316.622L249.897 608.321L183.172 646.856H188.147Z" fill="#1F1F1F" fill-opacity="0.2"/>
<path d="M331.57 646.856L393.321 611.217L455.071 646.856H460.046L393.321 608.321L326.596 646.856H331.57Z" fill="#1F1F1F" fill-opacity="0.2"/>
<path d="M178.915 43.1137C179.698 43.1137 180.464 42.8815 181.115 42.4464C181.766 42.0112 182.274 41.3928 182.574 40.6692C182.873 39.9456 182.952 39.1494 182.799 38.3813C182.646 37.6131 182.269 36.9075 181.715 36.3537C181.161 35.7999 180.456 35.4227 179.688 35.2699C178.919 35.1171 178.123 35.1956 177.4 35.4953C176.676 35.795 176.058 36.3026 175.622 36.9538C175.187 37.605 174.955 38.3706 174.955 39.1538C174.955 39.6738 175.058 40.1888 175.257 40.6692C175.456 41.1496 175.747 41.5862 176.115 41.9539C176.483 42.3216 176.919 42.6133 177.4 42.8123C177.88 43.0113 178.395 43.1137 178.915 43.1137Z" fill="#1F1F1F" fill-opacity="0.2"/>
<path d="M123.897 129.416C122.918 129.416 121.961 129.706 121.147 130.25C120.333 130.794 119.699 131.567 119.324 132.471C118.949 133.376 118.851 134.371 119.042 135.331C119.233 136.291 119.705 137.173 120.397 137.866C121.089 138.558 121.971 139.029 122.932 139.22C123.892 139.411 124.887 139.313 125.791 138.939C126.696 138.564 127.469 137.93 128.013 137.115C128.557 136.301 128.847 135.344 128.847 134.365C128.847 133.053 128.326 131.794 127.397 130.865C126.469 129.937 125.21 129.416 123.897 129.416Z" fill="#1F1F1F" fill-opacity="0.2"/>
<path d="M68.8538 105.903C70.6171 105.903 72.0465 104.474 72.0465 102.711C72.0465 100.947 70.6171 99.5181 68.8538 99.5181C67.0906 99.5181 65.6611 100.947 65.6611 102.711C65.6611 104.474 67.0906 105.903 68.8538 105.903Z" fill="#1F1F1F" fill-opacity="0.2"/>
<path d="M68.8783 41.6535C69.3678 41.6535 69.8463 41.5084 70.2533 41.2364C70.6603 40.9645 70.9775 40.5779 71.1649 40.1257C71.3522 39.6735 71.4012 39.1758 71.3057 38.6957C71.2102 38.2156 70.9745 37.7746 70.6283 37.4285C70.2822 37.0824 69.8412 36.8467 69.3611 36.7512C68.881 36.6557 68.3834 36.7047 67.9312 36.892C67.4789 37.0793 67.0924 37.3966 66.8204 37.8036C66.5485 38.2106 66.4033 38.6891 66.4033 39.1786C66.4033 39.835 66.6641 40.4645 67.1282 40.9286C67.5924 41.3928 68.2219 41.6535 68.8783 41.6535Z" fill="#1F1F1F" fill-opacity="0.2"/>
<path d="M123.872 14.8003C127.959 14.8003 131.272 11.4871 131.272 7.40014C131.272 3.31315 127.959 0 123.872 0C119.785 0 116.472 3.31315 116.472 7.40014C116.472 11.4871 119.785 14.8003 123.872 14.8003Z" fill="#1F1F1F" fill-opacity="0.2"/>
<path d="M178.915 108.923C180.15 108.928 181.358 108.566 182.387 107.884C183.416 107.202 184.219 106.229 184.695 105.09C185.171 103.951 185.298 102.696 185.06 101.485C184.822 100.273 184.23 99.1595 183.359 98.2848C182.488 97.41 181.376 96.8136 180.166 96.5709C178.955 96.3282 177.7 96.4503 176.559 96.9216C175.418 97.3929 174.442 98.1923 173.756 99.2185C173.07 100.245 172.703 101.451 172.703 102.686C172.7 103.504 172.858 104.314 173.169 105.071C173.48 105.828 173.937 106.515 174.514 107.095C175.091 107.674 175.777 108.134 176.532 108.448C177.288 108.761 178.097 108.923 178.915 108.923Z" fill="#1F1F1F" fill-opacity="0.2"/>
<path d="M123.897 319.271C122.751 319.271 121.632 319.61 120.679 320.247C119.727 320.883 118.985 321.787 118.546 322.846C118.108 323.904 117.993 325.068 118.217 326.192C118.44 327.315 118.992 328.347 119.802 329.157C120.612 329.967 121.644 330.519 122.767 330.742C123.89 330.966 125.055 330.851 126.113 330.412C127.171 329.974 128.076 329.232 128.712 328.279C129.349 327.327 129.688 326.207 129.688 325.062C129.688 323.526 129.078 322.053 127.992 320.967C126.906 319.881 125.433 319.271 123.897 319.271Z" fill="#1F1F1F" fill-opacity="0.2"/>
<path d="M68.8537 293.828C69.1408 293.828 69.3735 293.595 69.3735 293.308C69.3735 293.021 69.1408 292.788 68.8537 292.788C68.5667 292.788 68.334 293.021 68.334 293.308C68.334 293.595 68.5667 293.828 68.8537 293.828Z" fill="#1F1F1F" fill-opacity="0.2"/>
<path d="M68.8528 234.404C71.4089 234.404 73.481 232.332 73.481 229.776C73.481 227.22 71.4089 225.147 68.8528 225.147C66.2967 225.147 64.2246 227.22 64.2246 229.776C64.2246 232.332 66.2967 234.404 68.8528 234.404Z" fill="#1F1F1F" fill-opacity="0.2"/>
<path d="M123.897 194.012C123.109 194.012 122.338 194.246 121.683 194.684C121.028 195.122 120.517 195.744 120.215 196.472C119.914 197.2 119.835 198.001 119.989 198.774C120.142 199.547 120.522 200.257 121.079 200.815C121.636 201.372 122.346 201.751 123.119 201.905C123.892 202.059 124.694 201.98 125.422 201.678C126.15 201.377 126.772 200.866 127.21 200.211C127.648 199.555 127.881 198.785 127.881 197.997C127.881 196.94 127.462 195.927 126.714 195.179C125.967 194.432 124.954 194.012 123.897 194.012Z" fill="#1F1F1F" fill-opacity="0.2"/>
<path d="M230.345 325.062C230.34 325.779 230.548 326.481 230.943 327.079C231.339 327.677 231.903 328.144 232.564 328.42C233.225 328.697 233.954 328.77 234.657 328.632C235.36 328.493 236.006 328.149 236.513 327.642C237.02 327.135 237.365 326.489 237.503 325.785C237.642 325.082 237.568 324.354 237.292 323.692C237.015 323.031 236.548 322.467 235.95 322.072C235.352 321.677 234.65 321.468 233.934 321.473C232.982 321.473 232.069 321.851 231.396 322.524C230.723 323.197 230.345 324.11 230.345 325.062Z" fill="#1F1F1F" fill-opacity="0.2"/>
<path d="M178.915 300.312C180.306 300.312 181.666 299.899 182.822 299.126C183.979 298.352 184.88 297.253 185.411 295.967C185.942 294.682 186.08 293.267 185.807 291.903C185.533 290.539 184.862 289.286 183.876 288.304C182.891 287.322 181.636 286.655 180.271 286.386C178.906 286.118 177.492 286.261 176.208 286.797C174.924 287.332 173.828 288.237 173.058 289.396C172.289 290.555 171.881 291.917 171.886 293.308C171.886 294.23 172.068 295.143 172.421 295.994C172.775 296.846 173.293 297.619 173.946 298.27C174.599 298.92 175.374 299.436 176.227 299.786C177.079 300.137 177.993 300.315 178.915 300.312Z" fill="#1F1F1F" fill-opacity="0.2"/>
<path d="M233.934 394.559C235.118 394.579 236.281 394.245 237.274 393.602C238.268 392.959 239.048 392.034 239.515 390.946C239.981 389.858 240.114 388.656 239.895 387.492C239.676 386.329 239.116 385.257 238.286 384.413C237.456 383.569 236.393 382.991 235.234 382.752C234.074 382.514 232.87 382.626 231.774 383.075C230.678 383.523 229.741 384.287 229.081 385.27C228.421 386.253 228.069 387.41 228.068 388.594C228.068 390.159 228.683 391.661 229.78 392.777C230.877 393.893 232.369 394.533 233.934 394.559Z" fill="#1F1F1F" fill-opacity="0.2"/>
<path d="M346.866 388.594C346.866 388.031 346.699 387.481 346.387 387.013C346.074 386.544 345.629 386.18 345.109 385.964C344.589 385.749 344.017 385.692 343.465 385.802C342.913 385.912 342.406 386.183 342.007 386.581C341.609 386.979 341.338 387.486 341.229 388.038C341.119 388.591 341.175 389.163 341.39 389.683C341.606 390.203 341.971 390.648 342.439 390.96C342.907 391.273 343.457 391.44 344.02 391.44C344.395 391.443 344.766 391.372 345.113 391.23C345.46 391.088 345.775 390.879 346.04 390.614C346.305 390.349 346.514 390.034 346.656 389.687C346.798 389.34 346.87 388.968 346.866 388.594Z" fill="#1F1F1F" fill-opacity="0.2"/>
<path d="M399.014 425.842C400.102 425.842 401.165 425.519 402.069 424.915C402.973 424.31 403.677 423.45 404.092 422.445C404.508 421.439 404.615 420.333 404.401 419.267C404.187 418.2 403.661 417.221 402.89 416.454C402.119 415.687 401.138 415.165 400.071 414.956C399.003 414.747 397.898 414.859 396.894 415.279C395.891 415.699 395.034 416.407 394.433 417.313C393.833 418.22 393.515 419.285 393.52 420.373C393.52 421.093 393.662 421.806 393.938 422.472C394.215 423.137 394.62 423.741 395.13 424.249C395.641 424.757 396.247 425.16 396.913 425.433C397.58 425.707 398.294 425.846 399.014 425.842Z" fill="#1F1F1F" fill-opacity="0.2"/>
<path d="M459.304 388.594C459.304 387.545 458.992 386.52 458.409 385.649C457.826 384.777 456.998 384.098 456.028 383.698C455.059 383.298 453.993 383.195 452.965 383.401C451.937 383.607 450.993 384.114 450.253 384.857C449.514 385.601 449.011 386.547 448.81 387.576C448.608 388.605 448.717 389.67 449.121 390.638C449.526 391.605 450.209 392.431 451.083 393.01C451.957 393.589 452.984 393.895 454.032 393.89C454.726 393.89 455.414 393.753 456.055 393.486C456.696 393.22 457.279 392.83 457.769 392.337C458.258 391.845 458.646 391.261 458.91 390.619C459.173 389.976 459.307 389.288 459.304 388.594Z" fill="#1F1F1F" fill-opacity="0.2"/>
<path d="M509.05 426.56C510.268 426.545 511.455 426.171 512.462 425.485C513.468 424.798 514.25 423.83 514.708 422.701C515.167 421.572 515.282 420.333 515.039 419.139C514.795 417.945 514.205 416.849 513.342 415.989C512.479 415.129 511.381 414.543 510.186 414.305C508.991 414.067 507.752 414.186 506.625 414.649C505.498 415.112 504.533 415.898 503.85 416.907C503.167 417.916 502.798 419.105 502.788 420.323C502.782 421.146 502.939 421.962 503.252 422.723C503.565 423.485 504.026 424.176 504.609 424.757C505.192 425.338 505.885 425.796 506.648 426.106C507.41 426.415 508.227 426.57 509.05 426.56Z" fill="#1F1F1F" fill-opacity="0.2"/>
<path d="M123.872 519.248C125.84 519.248 127.436 517.652 127.436 515.684C127.436 513.715 125.84 512.12 123.872 512.12C121.903 512.12 120.308 513.715 120.308 515.684C120.308 517.652 121.903 519.248 123.872 519.248Z" fill="#1F1F1F" fill-opacity="0.2"/>
<path d="M68.854 486.751C70.4259 486.751 71.7002 485.477 71.7002 483.905C71.7002 482.333 70.4259 481.059 68.854 481.059C67.2821 481.059 66.0078 482.333 66.0078 483.905C66.0078 485.477 67.2821 486.751 68.854 486.751Z" fill="#1F1F1F" fill-opacity="0.2"/>
<path d="M67.5176 420.323C67.5241 420.68 67.6703 421.02 67.9249 421.27C68.1795 421.52 68.522 421.66 68.8788 421.66C69.2333 421.66 69.5732 421.519 69.8238 421.268C70.0745 421.018 70.2153 420.678 70.2153 420.323C70.2153 419.966 70.0753 419.624 69.8254 419.369C69.5754 419.115 69.2355 418.968 68.8788 418.962C68.5178 418.962 68.1716 419.105 67.9163 419.361C67.661 419.616 67.5176 419.962 67.5176 420.323Z" fill="#1F1F1F" fill-opacity="0.2"/>
<path d="M123.872 394.187C126.961 394.187 129.465 391.683 129.465 388.594C129.465 385.505 126.961 383 123.872 383C120.783 383 118.278 385.505 118.278 388.594C118.278 391.683 120.783 394.187 123.872 394.187Z" fill="#1F1F1F" fill-opacity="0.2"/>
<path d="M174.312 483.905C174.312 484.816 174.582 485.706 175.087 486.463C175.593 487.22 176.312 487.81 177.153 488.158C177.994 488.507 178.92 488.598 179.813 488.42C180.706 488.243 181.526 487.804 182.17 487.16C182.814 486.517 183.252 485.696 183.43 484.803C183.608 483.91 183.516 482.985 183.168 482.144C182.82 481.302 182.23 480.583 181.472 480.078C180.715 479.572 179.825 479.302 178.915 479.302C177.694 479.302 176.523 479.787 175.66 480.65C174.797 481.513 174.312 482.684 174.312 483.905Z" fill="#1F1F1F" fill-opacity="0.2"/>
<path d="M182.083 420.323C182.083 419.696 181.897 419.084 181.549 418.563C181.201 418.042 180.706 417.636 180.127 417.396C179.548 417.156 178.912 417.093 178.297 417.216C177.682 417.338 177.118 417.64 176.675 418.083C176.232 418.526 175.93 419.09 175.808 419.705C175.686 420.319 175.748 420.956 175.988 421.535C176.228 422.114 176.634 422.609 177.155 422.957C177.676 423.305 178.288 423.491 178.915 423.491C179.755 423.491 180.561 423.157 181.155 422.563C181.749 421.969 182.083 421.163 182.083 420.323Z" fill="#1F1F1F" fill-opacity="0.2"/>
<path d="M288.953 417.848C288.469 417.872 288.004 418.037 287.613 418.324C287.223 418.61 286.925 419.004 286.756 419.458C286.588 419.912 286.556 420.405 286.665 420.877C286.774 421.349 287.019 421.778 287.37 422.112C287.72 422.446 288.161 422.669 288.637 422.755C289.114 422.841 289.605 422.786 290.05 422.595C290.495 422.405 290.875 422.088 291.141 421.684C291.408 421.28 291.551 420.807 291.551 420.323C291.552 419.987 291.484 419.655 291.352 419.346C291.22 419.038 291.026 418.759 290.783 418.527C290.54 418.296 290.253 418.116 289.938 417.999C289.623 417.883 289.288 417.831 288.953 417.848Z" fill="#1F1F1F" fill-opacity="0.2"/>
<path d="M339.614 515.659C339.614 516.52 339.87 517.362 340.348 518.079C340.827 518.795 341.507 519.353 342.303 519.683C343.099 520.013 343.975 520.099 344.82 519.931C345.665 519.763 346.441 519.348 347.05 518.739C347.659 518.13 348.074 517.353 348.242 516.508C348.411 515.664 348.324 514.788 347.995 513.992C347.665 513.196 347.107 512.515 346.39 512.037C345.674 511.558 344.832 511.303 343.97 511.303C342.815 511.303 341.707 511.762 340.89 512.579C340.073 513.395 339.614 514.503 339.614 515.659Z" fill="#1F1F1F" fill-opacity="0.2"/>
<path d="M288.952 477.618C287.709 477.618 286.494 477.987 285.46 478.678C284.426 479.368 283.62 480.35 283.145 481.499C282.669 482.648 282.544 483.912 282.787 485.131C283.029 486.35 283.628 487.471 284.507 488.35C285.386 489.229 286.507 489.828 287.726 490.07C288.945 490.313 290.209 490.188 291.358 489.712C292.507 489.237 293.489 488.431 294.179 487.397C294.87 486.363 295.239 485.148 295.239 483.905C295.239 482.237 294.577 480.638 293.398 479.459C292.219 478.281 290.62 477.618 288.952 477.618Z" fill="#1F1F1F" fill-opacity="0.2"/>
<path d="M509.051 490.686C510.392 490.686 511.703 490.288 512.818 489.543C513.934 488.798 514.803 487.739 515.316 486.5C515.829 485.26 515.964 483.897 515.702 482.581C515.44 481.266 514.795 480.058 513.846 479.109C512.898 478.161 511.689 477.515 510.374 477.253C509.058 476.992 507.695 477.126 506.456 477.639C505.217 478.153 504.158 479.022 503.412 480.137C502.667 481.252 502.27 482.563 502.27 483.904C502.27 484.795 502.445 485.677 502.786 486.5C503.127 487.322 503.626 488.07 504.256 488.7C504.885 489.329 505.633 489.829 506.456 490.17C507.279 490.51 508.16 490.686 509.051 490.686Z" fill="#1F1F1F" fill-opacity="0.2"/>
<path d="M229.775 515.659C229.771 516.488 230.012 517.3 230.47 517.992C230.928 518.683 231.581 519.223 232.346 519.543C233.111 519.862 233.954 519.947 234.768 519.787C235.582 519.626 236.329 519.227 236.916 518.641C237.502 518.054 237.901 517.307 238.062 516.493C238.222 515.679 238.137 514.836 237.818 514.071C237.498 513.306 236.958 512.653 236.266 512.195C235.575 511.737 234.763 511.496 233.933 511.501C232.833 511.507 231.779 511.947 231 512.726C230.222 513.504 229.782 514.558 229.775 515.659Z" fill="#1F1F1F" fill-opacity="0.2"/>
<path d="M233.933 586.146C235.284 586.146 236.605 585.745 237.728 584.994C238.852 584.244 239.727 583.177 240.244 581.929C240.761 580.681 240.897 579.307 240.633 577.982C240.37 576.657 239.719 575.44 238.764 574.485C237.808 573.529 236.591 572.879 235.266 572.615C233.941 572.352 232.568 572.487 231.319 573.004C230.071 573.521 229.004 574.396 228.254 575.52C227.503 576.643 227.103 577.964 227.103 579.315C227.103 580.212 227.279 581.1 227.623 581.929C227.966 582.758 228.469 583.511 229.103 584.145C229.738 584.779 230.491 585.282 231.319 585.626C232.148 585.969 233.036 586.146 233.933 586.146Z" fill="#1F1F1F" fill-opacity="0.2"/>
<path d="M398.989 491.033C402.926 491.033 406.117 487.841 406.117 483.905C406.117 479.968 402.926 476.777 398.989 476.777C395.053 476.777 391.861 479.968 391.861 483.905C391.861 487.841 395.053 491.033 398.989 491.033Z" fill="#1F1F1F" fill-opacity="0.2"/>
<path d="M454.007 518.306C455.456 518.306 456.631 517.132 456.631 515.683C456.631 514.234 455.456 513.06 454.007 513.06C452.558 513.06 451.384 514.234 451.384 515.683C451.384 517.132 452.558 518.306 454.007 518.306Z" fill="#1F1F1F" fill-opacity="0.2"/>
<path d="M509.051 616.216C510.091 616.216 511.108 615.908 511.974 615.331C512.84 614.754 513.516 613.934 513.916 612.973C514.316 612.013 514.424 610.955 514.224 609.934C514.025 608.913 513.528 607.974 512.795 607.234C512.063 606.495 511.128 605.989 510.109 605.78C509.09 605.571 508.031 605.669 507.067 606.06C506.103 606.452 505.276 607.12 504.691 607.98C504.106 608.84 503.789 609.855 503.779 610.895C503.769 611.592 503.898 612.285 504.159 612.932C504.42 613.578 504.807 614.167 505.298 614.662C505.789 615.158 506.373 615.55 507.018 615.817C507.662 616.084 508.353 616.22 509.051 616.216Z" fill="#1F1F1F" fill-opacity="0.2"/>
<path d="M454.007 587.26C458.45 587.26 462.051 583.658 462.051 579.216C462.051 574.774 458.45 571.172 454.007 571.172C449.565 571.172 445.964 574.774 445.964 579.216C445.964 583.658 449.565 587.26 454.007 587.26Z" fill="#1F1F1F" fill-opacity="0.2"/>
<path d="M69.9179 610.895C69.9412 610.743 69.9314 610.588 69.8893 610.441C69.8472 610.293 69.7736 610.157 69.6737 610.04C69.5738 609.924 69.4499 609.83 69.3105 609.766C69.1711 609.702 69.0194 609.669 68.866 609.669C68.7126 609.669 68.5609 609.702 68.4215 609.766C68.2821 609.83 68.1582 609.924 68.0583 610.04C67.9584 610.157 67.8848 610.293 67.8427 610.441C67.8005 610.588 67.7908 610.743 67.8141 610.895C67.7908 611.047 67.8005 611.202 67.8427 611.349C67.8848 611.497 67.9584 611.633 68.0583 611.75C68.1582 611.866 68.2821 611.96 68.4215 612.024C68.5609 612.088 68.7126 612.121 68.866 612.121C69.0194 612.121 69.1711 612.088 69.3105 612.024C69.4499 611.96 69.5738 611.866 69.6737 611.75C69.7736 611.633 69.8472 611.497 69.8893 611.349C69.9314 611.202 69.9412 611.047 69.9179 610.895Z" fill="#1F1F1F" fill-opacity="0.2"/>
<path d="M123.897 575.775C123.214 575.771 122.545 575.969 121.976 576.345C121.406 576.721 120.962 577.258 120.698 577.888C120.435 578.517 120.365 579.211 120.497 579.881C120.628 580.55 120.957 581.166 121.439 581.648C121.922 582.131 122.537 582.459 123.207 582.591C123.876 582.723 124.57 582.653 125.2 582.389C125.829 582.126 126.366 581.681 126.742 581.111C127.119 580.542 127.317 579.873 127.312 579.191C127.312 578.285 126.952 577.416 126.312 576.776C125.671 576.135 124.802 575.775 123.897 575.775Z" fill="#1F1F1F" fill-opacity="0.2"/>
<path d="M178.915 602.208C177.179 602.208 175.483 602.724 174.04 603.69C172.598 604.656 171.475 606.029 170.814 607.634C170.153 609.239 169.984 611.005 170.328 612.706C170.672 614.408 171.514 615.969 172.747 617.191C173.98 618.413 175.548 619.242 177.252 619.571C178.956 619.901 180.72 619.717 182.32 619.042C183.92 618.368 185.283 617.233 186.236 615.783C187.19 614.332 187.691 612.631 187.677 610.895C187.651 608.586 186.717 606.381 185.077 604.755C183.438 603.129 181.224 602.214 178.915 602.208Z" fill="#1F1F1F" fill-opacity="0.2"/>
<path d="M288.952 605.673C287.901 605.673 286.875 605.986 286.002 606.571C285.13 607.156 284.451 607.988 284.052 608.96C283.654 609.932 283.553 611.001 283.764 612.03C283.974 613.06 284.486 614.003 285.234 614.741C285.982 615.478 286.933 615.977 287.965 616.173C288.997 616.369 290.065 616.253 291.031 615.841C291.997 615.429 292.819 614.738 293.392 613.858C293.965 612.977 294.263 611.946 294.249 610.895C294.235 609.501 293.671 608.169 292.678 607.191C291.686 606.212 290.346 605.666 288.952 605.673Z" fill="#1F1F1F" fill-opacity="0.2"/>
<path d="M343.97 585.23C345.166 585.235 346.336 584.885 347.332 584.224C348.328 583.563 349.106 582.622 349.567 581.519C350.028 580.416 350.151 579.201 349.921 578.028C349.691 576.855 349.117 575.776 348.274 574.929C347.43 574.082 346.354 573.505 345.182 573.27C344.01 573.035 342.795 573.153 341.69 573.609C340.585 574.065 339.64 574.84 338.976 575.833C338.311 576.827 337.956 577.995 337.956 579.191C337.956 580.788 338.589 582.32 339.716 583.452C340.843 584.584 342.373 585.223 343.97 585.23Z" fill="#1F1F1F" fill-opacity="0.2"/>
<path d="M405.894 610.895C405.899 609.527 405.498 608.189 404.741 607.05C403.984 605.91 402.906 605.021 401.643 604.496C400.38 603.97 398.99 603.831 397.648 604.097C396.306 604.362 395.074 605.021 394.106 605.988C393.139 606.955 392.481 608.188 392.215 609.529C391.95 610.871 392.089 612.262 392.614 613.524C393.14 614.787 394.029 615.865 395.168 616.622C396.308 617.379 397.646 617.78 399.014 617.776C400.839 617.776 402.589 617.051 403.879 615.76C405.169 614.47 405.894 612.72 405.894 610.895Z" fill="#1F1F1F" fill-opacity="0.2"/>
</g>
</svg>
