<svg width="170" height="250" viewBox="0 0 170 250" fill="none" xmlns="http://www.w3.org/2000/svg">
<g opacity="0.3">
<path d="M8.9201 39.3753H8.86925L-13.7935 26.2639V0.0410986L8.9201 -13.0703H8.97096L31.6337 0.0410986V26.2639H31.5828L8.9201 39.3753ZM-13.6002 26.152L8.9201 39.1516L31.3895 26.152V0.152988L8.9201 -12.8465L-13.6002 0.152988V26.152Z" fill="#1F1F1F" fill-opacity="0.2"/>
<path d="M31.5314 156.879L8.81787 143.768V117.545H8.86873L31.5314 104.464L54.1941 117.555V143.778L31.5314 156.879ZM9.01114 143.656L31.5213 156.656L54.0314 143.656V117.657L31.5314 104.658L9.01114 117.657V143.656Z" fill="#1F1F1F" fill-opacity="0.2"/>
<path d="M8.9201 196.051H8.86925L-13.7935 182.93V156.747L8.86925 143.667H8.9201L31.6337 156.747V182.97H31.5828L8.9201 196.051ZM-13.6002 182.828L8.9201 195.827L31.3895 182.818V156.819L8.9201 143.819L-13.6002 156.819V182.828Z" fill="#1F1F1F" fill-opacity="0.2"/>
<path d="M54.1434 196.051H54.0926L31.3892 182.93V156.747H31.44L54.1027 143.667L76.857 156.747V182.97L54.1434 196.051ZM31.6333 182.828L54.1434 195.827L76.6637 182.828V156.819L54.1434 143.819L31.6333 156.819V182.828Z" fill="#1F1F1F" fill-opacity="0.2"/>
<path d="M99.3675 196.051L76.6641 182.93V156.747L99.3268 143.667L122.081 156.747V182.97L99.3675 196.051ZM76.8573 182.828L99.3675 195.827L121.918 182.818V156.819L99.398 143.819L76.8573 156.819V182.828Z" fill="#1F1F1F" fill-opacity="0.2"/>
<path d="M144.601 196.051H144.55L121.918 182.93V156.747H121.969L144.632 143.667L167.304 156.747V182.97L144.601 196.051ZM122.081 182.828L144.601 195.827L167.111 182.828V156.819L144.601 143.819L122.081 156.819V182.828Z" fill="#1F1F1F" fill-opacity="0.2"/>
<path d="M31.5314 235.212L8.81787 222.101V195.878H8.86873L31.5314 182.797L54.1941 195.888V222.111L31.5314 235.212ZM9.01114 221.989L31.5213 234.988L54.0314 221.989V195.99L31.5314 182.99L9.01114 195.99V221.989Z" fill="#1F1F1F" fill-opacity="0.2"/>
<path d="M76.7556 235.212L54.042 222.101V195.878L76.7556 182.767H76.8064L99.4691 195.858V222.081H99.4183L76.7556 235.212ZM54.2454 221.989L76.7556 234.988L99.2759 221.989V195.99L76.7556 182.99L54.2454 195.99V221.989Z" fill="#1F1F1F" fill-opacity="0.2"/>
<path d="M121.989 235.212L99.3262 222.131V195.878H99.377L122.04 182.797L144.702 195.888V222.111L121.989 235.212ZM99.4686 221.989L121.989 234.988L144.499 221.989V195.99L121.989 182.99L99.4686 195.99V221.989Z" fill="#1F1F1F" fill-opacity="0.2"/>
<path d="M-13.6002 249.849V235.161L8.90993 222.162L31.4302 235.161V249.849H31.6235V235.039L8.96079 221.958L8.90993 221.928L-13.7528 235.019L-13.7935 235.039V249.849H-13.6002Z" fill="#1F1F1F" fill-opacity="0.2"/>
<path d="M31.6234 249.849V235.161L54.1437 222.162L76.6539 235.161V249.849H76.8471V235.039L54.1844 221.958L54.1437 221.928L31.481 235.019L31.4302 235.039V249.849H31.6234Z" fill="#1F1F1F" fill-opacity="0.2"/>
<path d="M76.8471 249.849V235.161L99.3674 222.162L121.888 235.161V249.849H122.081V235.039L99.4182 221.958L99.3674 221.928L76.7047 235.019L76.6538 235.039V249.849H76.8471Z" fill="#1F1F1F" fill-opacity="0.2"/>
<path d="M122.081 249.849V235.161L144.591 222.162L167.111 235.161V249.849H167.305V235.039L144.642 221.958L144.591 221.928L121.928 235.019L121.888 235.039V249.849H122.081Z" fill="#1F1F1F" fill-opacity="0.2"/>
<path d="M1.76958 99.0733L-28.2168 81.7813V47.1973L1.76958 29.9053L31.7458 47.1973V81.7813L1.76958 99.0733ZM-27.1894 81.171L1.76958 97.8934L30.7286 81.171V47.7364L1.76958 31.014L-27.1894 47.7364V81.171Z" fill="#1F1F1F" fill-opacity="0.2"/>
<path d="M60.7042 99.0733L30.728 81.7813V47.1973L60.7042 29.9053L90.6906 47.1973V81.7813L60.7042 99.0733ZM31.7452 81.171L60.7042 97.8934L89.6734 81.171V47.7364L60.7042 31.014L31.7452 47.7364V81.171Z" fill="#1F1F1F" fill-opacity="0.2"/>
<path d="M-27.7087 80.8755L-42 89.1248V90.3149L-27.7087 82.0554L1.25036 98.7778V132.223L-27.7087 148.935L-42 140.685V141.865L-27.7087 150.125L2.27771 132.813V98.1878L-27.7087 80.8755Z" fill="#1F1F1F" fill-opacity="0.2"/>
<path d="M31.2369 150.115L1.25049 132.823V98.2393L31.2369 80.9473L61.2232 98.2393V132.823L31.2369 150.115ZM2.27784 132.223L31.2369 148.935L60.1959 132.223V98.7682L31.2369 82.056L2.27784 98.7682V132.223Z" fill="#1F1F1F" fill-opacity="0.2"/>
<path d="M90.1822 150.115L60.1958 132.823V98.2393L90.1822 80.9473L120.169 98.2393V132.823L90.1822 150.115ZM61.2232 132.223L90.1822 148.935L119.141 132.223V98.7682L90.1822 82.056L61.2232 98.7682V132.223Z" fill="#1F1F1F" fill-opacity="0.2"/>
<path d="M1.76958 201.168L-28.2168 183.876V149.292L1.76958 132L31.7458 149.292V183.876L1.76958 201.168ZM-27.1894 183.265L1.76958 199.988L30.7286 183.265V149.82L1.76958 133.108L-27.1894 149.82V183.265Z" fill="#1F1F1F" fill-opacity="0.2"/>
<path d="M60.7042 201.168L30.728 183.876V149.292L60.7042 132L90.6906 149.292V183.876L60.7042 201.168ZM31.7452 183.265L60.7042 199.988L89.6734 183.265V149.82L60.7042 133.108L31.7452 149.82V183.265Z" fill="#1F1F1F" fill-opacity="0.2"/>
<path d="M-27.7087 182.97L-42 191.219V192.399L-27.7087 184.15L1.25036 200.872V234.307L-25.6641 249.849H-23.6196L2.27771 234.907V200.282L-27.7087 182.97Z" fill="#1F1F1F" fill-opacity="0.2"/>
<path d="M29.1822 249.849L2.27784 234.307V200.872L31.2369 184.15L60.1959 200.872V234.307L33.2814 249.849H35.3259L61.2131 234.907V200.282L31.2369 182.97L1.25049 200.282V234.907L27.1376 249.849H29.1822Z" fill="#1F1F1F" fill-opacity="0.2"/>
<path d="M88.1275 249.849L61.213 234.307V200.872L90.172 184.15L119.131 200.872V234.307L92.2267 249.849H94.2712L120.158 234.907V200.282L90.172 182.97L60.1958 200.282V234.907L86.083 249.849H88.1275Z" fill="#1F1F1F" fill-opacity="0.2"/>
<path d="M-23.6195 249.849L1.75903 235.202L27.1376 249.849H29.1923L1.75903 234.012L-25.6641 249.849H-23.6195Z" fill="#1F1F1F" fill-opacity="0.2"/>
<path d="M35.3258 249.849L60.7043 235.202L86.0829 249.849H88.1274L60.7043 234.012L33.2812 249.849H35.3258Z" fill="#1F1F1F" fill-opacity="0.2"/>
<path d="M94.2711 249.849L119.65 235.202L145.028 249.849H147.073L119.65 234.012L92.2266 249.849H94.2711Z" fill="#1F1F1F" fill-opacity="0.2"/>
<path d="M31.5318 1.71932C31.8537 1.71932 32.1683 1.62387 32.436 1.44504C32.7036 1.26621 32.9122 1.01204 33.0354 0.714653C33.1586 0.41727 33.1908 0.0900365 33.128 -0.225664C33.0652 -0.541365 32.9102 -0.831358 32.6826 -1.05897C32.455 -1.28657 32.165 -1.44158 31.8493 -1.50437C31.5336 -1.56717 31.2064 -1.53494 30.909 -1.41176C30.6116 -1.28858 30.3574 -1.07998 30.1786 -0.812338C29.9997 -0.5447 29.9043 -0.230043 29.9043 0.0918427C29.9043 0.305567 29.9464 0.517198 30.0282 0.714653C30.11 0.912109 30.2298 1.09152 30.381 1.24265C30.5321 1.39377 30.7115 1.51365 30.909 1.59544C31.1064 1.67723 31.3181 1.71932 31.5318 1.71932Z" fill="#1F1F1F" fill-opacity="0.2"/>
<path d="M8.9201 37.188C8.51774 37.188 8.12442 37.3073 7.78987 37.5308C7.45532 37.7544 7.19457 38.0721 7.0406 38.4438C6.88662 38.8156 6.84634 39.2246 6.92483 39.6192C7.00333 40.0139 7.19708 40.3763 7.48159 40.6608C7.7661 40.9454 8.12859 41.1391 8.52321 41.2176C8.91784 41.2961 9.32688 41.2558 9.69861 41.1018C10.0703 40.9479 10.3881 40.6871 10.6116 40.3526C10.8351 40.018 10.9545 39.6247 10.9545 39.2223C10.9545 38.6828 10.7401 38.1654 10.3586 37.7838C9.97709 37.4023 9.45964 37.188 8.9201 37.188Z" fill="#1F1F1F" fill-opacity="0.2"/>
<path d="M31.5321 28.7662C32.0395 28.7682 32.5361 28.6196 32.959 28.3392C33.3818 28.0587 33.712 27.6591 33.9075 27.1909C34.1031 26.7227 34.1553 26.207 34.0576 25.7091C33.9598 25.2112 33.7165 24.7535 33.3584 24.394C33.0004 24.0345 32.5436 23.7894 32.0461 23.6897C31.5486 23.5899 31.0327 23.6401 30.5637 23.8338C30.0948 24.0275 29.6938 24.356 29.4117 24.7778C29.1296 25.1995 28.979 25.6955 28.979 26.2029C28.9777 26.5391 29.0427 26.8721 29.1704 27.1831C29.2981 27.494 29.486 27.7767 29.7232 28.0148C29.9604 28.253 30.2423 28.4419 30.5527 28.5709C30.8632 28.6998 31.196 28.7662 31.5321 28.7662Z" fill="#1F1F1F" fill-opacity="0.2"/>
<path d="M8.91975 115.216C8.44899 115.216 7.9888 115.355 7.59738 115.617C7.20596 115.878 6.90088 116.25 6.72073 116.685C6.54058 117.12 6.49345 117.599 6.58529 118.06C6.67713 118.522 6.90382 118.946 7.23669 119.279C7.56957 119.612 7.99368 119.839 8.45539 119.93C8.91711 120.022 9.39568 119.975 9.83061 119.795C10.2655 119.615 10.6373 119.31 10.8988 118.918C11.1603 118.527 11.2999 118.067 11.2999 117.596C11.2999 116.965 11.0492 116.359 10.6028 115.913C10.1564 115.467 9.55101 115.216 8.91975 115.216Z" fill="#1F1F1F" fill-opacity="0.2"/>
<path d="M8.91988 63.7363C8.59598 63.7363 8.27936 63.8324 8.01005 64.0123C7.74074 64.1923 7.53084 64.448 7.40689 64.7473C7.28294 65.0465 7.25051 65.3758 7.31369 65.6935C7.37688 66.0111 7.53286 66.303 7.76189 66.532C7.99092 66.761 8.28272 66.917 8.60039 66.9802C8.91807 67.0434 9.24734 67.0109 9.54659 66.887C9.84583 66.763 10.1016 66.5531 10.2815 66.2838C10.4615 66.0145 10.5575 65.6979 10.5575 65.374C10.5575 64.9397 10.385 64.5231 10.0779 64.216C9.77076 63.9089 9.35421 63.7363 8.91988 63.7363Z" fill="#1F1F1F" fill-opacity="0.2"/>
<path d="M52.6685 117.596C52.6665 117.891 52.7521 118.179 52.9145 118.425C53.0769 118.671 53.3088 118.863 53.5805 118.976C53.8523 119.09 54.1518 119.12 54.4408 119.063C54.7298 119.006 54.9953 118.865 55.2036 118.656C55.4119 118.448 55.5536 118.182 55.6106 117.893C55.6675 117.604 55.6373 117.305 55.5236 117.033C55.41 116.761 55.218 116.53 54.9723 116.367C54.7265 116.205 54.438 116.119 54.1434 116.121C53.7522 116.121 53.3771 116.277 53.1005 116.553C52.8239 116.83 52.6685 117.205 52.6685 117.596Z" fill="#1F1F1F" fill-opacity="0.2"/>
<path d="M31.5319 107.424C32.1036 107.424 32.6626 107.254 33.1378 106.936C33.6131 106.619 33.9834 106.167 34.2017 105.638C34.4201 105.11 34.4767 104.529 34.3644 103.968C34.2521 103.407 33.9759 102.893 33.5709 102.489C33.1659 102.085 32.6502 101.811 32.0892 101.701C31.5281 101.59 30.947 101.649 30.4193 101.869C29.8916 102.09 29.4412 102.461 29.125 102.938C28.8088 103.414 28.6411 103.974 28.6431 104.545C28.6431 104.924 28.7179 105.299 28.8632 105.649C29.0085 105.999 29.2214 106.317 29.4898 106.585C29.7582 106.852 30.0767 107.064 30.4271 107.208C30.7776 107.352 31.153 107.425 31.5319 107.424Z" fill="#1F1F1F" fill-opacity="0.2"/>
<path d="M54.1436 146.158C54.6301 146.166 55.108 146.03 55.5165 145.765C55.9249 145.501 56.2454 145.121 56.4372 144.674C56.629 144.226 56.6834 143.732 56.5935 143.254C56.5035 142.776 56.2733 142.335 55.9321 141.988C55.591 141.642 55.1543 141.404 54.6777 141.306C54.2011 141.208 53.7061 141.254 53.2558 141.438C52.8055 141.623 52.4202 141.937 52.149 142.341C51.8778 142.745 51.733 143.22 51.7329 143.707C51.7328 144.35 51.9855 144.968 52.4365 145.426C52.8874 145.885 53.5005 146.148 54.1436 146.158Z" fill="#1F1F1F" fill-opacity="0.2"/>
<path d="M100.557 143.707C100.557 143.476 100.489 143.249 100.36 143.057C100.232 142.865 100.049 142.715 99.8352 142.626C99.6214 142.538 99.3862 142.514 99.1593 142.56C98.9324 142.605 98.724 142.716 98.5604 142.88C98.3968 143.043 98.2854 143.252 98.2403 143.479C98.1951 143.706 98.2183 143.941 98.3068 144.155C98.3953 144.368 98.5453 144.551 98.7376 144.679C98.93 144.808 99.1562 144.877 99.3875 144.877C99.5415 144.878 99.6942 144.849 99.8368 144.79C99.9793 144.732 100.109 144.646 100.218 144.537C100.327 144.428 100.413 144.299 100.471 144.156C100.529 144.014 100.559 143.861 100.557 143.707Z" fill="#1F1F1F" fill-opacity="0.2"/>
<path d="M121.99 159.016C122.437 159.016 122.874 158.883 123.245 158.634C123.617 158.386 123.906 158.033 124.077 157.619C124.247 157.206 124.292 156.752 124.204 156.313C124.116 155.875 123.9 155.473 123.583 155.157C123.266 154.842 122.863 154.628 122.424 154.542C121.985 154.456 121.531 154.502 121.118 154.674C120.706 154.847 120.354 155.138 120.107 155.511C119.86 155.883 119.729 156.321 119.731 156.768C119.731 157.064 119.79 157.357 119.904 157.63C120.017 157.904 120.184 158.152 120.393 158.361C120.603 158.57 120.852 158.735 121.126 158.848C121.4 158.96 121.694 159.017 121.99 159.016Z" fill="#1F1F1F" fill-opacity="0.2"/>
<path d="M146.768 143.707C146.768 143.276 146.64 142.854 146.4 142.496C146.16 142.138 145.82 141.859 145.421 141.695C145.023 141.53 144.585 141.488 144.162 141.572C143.74 141.657 143.352 141.866 143.048 142.171C142.744 142.476 142.537 142.865 142.455 143.288C142.372 143.711 142.416 144.149 142.583 144.547C142.749 144.944 143.03 145.283 143.389 145.521C143.748 145.759 144.17 145.885 144.601 145.883C144.886 145.883 145.169 145.827 145.432 145.717C145.696 145.608 145.935 145.447 146.137 145.245C146.338 145.043 146.497 144.803 146.606 144.539C146.714 144.275 146.769 143.992 146.768 143.707Z" fill="#1F1F1F" fill-opacity="0.2"/>
<path d="M167.213 159.31C167.713 159.304 168.201 159.151 168.615 158.868C169.029 158.586 169.35 158.188 169.538 157.724C169.727 157.26 169.774 156.751 169.674 156.26C169.574 155.77 169.331 155.319 168.977 154.966C168.622 154.612 168.171 154.372 167.68 154.274C167.188 154.176 166.679 154.225 166.216 154.415C165.753 154.605 165.356 154.928 165.076 155.343C164.795 155.758 164.643 156.246 164.639 156.747C164.637 157.085 164.701 157.421 164.83 157.734C164.958 158.046 165.148 158.331 165.388 158.569C165.627 158.808 165.912 158.996 166.225 159.124C166.539 159.251 166.874 159.314 167.213 159.31Z" fill="#1F1F1F" fill-opacity="0.2"/>
<path d="M8.91005 197.404C9.719 197.404 10.3748 196.748 10.3748 195.939C10.3748 195.13 9.719 194.474 8.91005 194.474C8.1011 194.474 7.44531 195.13 7.44531 195.939C7.44531 196.748 8.1011 197.404 8.91005 197.404Z" fill="#1F1F1F" fill-opacity="0.2"/>
<path d="M8.90966 146.006C10.1793 146.006 11.2085 144.977 11.2085 143.707C11.2085 142.437 10.1793 141.408 8.90966 141.408C7.64005 141.408 6.61084 142.437 6.61084 143.707C6.61084 144.977 7.64005 146.006 8.90966 146.006Z" fill="#1F1F1F" fill-opacity="0.2"/>
<path d="M29.6396 182.878C29.6396 183.252 29.7506 183.618 29.9585 183.929C30.1664 184.241 30.4619 184.483 30.8076 184.626C31.1533 184.769 31.5337 184.807 31.9007 184.734C32.2677 184.661 32.6048 184.481 32.8694 184.216C33.134 183.951 33.3142 183.614 33.3872 183.247C33.4602 182.88 33.4227 182.5 33.2795 182.154C33.1363 181.809 32.8938 181.513 32.5827 181.305C32.2716 181.097 31.9058 180.986 31.5316 180.986C31.0298 180.986 30.5486 181.186 30.1938 181.54C29.839 181.895 29.6396 182.377 29.6396 182.878Z" fill="#1F1F1F" fill-opacity="0.2"/>
<path d="M32.834 156.747C32.834 156.49 32.7576 156.238 32.6145 156.024C32.4715 155.81 32.2681 155.643 32.0302 155.544C31.7923 155.446 31.5305 155.42 31.278 155.47C31.0254 155.521 30.7934 155.645 30.6113 155.827C30.4292 156.009 30.3052 156.241 30.255 156.493C30.2048 156.746 30.2305 157.008 30.3291 157.246C30.4276 157.483 30.5945 157.687 30.8086 157.83C31.0227 157.973 31.2745 158.049 31.532 158.049C31.8773 158.049 32.2084 157.912 32.4526 157.668C32.6968 157.424 32.834 157.093 32.834 156.747Z" fill="#1F1F1F" fill-opacity="0.2"/>
<path d="M76.7554 155.73C76.5567 155.74 76.3652 155.808 76.2048 155.925C76.0443 156.043 75.9219 156.205 75.8527 156.392C75.7834 156.578 75.7704 156.781 75.8152 156.975C75.86 157.169 75.9607 157.345 76.1047 157.482C76.2488 157.619 76.43 157.711 76.6258 157.747C76.8216 157.782 77.0234 157.759 77.2063 157.681C77.3893 157.603 77.5452 157.472 77.6549 157.306C77.7646 157.14 77.8232 156.946 77.8234 156.747C77.8236 156.609 77.7957 156.472 77.7414 156.346C77.6872 156.219 77.6076 156.104 77.5077 156.009C77.4078 155.914 77.2896 155.84 77.1603 155.792C77.0309 155.744 76.8932 155.723 76.7554 155.73Z" fill="#1F1F1F" fill-opacity="0.2"/>
<path d="M97.5767 195.928C97.5767 196.282 97.6817 196.629 97.8784 196.923C98.0751 197.217 98.3547 197.447 98.6818 197.582C99.0089 197.718 99.3689 197.753 99.7162 197.684C100.063 197.615 100.382 197.445 100.633 197.194C100.883 196.944 101.054 196.625 101.123 196.278C101.192 195.93 101.156 195.57 101.021 195.243C100.885 194.916 100.656 194.637 100.361 194.44C100.067 194.243 99.721 194.138 99.3669 194.138C98.8921 194.138 98.4367 194.327 98.101 194.663C97.7653 194.998 97.5767 195.454 97.5767 195.928Z" fill="#1F1F1F" fill-opacity="0.2"/>
<path d="M76.7555 180.295C76.2445 180.295 75.745 180.446 75.3201 180.73C74.8952 181.014 74.5641 181.418 74.3685 181.89C74.173 182.362 74.1218 182.881 74.2215 183.383C74.3212 183.884 74.5673 184.344 74.9286 184.705C75.2899 185.067 75.7503 185.313 76.2515 185.413C76.7526 185.512 77.2721 185.461 77.7442 185.266C78.2163 185.07 78.6198 184.739 78.9037 184.314C79.1876 183.889 79.3391 183.39 79.3391 182.879C79.3391 182.193 79.0669 181.536 78.5824 181.052C78.0979 180.567 77.4407 180.295 76.7555 180.295Z" fill="#1F1F1F" fill-opacity="0.2"/>
<path d="M167.213 185.665C167.764 185.665 168.303 185.501 168.761 185.195C169.22 184.889 169.577 184.454 169.788 183.944C169.999 183.435 170.054 182.875 169.946 182.334C169.839 181.794 169.573 181.297 169.184 180.907C168.794 180.517 168.297 180.252 167.757 180.144C167.216 180.037 166.656 180.092 166.146 180.303C165.637 180.514 165.202 180.871 164.895 181.329C164.589 181.788 164.426 182.327 164.426 182.878C164.426 183.244 164.498 183.606 164.638 183.944C164.778 184.283 164.983 184.59 165.242 184.849C165.501 185.107 165.808 185.313 166.146 185.453C166.484 185.593 166.847 185.665 167.213 185.665Z" fill="#1F1F1F" fill-opacity="0.2"/>
<path d="M52.4346 195.929C52.4326 196.269 52.532 196.603 52.7201 196.887C52.9082 197.172 53.1765 197.394 53.4911 197.525C53.8056 197.656 54.1521 197.691 54.4865 197.625C54.8209 197.559 55.1281 197.395 55.3691 197.154C55.6102 196.913 55.7741 196.606 55.8401 196.272C55.9061 195.937 55.8712 195.591 55.7398 195.276C55.6085 194.962 55.3866 194.693 55.1023 194.505C54.8181 194.317 54.4843 194.218 54.1435 194.22C53.6911 194.222 53.258 194.403 52.9381 194.723C52.6182 195.043 52.4373 195.476 52.4346 195.929Z" fill="#1F1F1F" fill-opacity="0.2"/>
<path d="M54.1433 224.898C54.6986 224.898 55.2414 224.733 55.7031 224.425C56.1647 224.116 56.5246 223.678 56.7371 223.165C56.9495 222.652 57.0051 222.087 56.8968 221.543C56.7885 220.998 56.5211 220.498 56.1285 220.105C55.7359 219.713 55.2356 219.445 54.691 219.337C54.1465 219.229 53.582 219.284 53.069 219.497C52.556 219.709 52.1176 220.069 51.8091 220.531C51.5006 220.993 51.3359 221.535 51.3359 222.091C51.3359 222.459 51.4086 222.824 51.5496 223.165C51.6907 223.506 51.8975 223.815 52.1582 224.076C52.4189 224.336 52.7284 224.543 53.069 224.684C53.4096 224.825 53.7747 224.898 54.1433 224.898Z" fill="#1F1F1F" fill-opacity="0.2"/>
<path d="M121.979 185.808C123.597 185.808 124.908 184.496 124.908 182.878C124.908 181.26 123.597 179.949 121.979 179.949C120.361 179.949 119.049 181.26 119.049 182.878C119.049 184.496 120.361 185.808 121.979 185.808Z" fill="#1F1F1F" fill-opacity="0.2"/>
<path d="M144.591 197.017C145.186 197.017 145.669 196.534 145.669 195.939C145.669 195.343 145.186 194.86 144.591 194.86C143.995 194.86 143.513 195.343 143.513 195.939C143.513 196.534 143.995 197.017 144.591 197.017Z" fill="#1F1F1F" fill-opacity="0.2"/>
<path d="M167.213 237.257C167.641 237.257 168.059 237.13 168.415 236.893C168.771 236.656 169.048 236.318 169.213 235.924C169.377 235.529 169.421 235.094 169.34 234.675C169.258 234.255 169.053 233.869 168.752 233.565C168.451 233.261 168.067 233.053 167.648 232.967C167.229 232.882 166.794 232.922 166.398 233.082C166.002 233.243 165.662 233.518 165.422 233.872C165.181 234.225 165.051 234.642 165.047 235.07C165.043 235.356 165.096 235.641 165.203 235.907C165.31 236.172 165.469 236.414 165.671 236.618C165.873 236.821 166.113 236.983 166.378 237.092C166.643 237.202 166.927 237.258 167.213 237.257Z" fill="#1F1F1F" fill-opacity="0.2"/>
<path d="M144.591 225.356C146.417 225.356 147.897 223.876 147.897 222.05C147.897 220.224 146.417 218.744 144.591 218.744C142.765 218.744 141.285 220.224 141.285 222.05C141.285 223.876 142.765 225.356 144.591 225.356Z" fill="#1F1F1F" fill-opacity="0.2"/>
<path d="M8.92011 220.636C8.63961 220.634 8.36486 220.715 8.13079 220.87C7.89673 221.024 7.71394 221.245 7.60567 221.504C7.4974 221.763 7.46854 222.048 7.52277 222.323C7.577 222.598 7.71187 222.851 7.91021 223.049C8.10855 223.248 8.36141 223.383 8.63662 223.437C8.91183 223.491 9.19695 223.462 9.45572 223.354C9.71448 223.246 9.93519 223.063 10.0898 222.829C10.2444 222.595 10.3258 222.32 10.3238 222.039C10.3238 221.667 10.1759 221.31 9.91267 221.047C9.64943 220.784 9.29239 220.636 8.92011 220.636Z" fill="#1F1F1F" fill-opacity="0.2"/>
<path d="M31.5318 231.5C30.8184 231.5 30.121 231.712 29.5282 232.109C28.9354 232.506 28.4739 233.07 28.2023 233.729C27.9307 234.389 27.8612 235.115 28.0026 235.814C28.144 236.513 28.49 237.155 28.9967 237.657C29.5033 238.16 30.1478 238.5 30.8482 238.636C31.5487 238.771 32.2737 238.695 32.9311 238.418C33.5885 238.141 34.1487 237.675 34.5407 237.079C34.9327 236.482 35.1387 235.783 35.1326 235.07C35.1219 234.121 34.7382 233.214 34.0643 232.546C33.3905 231.878 32.4808 231.502 31.5318 231.5Z" fill="#1F1F1F" fill-opacity="0.2"/>
<path d="M76.7556 232.923C76.3238 232.923 75.9018 233.052 75.5432 233.292C75.1846 233.533 74.9057 233.875 74.7418 234.274C74.578 234.674 74.5367 235.113 74.6232 235.536C74.7097 235.959 74.9201 236.347 75.2276 236.65C75.535 236.953 75.9258 237.158 76.35 237.239C76.7742 237.319 77.2128 237.272 77.61 237.102C78.0072 236.933 78.345 236.649 78.5805 236.287C78.816 235.925 78.9385 235.501 78.9324 235.07C78.927 234.497 78.695 233.949 78.2871 233.547C77.8791 233.145 77.3285 232.921 76.7556 232.923Z" fill="#1F1F1F" fill-opacity="0.2"/>
<path d="M99.3672 224.522C99.8586 224.524 100.339 224.38 100.749 224.109C101.158 223.837 101.478 223.45 101.667 222.997C101.857 222.544 101.907 222.044 101.813 221.562C101.718 221.08 101.483 220.637 101.136 220.289C100.789 219.941 100.347 219.703 99.8654 219.607C99.3836 219.51 98.8841 219.559 98.43 219.746C97.9759 219.934 97.5877 220.252 97.3145 220.66C97.0413 221.068 96.8955 221.549 96.8955 222.04C96.8955 222.696 97.1556 223.326 97.6188 223.791C98.0821 224.257 98.7108 224.519 99.3672 224.522Z" fill="#1F1F1F" fill-opacity="0.2"/>
<path d="M124.817 235.07C124.819 234.508 124.654 233.958 124.343 233.489C124.032 233.021 123.589 232.656 123.07 232.44C122.551 232.224 121.98 232.167 121.428 232.276C120.877 232.385 120.37 232.655 119.973 233.053C119.575 233.45 119.305 233.957 119.196 234.508C119.086 235.06 119.144 235.631 119.36 236.15C119.576 236.669 119.941 237.112 120.409 237.423C120.877 237.735 121.428 237.9 121.99 237.898C122.74 237.898 123.459 237.6 123.989 237.069C124.52 236.539 124.817 235.82 124.817 235.07Z" fill="#1F1F1F" fill-opacity="0.2"/>
</g>
</svg>
