<svg width="84" height="244" viewBox="0 0 84 244" fill="none" xmlns="http://www.w3.org/2000/svg">
<path d="M10.5676 113.739C13.9863 113.295 17.3835 114.555 19.6508 117.109C22.1612 119.935 25.8159 121.552 29.6923 121.552H36.2365C43.0167 121.552 48.674 116.637 49.6896 109.868C52.2429 92.8746 60.5251 76.9187 73.0126 64.941C83.5048 54.8809 86.7089 39.0323 80.9801 25.5092L79.0633 20.9728C74.9509 11.2562 66.8618 3.90784 56.8775 0.802518C56.5628 0.702346 56.2267 0.881226 56.1265 1.19605C56.0264 1.51088 56.2052 1.84717 56.5199 1.94734C66.1681 4.94534 73.9854 12.0504 77.9548 21.4379L79.8715 25.9742C85.4073 39.0466 82.3176 54.3514 72.183 64.0753C59.5023 76.2318 51.0986 92.431 48.5024 109.689C47.5726 115.864 42.4159 120.35 36.2365 120.35H29.6923C26.1592 120.35 22.8263 118.876 20.5448 116.315C18.0129 113.467 14.2223 112.058 10.4103 112.551C5.25358 113.224 1.09104 117.474 0.518875 122.654C0.154117 125.974 1.16256 129.165 3.37256 131.634C5.55395 134.074 8.67942 135.469 11.9479 135.469C15.2164 135.469 18.2847 134.095 20.459 131.698C22.8406 129.072 26.1234 127.57 29.4778 127.57H37.059C42.9309 127.57 48.0304 131.705 49.1747 137.401C52.3359 153.071 60.0888 167.309 71.5894 178.572C81.6238 188.396 84.6992 203.049 79.4281 215.9L76.1167 223.964C72.6622 232.371 65.7747 238.889 57.2065 241.844C56.8918 241.952 56.7273 242.295 56.8346 242.61C56.9204 242.86 57.1564 243.018 57.3996 243.018C57.464 243.018 57.5283 243.011 57.5927 242.982C66.4828 239.912 73.6349 233.151 77.2181 224.422L80.5295 216.358C85.9937 203.049 82.8111 187.88 72.4191 177.713C61.083 166.622 53.4517 152.598 50.3405 137.165C49.0817 130.911 43.4888 126.368 37.0447 126.368H29.4635C25.773 126.368 22.1611 128.013 19.5506 130.89C17.6053 133.036 14.8231 134.267 11.9265 134.267C9.02989 134.267 6.20482 133.015 4.2523 130.833C2.27116 128.622 1.36283 125.767 1.69183 122.79C2.20678 118.154 5.92588 114.354 10.539 113.753L10.5676 113.739Z" fill="#3CA200"/>
</svg>
