<svg width="167" height="202" viewBox="0 0 167 202" fill="none" xmlns="http://www.w3.org/2000/svg">
<path d="M142.525 65.0213C132.462 55.2617 129.451 40.4649 134.844 27.3138L137.168 21.6612C140.98 12.3811 148.619 5.24026 158.117 2.07054C158.431 1.96322 158.603 1.62693 158.496 1.3121C158.389 0.997276 158.052 0.825554 157.738 0.932881C147.904 4.20993 140 11.6012 136.052 21.2034L133.728 26.8559C131.017 33.4601 130.331 40.6366 131.733 47.6129C133.149 54.6249 136.589 60.9429 141.681 65.8799C156.908 80.641 165.398 100.411 165.584 121.547C165.963 164.563 131.304 200.103 88.3265 200.768C67.006 201.105 46.8872 192.962 31.739 177.872C16.5837 162.775 8.37303 142.712 8.60905 121.368C8.78785 105.119 13.9374 89.5562 23.4997 76.3622C27.4477 70.9171 26.8684 63.5116 22.1194 58.7606C19.3873 56.0273 15.7183 54.5677 12.0564 54.768C11.7202 54.7895 11.3769 54.7895 11.005 54.768C5.67667 54.5176 1.37113 50.1387 1.19948 44.8009C1.1065 41.9246 2.17932 39.2199 4.20337 37.1879C6.23457 35.1558 8.93088 34.0826 11.8132 34.1684C17.2559 34.3402 21.633 38.7334 21.7904 44.1713C21.8047 44.529 21.7904 44.8939 21.769 45.2445C21.4829 49.001 22.9276 52.7646 25.7312 55.5622L25.8528 55.6839C30.4587 60.2989 37.711 60.9858 43.0822 57.3224C52.9021 50.6252 64.2668 46.2033 75.9533 44.5219C76.2823 44.4718 76.5112 44.1713 76.4611 43.8421C76.411 43.513 76.1107 43.2841 75.7817 43.3341C63.9163 45.0371 52.38 49.5376 42.4099 56.335C37.5107 59.6764 30.9093 59.0468 26.7039 54.8396L26.5823 54.7179C24.029 52.1635 22.713 48.7434 22.9705 45.3376C22.9991 44.944 23.0062 44.5434 22.9991 44.1427C22.8274 38.068 17.9354 33.1595 11.8633 32.9735C8.65196 32.8805 5.63376 34.0754 3.36654 36.3436C1.09932 38.6117 -0.0879287 41.6312 0.0122008 44.8439C0.198156 50.8041 5.00437 55.691 10.9621 55.9772C11.3769 55.9915 11.756 55.9915 12.135 55.9772C15.4536 55.7984 18.7865 57.1221 21.2826 59.6192C25.6096 63.9481 26.1389 70.7025 22.5413 75.6681C12.8359 89.0625 7.60777 104.868 7.42182 121.368C7.17865 143.041 15.5251 163.411 30.9022 178.738C45.986 193.763 65.9046 201.999 87.1035 201.999C87.5183 201.999 87.9403 201.999 88.3622 201.992C131.997 201.319 167.193 165.236 166.807 121.554C166.613 100.096 157.995 80.0185 142.539 65.0356L142.525 65.0213Z" fill="#727272"/>
</svg>
