<svg width="69" height="159" viewBox="0 0 69 159" fill="none" xmlns="http://www.w3.org/2000/svg">
<path d="M49.6819 27.6206C37.3159 13.2674 20.2867 3.7583 1.7127 0.846166C1.38371 0.79608 1.07619 1.01788 1.02613 1.34701C0.976064 1.67615 1.19774 1.98383 1.52674 2.03392C39.3829 7.97983 67.8697 41.3942 67.7982 79.7672C67.7267 118.026 39.1826 151.311 1.40517 157.2C1.07617 157.25 0.854447 157.558 0.904512 157.887C0.947424 158.18 1.20491 158.395 1.49815 158.395C1.52676 158.395 1.56252 158.395 1.59113 158.395C20.1222 155.504 37.1514 146.024 49.546 131.699C62.055 117.239 68.964 98.7998 68.9998 79.7672C69.0355 60.6415 62.1766 42.1241 49.6819 27.6206Z" fill="#3CA200"/>
</svg>
