<svg width="1343" height="424" viewBox="0 0 1343 424" fill="none" xmlns="http://www.w3.org/2000/svg">
<path d="M17 64.5C17 108.521 17 184.532 17 258.002C17 346.922 89.0836 419 178.003 419V419C266.923 419 339.007 346.916 339.007 257.997V171.555C339.007 79.5693 413.576 5 505.562 5V5C597.548 5 672.117 79.5693 672.117 171.555V249.669C672.117 343.188 747.929 419 841.448 419V419C934.967 419 1010.78 343.188 1010.78 249.669V162.611C1010.78 75.5646 1081.34 5 1168.39 5V5C1255.44 5 1326 75.5639 1326 162.61C1326 227.961 1326 299.553 1326 347.5" stroke="#3CA200" stroke-width="10" stroke-linecap="round"/>
<path d="M1309 341.127L1343 341L1326.11 370.535L1309 341.127Z" fill="#3CA200"/>
<path d="M0 64.4081L34.0025 64.5353L17.1138 35L0 64.4081Z" fill="#3CA200"/>
</svg>
