<svg width="60" height="60" viewBox="0 0 60 60" fill="none" xmlns="http://www.w3.org/2000/svg">
<g id="Icon / bg">
<circle id="Icon_bg" cx="30" cy="30" r="29.25" stroke="#1F1F1F" stroke-opacity="0.2" stroke-width="1.5" stroke-dasharray="6 6"/>
<g id="Icon">
<path id="Vector" d="M30.0308 17.0021C32.6493 17.0021 35.2677 17.0065 37.8862 17.001C40.1761 16.9955 42.2259 18.5904 42.8033 20.7812C42.9091 21.1844 42.9866 21.6084 42.9888 22.0226C43.003 26.0408 43.0019 30.06 42.9954 34.0793C42.991 36.4288 41.1879 38.6647 38.719 39.0425C38.4144 39.0888 38.1066 39.134 37.7999 39.134C32.5991 39.1395 27.3993 39.1417 22.1984 39.1362C19.8244 39.134 17.8248 37.6128 17.1874 35.3196C17.0804 34.9363 17.015 34.5276 17.0139 34.1311C17.0019 30.0755 16.9899 26.0198 17.0139 21.9653C17.027 19.6731 18.8115 17.555 21.0403 17.121C21.4474 17.0428 21.8687 17.0076 22.2835 17.0065C24.8659 16.9966 27.4484 17.001 30.0308 17.001V17.0021ZM29.973 37.5357C32.4834 37.5357 34.9938 37.5412 37.5031 37.5313C37.9178 37.5302 38.3468 37.5181 38.7452 37.4168C40.3933 36.9938 41.4466 35.5773 41.4487 33.8039C41.4542 29.9862 41.4542 26.1674 41.4487 22.3497C41.4455 20.171 39.901 18.5816 37.7486 18.5761C32.5827 18.564 27.4167 18.5651 22.2508 18.5827C21.7891 18.5838 21.3045 18.6763 20.869 18.836C19.4391 19.3603 18.5539 20.703 18.5496 22.2936C18.543 25.175 18.5474 28.0576 18.5474 30.939C18.5474 31.9303 18.5376 32.9217 18.5496 33.913C18.5703 35.5982 19.6378 36.9982 21.251 37.4168C21.6494 37.5203 22.0783 37.5302 22.4931 37.5324C24.9849 37.5423 27.4768 37.5368 29.9686 37.5368L29.973 37.5357Z" fill="#1F1F1F"/>
<path id="Vector_2" d="M30.0062 42.9969C27.6082 42.9969 25.2113 42.9969 22.8133 42.9969C22.6682 42.9969 22.5219 43.0068 22.3778 42.9914C21.9576 42.944 21.6913 42.6389 21.688 42.2148C21.6847 41.7787 21.9336 41.4912 22.3691 41.4427C22.5306 41.4251 22.6955 41.4295 22.8592 41.4295C27.618 41.4295 32.3768 41.4295 37.1357 41.4295C37.2994 41.4295 37.4631 41.4251 37.6258 41.4416C38.0667 41.489 38.3167 41.7698 38.3167 42.2049C38.3167 42.6268 38.0503 42.9396 37.6345 42.9892C37.4915 43.0068 37.3442 42.9958 37.199 42.9958C34.801 42.9958 32.4041 42.9958 30.0062 42.9958V42.9969Z" fill="#1F1F1F"/>
<path id="Vector_3" d="M25.5815 27.2237C25.8249 26.7655 26.0563 26.3326 26.2855 25.8975C26.6435 25.219 27.007 24.5438 27.353 23.8587C27.5145 23.5381 27.7437 23.3112 28.0996 23.3013C28.4838 23.2914 28.7206 23.5337 28.8931 23.8708C29.8819 25.8061 30.8785 27.7369 31.8739 29.6689C31.9645 29.8452 32.0649 30.017 32.1991 30.2593C32.2941 30.0952 32.3661 29.9829 32.4273 29.865C32.7733 29.2008 33.1269 28.541 33.4576 27.8691C33.6672 27.444 33.9772 27.2424 34.4509 27.249C35.359 27.2622 36.2682 27.2523 37.1774 27.2534C37.2505 27.2534 37.3236 27.2501 37.3957 27.26C37.841 27.3206 38.1608 27.6466 38.1706 28.0465C38.1804 28.4331 37.8574 28.7889 37.4186 28.8538C37.2581 28.8781 37.0922 28.8671 36.9285 28.8671C36.2038 28.8682 35.479 28.8671 34.7401 28.8671C34.6233 29.0807 34.5153 29.268 34.4159 29.4608C33.963 30.3364 33.5144 31.2143 33.0592 32.09C32.9752 32.2508 32.8922 32.4204 32.7743 32.5537C32.4458 32.9238 31.8848 32.8984 31.5879 32.5041C31.4799 32.3598 31.4045 32.1891 31.3216 32.0272C30.3338 30.1117 29.3482 28.1963 28.3615 26.2808C28.2949 26.1519 28.2207 26.0275 28.1159 25.8391C28.0286 25.9944 27.962 26.1068 27.9009 26.2224C27.5505 26.8844 27.1947 27.5431 26.8564 28.2106C26.6534 28.6115 26.3652 28.8043 25.9046 28.7955C24.8688 28.7745 23.833 28.7889 22.7972 28.7889C22.724 28.7889 22.6509 28.7933 22.5789 28.7856C22.1521 28.7404 21.8236 28.3791 21.8399 27.9782C21.8563 27.5927 22.1718 27.2688 22.5778 27.2325C22.7404 27.2182 22.9041 27.2237 23.0679 27.2237C23.8854 27.2237 24.7029 27.2237 25.5848 27.2237H25.5815Z" fill="#1F1F1F"/>
</g>
</g>
</svg>
