<svg width="18" height="18" viewBox="0 0 18 18" fill="none" xmlns="http://www.w3.org/2000/svg">
<g id="Icon">
<path id="Vector" d="M13.4106 0.00533739C14.2096 0.00533739 15.0094 0.0233258 15.8084 0.000840297C17.0481 -0.0336374 18.0232 0.997696 18 2.20292C17.97 3.75066 17.991 5.29991 17.9932 6.84841C17.9947 8.01915 17.5765 9.01451 16.7505 9.83973C14.2681 12.3199 11.7872 14.8015 9.3025 17.2802C8.34535 18.2343 7.0989 18.241 6.14925 17.2937C4.32791 15.4768 2.51032 13.6563 0.694976 11.8334C-0.0155719 11.1191 -0.194708 10.2107 0.219778 9.36753C0.327709 9.14792 0.477614 8.93581 0.650754 8.76267C3.1684 6.22931 5.6898 3.69895 8.21943 1.17758C9.00643 0.392837 9.97482 0.00983448 11.0879 0.0060869C11.8621 0.00308884 12.6364 0.0060869 13.4106 0.0060869V0.00533739ZM13.3776 1.41742C12.6656 1.41742 11.9536 1.43166 11.2415 1.41368C10.3766 1.39119 9.66826 1.70149 9.0619 2.3116C6.64094 4.74752 4.21099 7.17595 1.78553 9.60738C1.69784 9.69582 1.60565 9.78351 1.53669 9.88545C1.3658 10.1365 1.37779 10.4453 1.56067 10.6889C1.62064 10.7684 1.69409 10.8373 1.76454 10.9085C3.53792 12.6856 5.31204 14.462 7.08616 16.2383C7.14762 16.2998 7.20833 16.3643 7.27654 16.4182C7.54861 16.6326 7.86341 16.6393 8.13999 16.4347C8.22018 16.3755 8.29064 16.3043 8.36184 16.2338C10.8105 13.7889 13.2562 11.3425 15.7072 8.89983C16.2948 8.31371 16.5961 7.62416 16.5849 6.78695C16.5706 5.65069 16.5811 4.51367 16.5811 3.37741C16.5811 2.95243 16.5901 2.52746 16.5766 2.10323C16.5631 1.68425 16.309 1.44216 15.8886 1.41892C15.8016 1.41443 15.7139 1.41667 15.6262 1.41667C14.8767 1.41667 14.1272 1.41667 13.3776 1.41667V1.41742Z" fill="#4D7B6B"/>
<path id="Vector_2" d="M12.8841 2.92544C14.0676 2.91945 15.0038 3.84885 15.0023 5.02858C15.0008 6.18808 14.0699 7.12798 12.9171 7.13322C11.7456 7.13847 10.7915 6.19183 10.793 5.02484C10.7937 3.86908 11.7284 2.93144 12.8841 2.92544ZM13.5924 5.02708C13.5924 4.63434 13.3024 4.34053 12.9104 4.33603C12.5176 4.33153 12.2171 4.61935 12.2096 5.0076C12.2013 5.41383 12.5056 5.72263 12.9104 5.71739C13.3031 5.71289 13.5932 5.41908 13.5932 5.02708H13.5924Z" fill="#4D7B6B"/>
</g>
</svg>
