<svg width="64" height="64" viewBox="0 0 64 64" fill="none" xmlns="http://www.w3.org/2000/svg">
<g id="Icon / bg">
<circle id="Icon_bg" cx="32" cy="32" r="32" fill="#EBF3ED"/>
<g id="Icon">
<path id="Vector" d="M20.4041 34.9088L32.911 20.0325C34.9832 17.5677 38.5934 17.3084 40.9746 19.4534C43.3558 21.5983 43.6063 25.3353 41.5341 27.8L39.6595 30.0298C38.7338 29.6426 37.7222 29.4294 36.6625 29.4294C32.2419 29.4294 28.6583 33.1388 28.6583 37.7146M20.4041 34.9088C18.3319 37.3735 18.5824 41.1105 20.9636 43.2554C23.915 45.914 27.4616 44.5385 29.7238 41.8477C29.0461 40.6312 28.6583 39.2198 28.6583 37.7146M20.4041 34.9088L27.2829 26.7268C28.541 29.016 29.6611 30.5654 31.0807 31.7764C29.5865 33.2816 28.6583 35.3859 28.6583 37.7146" stroke="#1F1F1F" stroke-width="1.5"/>
<path id="Vector_2" d="M38.2002 21.1201C36.1377 20.5693 34.887 22.057 34.2616 22.8008" stroke="#1F1F1F" stroke-width="1.5" stroke-linecap="round"/>
<path id="Vector_3" d="M44.6666 37.7149C44.6666 42.2906 41.083 46 36.6624 46C32.2418 46 28.6582 42.2906 28.6582 37.7149C28.6582 33.1391 32.2418 29.4297 36.6624 29.4297C41.083 29.4297 44.6666 33.1391 44.6666 37.7149Z" stroke="#1F1F1F" stroke-width="1.5"/>
<path id="Vector_4" d="M31.25 39.2158L42.0741 36.2137" stroke="#1F1F1F" stroke-width="1.5" stroke-linecap="round"/>
</g>
</g>
</svg>
