<svg width="64" height="64" viewBox="0 0 64 64" fill="none" xmlns="http://www.w3.org/2000/svg">
<g id="Icon / bg">
<circle id="Icon_bg" cx="32" cy="32" r="32" fill="#EBF3ED"/>
<path id="Icon" d="M26.09 20.425C26.0262 21.8403 26.506 22.8283 27.6345 24.4535M26.09 20.425C29.123 16.8583 35.877 16.8583 38.91 20.425M26.09 20.425C21.4376 25.4986 25.9714 30.6705 29.2918 34.7406M27.6345 24.4535C29.1801 26.6796 30.7875 28.8776 32.5 30.9859M27.6345 24.4535C31.0291 22.1535 33.9709 22.1535 37.3655 24.4535M38.91 20.425C38.9737 21.8403 38.494 22.8283 37.3655 24.4535M38.91 20.425C43.5624 25.4986 39.0286 30.6705 35.7082 34.7406M37.3655 24.4535C35.8199 26.6796 34.2125 28.8776 32.5 30.9859M32.5 30.9859C31.4524 32.2756 30.383 33.5166 29.2918 34.7406M29.2918 34.7406C27.7883 36.427 23.5675 41.0457 23.0518 41.6098C23.0211 41.6434 23.0159 41.691 23.0406 41.7292C23.3458 42.2001 25.2875 45.1941 25.9933 46.2489C26.0402 46.3219 29.2061 42.6013 32.5 38.6354M32.5 38.6354C35.7939 42.6013 38.9598 46.3219 39.0067 46.2489C39.5823 45.3887 41.6441 42.2148 41.9594 41.7292C41.9842 41.691 41.9798 41.6446 41.9491 41.611C41.4207 41.032 36.9268 36.1074 35.7082 34.7406M32.5 38.6354C33.5916 37.321 34.6973 35.9797 35.7082 34.7406" stroke="#1F1F1F" stroke-width="1.5" stroke-miterlimit="10"/>
</g>
</svg>
