<svg width="20" height="16" viewBox="0 0 20 16" fill="none" xmlns="http://www.w3.org/2000/svg">
<g id="Icon">
<path id="Vector" d="M16.1467 15.9992H11.0907V11.0576H8.29597V15.985H3.01176C3.00503 15.8855 2.99082 15.7786 2.99082 15.6716C2.98932 13.6145 2.99231 11.5581 2.98633 9.50094C2.98633 9.31169 3.02897 9.17928 3.1883 9.0581C5.25665 7.47523 7.31977 5.88563 9.38438 4.29827C9.44198 4.25413 9.50557 4.21673 9.58486 4.16437C9.74868 4.28854 9.90652 4.40674 10.0629 4.52717C12.0085 6.02402 13.9542 7.52161 15.9006 9.01696C16.0517 9.1329 16.1677 9.23539 16.1662 9.46504C16.155 11.5715 16.1595 13.6788 16.1587 15.7853C16.1587 15.8459 16.1512 15.9057 16.1452 16L16.1467 15.9992Z" fill="#1F1F1F"/>
<path id="Vector_2" d="M19.15 7.36603C18.699 7.9525 18.2741 8.50381 17.8282 9.08355C15.0784 6.96882 12.345 4.86605 9.57576 2.73561C6.83417 4.84436 4.09332 6.95236 1.32255 9.0828C0.87746 8.50456 0.446585 7.94577 0 7.36453C3.19267 4.90869 6.37038 2.46407 9.57352 0C10.9155 1.03081 12.2523 2.05788 13.6616 3.14031V1.82449H16.4443V2.21946C16.4443 3.11712 16.4571 4.01477 16.4369 4.91168C16.4301 5.19594 16.5289 5.36276 16.7503 5.52733C17.5492 6.12203 18.3332 6.73767 19.15 7.36603Z" fill="#1F1F1F"/>
</g>
</svg>
