<svg width="62" height="62" viewBox="0 0 62 62" fill="none" xmlns="http://www.w3.org/2000/svg">
<g id="Icon / bg">
<path id="Icon_bg" d="M31 0.5C47.8447 0.5 61.5 14.1553 61.5 31C61.5 47.8447 47.8447 61.5 31 61.5C14.1553 61.5 0.5 47.8447 0.5 31C0.5 14.1553 14.1553 0.5 31 0.5Z" stroke="#1F1F1F" stroke-opacity="0.12"/>
<g id="Icon">
<path id="Vector" d="M31.0026 32.5762C32.8011 32.5762 34.2591 31.0392 34.2591 29.1433C34.2591 27.2474 32.8011 25.7104 31.0026 25.7104C29.2041 25.7104 27.7461 27.2474 27.7461 29.1433C27.7461 31.0392 29.2041 32.5762 31.0026 32.5762Z" stroke="#1F1F1F" stroke-width="1.5"/>
<path id="Vector_2" d="M22.2534 27.1408C24.3096 17.6124 37.7009 17.6234 39.7467 27.1518C40.947 32.7412 37.6487 37.4724 34.7575 40.3991C32.6596 42.5336 29.3405 42.5336 27.2321 40.3991C24.3513 37.4724 21.0531 32.7302 22.2534 27.1408Z" stroke="#1F1F1F" stroke-width="1.5"/>
</g>
</g>
</svg>
