<svg width="61" height="65" viewBox="0 0 61 65" fill="none" xmlns="http://www.w3.org/2000/svg">
<mask id="path-1-outside-1_65_357" maskUnits="userSpaceOnUse" x="0" y="0" width="61" height="65" fill="black">
<rect fill="white" width="61" height="65"/>
<path d="M59.7578 24.4805V39.1875H1.28125V24.4805H59.7578ZM38.5469 1.33594V63.4453H22.5508V1.33594H38.5469Z"/>
</mask>
<path d="M59.7578 24.4805V39.1875H1.28125V24.4805H59.7578ZM38.5469 1.33594V63.4453H22.5508V1.33594H38.5469Z" fill="#4D7B6B"/>
<path d="M59.7578 24.4805H60.7578V23.4805H59.7578V24.4805ZM59.7578 39.1875V40.1875H60.7578V39.1875H59.7578ZM1.28125 39.1875H0.28125V40.1875H1.28125V39.1875ZM1.28125 24.4805V23.4805H0.28125V24.4805H1.28125ZM38.5469 1.33594H39.5469V0.335938H38.5469V1.33594ZM38.5469 63.4453V64.4453H39.5469V63.4453H38.5469ZM22.5508 63.4453H21.5508V64.4453H22.5508V63.4453ZM22.5508 1.33594V0.335938H21.5508V1.33594H22.5508ZM59.7578 24.4805H58.7578V39.1875H59.7578H60.7578V24.4805H59.7578ZM59.7578 39.1875V38.1875H1.28125V39.1875V40.1875H59.7578V39.1875ZM1.28125 39.1875H2.28125V24.4805H1.28125H0.28125V39.1875H1.28125ZM1.28125 24.4805V25.4805H59.7578V24.4805V23.4805H1.28125V24.4805ZM38.5469 1.33594H37.5469V63.4453H38.5469H39.5469V1.33594H38.5469ZM38.5469 63.4453V62.4453H22.5508V63.4453V64.4453H38.5469V63.4453ZM22.5508 63.4453H23.5508V1.33594H22.5508H21.5508V63.4453H22.5508ZM22.5508 1.33594V2.33594H38.5469V1.33594V0.335938H22.5508V1.33594Z" fill="white" mask="url(#path-1-outside-1_65_357)"/>
</svg>
