<svg width="18" height="18" viewBox="0 0 18 18" fill="none" xmlns="http://www.w3.org/2000/svg">
<g id="Icon">
<path id="Stroke 1" fill-rule="evenodd" clip-rule="evenodd" d="M1.41259 2.99875C1.67897 2.55684 3.14752 0.952645 4.19402 1.00107C4.5071 1.02788 4.78386 1.21641 5.00873 1.43606H5.0096C5.52506 1.9411 7.004 3.84711 7.08702 4.24838C7.292 5.23251 6.11837 5.79982 6.47729 6.79174C7.39232 9.03069 8.96899 10.6072 11.209 11.5213C12.2002 11.8811 12.7675 10.7084 13.7517 10.9125C14.153 10.9964 16.0601 12.4743 16.5643 12.9906V12.9906C16.7831 13.2146 16.9734 13.4922 16.9993 13.8052C17.0383 14.9078 15.3345 16.3961 15.0023 16.5864C14.2188 17.1476 13.1965 17.1373 11.9502 16.5579C8.47255 15.1111 2.91487 9.65853 1.44113 6.04974C0.877229 4.81049 0.839174 3.78139 1.41259 2.99875Z" stroke="#4D7B6B" stroke-width="1.5" stroke-linecap="round" stroke-linejoin="round"/>
<path id="Path" d="M11.1597 1.21045C14.2771 1.55655 16.7386 4.0155 17.0889 7.13213" stroke="#4D7B6B" stroke-width="1.5" stroke-linecap="round" stroke-linejoin="round"/>
<path id="Path_2" d="M11.1597 4.19385C12.6502 4.48437 13.8148 5.64901 14.1054 7.13953" stroke="#4D7B6B" stroke-width="1.5" stroke-linecap="round" stroke-linejoin="round"/>
</g>
</svg>
