<svg width="52" height="52" viewBox="0 0 52 52" fill="none" xmlns="http://www.w3.org/2000/svg">
<g id="Icon / bg">
<path id="Iocn_bg" d="M26 0.5C40.0833 0.5 51.5 11.9167 51.5 26C51.5 40.0833 40.0833 51.5 26 51.5C11.9167 51.5 0.5 40.0833 0.5 26C0.5 11.9167 11.9167 0.5 26 0.5Z" stroke="white" stroke-opacity="0.12"/>
<g id="Icon">
<path id="Vector" d="M34.973 31.697C34.973 32.021 34.901 32.354 34.748 32.678C34.595 33.002 34.397 33.308 34.136 33.596C33.695 34.082 33.209 34.433 32.66 34.658C32.12 34.883 31.535 35 30.905 35C29.987 35 29.006 34.784 27.971 34.343C26.936 33.902 25.901 33.308 24.875 32.561C23.84 31.805 22.859 30.968 21.923 30.041C20.996 29.105 20.159 28.124 19.412 27.098C18.674 26.072 18.08 25.046 17.648 24.029C17.216 23.003 17 22.022 17 21.086C17 20.474 17.108 19.889 17.324 19.349C17.54 18.8 17.882 18.296 18.359 17.846C18.935 17.279 19.565 17 20.231 17C20.483 17 20.735 17.054 20.96 17.162C21.194 17.27 21.401 17.432 21.563 17.666L23.651 20.609C23.813 20.834 23.93 21.041 24.011 21.239C24.092 21.428 24.137 21.617 24.137 21.788C24.137 22.004 24.074 22.22 23.948 22.427C23.831 22.634 23.66 22.85 23.444 23.066L22.76 23.777C22.661 23.876 22.616 23.993 22.616 24.137C22.616 24.209 22.625 24.272 22.643 24.344C22.67 24.416 22.697 24.47 22.715 24.524C22.877 24.821 23.156 25.208 23.552 25.676C23.957 26.144 24.389 26.621 24.857 27.098C25.343 27.575 25.811 28.016 26.288 28.421C26.756 28.817 27.143 29.087 27.449 29.249C27.494 29.267 27.548 29.294 27.611 29.321C27.683 29.348 27.755 29.357 27.836 29.357C27.989 29.357 28.106 29.303 28.205 29.204L28.889 28.529C29.114 28.304 29.33 28.133 29.537 28.025C29.744 27.899 29.951 27.836 30.176 27.836C30.347 27.836 30.527 27.872 30.725 27.953C30.923 28.034 31.13 28.151 31.355 28.304L34.334 30.419C34.568 30.581 34.73 30.77 34.829 30.995C34.919 31.22 34.973 31.445 34.973 31.697Z" stroke="white" stroke-width="1.5" stroke-miterlimit="10"/>
<path id="Vector_2" d="M31.8512 23.2984C31.8512 22.7584 31.4282 21.9304 30.7982 21.2554C30.2222 20.6344 29.4572 20.1484 28.7012 20.1484" stroke="white" stroke-width="1.5" stroke-linecap="round" stroke-linejoin="round"/>
<path id="Vector_3" d="M35.0012 23.3C35.0012 19.817 32.1842 17 28.7012 17" stroke="white" stroke-width="1.5" stroke-linecap="round" stroke-linejoin="round"/>
</g>
</g>
</svg>
