<svg width="18" height="26" viewBox="0 0 18 26" fill="none" xmlns="http://www.w3.org/2000/svg">
<g id="Icon">
<path id="Vector" opacity="0.5" d="M3.52458 3.2526C3.4725 4.44446 3.86452 5.27646 4.78665 6.64506C7.56056 4.70824 9.96447 4.70824 12.7384 6.64506C13.6605 5.27646 14.0525 4.44446 14.0004 3.2526C11.522 0.249133 6.00299 0.24913 3.52458 3.2526Z" stroke="#4D7B6B" stroke-width="1.58" stroke-miterlimit="10"/>
<path id="Vector_2" d="M3.52497 3.2526C3.47289 4.44446 3.8649 5.27646 4.78703 6.64506C6.05008 8.51963 7.36356 10.3706 8.7629 12.146M3.52497 3.2526C-0.276687 7.52511 3.42806 11.8804 6.14131 15.3079M3.52497 3.2526C4.76418 1.75087 6.76354 1 8.7629 1C10.7623 1 12.7616 1.75087 14.0008 3.2526M14.0008 3.2526C14.0529 4.44446 13.6609 5.27646 12.7388 6.64506C11.4757 8.51963 10.1622 10.3706 8.7629 12.146M14.0008 3.2526C17.8025 7.52511 14.0977 11.8804 11.3845 15.3079M8.7629 12.146C7.90686 13.2321 7.03299 14.2771 6.14131 15.3079M6.14131 15.3079C4.91873 16.7211 1.49719 20.5797 1.04871 21.0853C1.01922 21.1186 1.01546 21.1648 1.03913 21.2024C1.30675 21.6279 2.87363 24.1176 3.44596 24.9991C3.48429 25.0605 6.07131 21.9274 8.7629 18.5877M8.7629 18.5877C11.4545 21.9274 14.0415 25.0605 14.0798 24.9991C14.5468 24.2799 16.2108 21.6402 16.4869 21.2022C16.5106 21.1646 16.5062 21.1182 16.4767 21.0849C16.0115 20.5596 12.3747 16.4524 11.3845 15.3079M8.7629 18.5877C9.65493 17.4809 10.5584 16.3513 11.3845 15.3079" stroke="#4D7B6B" stroke-width="1.58" stroke-miterlimit="10"/>
</g>
</svg>
