<svg width="39" height="40" viewBox="0 0 39 40" fill="none" xmlns="http://www.w3.org/2000/svg">
<g id="Icon">
<path id="Vector" d="M1.28933 30.1861C1.49625 30.3299 1.55382 30.3956 1.62539 30.4159C3.10807 30.8363 4.28581 31.7755 5.49156 32.6772C7.44409 34.14 9.45575 35.5105 11.7132 36.4717C13.5257 37.2437 15.4223 37.5828 17.3779 37.6547C20.53 37.7719 23.6307 37.3812 26.6925 36.6592C27.0768 36.5686 27.3864 36.5951 27.7302 36.7623C30.6302 38.172 33.6874 38.8049 36.9095 38.6095C37.1677 38.5939 37.4276 38.5783 37.6874 38.5877C38.1261 38.6017 38.3548 38.7955 38.3906 39.1518C38.4279 39.5222 38.249 39.7738 37.8305 39.8566C37.4758 39.927 37.1133 39.9707 36.7523 39.9848C33.5427 40.1051 30.4716 39.5128 27.5529 38.1595C27.237 38.0126 26.9523 37.9688 26.5914 38.0532C23.8843 38.6783 21.1398 39.0221 18.3581 39.0346C14.6973 39.0502 11.2854 38.1501 8.20177 36.1419C6.81244 35.2371 5.44955 34.2869 4.11467 33.3023C3.25276 32.6678 2.38617 32.0646 1.3609 31.7411C0.402524 31.4395 0.0431334 30.7863 0.00579409 29.808C-0.0455474 28.4046 0.251611 27.0621 0.60789 25.7353C2.33328 19.2951 4.10223 12.8689 5.81672 6.4256C6.05632 5.52543 6.53862 5.01909 7.36475 4.65028C10.5775 3.21564 13.7669 1.731 16.9656 0.263546C17.8509 -0.142777 17.938 -0.122461 18.5168 0.6308C19.528 1.94979 20.5393 3.27034 21.5475 4.59245C22.4374 5.75673 22.4187 6.5303 21.4463 7.64613C20.5082 8.72445 19.5607 9.79496 18.5992 10.8514C17.6922 11.8485 16.5984 11.875 15.5996 10.9545C15.4098 10.7811 15.2169 10.6123 15.0333 10.4482C14.4374 10.6342 13.8742 10.8092 13.2535 11.0014C13.4511 14.3755 13.6486 17.787 13.8556 21.3189C15.5545 20.3812 17.2721 19.7702 19.1515 19.8687C21.0232 19.9671 22.7376 20.5922 24.3712 21.6487C24.5953 21.4142 24.8069 21.197 25.0138 20.9751C26.2367 19.6561 27.654 18.6372 29.3918 18.1262C31.1872 17.5964 32.9717 17.7011 34.7391 18.2777C35.8033 18.6247 36.7975 19.1201 37.7216 19.753C37.8927 19.8702 38.067 19.9906 38.2086 20.1375C38.4419 20.3797 38.4559 20.7423 38.2708 20.9923C38.0794 21.2502 37.7574 21.3283 37.4384 21.1689C37.2782 21.0892 37.1366 20.9689 36.9857 20.8673C35.4984 19.8562 33.871 19.2232 32.0725 19.1216C30.8092 19.0498 29.6081 19.342 28.4817 19.9359C27.2697 20.575 26.2927 21.4799 25.4276 22.5363C25.7544 22.9786 26.0997 23.3458 26.3253 23.7772C26.6489 24.3913 26.9414 25.0352 27.139 25.6994C27.2946 26.2182 26.9181 26.6042 26.4374 26.5636C26.0982 26.5355 25.9597 26.3136 25.8586 26.0213C24.852 23.1396 22.4109 21.3674 19.3616 21.222C17.5864 21.1361 15.9932 21.6112 14.4966 22.5379C14.0532 22.8114 13.784 23.1536 13.63 23.6584C13.4635 24.1991 13.2208 24.7242 12.9423 25.2165C12.7992 25.4712 12.5285 25.6822 12.2702 25.8338C11.9357 26.0307 11.5608 25.9119 11.3927 25.6056C11.2247 25.2993 11.2574 24.9977 11.525 24.757C12.2951 24.0647 12.5814 23.1442 12.5456 22.1722C12.4553 19.7546 12.2826 17.3401 12.1411 14.924C12.0882 14.0145 12.0088 13.1065 11.987 12.1954C11.9746 11.6984 11.8221 11.2874 11.5001 10.9248C11.4487 10.867 11.3989 10.8061 11.3585 10.7389C11.0162 10.17 11.2605 9.70275 11.917 9.66525C12.3293 9.6418 12.7463 9.64649 13.1539 9.59023C13.6642 9.51991 14.1589 9.42458 14.5448 8.99481C14.8046 8.70413 15.1624 8.7729 15.4518 9.02763C15.8221 9.35425 16.1768 9.6965 16.5487 10.0216C16.9983 10.4138 17.1897 10.4201 17.5973 9.97155C18.5945 8.87604 19.5669 7.76021 20.5533 6.65376C20.8225 6.35215 20.95 6.02553 20.6809 5.67234C19.6338 4.28771 18.5759 2.90934 17.5086 1.51377C17.269 1.60598 17.0761 1.66849 16.8925 1.75288C13.9069 3.12344 10.9244 4.50338 7.93262 5.86143C7.47677 6.06772 7.20294 6.32558 7.06448 6.8413C5.53823 12.5283 3.97776 18.2059 2.44374 23.8913C2.09213 25.1931 1.76696 26.5042 1.5087 27.8279C1.35623 28.6077 1.35623 29.4188 1.29089 30.1893L1.28933 30.1861Z" fill="#1F1F1F"/>
<path id="Vector_2" d="M31.439 3.89092C31.7906 3.62212 32.0987 3.33925 32.4487 3.12671C33.891 2.25312 35.6801 2.58443 36.7832 3.90967C37.8458 5.1849 37.8209 7.07743 36.6681 8.33078C35.8077 9.26532 34.8851 10.142 33.989 11.0453C33.404 11.6345 32.8206 12.2252 32.2309 12.8097C31.565 13.4708 31.3783 13.4708 30.6985 12.791C29.3216 11.4157 27.9509 10.0342 26.5802 8.65428C26.4169 8.48862 26.2535 8.31828 26.1166 8.13074C25.2718 6.97272 25.1645 5.71624 25.8148 4.46446C26.4698 3.20017 27.59 2.60318 29.0073 2.66413C29.9828 2.70476 30.7856 3.16735 31.439 3.89404V3.89092ZM31.4795 11.6798C32.889 10.2624 34.255 8.91526 35.5899 7.54001C36.4425 6.66173 36.4347 5.42557 35.621 4.60354C34.8244 3.79715 33.586 3.79402 32.6883 4.60042C32.4565 4.80827 32.2543 5.04894 32.0209 5.25366C31.6242 5.60216 31.3161 5.60372 30.9287 5.25679C30.6596 5.01456 30.4262 4.72857 30.1493 4.49571C28.9482 3.49084 27.2399 4.03 26.8043 5.53809C26.5771 6.3226 26.8198 6.98835 27.355 7.53689C28.6946 8.91057 30.0606 10.2577 31.4779 11.6798H31.4795Z" fill="#1F1F1F"/>
<path id="Vector_3" d="M18.7175 35.634C14.495 35.5183 11.0785 34.0868 8.50207 30.8659C8.34027 30.6643 8.17846 30.4549 8.06956 30.2236C7.90153 29.8642 8.02133 29.5297 8.32471 29.3453C8.65765 29.1437 8.91591 29.2766 9.15239 29.5188C9.20529 29.5735 9.24108 29.6454 9.28775 29.7079C11.5732 32.7881 14.6631 34.2525 18.4514 34.2415C19.4534 34.2384 20.4569 34.0618 21.4588 33.9649C21.6128 33.9493 21.7684 33.9008 21.9193 33.9165C22.232 33.9493 22.4483 34.1259 22.4996 34.4494C22.5494 34.7635 22.4561 35.0432 22.1402 35.1448C21.7482 35.2714 21.3421 35.373 20.9361 35.4245C20.141 35.523 19.3398 35.5793 18.7175 35.6355V35.634Z" fill="#1F1F1F"/>
<path id="Vector_4" d="M37.6882 33.2384C36.4934 33.0133 35.3825 32.7742 34.3806 32.1929C33.9029 31.9163 33.4782 31.5787 33.2448 31.0583C33.0457 30.6129 33.1328 30.2128 33.4549 30.0269C33.7925 29.8331 34.1737 29.9425 34.4101 30.3894C34.6357 30.8161 34.9905 31.0692 35.4012 31.2161C36.1044 31.4693 36.831 31.6537 37.5498 31.8631C37.6727 31.8991 37.8096 31.8944 37.9278 31.9381C38.3043 32.0788 38.4583 32.3601 38.379 32.7336C38.3074 33.068 38.004 33.2649 37.6898 33.2384H37.6882Z" fill="#1F1F1F"/>
</g>
</svg>
