<svg width="46" height="42" viewBox="0 0 46 42" fill="none" xmlns="http://www.w3.org/2000/svg">
<g id="Icon">
<path id="Vector" d="M25.2402 14.3837L31.3009 10.8846C31.676 10.6681 32.0945 10.5598 32.5131 10.5598M25.2402 27.8041L31.3009 31.3032C31.676 31.5198 32.0945 31.628 32.5131 31.628M44.6344 14.3335L41.7361 16.0197M44.6344 27.6669L41.7923 26.0369M41.7361 16.0197C41.5294 15.5739 41.1885 15.1935 40.7486 14.9395L33.7252 10.8846C33.3502 10.6681 32.9316 10.5598 32.5131 10.5598M41.7361 16.0197C41.8817 16.334 41.9607 16.6809 41.9607 17.039V25.1488C41.9607 25.4578 41.9019 25.7584 41.7923 26.0369M41.7923 26.0369C41.5944 26.5392 41.2311 26.9697 40.7486 27.2483L33.7252 31.3032C33.3502 31.5198 32.9316 31.628 32.5131 31.628M32.5131 5.84863V10.5598M32.5131 36.1518V31.628" stroke="#1F1F1F" stroke-width="2" stroke-linecap="round"/>
<path id="Vector_2" d="M20.1445 14.3837L14.0838 10.8846C13.7834 10.7112 13.4551 10.6072 13.1212 10.5727M20.1445 27.8041L14.0838 31.3032C13.7834 31.4767 13.4551 31.5807 13.1212 31.6152M0.999814 14.3335L3.73305 15.8546M0.999814 27.6669L3.66869 26.2102M3.73305 15.8546C3.94275 15.4801 4.2516 15.1616 4.63617 14.9395L11.6596 10.8846C12.1092 10.625 12.6214 10.521 13.1212 10.5727M3.73305 15.8546C3.53375 16.2105 3.42403 16.6169 3.42403 17.039V25.1488C3.42403 25.523 3.51026 25.8849 3.66869 26.2102M3.66869 26.2102C3.877 26.6379 4.21012 27.0023 4.63617 27.2483L11.6596 31.3032C12.1092 31.5628 12.6214 31.6668 13.1212 31.6152M13.1212 5.84863V10.5727M13.1212 36.1518V31.6152" stroke="#1F1F1F" stroke-width="2" stroke-linecap="round"/>
<path id="Vector_3" d="M22.8174 16.7578V25.2427" stroke="#1F1F1F" stroke-width="2" stroke-linecap="round"/>
<path id="Vector_4" d="M15.5448 3.42425C15.5448 4.76313 14.4595 5.8485 13.1206 5.8485C11.7817 5.8485 10.6963 4.76313 10.6963 3.42425C10.6963 2.08537 11.7817 1 13.1206 1C14.4595 1 15.5448 2.08537 15.5448 3.42425Z" stroke="#1F1F1F" stroke-width="2"/>
<path id="Vector_5" d="M15.5448 38.5756C15.5448 39.9145 14.4595 40.9999 13.1206 40.9999C11.7817 40.9999 10.6963 39.9145 10.6963 38.5756C10.6963 37.2367 11.7817 36.1514 13.1206 36.1514C14.4595 36.1514 15.5448 37.2367 15.5448 38.5756Z" stroke="#1F1F1F" stroke-width="2"/>
<path id="Vector_6" d="M34.9384 3.42425C34.9384 4.76313 33.853 5.8485 32.5141 5.8485C31.1752 5.8485 30.0898 4.76313 30.0898 3.42425C30.0898 2.08537 31.1752 1 32.5141 1C33.853 1 34.9384 2.08537 34.9384 3.42425Z" stroke="#1F1F1F" stroke-width="2"/>
<path id="Vector_7" d="M34.9384 38.5756C34.9384 39.9145 33.853 40.9999 32.5141 40.9999C31.1752 40.9999 30.0898 39.9145 30.0898 38.5756C30.0898 37.2367 31.1752 36.1514 32.5141 36.1514C33.853 36.1514 34.9384 37.2367 34.9384 38.5756Z" stroke="#1F1F1F" stroke-width="2"/>
</g>
</svg>
