<svg width="70" height="74" viewBox="0 0 70 74" fill="none" xmlns="http://www.w3.org/2000/svg">
<g id="Icon">
<g id="Shadow" opacity="0.6" filter="url(#filter0_f_73_140)">
<ellipse cx="35" cy="65.5" rx="30" ry="3.5" fill="#1F1F1F" fill-opacity="0.4"/>
</g>
<g id="Icon_2">
<path id="Vector" d="M35.0592 0.00399456C40.0947 0.00399456 45.1302 0.0124674 50.1657 0.00187634C54.5694 -0.00871474 58.5113 3.05846 59.6217 7.2716C59.8253 8.04686 59.9743 8.86238 59.9785 9.65883C60.0058 17.3861 60.0037 25.1155 59.9911 32.8448C59.9827 37.363 56.5151 41.663 51.7672 42.3895C51.1816 42.4785 50.5897 42.5653 49.9999 42.5653C39.9982 42.5759 29.9986 42.5802 19.9969 42.5696C15.4316 42.5653 11.5862 39.6401 10.3604 35.2299C10.1547 34.4928 10.0288 33.7069 10.0267 32.9444C10.0036 25.1451 9.98048 17.3458 10.0267 9.54868C10.0518 5.14067 13.4837 1.06734 17.7698 0.232762C18.5528 0.0823686 19.363 0.0145856 20.1606 0.0124674C25.1268 -0.00659652 30.093 0.00187634 35.0592 0.00187634V0.00399456ZM34.948 39.4918C39.7757 39.4918 44.6034 39.5024 49.429 39.4833C50.2266 39.4812 51.0515 39.4579 51.8176 39.263C54.9871 38.4496 57.0126 35.7256 57.0168 32.3153C57.0273 24.9735 57.0273 17.6297 57.0168 10.2879C57.0105 6.0981 54.0404 3.04152 49.9012 3.03093C39.9667 3.00763 30.0322 3.00974 20.0976 3.04364C19.2098 3.04575 18.2778 3.22368 17.4403 3.53083C14.6906 4.5391 12.9883 7.1212 12.9799 10.1799C12.9673 15.7212 12.9757 21.2645 12.9757 26.8058C12.9757 28.7122 12.9569 30.6186 12.9799 32.525C13.0198 35.7658 15.0726 38.4581 18.1749 39.263C18.9411 39.4621 19.766 39.4812 20.5636 39.4854C25.3556 39.5045 30.1476 39.4939 34.9396 39.4939L34.948 39.4918Z" fill="#1F1F1F"/>
<path id="Vector_2" d="M35.0116 49.994C30.4001 49.994 25.7907 49.994 21.1793 49.994C20.9001 49.994 20.6188 50.0131 20.3418 49.9834C19.5336 49.8923 19.0215 49.3056 19.0152 48.4901C19.0089 47.6513 19.4875 47.0984 20.325 47.0052C20.6356 46.9713 20.9526 46.9798 21.2674 46.9798C30.419 46.9798 39.5706 46.9798 48.7222 46.9798C49.0371 46.9798 49.3519 46.9713 49.6647 47.0031C50.5127 47.0942 50.9933 47.6343 50.9933 48.471C50.9933 49.2823 50.4812 49.8839 49.6815 49.9792C49.4065 50.0131 49.1231 49.9919 48.844 49.9919C44.2325 49.9919 39.6231 49.9919 35.0116 49.9919V49.994Z" fill="#1F1F1F"/>
<path id="Vector_3" d="M26.5031 19.661C26.9712 18.7798 27.4162 17.9473 27.857 17.1106C28.5454 15.8058 29.2444 14.5073 29.9098 13.1898C30.2204 12.5734 30.6612 12.1371 31.3455 12.118C32.0843 12.0989 32.5398 12.5649 32.8715 13.2131C34.7731 16.9348 36.6895 20.6481 38.6038 24.3634C38.778 24.7023 38.9711 25.0328 39.2293 25.4988C39.4119 25.1832 39.5504 24.9671 39.668 24.7404C40.3334 23.4632 41.0134 22.1944 41.6494 20.9022C42.0525 20.0846 42.6486 19.697 43.5595 19.7097C45.3059 19.7351 47.0543 19.716 48.8028 19.7182C48.9434 19.7182 49.0841 19.7118 49.2226 19.7309C50.079 19.8474 50.694 20.4744 50.7129 21.2433C50.7318 21.9868 50.1105 22.671 49.2667 22.7959C48.9581 22.8425 48.6391 22.8213 48.3242 22.8213C46.9305 22.8235 45.5368 22.8213 44.1158 22.8213C43.8912 23.2323 43.6834 23.5924 43.4924 23.9631C42.6213 25.647 41.7586 27.3353 40.8833 29.0192C40.7217 29.3285 40.5622 29.6547 40.3355 29.911C39.7037 30.6227 38.6248 30.574 38.0539 29.8157C37.8461 29.5382 37.7012 29.2099 37.5417 28.8985C35.6421 25.2149 33.7467 21.5314 31.8492 17.8478C31.7212 17.5999 31.5785 17.3606 31.377 16.9984C31.2091 17.297 31.081 17.5131 30.9635 17.7355C30.2897 19.0086 29.6054 20.2752 28.9547 21.5589C28.5643 22.3299 28.0102 22.7006 27.1244 22.6837C25.1325 22.6434 23.1405 22.671 21.1486 22.671C21.008 22.671 20.8673 22.6794 20.7288 22.6646C19.9081 22.5778 19.2763 21.883 19.3078 21.1119C19.3393 20.3706 19.9459 19.7478 20.7267 19.6779C21.0394 19.6504 21.3543 19.661 21.6691 19.661C23.2413 19.661 24.8134 19.661 26.5094 19.661H26.5031Z" fill="#1F1F1F"/>
</g>
</g>
<defs>
<filter id="filter0_f_73_140" x="0" y="57" width="70" height="17" filterUnits="userSpaceOnUse" color-interpolation-filters="sRGB">
<feFlood flood-opacity="0" result="BackgroundImageFix"/>
<feBlend mode="normal" in="SourceGraphic" in2="BackgroundImageFix" result="shape"/>
<feGaussianBlur stdDeviation="2.5" result="effect1_foregroundBlur_73_140"/>
</filter>
</defs>
</svg>
