<svg width="100" height="100" viewBox="0 0 100 100" fill="none" xmlns="http://www.w3.org/2000/svg">
<circle cx="50" cy="50" r="50" fill="white"/>
<path d="M50.1629 77C45.3556 76.9368 40.2499 76.4794 35.3165 74.8524C33.3826 74.216 31.5371 73.3856 29.9879 72.0073C28.6868 70.8503 27.9258 69.4445 28.0057 67.67C28.0625 66.3781 28.0267 65.0567 28.2979 63.8069C28.7982 61.4929 30.2822 59.8406 32.2644 58.6056C34.339 57.3158 36.6428 56.6076 38.9571 55.9353C39.9262 55.6529 40.9225 55.4548 41.9125 55.2504C42.4885 55.1324 42.9678 54.909 43.2788 54.3863C43.4743 54.0554 43.7056 53.7435 43.8779 53.4C44.5863 52.0048 44.5863 51.9943 43.4848 50.9236C41.8684 49.3556 40.748 47.4736 40.0081 45.3619C39.8232 44.8308 39.5982 44.4746 39.0307 44.2702C38.2235 43.9794 37.7863 43.267 37.492 42.4978C37.0401 41.3218 36.9077 40.0931 37.2987 38.8897C37.5299 38.1795 37.4458 37.5261 37.3533 36.8264C37.0906 34.8264 37.1179 32.8432 37.7863 30.9064C38.7532 28.1034 40.6219 26.0654 43.2326 24.7883C48.0546 22.4278 52.9754 22.3773 57.7721 24.7967C61.9068 26.881 63.9142 30.3795 63.7754 35.0498C63.7523 35.8169 63.5947 36.5798 63.5568 37.3491C63.5337 37.8275 63.5589 38.3228 63.6598 38.7885C63.9226 40.0193 63.9268 41.2311 63.4854 42.4135C63.1596 43.2881 62.6446 44.0089 61.7176 44.384C61.4422 44.4957 61.1542 44.8097 61.0576 45.0942C60.2062 47.5643 58.8883 49.7202 56.9145 51.4442C56.5572 51.7561 56.5151 52.0638 56.7043 52.4621C56.9292 52.9342 57.1268 53.4211 57.3643 53.8868C57.7322 54.6118 58.285 55.0101 59.13 55.1872C62.2137 55.8321 65.1628 56.8921 68.032 58.2157C71.3027 59.7247 72.6501 62.4202 72.9675 65.8154C73.0095 66.2685 72.9549 66.7301 72.9843 67.1832C73.1525 69.6974 71.9585 71.4614 69.9574 72.8039C67.7125 74.3108 65.188 75.1117 62.5941 75.7123C58.6234 76.6333 54.5855 76.9684 50.165 76.9979L50.1629 77ZM42.7281 35.191C42.457 35.9581 42.169 36.7442 41.8999 37.5388C41.5531 38.5588 41.4123 38.641 40.3865 38.3544C39.5814 38.1289 39.1968 38.3038 38.934 39.0604C38.5557 40.1479 38.6986 41.2227 39.1947 42.2238C39.3355 42.5062 39.7748 42.8265 40.0607 42.8118C40.8763 42.7717 41.0717 43.248 41.2336 43.8698C41.6435 45.442 42.2867 46.9172 43.2473 48.2302C44.8007 50.3483 46.7808 51.8257 49.4587 52.1291C52.9312 52.5232 55.5671 51.0396 57.6145 48.344C58.6424 46.991 59.3087 45.4483 59.7354 43.8044C59.8888 43.2164 60.0801 42.7696 60.841 42.8097C61.1122 42.8244 61.5137 42.5757 61.6608 42.3292C62.2893 41.2881 62.4281 40.1542 61.9845 38.9993C61.7155 38.3017 61.3182 38.1373 60.5846 38.3396C59.5735 38.6199 59.4138 38.5567 59.0375 37.5388C58.7348 36.7189 58.5183 35.8675 58.2136 35.0498C58.0979 34.7421 57.9088 34.367 57.6439 34.2236C56.3911 33.5471 55.0416 33.0708 53.6207 33.5071C52.3931 33.8843 51.2055 34.4091 50.0326 34.9381C48.6747 35.5514 47.2937 36.0656 45.7886 35.8675C44.7944 35.7368 43.8212 35.4376 42.7239 35.1868L42.7281 35.191ZM58.655 56.7362C57.6019 57.8806 56.8031 58.9111 55.8404 59.752C54.6317 60.8079 53.3117 61.7415 51.9937 62.6625C51.5103 62.9997 51.2938 63.3222 51.298 63.9249C51.3274 67.434 51.3106 70.943 51.3148 74.4541C51.3148 74.7218 51.3631 74.9873 51.3926 75.2992C51.7016 75.2992 51.9433 75.3119 52.1829 75.2992C56.1998 75.0611 60.1957 74.667 64.0949 73.6069C66.0225 73.0842 67.8933 72.414 69.5097 71.1811C70.4051 70.4983 71.1682 69.6426 71.227 68.5214C71.3048 67.0293 71.2628 65.4993 71 64.0345C70.8424 63.1578 70.2895 62.2663 69.6968 61.5687C67.8722 59.4296 65.27 58.7236 62.613 57.8258C62.8779 59.4528 63.1112 60.8943 63.3403 62.3043C65.1375 63.0609 65.8249 64.1673 65.6168 65.906C65.4612 67.2085 64.4838 68.18 63.1322 68.3697C61.6083 68.5847 60.4207 67.9187 59.8615 66.5193C59.5946 65.8533 59.5378 65.1768 59.7144 64.4624C59.975 63.4107 60.7969 62.888 61.7113 62.3169C61.4002 60.6246 61.0912 58.9491 60.7801 57.261C59.9372 57.0523 59.2015 56.8711 58.6508 56.7341L58.655 56.7362ZM49.5281 75.3456C49.5996 75.1117 49.6374 75.0463 49.6374 74.9831C49.6437 71.2254 49.6374 67.4698 49.6668 63.7121C49.671 63.1915 49.4146 62.9808 49.0467 62.7342C46.5748 61.0777 44.1112 59.4064 42.5431 56.753C41.8789 56.8985 41.2546 56.9933 40.6598 57.183C40.4075 57.2631 40.0838 57.5096 40.0229 57.7415C39.7517 58.7784 39.5646 59.8363 39.3334 60.9554C41.7948 61.3706 42.6609 63.0714 43.0686 65.1747C43.2473 66.0936 43.4764 66.9998 43.6614 67.9166C43.7707 68.4561 43.5311 68.8692 43.1002 69.179C42.6335 69.5141 42.1606 69.4382 41.7402 69.1115C41.3219 68.787 41.0865 68.3065 41.3135 67.8091C41.9294 66.454 41.4501 65.1979 40.9772 63.9755C40.5946 62.9913 39.7349 62.5825 38.6881 62.6541C37.6686 62.7258 36.7606 63.1515 36.5167 64.1757C36.1951 65.5309 36.0606 66.945 36.935 68.2137C37.2966 68.7385 37.2924 69.2654 36.8867 69.7628C36.5314 70.1969 35.9513 70.3023 35.4699 70.0452C34.9003 69.7417 34.6943 69.2338 34.8099 68.5509C34.8666 68.2137 34.8772 67.8639 34.8603 67.5225C34.8225 66.7891 34.7174 66.0578 34.7027 65.3243C34.6649 63.4297 35.409 62.0029 37.2104 61.2168C37.429 61.1219 37.6833 60.8817 37.7317 60.6667C37.9356 59.7668 38.0659 58.85 38.2383 57.8616C36.2813 58.477 34.4652 59.105 32.8361 60.163C31.2386 61.1999 30.1224 62.6098 29.8303 64.5277C29.6747 65.5583 29.7062 66.6205 29.6621 67.6679C29.6011 69.1685 30.3074 70.2833 31.4467 71.1706C32.649 72.1084 34.028 72.707 35.4594 73.177C38.8689 74.2939 42.396 74.7745 45.9526 75.0864C47.1318 75.1896 48.3152 75.2571 49.526 75.3414L49.5281 75.3456ZM62.098 36.6789C62.098 35.9919 62.1044 35.3659 62.098 34.7379C62.0455 30.1582 59.4958 26.6871 55.1278 25.3404C52.1493 24.4216 49.1308 24.4363 46.1355 25.2625C43.9179 25.8757 42.0492 27.0623 40.6892 28.9633C39.0349 31.2773 38.6629 33.8611 39.0223 36.6304C39.5604 36.5883 40.006 36.5525 40.4895 36.5124C40.8237 35.5935 41.1264 34.6641 41.5006 33.7663C41.8411 32.9486 42.19 32.8306 42.9678 33.2921C44.931 34.4534 46.9321 34.4765 48.99 33.5935C50.0809 33.1256 51.1698 32.6556 52.2712 32.2173C54.4762 31.3384 56.595 31.5892 58.5772 32.8432C58.9829 33.1003 59.3213 33.5682 59.5273 34.015C59.9036 34.8306 60.16 35.701 60.4522 36.5124C60.984 36.5651 61.4317 36.6094 62.098 36.6747V36.6789ZM46.0556 52.852C45.4649 53.8405 44.9541 54.753 44.3824 55.6255C44.1575 55.969 44.0902 56.243 44.3362 56.5739C44.5043 56.7994 44.6494 57.0418 44.8364 57.2483C46.3562 58.9217 48.1828 60.2157 50.0494 61.4612C50.4635 61.7373 50.7704 61.5835 51.0899 61.339C52.4793 60.2789 53.8897 59.2441 55.2413 58.1377C55.7731 57.7014 56.2082 57.124 56.6076 56.5549C56.7422 56.3632 56.7379 55.9417 56.616 55.7225C56.0842 54.7572 55.4852 53.8278 54.8945 52.8605C51.9664 54.3526 48.9774 54.3589 46.0514 52.8541L46.0556 52.852ZM62.7013 63.9207C61.9446 63.8954 61.2972 64.4898 61.2446 65.259C61.1879 66.0725 61.8185 66.7469 62.6404 66.7511C63.4517 66.7553 64.0046 66.2032 64.0193 65.3707C64.034 64.5635 63.4728 63.946 62.7034 63.9186L62.7013 63.9207Z" fill="#1F1F1F"/>
</svg>
