<svg width="52" height="52" viewBox="0 0 52 52" fill="none" xmlns="http://www.w3.org/2000/svg">
<g id="Icon / bg">
<path id="bg" d="M26 0.5C40.0833 0.5 51.5 11.9167 51.5 26C51.5 40.0833 40.0833 51.5 26 51.5C11.9167 51.5 0.5 40.0833 0.5 26C0.5 11.9167 11.9167 0.5 26 0.5Z" stroke="#1F1F1F" stroke-opacity="0.12"/>
<g id="Icon">
<path id="Vector" d="M36 26C36 31.52 31.52 36 26 36C20.48 36 16 31.52 16 26C16 20.48 20.48 16 26 16C31.52 16 36 20.48 36 26Z" stroke="#1F1F1F" stroke-width="2" stroke-linecap="round" stroke-linejoin="round"/>
<path id="Vector_2" d="M29.34 28.862L26.55 27.197C26.064 26.909 25.668 26.216 25.668 25.649V21.959" stroke="#1F1F1F" stroke-width="2" stroke-linecap="round" stroke-linejoin="round"/>
</g>
</g>
</svg>
