<svg width="60" height="60" viewBox="0 0 60 60" fill="none" xmlns="http://www.w3.org/2000/svg">
<g id="Icon / bg">
<circle id="Icon_bg" cx="30" cy="30" r="29.25" stroke="#1F1F1F" stroke-opacity="0.2" stroke-width="1.5" stroke-dasharray="6 6"/>
<g id="Icon">
<path id="Vector" d="M21.702 30.1206C22.2086 30.1561 22.6462 30.1835 23.0838 30.2181C23.8636 30.281 24.5621 30.5713 25.1713 31.0463C25.9379 31.643 26.7867 31.9303 27.7593 31.8907C28.3837 31.8653 29.0112 31.8775 29.6366 31.8876C30.4489 31.9008 31.1647 32.1607 31.7058 32.7909C32.1658 33.3268 32.4206 33.9307 32.2541 34.6554C32.2399 34.7183 32.2521 34.7863 32.2521 34.8696C32.4876 34.969 32.7079 34.898 32.9313 34.8239C34.435 34.3266 35.9397 33.8343 37.4433 33.337C38.547 32.9716 39.6496 32.6042 40.7502 32.2327C41.2751 32.0561 41.7777 32.0683 42.2528 32.3738C43.1433 32.9473 43.258 34.1855 42.4823 34.9051C42.3473 35.0299 42.1879 35.1314 42.0305 35.2278C39.4506 36.801 36.8656 38.3661 34.2898 39.9474C33.5913 40.3767 32.8481 40.5797 32.0328 40.5787C28.667 40.5746 25.3003 40.5787 21.9345 40.5736C21.6401 40.5736 21.3771 40.6061 21.1344 40.7969C20.9314 40.9562 20.6786 40.9999 20.4166 40.9968C19.7404 40.9897 19.0622 40.9714 18.387 41.0009C17.6469 41.0344 16.991 40.4 16.9991 39.5891C17.0245 36.9512 17.0082 34.3134 17.0082 31.6755C17.0082 31.3375 17.0042 30.9996 17.0082 30.6606C17.0204 29.8517 17.5342 29.329 18.3383 29.3178C19.0317 29.3087 19.7252 29.3219 20.4187 29.3137C20.9182 29.3076 21.2969 29.5116 21.572 29.9227C21.6177 29.9917 21.6624 30.0618 21.701 30.1206H21.702ZM21.7995 31.0726C21.703 32.727 21.7477 39.2856 21.8594 39.6835C21.9893 39.6835 22.1234 39.6835 22.2584 39.6835C25.5571 39.6835 28.8548 39.6774 32.1536 39.6885C32.7678 39.6906 33.312 39.5302 33.8299 39.2136C36.3935 37.6455 38.9612 36.0845 41.5259 34.5194C41.6548 34.4402 41.7878 34.3601 41.8965 34.2576C42.129 34.0373 42.1787 33.6476 42.0285 33.3705C41.8843 33.1025 41.5675 32.9371 41.2629 32.9879C41.1147 33.0132 40.9705 33.068 40.8274 33.1157C38.3683 33.9378 35.9092 34.761 33.4501 35.5851C32.9821 35.7424 32.5069 35.8226 32.0084 35.8155C31.0103 35.8013 30.0113 35.8368 29.0153 35.8033C28.07 35.7719 27.208 35.9657 26.4323 36.5199C26.3308 36.5919 26.1846 36.6346 26.0587 36.6335C25.7592 36.6295 25.5835 36.3169 25.7287 36.054C25.7825 35.9566 25.8769 35.8754 25.9693 35.8084C26.7694 35.2197 27.673 34.9305 28.663 34.9193C29.4072 34.9112 30.1514 34.9203 30.8956 34.9163C31.2632 34.9142 31.3931 34.8168 31.4144 34.4534C31.4276 34.2261 31.4083 33.9673 31.3119 33.7663C31.0093 33.1381 30.4864 32.794 29.7839 32.7757C29.0742 32.7575 28.3634 32.7625 27.6527 32.7727C26.5826 32.7879 25.612 32.4895 24.7794 31.8227C23.9012 31.1203 22.9072 30.96 21.8005 31.0706L21.7995 31.0726ZM20.8898 35.1091C20.8898 33.6719 20.8928 32.2337 20.8887 30.7966C20.8867 30.2871 20.7689 30.1663 20.2664 30.1572C19.7425 30.148 19.2175 30.1541 18.6926 30.1551C17.9565 30.1572 17.8885 30.2252 17.8885 30.9742C17.8885 33.7643 17.8885 36.5544 17.8885 39.3455C17.8885 39.447 17.8844 39.5485 17.8916 39.65C17.919 39.9961 18.0103 40.1016 18.3627 40.1087C19.0389 40.1219 19.7161 40.1229 20.3923 40.1098C20.7791 40.1026 20.8654 40.0032 20.8877 39.6236C20.8948 39.5059 20.8898 39.3871 20.8898 39.2684C20.8898 37.8819 20.8898 36.4945 20.8898 35.1081V35.1091Z" fill="#1F1F1F"/>
<path id="Vector_2" d="M33.5435 31.4868C30.8326 31.3721 28.7167 30.3298 27.3359 28.0045C26.7348 26.9926 26.4617 25.8792 26.5663 24.7049C26.6069 24.2431 26.7531 23.7793 26.9196 23.3418C27.4029 22.067 28.1634 20.9486 28.9756 19.8666C30.196 18.2417 31.5474 16.7294 32.9993 15.3085C33.4186 14.8974 33.5222 14.8964 33.9547 15.3278C34.4217 15.7936 34.8877 16.2605 35.3355 16.7446C36.6341 18.1483 37.8738 19.6017 38.8992 21.2206C39.2678 21.8032 39.5927 22.4172 39.8952 23.0373C40.6009 24.4826 40.545 25.9594 39.9024 27.3945C38.9104 29.6091 37.1458 30.8768 34.7903 31.3467C34.3618 31.432 33.9202 31.4462 33.5445 31.4878L33.5435 31.4868ZM33.443 16.1073C33.3648 16.1773 33.2998 16.2301 33.2409 16.2889C31.8175 17.7149 30.5016 19.2343 29.3228 20.8684C28.7005 21.7311 28.1268 22.6263 27.7268 23.6199C27.5298 24.1101 27.3775 24.6166 27.3999 25.1423C27.4587 26.4892 27.9278 27.6868 28.8802 28.652C30.6316 30.4262 32.7515 30.9773 35.1477 30.3663C37.0443 29.8822 38.4149 28.7261 39.1693 26.8982C39.6556 25.7198 39.679 24.5364 39.1053 23.3723C38.9114 22.9795 38.7175 22.5847 38.4921 22.2102C37.4159 20.4208 36.0767 18.8334 34.6664 17.3039C34.2897 16.8959 33.8724 16.5264 33.4419 16.1083L33.443 16.1073Z" fill="#1F1F1F"/>
<path id="Vector_3" d="M32.1524 23.6585C32.1524 23.1196 32.1473 22.6639 32.1555 22.2081C32.1585 22.0417 32.1727 21.8702 32.2174 21.7098C32.324 21.3282 32.5941 21.114 32.986 21.0958C33.2896 21.0815 33.5942 21.0826 33.8987 21.0927C34.4257 21.111 34.7455 21.4216 34.7689 21.9493C34.7861 22.337 34.7729 22.7268 34.7729 23.1155C34.7729 23.2799 34.7729 23.4443 34.7729 23.6575C35.2044 23.6575 35.5882 23.6575 35.973 23.6575C36.1416 23.6575 36.3121 23.6473 36.4797 23.6615C36.9934 23.7052 37.296 23.9701 37.3559 24.4776C37.3934 24.7932 37.3955 25.121 37.3599 25.4367C37.298 25.9959 36.9782 26.2659 36.4086 26.274C35.8867 26.2821 35.3638 26.2761 34.8024 26.2761C34.7912 26.4435 34.776 26.5887 34.7739 26.7338C34.7699 27.156 34.7841 27.5793 34.7689 28.0005C34.7516 28.4643 34.5039 28.7637 34.0439 28.8368C33.7302 28.8865 33.4033 28.8956 33.0855 28.8743C32.4793 28.8347 32.1758 28.5039 32.1555 27.8929C32.1433 27.5387 32.1534 27.1834 32.1534 26.8282C32.1534 26.6628 32.1534 26.4973 32.1534 26.275C31.7311 26.275 31.3473 26.275 30.9635 26.275C30.7777 26.275 30.5909 26.2862 30.4061 26.271C29.9086 26.2304 29.607 25.9158 29.5877 25.4134C29.5756 25.1099 29.5766 24.8044 29.5888 24.5009C29.606 24.0888 29.8324 23.8128 30.2406 23.7093C30.401 23.6687 30.5736 23.6605 30.7401 23.6575C31.1919 23.6504 31.6448 23.6555 32.1524 23.6555V23.6585ZM36.4827 24.5496C36.3192 24.5496 36.1883 24.5496 36.0573 24.5496C35.6684 24.5496 35.2796 24.5547 34.8907 24.5486C34.2571 24.5375 33.9241 24.2177 33.8876 23.5895C33.8774 23.4038 33.8855 23.218 33.8855 23.0323C33.8855 22.6821 33.8855 22.332 33.8855 21.9564H33.0682C33.0601 22.0894 33.0469 22.2031 33.0459 22.3167C33.0428 22.7055 33.0479 23.0942 33.0439 23.4829C33.0378 24.2117 32.7149 24.5415 31.9991 24.5496C31.6437 24.5537 31.2894 24.5476 30.934 24.5517C30.7726 24.5537 30.6102 24.5669 30.4335 24.576C30.4335 24.8704 30.3797 25.119 30.4914 25.391C30.9148 25.391 31.3361 25.391 31.7575 25.391C32.789 25.391 33.0449 25.6478 33.0449 26.677C33.0449 27.1103 33.0449 27.5427 33.0449 27.9781H33.8855C33.8855 27.701 33.8855 27.4514 33.8855 27.2017C33.8855 26.9652 33.8815 26.7287 33.8855 26.4922C33.9008 25.732 34.2145 25.4123 34.9638 25.392C35.1669 25.387 35.3699 25.392 35.572 25.391C35.8695 25.389 36.168 25.3859 36.4817 25.3829V24.5506L36.4827 24.5496Z" fill="#1F1F1F"/>
</g>
</g>
</svg>
