<svg width="24" height="18" viewBox="0 0 24 18" fill="none" xmlns="http://www.w3.org/2000/svg">
<g id="Icon">
<path id="Vector" d="M3.93359 14.76V3.24C3.93359 1.64 4.61626 1 6.31226 1H7.42159C9.11759 1 9.80026 1.64 9.80026 3.24V14.76C9.80026 16.36 9.11759 17 7.42159 17H6.31226C4.61626 17 3.93359 16.36 3.93359 14.76Z" stroke="#C5ED82" stroke-width="1.5" stroke-linecap="round" stroke-linejoin="round"/>
<path id="Vector_2" d="M13 12.6266V5.3733C13 3.7733 13.6827 3.1333 15.3787 3.1333H16.488C18.184 3.1333 18.8667 3.7733 18.8667 5.3733V12.6266C18.8667 14.2266 18.184 14.8666 16.488 14.8666H15.3787C13.6827 14.8666 13 14.2266 13 12.6266Z" stroke="#C5ED82" stroke-width="1.5" stroke-linecap="round" stroke-linejoin="round"/>
<path id="Vector_3" d="M1 9H3.56" stroke="#C5ED82" stroke-width="1.5" stroke-linecap="round" stroke-linejoin="round"/>
<path id="Vector_4" d="M10.6016 9H12.7349" stroke="#C5ED82" stroke-width="1.5" stroke-linecap="round" stroke-linejoin="round"/>
<path id="Vector_5" d="M22.3342 9H19.4648" stroke="#C5ED82" stroke-width="1.5" stroke-linecap="round" stroke-linejoin="round"/>
</g>
</svg>
