<svg width="74" height="74" viewBox="0 0 74 74" fill="none" xmlns="http://www.w3.org/2000/svg">
<g id="Icon / bg">
<path id="Icon_bg" d="M0 37C0 16.5655 16.5655 0 37 0C57.4345 0 74 16.5655 74 37C74 57.4345 57.4345 74 37 74C16.5655 74 0 57.4345 0 37Z" fill="#1F1F1F"/>
<g id="Icon">
<path id="Vector" d="M40.7422 53.8278C42.17 53.8278 43.5538 53.8672 44.9359 53.8175C46.5962 53.7576 48.0207 52.4593 48.2242 51.3116C47.5424 51.2448 46.8234 51.2877 46.1773 51.0907C44.6392 50.6197 43.7234 49.5354 43.5216 47.8962C43.4657 47.4458 43.4385 46.9884 43.4368 46.5328C43.43 43.5953 43.4267 40.656 43.4385 37.7185C43.4402 37.179 43.4657 36.6292 43.5674 36.1016C43.9117 34.3288 45.6329 33.0373 47.4865 33.1178C49.2824 33.1966 50.8222 34.6234 51.0375 36.4236C51.0918 36.8758 51.1274 37.3314 51.1291 37.787C51.1359 41.6375 51.1495 45.4897 51.1206 49.3402C51.1139 50.1589 51.0443 51.0033 50.8374 51.7895C50.1201 54.4992 47.6069 56.4056 44.8223 56.4262C43.469 56.4365 42.1158 56.4279 40.7388 56.4279C40.2504 57.495 39.5551 58.3223 38.463 58.742C37.6439 59.0554 36.818 59.0862 35.9769 58.819C34.3607 58.3069 33.2601 56.7773 33.2958 55.0765C33.3331 53.2506 34.532 51.781 36.333 51.351C38.061 50.94 39.6365 51.8101 40.7438 53.8295L40.7422 53.8278Z" fill="white"/>
<path id="Vector_2" d="M20.6218 33.1641C19.7365 33.5581 18.9225 33.9195 18 34.3289C18.2425 27.4775 21.005 22.0118 26.6572 18.3292C33.2353 14.0419 40.1543 13.8878 46.8953 17.9112C52.9629 21.5322 55.9272 27.1555 56.2291 34.3991C55.7119 34.1216 55.3354 33.8904 54.9352 33.7139C54.5231 33.5307 54.089 33.4005 53.5853 33.2189C53.0952 28.2277 50.95 24.0758 46.902 21.0183C43.7325 18.6221 40.1306 17.5361 36.1878 17.7605C28.6278 18.187 21.5545 23.9216 20.6218 33.1641Z" fill="white"/>
<path id="Vector_3" d="M23.0826 42.2026C23.0826 40.6628 23.069 39.1212 23.0893 37.5814C23.0961 37.0436 23.125 36.4903 23.2521 35.9713C23.6897 34.1848 25.4279 32.9584 27.2679 33.1297C29.1757 33.3078 30.5561 34.8374 30.6917 36.4715C30.7291 36.9254 30.7765 37.381 30.7765 37.8349C30.785 40.745 30.7833 43.6534 30.7765 46.5635C30.7765 46.99 30.7307 47.4165 30.7002 47.8413C30.5561 49.8796 28.711 51.2927 26.9321 51.2927C25.1464 51.2927 23.3047 49.8779 23.1606 47.8448C23.13 47.4183 23.0859 46.9935 23.0843 46.567C23.0741 45.1128 23.0809 43.6568 23.0809 42.2026H23.0826Z" fill="white"/>
<path id="Vector_4" d="M20.6237 48.4802C19.2127 47.9441 18.3512 46.9952 18.1138 45.5632C17.9866 44.7822 17.9985 43.9737 18.0019 43.1789C18.0087 41.7556 17.968 40.3236 18.1138 38.914C18.2681 37.4324 19.1924 36.4697 20.6237 35.9233V48.4819V48.4802Z" fill="white"/>
<path id="Vector_5" d="M53.583 48.4479V36.0127C54.8244 36.2782 55.8944 37.46 56.1115 38.7875C56.1437 38.9845 56.1776 39.1832 56.1776 39.3819C56.1658 41.403 56.2098 43.4259 56.1098 45.4419C56.0403 46.831 55.0312 47.9392 53.5847 48.4479H53.583Z" fill="white"/>
</g>
</g>
</svg>
