<svg width="44" height="55" viewBox="0 0 44 55" fill="none" xmlns="http://www.w3.org/2000/svg">
<path id="Vector" d="M24.1873 53.0806C24.1873 53.0806 8.02887 46.6682 3.90417 39.4156C7.14038 41.6922 10.8728 43.1642 14.7917 43.7097C11.9785 35.9006 8.58304 28.3137 4.63406 21.0128C10.3885 25.7228 16.5748 29.879 23.1105 33.426C22.2207 23.3322 21.5816 13.2218 21.1929 3.09478C24.3985 6.99605 25.9391 11.9675 27.4054 16.795C28.9997 22.0496 30.5953 27.3005 32.1923 32.5477C35.0231 28.7844 38.2512 25.3371 41.8208 22.2656C39.2293 30.2819 37.7305 38.5231 37.357 46.9396L24.1873 53.0806Z" stroke="#F0AD34" stroke-width="2" stroke-miterlimit="10"/>
</svg>
