<svg width="24" height="24" viewBox="0 0 24 24" fill="none" xmlns="http://www.w3.org/2000/svg">
<path id="Icon" d="M12.0053 23.9759C13.0876 23.9759 14.1681 23.9672 15.2503 23.9794C15.7379 23.9847 15.9204 23.7725 15.9169 23.2901C15.9046 21.1922 15.9098 19.0926 15.9169 16.9948C15.9204 15.9932 15.9625 15.9476 16.95 15.9441C18.9952 15.9371 21.0422 15.9283 23.0875 15.9546C23.7628 15.9634 24.0118 15.7213 23.9996 15.0302C23.9627 13.0148 23.968 10.9959 23.9978 8.98046C24.0083 8.32094 23.8277 8.00696 23.112 8.03502C22.0911 8.07537 21.0668 8.03853 20.0442 8.04555C15.8309 8.07712 12.3596 9.48563 10.0828 13.2604C9.27948 14.5917 8.34106 15.8652 8.23406 17.4578C8.10075 19.4364 8.11829 21.4238 8.06743 23.4076C8.05515 23.9005 8.37263 23.9742 8.76028 23.9742C9.84254 23.9742 10.923 23.9742 12.0053 23.9742V23.9759ZM4.06466 8.04379C3.01222 8.04379 1.95978 8.07537 0.909098 8.03327C0.214489 8.00521 -0.00827651 8.27533 0.000493801 8.9524C0.0303129 10.9678 0.035575 12.9867 0.000493801 15.0022C-0.0117846 15.7161 0.202212 15.9897 0.945934 15.9564C2.92452 15.8687 4.90661 15.8108 6.88694 15.8073C7.46403 15.8073 7.66399 15.5898 7.88851 15.1004C8.42175 13.9357 8.86903 12.6517 9.69344 11.7186C11.223 9.9908 13.0367 8.53318 15.3082 7.81226C15.7818 7.66141 15.9239 7.36848 15.9204 6.89664C15.9046 4.87947 15.9011 2.86405 15.9204 0.846878C15.9256 0.239972 15.6765 0.0172061 15.0854 0.0224683C13.0402 0.0400089 10.9932 0.0470251 8.94796 0.0207142C8.25686 0.0119439 8.04111 0.282069 8.04988 0.955629C8.08146 3.03068 8.04287 5.10574 8.07093 7.1808C8.0797 7.81401 7.88676 8.08063 7.22021 8.05432C6.16953 8.01222 5.11709 8.04379 4.06466 8.04379Z" fill="#4D7B6B"/>
</svg>
