<svg width="20" height="18" viewBox="0 0 20 18" fill="none" xmlns="http://www.w3.org/2000/svg">
<g id="Icon">
<path id="Vector" d="M4 12.7895V5.21053C4 4.68842 4.01684 4.22526 4.07579 3.81263C4.32 1.59789 5.36422 1 8.21055 1H11.579C14.4253 1 15.4695 1.59789 15.7137 3.81263C15.7727 4.22526 15.7895 4.68842 15.7895 5.21053V12.7895C15.7895 13.3116 15.7727 13.7747 15.7137 14.1874C15.4695 16.4021 14.4253 17 11.579 17H8.21055C5.36422 17 4.32 16.4021 4.07579 14.1874C4.01684 13.7747 4 13.3116 4 12.7895Z" stroke="#7B8967" stroke-width="1.5" stroke-linecap="round" stroke-linejoin="round"/>
<path id="Vector_2" d="M1 15.3152V2.68359" stroke="#7B8967" stroke-width="1.5" stroke-linecap="round" stroke-linejoin="round"/>
<path id="Vector_3" d="M18.7896 14.8943V2.2627" stroke="#7B8967" stroke-width="1.5" stroke-linecap="round" stroke-linejoin="round"/>
</g>
</svg>
