<svg width="36" height="40" viewBox="0 0 36 40" fill="none" xmlns="http://www.w3.org/2000/svg">
<g id="Icon">
<path id="Vector" d="M6.9633 36.9075C3.95322 36.7778 1.99697 34.5181 1.60694 32.0647C1.5427 31.6568 1.53659 31.2349 1.55188 30.8208C1.56412 30.4911 1.49682 30.2426 1.28116 29.9738C-0.216236 28.1126 -0.407425 25.9327 0.741239 23.8027C0.924781 23.4636 0.917133 23.2089 0.741239 22.876C-0.512961 20.4773 -0.122935 17.877 1.60388 16.1221C1.80119 15.9205 1.89296 15.7408 1.82566 15.4407C1.14809 12.42 1.91896 10.4573 4.45337 8.69299C4.49466 8.66486 4.52219 8.61798 4.59408 8.53672C4.5329 7.65536 4.67515 6.76306 5.09729 5.93952C5.63568 4.88939 6.42644 4.09397 7.53075 3.69548C7.94983 3.54547 8.19761 3.30637 8.41022 2.91882C9.19333 1.49208 10.3542 0.537271 11.9281 0.148159C13.6259 -0.272207 15.1003 0.224732 16.3897 1.34987C16.8271 1.73117 17.182 2.21248 17.6164 2.69379C17.7234 2.55628 17.8274 2.42345 17.9299 2.28906C18.9669 0.926383 20.2945 0.0512721 22.0091 0.0184554C24.1351 -0.0206121 25.6937 1.04827 26.7567 2.88132C26.9923 3.28918 27.263 3.52515 27.6867 3.71111C29.5175 4.51278 30.5071 5.95202 30.5836 7.99447C30.5989 8.42733 30.7105 8.6758 31.0791 8.92896C32.8121 10.1197 33.664 11.8184 33.6426 13.9499C33.638 14.3859 33.5631 14.8375 33.4254 15.2485C33.2877 15.6564 33.3719 15.9002 33.6594 16.2033C34.7622 17.3628 35.2746 18.7708 35.1675 20.3882C35.1079 21.2774 34.8815 22.1306 34.4349 22.9042C34.262 23.2026 34.2575 23.4417 34.4303 23.7621C35.6157 25.9561 35.4306 28.0533 33.8843 29.9941C33.6166 30.3301 33.6411 30.6489 33.6502 31.0083C33.7068 33.3977 32.318 35.6261 30.1798 36.4825C29.5741 36.7247 28.9087 36.8169 28.2067 36.995C25.6601 41.0033 20.2915 41.1018 17.6087 36.6856C17.4481 36.9059 17.3074 37.1013 17.1651 37.2966C15.9018 39.0343 14.2407 40.0345 12.0933 39.986C10.1799 39.9423 8.61823 39.0984 7.42368 37.5638C7.26614 37.3607 7.12848 37.1419 6.9633 36.9044V36.9075ZM2.08262 24.5372C1.48458 25.6139 1.3714 26.6828 1.77672 27.8017C1.99238 28.3986 2.32581 28.9159 2.79385 29.3362C3.15481 29.6613 3.28788 30.0348 3.14869 30.5223C2.97892 31.1162 3.07986 31.7115 3.23129 32.2929C3.70544 34.1118 5.2793 35.3542 7.11625 35.2901C7.74335 35.2682 8.02325 35.573 8.29091 36.0668C9.66136 38.5905 13.3612 39.5672 15.6892 36.7028C16.8654 35.2573 17.2019 33.5743 16.4983 31.8069C15.8131 30.0848 14.5267 29.0737 12.6806 28.8752C12.4282 28.8487 12.1667 28.8221 11.9327 28.7299C11.6176 28.608 11.4601 28.3299 11.4968 27.9845C11.532 27.647 11.7109 27.4001 12.0566 27.3329C12.2049 27.3047 12.3594 27.2985 12.5124 27.3032C13.8874 27.3375 15.0911 27.8282 16.1434 28.7252C16.3514 28.9018 16.5549 29.0815 16.8363 29.3253C16.8363 29.0925 16.8363 28.9659 16.8363 28.8377C16.8363 27.1719 16.8363 25.5045 16.8363 23.8387C16.8363 20.8445 16.8394 17.8488 16.8363 14.8547C16.8363 13.6843 16.434 13.1889 15.3389 12.9685C15.2884 12.9592 15.2364 12.9638 15.1875 12.9513C14.8021 12.8451 14.5436 12.5294 14.5512 12.1762C14.5589 11.7934 14.8724 11.4496 15.2884 11.4215C15.5117 11.4058 15.7442 11.4465 15.966 11.4949C16.2352 11.5543 16.4983 11.6481 16.7614 11.7262C16.7904 11.6527 16.8256 11.6059 16.8256 11.5574C16.8287 9.50091 16.9189 7.43815 16.8011 5.38789C16.7063 3.74705 15.8176 2.51408 14.3019 1.84369C12.7265 1.14829 10.7274 1.88901 10.0315 3.40795C10.3435 3.5189 10.6785 3.58766 10.9599 3.75018C11.4432 4.02834 11.9235 4.32838 12.3472 4.68936C12.7387 5.02534 12.7387 5.46133 12.4527 5.79263C12.1805 6.10673 11.8287 6.14267 11.4203 5.88014C11.2704 5.78325 11.1435 5.65042 11.0012 5.54259C9.31875 4.27681 6.90212 5.08316 6.28725 7.12561C6.19548 7.43033 6.02876 7.75069 6.23372 8.09917C6.4295 8.08979 6.60539 8.08042 6.78129 8.07417C9.67359 7.96165 12.1392 10.5323 12.2386 13.5483C12.2585 14.139 11.9357 14.5234 11.483 14.525C11.0578 14.525 10.7947 14.1921 10.7106 13.6311C10.6418 13.1717 10.5775 12.6982 10.4093 12.2716C9.8602 10.8808 8.89966 9.92753 7.41144 9.68531C5.85899 9.43215 4.6675 10.1166 3.81862 11.3949C2.97892 12.6622 2.79843 14.0249 3.47907 15.4564C3.81403 16.158 3.74061 16.3643 3.1441 16.8534C3.10434 16.8862 3.05845 16.9097 3.01868 16.9425C1.85931 17.9145 1.33469 19.174 1.60541 20.6758C1.9052 22.3338 2.86573 23.4871 4.46407 24.0184C4.75009 24.1137 5.06976 24.1012 5.36802 24.1621C5.88499 24.2684 6.14654 24.5653 6.11748 24.9794C6.08536 25.4279 5.74733 25.7327 5.18753 25.667C4.58796 25.5983 3.98534 25.4654 3.41483 25.2654C2.96821 25.1091 2.56901 24.8091 2.08415 24.5388L2.08262 24.5372ZM29.0189 8.04916C29.0342 6.85057 28.4637 5.83326 27.4312 5.30663C26.3438 4.75187 25.2685 4.81906 24.2468 5.50665C24.077 5.62073 23.9363 5.78012 23.765 5.89108C23.3765 6.13954 22.9911 6.0911 22.7356 5.78325C22.4726 5.46602 22.4527 5.04097 22.8106 4.73937C23.274 4.34713 23.8002 4.02678 24.3233 3.71736C24.5925 3.55797 24.9121 3.49077 25.2196 3.37669C24.1826 1.79056 22.4833 1.16079 20.9538 1.82025C19.3493 2.51252 18.4591 3.80644 18.3826 5.55978C18.2985 7.50847 18.3612 9.46497 18.3643 11.4183C18.3643 11.5152 18.3964 11.6106 18.4193 11.734C18.7145 11.6449 18.9776 11.5496 19.2468 11.4918C19.4686 11.4433 19.7011 11.4074 19.9259 11.4246C20.3068 11.4527 20.6066 11.7653 20.6448 12.1169C20.6815 12.4591 20.4337 12.8279 20.0697 12.9388C19.9259 12.9826 19.7638 12.9638 19.617 12.9982C18.892 13.1686 18.4255 13.7233 18.3673 14.4812C18.3551 14.6359 18.3612 14.7938 18.3612 14.95C18.3612 19.4819 18.3612 24.0121 18.3612 28.544V29.3362C18.6304 29.0987 18.817 28.9315 19.0067 28.7674C20.0513 27.8642 21.2474 27.3547 22.624 27.3079C23.3138 27.2844 23.6717 27.5126 23.7053 28.0033C23.739 28.4814 23.4193 28.7596 22.728 28.8596C22.4022 28.9065 22.0672 28.9253 21.7506 29.0143C19.1826 29.7441 17.777 32.4351 18.5968 35.026C19.256 37.1107 21.1082 38.539 23.1165 38.4311C24.7806 38.3405 26.0822 37.5498 26.9066 36.0512C27.2033 35.5136 27.5322 35.2432 28.1715 35.3011C30.2853 35.4948 32.5092 33.1102 32.058 30.5848C31.9571 30.0191 32.1024 29.6675 32.4526 29.2628C32.8319 28.8221 33.1883 28.3205 33.4055 27.7829C33.8552 26.6703 33.7282 25.5748 33.092 24.5528C32.5918 24.8279 32.1544 25.0888 31.7001 25.3139C31.1158 25.603 30.4857 25.7014 29.8433 25.6717C29.3829 25.6514 29.0984 25.3654 29.0785 24.9622C29.0602 24.5966 29.2865 24.3044 29.6949 24.1918C29.8662 24.145 30.0452 24.1215 30.2211 24.0965C31.8163 23.8777 33.0537 22.726 33.5095 21.0367C33.9255 19.4928 33.4193 17.9426 32.1681 16.93C31.4064 16.3127 31.3835 16.2565 31.7949 15.3016C32.2538 14.2374 32.2523 13.1686 31.7796 12.1278C31.1938 10.837 30.2822 9.9119 28.8369 9.67749C26.8148 9.34776 25.189 10.8839 24.698 12.5029C24.571 12.9201 24.5466 13.3686 24.4716 13.8015C24.3967 14.2343 24.074 14.5344 23.6992 14.525C23.3245 14.5156 23.0109 14.1984 22.9605 13.7671C22.9452 13.6389 22.9498 13.5061 22.9605 13.3764C23.1501 11.0199 24.6674 8.80551 27.2202 8.18043C27.7784 8.04447 28.378 8.09135 29.0219 8.05072L29.0189 8.04916Z" fill="#1F1F1F"/>
<path id="Vector_2" d="M10.5804 19.1584C8.59662 18.6912 7.22159 17.5926 6.5073 15.7361C6.29776 15.1907 6.20293 14.5844 6.14328 13.9953C6.0821 13.3968 6.40024 13.0092 6.84838 12.9795C7.29041 12.9498 7.6162 13.303 7.65597 13.9109C7.77527 15.7721 8.97135 17.2051 10.8343 17.5895C11.8361 17.7958 12.7508 17.552 13.5966 16.9941C13.7679 16.8816 13.9193 16.7362 14.0937 16.6315C14.5158 16.3815 14.9227 16.4659 15.1659 16.8363C15.3892 17.1769 15.3402 17.5567 14.9793 17.877C14.3369 18.4474 13.6027 18.8787 12.7661 19.0397C12.3195 19.1256 12.1451 19.3272 11.9998 19.746C11.495 21.1931 10.4397 22.0119 8.98205 22.3041C8.78475 22.3432 8.57368 22.3526 8.37331 22.3307C7.99705 22.2916 7.69726 21.9744 7.66514 21.6244C7.63455 21.2837 7.89457 20.9118 8.25554 20.8133C8.40084 20.7727 8.56144 20.7961 8.7098 20.7664C9.58774 20.5867 10.2378 20.1257 10.5804 19.1584Z" fill="#1F1F1F"/>
<path id="Vector_3" d="M7.12331 30.4238C9.16979 30.4582 11.1826 32.01 11.9 34.1649C12.085 34.7213 12.1753 35.3229 12.2242 35.9105C12.2732 36.4887 11.9183 36.8762 11.4671 36.87C11.045 36.8637 10.7605 36.534 10.7131 35.9683C10.5815 34.4134 9.89172 33.2054 8.5534 32.4366C8.18785 32.2272 7.75041 32.1459 7.34203 32.0178C7.22272 31.9803 7.08966 31.9865 6.96577 31.9615C6.38455 31.849 6.10924 31.574 6.13218 31.138C6.15665 30.6661 6.50691 30.4145 7.12178 30.4238H7.12331Z" fill="#1F1F1F"/>
<path id="Vector_4" d="M13.764 24.9918C13.7242 25.2824 13.5804 25.545 13.2424 25.6356C13.0222 25.695 12.7943 25.7387 12.5679 25.7559C10.8518 25.8841 9.55016 26.731 8.56974 28.1422C8.46727 28.2906 8.37244 28.4469 8.25007 28.5766C7.94264 28.9048 7.62144 28.9532 7.29413 28.7438C6.95611 28.5281 6.83528 28.1265 7.03564 27.728C7.42414 26.9545 7.98088 26.3185 8.63398 25.7669C9.853 24.737 11.2479 24.1963 12.831 24.1745C13.4259 24.1667 13.7793 24.4667 13.7655 24.9902L13.764 24.9918Z" fill="#1F1F1F"/>
<path id="Vector_5" d="M13.7665 6.52541C14.21 6.52229 14.5481 6.86452 14.5282 7.29895C14.5098 7.70525 14.1917 8.00372 13.7772 8.00685C13.3336 8.00998 12.9956 7.66774 13.0155 7.23331C13.0338 6.82701 13.3504 6.52854 13.7665 6.52541Z" fill="#1F1F1F"/>
<path id="Vector_6" d="M24.6321 19.1615C24.9258 20.1194 25.585 20.5664 26.4522 20.7633C26.6006 20.7976 26.7612 20.7711 26.908 20.807C27.2797 20.8992 27.5443 21.2461 27.529 21.5931C27.5137 21.9744 27.1956 22.315 26.7765 22.3338C26.0423 22.3666 25.3724 22.1275 24.7529 21.7415C23.9591 21.2477 23.4192 20.5304 23.1515 19.6319C23.0445 19.274 22.8778 19.1224 22.5367 19.0615C21.6909 18.9099 20.9598 18.4927 20.299 17.9504C19.8554 17.5863 19.7805 17.1737 20.0512 16.8003C20.3219 16.4299 20.7104 16.4033 21.1984 16.694C21.6572 16.9675 22.1023 17.305 22.5994 17.4644C24.9059 18.2051 27.2721 16.5674 27.529 14.0937C27.5428 13.964 27.529 13.8311 27.5489 13.7046C27.6193 13.2717 27.9435 12.9701 28.3167 12.9795C28.6914 12.9888 29.0601 13.3045 29.0463 13.7342C29.0295 14.2734 28.9744 14.8297 28.8184 15.3423C28.2265 17.2784 26.9279 18.4942 25.0298 19.0552C24.9135 19.0896 24.7942 19.1193 24.6336 19.1615H24.6321Z" fill="#1F1F1F"/>
<path id="Vector_7" d="M28.1225 30.4238C28.1669 30.427 28.3198 30.427 28.4682 30.452C28.8138 30.5113 28.9943 30.7489 29.0509 31.0833C29.1075 31.4177 28.9056 31.7506 28.5707 31.874C28.4055 31.935 28.225 31.9615 28.0506 31.9881C26.0623 32.2944 24.6658 33.7977 24.4838 35.8355C24.4746 35.9386 24.4838 36.0449 24.467 36.1464C24.3936 36.5777 24.0724 36.8778 23.7007 36.87C23.3275 36.8621 22.9726 36.548 22.968 36.1199C22.9635 35.6839 23.017 35.2401 23.1072 34.8119C23.6135 32.3928 25.7365 30.5051 28.124 30.4238H28.1225Z" fill="#1F1F1F"/>
<path id="Vector_8" d="M22.6759 24.1919C24.9855 24.3841 26.7552 25.492 28.017 27.4642C28.0996 27.5939 28.1684 27.7361 28.222 27.8798C28.3504 28.2236 28.2036 28.4955 27.9497 28.6987C27.6882 28.9097 27.3777 28.955 27.1085 28.7206C26.9188 28.5549 26.7659 28.3408 26.6206 28.1314C25.634 26.725 24.3324 25.8796 22.6163 25.753C22.3899 25.7358 22.159 25.6983 21.9433 25.628C21.5915 25.5139 21.4003 25.2014 21.4309 24.8576C21.463 24.5075 21.6971 24.2466 22.0687 24.195C22.2676 24.1669 22.474 24.1903 22.6759 24.1903V24.1919Z" fill="#1F1F1F"/>
<path id="Vector_9" d="M21.3856 8.00698C20.9757 7.99136 20.6636 7.67257 20.6621 7.26939C20.6606 6.83808 21.0124 6.50836 21.4559 6.52554C21.8658 6.54117 22.1779 6.85996 22.1794 7.26314C22.1809 7.69444 21.8291 8.02417 21.3856 8.00698Z" fill="#1F1F1F"/>
</g>
</svg>
