<svg width="40" height="40" viewBox="0 0 40 40" fill="none" xmlns="http://www.w3.org/2000/svg">
<g id="Icon">
<path id="Vector" d="M11.3229 20.0001L4.38154 26.9415C1.98554 29.3375 1.98554 33.2222 4.38154 35.6182V35.6182C6.77755 38.0142 10.6622 38.0142 13.0582 35.6182L19.9996 28.6768M11.3229 20.0001L19.9996 28.6768M11.3229 20.0001L19.9996 11.3234M19.9996 28.6768L28.6763 20.0001M19.9996 11.3234L26.941 4.38205C29.337 1.98605 33.2216 1.98606 35.6176 4.38206V4.38206C38.0137 6.77806 38.0137 10.6628 35.6176 13.0588L28.6763 20.0001M19.9996 11.3234L28.6763 20.0001" stroke="#1F1F1F" stroke-width="2"/>
<g id="Vector_2">
<path d="M29.3836 20.6254L35.6512 26.9414C38.0315 29.3401 38.024 33.2119 35.6345 35.6013C33.232 38.0038 29.3345 37.9963 26.9412 35.5846L20.7014 29.2966C20.3135 28.9056 20.3147 28.2746 20.7042 27.8851L27.9666 20.6226C28.3582 20.231 28.9935 20.2323 29.3836 20.6254Z" stroke="#1F1F1F" stroke-width="2"/>
<path d="M13.0583 4.41537L19.2981 10.7034C19.6861 11.0944 19.6849 11.7254 19.2954 12.1149L12.0329 19.3774C11.6413 19.7689 11.0061 19.7677 10.616 19.3746L4.34835 13.0585C1.96811 10.6599 1.97557 6.78809 4.36503 4.39863C6.76754 1.99612 10.6651 2.00362 13.0583 4.41537Z" stroke="#1F1F1F" stroke-width="2"/>
</g>
<g id="Group">
<path id="Vector_3" d="M19.999 16.2939H20.0236V16.3184H19.999V16.2939Z" stroke="#1F1F1F" stroke-width="2" stroke-linejoin="round"/>
<path id="Vector_4" d="M19.999 19.9998H20.0236V20.0243H19.999V19.9998Z" stroke="#1F1F1F" stroke-width="2" stroke-linejoin="round"/>
<path id="Vector_5" d="M23.6807 19.9998H23.7052V20.0243H23.6807V19.9998Z" stroke="#1F1F1F" stroke-width="2" stroke-linejoin="round"/>
<path id="Vector_6" d="M16.3184 19.9998H16.3429V20.0243H16.3184V19.9998Z" stroke="#1F1F1F" stroke-width="2" stroke-linejoin="round"/>
<path id="Vector_7" d="M19.999 23.6565H20.0236V23.6811H19.999V23.6565Z" stroke="#1F1F1F" stroke-width="2" stroke-linejoin="round"/>
</g>
</g>
</svg>
