<svg width="40" height="40" viewBox="0 0 40 40" fill="none" xmlns="http://www.w3.org/2000/svg">
<g id="Icon">
<path id="Vector" d="M7.23535 23.2592C8.0148 23.3138 8.68803 23.356 9.36125 23.4091C10.5609 23.5059 11.6355 23.9524 12.5727 24.6832C13.7521 25.6014 15.0579 26.0433 16.5543 25.9824C17.515 25.9433 18.4803 25.9621 19.4425 25.9777C20.6921 25.998 21.7933 26.3977 22.6259 27.3674C23.3335 28.1918 23.7255 29.1209 23.4693 30.2358C23.4475 30.3326 23.4662 30.4372 23.4662 30.5653C23.8286 30.7183 24.1676 30.609 24.5112 30.495C26.8245 29.7299 29.1394 28.9726 31.4528 28.2075C33.1507 27.6453 34.847 27.0801 36.5403 26.5086C37.3478 26.2369 38.121 26.2556 38.852 26.7256C40.2219 27.6079 40.3984 29.5128 39.2051 30.6199C38.9973 30.812 38.7521 30.9681 38.51 31.1165C34.5409 33.5368 30.564 35.9445 26.6012 38.3773C25.5265 39.0378 24.3831 39.3501 23.1288 39.3486C17.9508 39.3423 12.7711 39.3486 7.59306 39.3407C7.14007 39.3407 6.73551 39.3907 6.36219 39.6843C6.04979 39.9294 5.66085 39.9966 5.25785 39.9919C4.21755 39.981 3.17412 39.9528 2.13539 39.9981C0.996679 40.0497 -0.0123812 39.0737 0.000114848 37.8261C0.0391651 33.7679 0.014173 29.7096 0.014173 25.6513C0.014173 25.1314 0.00792491 24.6114 0.014173 24.0899C0.0329171 22.8454 0.823295 22.0412 2.06041 22.024C3.12726 22.01 4.19412 22.0303 5.26097 22.0178C6.02948 22.0084 6.61211 22.3223 7.03542 22.9547C7.10571 23.0608 7.17444 23.1686 7.23379 23.2592H7.23535ZM7.38531 24.7238C7.23692 27.269 7.30564 37.3592 7.47747 37.9713C7.6774 37.9713 7.88359 37.9713 8.09134 37.9713C13.1663 37.9713 18.2397 37.962 23.3147 37.9791C24.2597 37.9823 25.097 37.7356 25.8936 37.2484C29.8377 34.8359 33.788 32.4344 37.7336 30.0266C37.932 29.9048 38.1366 29.7814 38.3038 29.6237C38.6615 29.2849 38.738 28.6853 38.5068 28.259C38.285 27.8468 37.7977 27.5922 37.3291 27.6703C37.101 27.7093 36.8792 27.7937 36.659 27.8671C32.8758 29.1318 29.0926 30.3982 25.3094 31.6661C24.5893 31.9081 23.8583 32.0315 23.0913 32.0206C21.5559 31.9987 20.0189 32.0534 18.4865 32.0018C17.0323 31.9534 15.7061 32.2517 14.5128 33.1042C14.3566 33.2151 14.1316 33.2807 13.9379 33.2791C13.4772 33.2729 13.2069 32.7919 13.4303 32.3875C13.5131 32.2376 13.6583 32.1127 13.8005 32.0096C15.0314 31.104 16.4215 30.659 17.9445 30.6418C19.0895 30.6293 20.2344 30.6434 21.3794 30.6371C21.9448 30.634 22.1448 30.4841 22.1776 29.9251C22.1979 29.5753 22.1682 29.1771 22.0198 28.868C21.5543 27.9014 20.7499 27.3721 19.669 27.344C18.5771 27.3159 17.4837 27.3237 16.3903 27.3393C14.7439 27.3627 13.2507 26.9036 11.9698 25.8777C10.6187 24.7972 9.08946 24.5505 7.38687 24.7207L7.38531 24.7238ZM5.98574 30.9338C5.98574 28.7227 5.99043 26.5101 5.98418 24.2991C5.98106 23.5152 5.79987 23.3294 5.02667 23.3154C4.22067 23.3013 3.41311 23.3107 2.60555 23.3122C1.47309 23.3154 1.36844 23.42 1.36844 24.5723C1.36844 28.8648 1.36844 33.1573 1.36844 37.4514C1.36844 37.6075 1.36219 37.7637 1.37312 37.9198C1.4153 38.4523 1.55588 38.6147 2.0979 38.6256C3.1382 38.6459 4.18006 38.6475 5.22036 38.6272C5.81549 38.6162 5.94826 38.4632 5.98262 37.8792C5.99356 37.6981 5.98574 37.5154 5.98574 37.3327C5.98574 35.1997 5.98574 33.0652 5.98574 30.9322V30.9338Z" fill="#1F1F1F"/>
<path id="Vector_2" d="M25.4533 25.3611C21.2827 25.1846 18.0275 23.581 15.9032 20.0037C14.9785 18.4469 14.5583 16.734 14.7192 14.9273C14.7816 14.2169 15.0066 13.5033 15.2627 12.8303C16.0063 10.8691 17.1762 9.14833 18.4258 7.4838C20.3034 4.98388 22.3824 2.65729 24.6161 0.471231C25.2612 -0.161165 25.4205 -0.162726 26.0859 0.500899C26.8044 1.21761 27.5214 1.93589 28.2103 2.68071C30.2081 4.84023 32.1153 7.07626 33.6929 9.5668C34.2599 10.4631 34.7598 11.4078 35.2253 12.3618C36.3109 14.5854 36.2249 16.8573 35.2362 19.0652C33.7101 22.4724 30.9953 24.4226 27.3715 25.1456C26.7123 25.2768 26.0328 25.2986 25.4549 25.3626L25.4533 25.3611ZM25.2987 1.70011C25.1784 1.80785 25.0784 1.88905 24.9878 1.97961C22.7979 4.17348 20.7735 6.511 18.96 9.02497C18.0025 10.3522 17.12 11.7294 16.5045 13.2581C16.2015 14.0123 15.9672 14.7915 16.0016 15.6003C16.0922 17.6724 16.8138 19.5149 18.279 20.9999C20.9735 23.7293 24.2349 24.5772 27.9213 23.6372C30.8391 22.8924 32.9478 21.1139 34.1084 18.3017C34.8566 16.4888 34.8925 14.6681 34.01 12.8771C33.7117 12.2728 33.4133 11.6654 33.0666 11.0892C31.4108 8.33636 29.3505 5.89422 27.1809 3.54108C26.6014 2.91337 25.9594 2.345 25.2971 1.70167L25.2987 1.70011Z" fill="#1F1F1F"/>
<path id="Vector_3" d="M23.3125 13.3173C23.3125 12.4881 23.3046 11.787 23.3171 11.0859C23.3218 10.8299 23.3437 10.566 23.4124 10.3193C23.5764 9.73215 23.9919 9.40268 24.5949 9.37457C25.0619 9.35271 25.5305 9.35427 25.9991 9.36989C26.8098 9.398 27.3018 9.87581 27.3378 10.6878C27.3643 11.2843 27.344 11.8839 27.344 12.4819C27.344 12.7349 27.344 12.9878 27.344 13.3157C28.0079 13.3157 28.5983 13.3157 29.1903 13.3157C29.4496 13.3157 29.712 13.3001 29.9698 13.322C30.7601 13.3891 31.2256 13.7967 31.3178 14.5774C31.3756 15.063 31.3787 15.5674 31.324 16.053C31.2287 16.9134 30.7367 17.3287 29.8604 17.3412C29.0575 17.3537 28.2531 17.3443 27.3893 17.3443C27.3721 17.602 27.3487 17.8253 27.3456 18.0485C27.3393 18.6981 27.3612 19.3493 27.3378 19.9973C27.3112 20.7109 26.9301 21.1715 26.2225 21.2839C25.7398 21.3604 25.2369 21.3745 24.7479 21.3417C23.8154 21.2808 23.3484 20.7718 23.3171 19.8317C23.2984 19.2868 23.314 18.7403 23.314 18.1938C23.314 17.9392 23.314 17.6847 23.314 17.3428C22.6642 17.3428 22.0738 17.3428 21.4833 17.3428C21.1975 17.3428 20.9101 17.3599 20.6258 17.3365C19.8604 17.2741 19.3965 16.79 19.3668 16.0171C19.3481 15.5502 19.3496 15.0802 19.3684 14.6133C19.3949 13.9794 19.7433 13.5546 20.3712 13.3954C20.618 13.3329 20.8835 13.3204 21.1397 13.3157C21.8348 13.3048 22.5315 13.3126 23.3125 13.3126V13.3173ZM29.9744 14.6883C29.723 14.6883 29.5215 14.6883 29.32 14.6883C28.7217 14.6883 28.1235 14.6961 27.5252 14.6867C26.5505 14.6695 26.0382 14.1777 25.9819 13.2111C25.9663 12.9254 25.9788 12.6396 25.9788 12.3539C25.9788 11.8152 25.9788 11.2764 25.9788 10.6987H24.7214C24.7089 10.9033 24.6886 11.0781 24.687 11.253C24.6823 11.8511 24.6902 12.4491 24.6839 13.0472C24.6745 14.1683 24.1778 14.6758 23.0766 14.6883C22.5299 14.6945 21.9847 14.6851 21.438 14.6914C21.1897 14.6945 20.9398 14.7148 20.668 14.7289C20.668 15.1817 20.5852 15.5642 20.757 15.9827C21.4084 15.9827 22.0566 15.9827 22.7048 15.9827C24.2918 15.9827 24.6855 16.3778 24.6855 17.9611C24.6855 18.6279 24.6855 19.293 24.6855 19.9629H25.9788C25.9788 19.5366 25.9788 19.1525 25.9788 18.7684C25.9788 18.4046 25.9726 18.0407 25.9788 17.6769C26.0022 16.5074 26.4849 16.0155 27.6377 15.9843C27.9501 15.9765 28.2625 15.9843 28.5733 15.9827C29.031 15.9796 29.4902 15.9749 29.9729 15.9702V14.6898L29.9744 14.6883Z" fill="#1F1F1F"/>
</g>
</svg>
