<svg width="44" height="44" viewBox="0 0 44 44" fill="none" xmlns="http://www.w3.org/2000/svg">
<g id="Icon">
<path id="Vector" d="M12.4547 22.0002L4.81921 29.6357C2.1836 32.2713 2.1836 36.5444 4.81921 39.18V39.18C7.45481 41.8156 11.728 41.8156 14.3636 39.18L21.9991 31.5445M12.4547 22.0002L21.9991 31.5445M12.4547 22.0002L21.9991 12.4558M21.9991 31.5445L31.5434 22.0001M21.9991 12.4558L29.6346 4.82028C32.2702 2.18469 36.5433 2.18469 39.1789 4.82029V4.82029C41.8145 7.45589 41.8145 11.7291 39.1789 14.3647L31.5434 22.0001M21.9991 12.4558L31.5434 22.0001" stroke="#1F1F1F" stroke-width="2"/>
<g id="Vector_2">
<path d="M32.2513 22.6166L39.2164 29.6356C41.8347 32.2741 41.8265 36.5331 39.1981 39.1615C36.5553 41.8042 32.268 41.796 29.6355 39.1431L22.7015 32.1555C22.3136 31.7646 22.3148 31.1335 22.7042 30.744L30.8344 22.6139C31.226 22.2223 31.8612 22.2235 32.2513 22.6166Z" stroke="#1F1F1F" stroke-width="2"/>
<path d="M14.3643 4.8569L21.2982 11.8444C21.6861 12.2354 21.6849 12.8665 21.2955 13.2559L13.1653 21.3861C12.7737 21.7777 12.1385 21.7764 11.7484 21.3833L4.78329 14.3644C2.16502 11.7259 2.17322 7.4669 4.80163 4.83849C7.44439 2.19573 11.7317 2.20398 14.3643 4.8569Z" stroke="#1F1F1F" stroke-width="2"/>
</g>
<g id="Group">
<path id="Vector_3" d="M21.999 17.9233H22.026V17.9503H21.999V17.9233Z" stroke="#1F1F1F" stroke-width="2" stroke-linejoin="round"/>
<path id="Vector_4" d="M21.999 21.9998H22.026V22.0268H21.999V21.9998Z" stroke="#1F1F1F" stroke-width="2" stroke-linejoin="round"/>
<path id="Vector_5" d="M26.0483 21.9998H26.0753V22.0268H26.0483V21.9998Z" stroke="#1F1F1F" stroke-width="2" stroke-linejoin="round"/>
<path id="Vector_6" d="M17.9497 21.9998H17.9767V22.0268H17.9497V21.9998Z" stroke="#1F1F1F" stroke-width="2" stroke-linejoin="round"/>
<path id="Vector_7" d="M21.999 26.0222H22.026V26.0492H21.999V26.0222Z" stroke="#1F1F1F" stroke-width="2" stroke-linejoin="round"/>
</g>
</g>
</svg>
