<svg width="70" height="74" viewBox="0 0 70 74" fill="none" xmlns="http://www.w3.org/2000/svg">
<g id="Icon">
<g id="Shadow" opacity="0.6" filter="url(#filter0_f_73_79)">
<ellipse cx="35" cy="65.4978" rx="30" ry="3.5" fill="#1F1F1F" fill-opacity="0.4"/>
</g>
<g id="Icon_2">
<path id="Vector" d="M19.0432 29.0737C20.0175 29.142 20.8591 29.1947 21.7006 29.2611C23.2001 29.3821 24.5434 29.9403 25.715 30.8538C27.1891 32.0014 28.8214 32.5538 30.6919 32.4777C31.8927 32.4289 33.0994 32.4523 34.3021 32.4718C35.8641 32.4972 37.2407 32.9969 38.2813 34.2089C39.1658 35.2395 39.6559 36.4008 39.3357 37.7944C39.3084 37.9155 39.3318 38.0462 39.3318 38.2063C39.7848 38.3976 40.2085 38.2609 40.638 38.1185C43.5297 37.1621 46.4233 36.2154 49.315 35.259C51.4374 34.5564 53.5578 33.8498 55.6743 33.1354C56.6838 32.7958 57.6503 32.8192 58.5641 33.4067C60.2764 34.5095 60.4971 36.8908 59.0053 38.2746C58.7457 38.5147 58.4391 38.7099 58.1365 38.8953C53.1751 41.9206 48.204 44.9303 43.2505 47.9713C41.9072 48.7969 40.4779 49.1873 38.9101 49.1853C32.4375 49.1775 25.9629 49.1853 19.4903 49.1755C18.9241 49.1755 18.4184 49.238 17.9518 49.6049C17.5613 49.9114 17.0751 49.9953 16.5713 49.9895C15.271 49.9758 13.9667 49.9407 12.6683 49.9973C11.2449 50.0617 9.98355 48.8418 9.99917 47.2823C10.048 42.2095 10.0167 37.1367 10.0167 32.0639C10.0167 31.4139 10.0089 30.764 10.0167 30.1121C10.0402 28.5565 11.0281 27.5513 12.5745 27.5298C13.9081 27.5122 15.2417 27.5376 16.5752 27.522C17.5359 27.5103 18.2642 27.9026 18.7933 28.6931C18.8812 28.8258 18.9671 28.9605 19.0413 29.0737H19.0432ZM19.2307 30.9045C19.0452 34.086 19.1311 46.6987 19.3459 47.4638C19.5958 47.4638 19.8535 47.4638 20.1132 47.4638C26.4569 47.4638 32.7987 47.4521 39.1424 47.4736C40.3237 47.4775 41.3702 47.1691 42.366 46.5601C47.2961 43.5445 52.234 40.5426 57.1661 37.5329C57.414 37.3807 57.6698 37.2265 57.8787 37.0293C58.3259 36.6058 58.4215 35.8563 58.1326 35.3234C57.8553 34.8082 57.2461 34.49 56.6604 34.5876C56.3753 34.6364 56.098 34.7418 55.8227 34.8335C51.0938 36.4145 46.3648 37.9974 41.6358 39.5823C40.7357 39.8849 39.8219 40.039 38.8632 40.0254C36.9439 39.9981 35.0226 40.0664 33.1072 40.002C31.2894 39.9415 29.6317 40.3143 28.14 41.38C27.9447 41.5185 27.6636 41.6005 27.4215 41.5986C26.8455 41.5908 26.5077 40.9896 26.7869 40.4841C26.8904 40.2967 27.072 40.1405 27.2496 40.0117C28.7882 38.8797 30.526 38.3234 32.4297 38.3019C33.8609 38.2863 35.292 38.3039 36.7232 38.2961C37.43 38.2922 37.68 38.1048 37.721 37.406C37.7464 36.9688 37.7093 36.4711 37.5238 36.0846C36.9419 34.8765 35.9364 34.2148 34.5852 34.1797C33.2204 34.1445 31.8537 34.1543 30.4869 34.1738C28.429 34.2031 26.5623 33.6292 24.9613 32.3469C23.2724 30.9962 21.3609 30.6878 19.2326 30.9006L19.2307 30.9045ZM17.4812 38.6669C17.4812 35.9031 17.4871 33.1374 17.4793 30.3736C17.4753 29.3938 17.2489 29.1615 16.2824 29.144C15.2749 29.1264 14.2654 29.1381 13.256 29.14C11.8404 29.144 11.7096 29.2747 11.7096 30.7152C11.7096 36.0807 11.7096 41.4463 11.7096 46.8138C11.7096 47.009 11.7018 47.2042 11.7154 47.3994C11.7681 48.065 11.9439 48.2679 12.6214 48.2816C13.9218 48.307 15.2241 48.3089 16.5245 48.2836C17.2684 48.2699 17.4343 48.0786 17.4773 47.3486C17.491 47.1222 17.4812 46.8939 17.4812 46.6655C17.4812 43.9993 17.4812 41.3312 17.4812 38.665V38.6669Z" fill="#1F1F1F"/>
<path id="Vector_2" d="M41.8152 31.7011C36.602 31.4806 32.5329 29.4761 29.8775 25.0044C28.7216 23.0585 28.1964 20.9173 28.3975 18.659C28.4756 17.771 28.7568 16.879 29.077 16.0377C30.0064 13.5862 31.4688 11.4353 33.0308 9.35469C35.3777 6.22981 37.9765 3.32159 40.7686 0.589035C41.575 -0.201455 41.7742 -0.203406 42.6059 0.62612C43.5041 1.52201 44.4003 2.41985 45.2614 3.35087C47.7586 6.05025 50.1426 8.84526 52.1147 11.9584C52.8235 13.0788 53.4483 14.2596 54.0301 15.4522C55.3871 18.2316 55.2797 21.0715 54.0438 23.8314C52.1362 28.0903 48.7427 30.5281 44.2129 31.4318C43.3889 31.5957 42.5396 31.6231 41.8171 31.7031L41.8152 31.7011ZM41.6219 2.12512C41.4715 2.2598 41.3466 2.36129 41.2333 2.4745C38.4959 5.21682 35.9654 8.1387 33.6986 11.2811C32.5017 12.9402 31.3985 14.6617 30.6292 16.5725C30.2504 17.5153 29.9575 18.4892 30.0005 19.5003C30.1137 22.0904 31.0158 24.3935 32.8473 26.2497C36.2154 29.6615 40.2922 30.7213 44.9001 29.5463C48.5474 28.6153 51.1833 26.3922 52.6341 22.8769C53.5693 20.6109 53.6142 18.335 52.511 16.0963C52.1381 15.3409 51.7652 14.5817 51.3317 13.8615C49.2621 10.4204 46.6867 7.36773 43.9747 4.42633C43.2503 3.64169 42.4478 2.93123 41.6199 2.12707L41.6219 2.12512Z" fill="#1F1F1F"/>
<path id="Vector_3" d="M39.1401 16.6464C39.1401 15.61 39.1303 14.7336 39.1459 13.8572C39.1518 13.5371 39.1791 13.2073 39.265 12.8989C39.4701 12.165 39.9894 11.7532 40.7431 11.718C41.3269 11.6907 41.9127 11.6927 42.4984 11.7122C43.5118 11.7473 44.1268 12.3446 44.1717 13.3595C44.2049 14.1051 44.1795 14.8546 44.1795 15.6022C44.1795 15.9184 44.1795 16.2346 44.1795 16.6444C45.0093 16.6444 45.7474 16.6444 46.4874 16.6444C46.8115 16.6444 47.1395 16.6249 47.4617 16.6523C48.4497 16.7362 49.0315 17.2456 49.1467 18.2215C49.219 18.8285 49.2229 19.459 49.1545 20.066C49.0354 21.1415 48.4204 21.6606 47.325 21.6763C46.3214 21.6919 45.3159 21.6802 44.2362 21.6802C44.2147 22.0022 44.1854 22.2813 44.1815 22.5604C44.1737 23.3724 44.201 24.1863 44.1717 24.9963C44.1385 25.8883 43.6621 26.4641 42.7776 26.6046C42.1743 26.7003 41.5456 26.7178 40.9344 26.6768C39.7688 26.6007 39.185 25.9644 39.1459 24.7894C39.1225 24.1082 39.142 23.4251 39.142 22.742C39.142 22.4238 39.142 22.1057 39.142 21.6782C38.3298 21.6782 37.5917 21.6782 36.8537 21.6782C36.4964 21.6782 36.1371 21.6997 35.7818 21.6704C34.825 21.5923 34.2451 20.9873 34.208 20.0211C34.1846 19.4375 34.1866 18.85 34.21 18.2664C34.2432 17.474 34.6786 16.9431 35.4635 16.744C35.772 16.6659 36.1039 16.6503 36.4241 16.6444C37.293 16.6308 38.1638 16.6405 39.1401 16.6405V16.6464ZM47.4676 18.3601C47.1532 18.3601 46.9013 18.3601 46.6495 18.3601C45.9016 18.3601 45.1538 18.3699 44.406 18.3581C43.1876 18.3367 42.5472 17.7219 42.4769 16.5137C42.4574 16.1565 42.473 15.7993 42.473 15.4421C42.473 14.7687 42.473 14.0954 42.473 13.3732H40.9013C40.8856 13.6289 40.8603 13.8475 40.8583 14.0661C40.8524 14.8136 40.8622 15.5612 40.8544 16.3087C40.8427 17.7101 40.2218 18.3445 38.8453 18.3601C38.1619 18.3679 37.4804 18.3562 36.7971 18.364C36.4866 18.3679 36.1742 18.3933 35.8345 18.4108C35.8345 18.9769 35.731 19.4551 35.9458 19.9782C36.76 19.9782 37.5703 19.9782 38.3806 19.9782C40.3643 19.9782 40.8563 20.472 40.8563 22.4511C40.8563 23.2846 40.8563 24.116 40.8563 24.9534H42.473C42.473 24.4205 42.473 23.9404 42.473 23.4602C42.473 23.0054 42.4652 22.5507 42.473 22.0959C42.5023 20.634 43.1056 20.0192 44.5466 19.9801C44.9371 19.9704 45.3276 19.9801 45.7162 19.9782C46.2882 19.9743 46.8623 19.9684 47.4656 19.9625V18.3621L47.4676 18.3601Z" fill="#1F1F1F"/>
</g>
</g>
<defs>
<filter id="filter0_f_73_79" x="0" y="56.9978" width="70" height="17" filterUnits="userSpaceOnUse" color-interpolation-filters="sRGB">
<feFlood flood-opacity="0" result="BackgroundImageFix"/>
<feBlend mode="normal" in="SourceGraphic" in2="BackgroundImageFix" result="shape"/>
<feGaussianBlur stdDeviation="2.5" result="effect1_foregroundBlur_73_79"/>
</filter>
</defs>
</svg>
