<svg width="70" height="74" viewBox="0 0 70 74" fill="none" xmlns="http://www.w3.org/2000/svg">
<g id="Icon">
<g id="Shadow" opacity="0.6" filter="url(#filter0_f_73_88)">
<ellipse cx="35" cy="65.5" rx="30" ry="3.5" fill="#1F1F1F" fill-opacity="0.4"/>
</g>
<g id="Icon_2">
<path id="Vector" d="M17.7405 10.2192C16.2197 9.53579 15.7351 8.3116 15.8136 6.72621C15.8749 5.49226 15.8117 4.2544 15.8308 3.0185C15.8596 1.22614 17.0299 0.0156196 18.7863 0.0117147C24.4675 -0.00390491 30.1486 -0.00390491 35.8297 0.0117147C37.5153 0.0156196 38.7354 1.20857 38.7967 2.93064C38.8503 4.42426 38.835 5.92375 38.8005 7.41933C38.7699 8.71381 38.0784 9.60022 36.9004 10.2133C36.9004 11.0294 36.8564 11.8729 36.9215 12.7046C36.9464 13.0248 37.182 13.3528 37.3831 13.6301C38.7105 15.4595 40.0398 17.287 41.4017 19.0892C42.254 20.2177 42.662 21.4653 42.6486 22.8867C42.6256 25.1632 42.6429 27.4418 42.6429 29.7183C42.6429 30.0405 42.6429 30.3607 42.6429 30.8429C43.5527 30.3099 44.3438 29.8413 45.1387 29.3806C46.353 28.6757 47.5406 27.9396 48.958 27.6624C52.875 26.899 56.8495 29.484 57.7766 33.4592C58.5581 36.8038 57.2594 40.1952 54.3499 41.9641C50.385 44.3774 46.3856 46.7379 42.3441 49.0164C38.9576 50.9259 34.9256 49.9809 32.6137 46.8257C32.2345 46.3083 31.8591 46.1521 31.2691 46.1561C26.5782 46.1736 21.8855 46.1561 17.1946 46.1717C15.5397 46.1775 14.1242 45.6797 13.0592 44.3364C12.4003 43.5085 12.0038 42.5635 12.0038 41.4838C11.9981 35.0739 12 28.664 12.0019 22.256C12.0019 21.1392 12.4137 20.1708 13.0631 19.2922C14.4039 17.4725 15.7197 15.6353 17.0931 13.841C17.572 13.2162 17.8305 12.5894 17.752 11.7948C17.7003 11.2813 17.7424 10.758 17.7424 10.2192H17.7405ZM13.9595 38.356C15.2524 38.356 16.461 38.356 17.6716 38.356C22.1709 38.356 26.6683 38.356 31.1676 38.356C31.6081 38.356 32.0391 38.4165 32.3379 37.9186C33.1098 36.6378 34.2495 35.767 35.5175 35.0388C37.0441 34.1621 38.5477 33.2464 40.0781 32.3795C40.5474 32.114 40.7504 31.8114 40.7409 31.2373C40.7045 29.0916 40.7294 26.9439 40.7236 24.7981C40.7236 24.5502 40.6776 24.3042 40.6547 24.0601H13.9595V38.354V38.356ZM40.8117 22.0276C40.4804 21.3872 40.285 20.8698 39.9766 20.4403C38.6396 18.5796 37.2548 16.7521 35.9197 14.8894C35.5884 14.4267 35.2417 14.2314 34.6632 14.2393C32.0468 14.2744 29.4303 14.2568 26.8138 14.2529C25.8619 14.2529 25.4367 13.9562 25.4175 13.3079C25.3984 12.6168 25.8312 12.3141 26.8541 12.3063C26.9498 12.3063 27.0456 12.3063 27.1414 12.3063C29.4399 12.3063 31.7365 12.3063 34.035 12.3063C34.3376 12.3063 34.6402 12.3063 34.9237 12.3063V10.4183H19.6578C19.6578 11.1349 19.6214 11.785 19.6674 12.4293C19.723 13.222 19.4835 13.8585 19.0047 14.4892C17.5202 16.4416 16.0779 18.4253 14.6471 20.4188C14.3215 20.8737 14.1127 21.4145 13.7928 22.0257H40.8117V22.0276ZM46.8146 44.2114C44.8724 40.7829 42.9857 37.452 41.0416 34.0196C39.0323 35.2438 37.0077 36.2903 35.1919 37.6297C32.8436 39.3635 32.3417 42.6123 33.7936 45.1388C35.2206 47.6204 38.2623 48.7841 40.8213 47.5892C42.8612 46.6364 44.7651 45.3809 46.8146 44.2114ZM27.3291 1.95246C24.5862 1.95246 21.8453 1.9466 19.1024 1.95441C18.0431 1.95831 17.752 2.2629 17.7463 3.34456C17.7386 4.54727 17.7386 5.74998 17.7463 6.95269C17.752 8.1066 18.0259 8.39556 19.1483 8.39751C24.6015 8.40142 30.0528 8.40337 35.506 8.39751C36.5403 8.39751 36.8813 8.05193 36.8947 7.00541C36.9081 5.83589 36.9024 4.66442 36.8966 3.4949C36.8889 2.25704 36.5901 1.95441 35.3662 1.95246C32.6884 1.94855 30.0088 1.95246 27.331 1.95246H27.3291ZM42.7137 33.0531C44.6521 36.4758 46.5388 39.8067 48.4734 43.2235C50.3026 42.1203 52.1414 41.15 53.827 39.957C56.001 38.4204 56.6676 35.3668 55.5528 32.8989C54.4074 30.3646 51.7277 28.9666 49.0863 29.6656C46.7438 30.2845 44.9088 31.9344 42.7137 33.0531ZM31.181 40.3729H13.9786C13.8043 42.2394 14.3023 43.3992 15.601 43.9244C16.145 44.145 16.7809 44.1997 17.3747 44.2036C21.6844 44.2251 25.994 44.2173 30.3037 44.2134C30.614 44.2134 30.9224 44.1802 31.1829 44.1665V40.3748L31.181 40.3729Z" fill="#1F1F1F"/>
<path id="Vector_2" d="M26.312 32.5044C25.5918 32.5044 24.9578 32.5083 24.3238 32.5024C24.0059 32.4985 23.686 32.4946 23.37 32.4555C22.8605 32.3931 22.5578 32.0943 22.5444 31.5574C22.531 31.0224 22.8106 30.6769 23.3221 30.6183C23.889 30.5539 24.4656 30.5617 25.0383 30.548C25.4424 30.5382 25.8485 30.548 26.3676 30.548C26.3676 29.4937 26.3618 28.5584 26.3695 27.6252C26.3733 27.1898 26.5783 26.809 26.9978 26.7739C27.3349 26.7446 27.7812 26.8481 28.0091 27.0726C28.2179 27.2776 28.2504 27.7228 28.2658 28.0645C28.3002 28.8396 28.2773 29.6167 28.2773 30.548C28.8653 30.548 29.392 30.548 29.9188 30.548C30.2693 30.548 30.6217 30.5324 30.9703 30.5617C31.679 30.6241 32.0851 30.9873 32.0889 31.5281C32.0928 32.0729 31.6886 32.4497 30.9818 32.4926C30.4091 32.5278 29.8345 32.5044 29.2599 32.5063C28.9764 32.5063 28.6929 32.5063 28.2773 32.5063C28.2773 33.217 28.2773 33.8535 28.2773 34.4881C28.2773 34.8122 28.3002 35.1421 28.2543 35.4623C28.1662 36.091 27.7754 36.4073 27.2123 36.3624C26.6951 36.3214 26.3963 36.0012 26.3714 35.3764C26.3427 34.6618 26.3638 33.9453 26.358 33.2307C26.358 33.0374 26.335 32.8441 26.312 32.5063V32.5044Z" fill="#1F1F1F"/>
<path id="Vector_3" d="M22.5363 14.2433C22.0115 14.2569 21.5728 13.8001 21.5862 13.2534C21.5977 12.7516 22.0076 12.3299 22.4922 12.3142C22.9902 12.3006 23.4825 12.8004 23.4672 13.3041C23.4519 13.7708 22.996 14.2316 22.5382 14.2413L22.5363 14.2433Z" fill="#1F1F1F"/>
</g>
</g>
<defs>
<filter id="filter0_f_73_88" x="0" y="57" width="70" height="17" filterUnits="userSpaceOnUse" color-interpolation-filters="sRGB">
<feFlood flood-opacity="0" result="BackgroundImageFix"/>
<feBlend mode="normal" in="SourceGraphic" in2="BackgroundImageFix" result="shape"/>
<feGaussianBlur stdDeviation="2.5" result="effect1_foregroundBlur_73_88"/>
</filter>
</defs>
</svg>
