<svg width="50" height="46" viewBox="0 0 50 46" fill="none" xmlns="http://www.w3.org/2000/svg">
<g id="Icon">
<path id="Vector" d="M27.6655 15.7221L34.3322 11.8731C34.7448 11.6349 35.2052 11.5158 35.6656 11.5158M27.6655 30.4845L34.3322 34.3335C34.7448 34.5716 35.2052 34.6907 35.6656 34.6907M48.9989 15.6668L45.8108 17.5217M48.9989 30.3335L45.8726 28.5405M45.8108 17.5217C45.5834 17.0312 45.2085 16.6129 44.7246 16.3335L36.9989 11.8731C36.5864 11.6349 36.126 11.5158 35.6656 11.5158M45.8108 17.5217C45.971 17.8674 46.0579 18.2489 46.0579 18.6429V27.5637C46.0579 27.9035 45.9932 28.2341 45.8726 28.5405M45.8726 28.5405C45.655 29.093 45.2553 29.5666 44.7246 29.8731L36.9989 34.3335C36.5864 34.5716 36.126 34.6907 35.6656 34.6907M35.6656 6.3335V11.5158M35.6656 39.6668V34.6907" stroke="#1F1F1F" stroke-width="2" stroke-linecap="round"/>
<path id="Vector_2" d="M22.0591 15.7221L15.3924 11.8731C15.0619 11.6823 14.7007 11.5679 14.3335 11.5299M22.0591 30.4845L15.3924 34.3335C15.0619 34.5243 14.7007 34.6386 14.3335 34.6766M1.00008 15.6668L4.00662 17.34M1.00008 30.3335L3.93582 28.7311M4.00662 17.34C4.23728 16.9281 4.57702 16.5777 5.00004 16.3335L12.7257 11.8731C13.2203 11.5875 13.7837 11.4731 14.3335 11.5299M4.00662 17.34C3.78739 17.7315 3.6667 18.1786 3.6667 18.6429V27.5637C3.6667 27.9752 3.76155 28.3733 3.93582 28.7311M3.93582 28.7311C4.16496 29.2016 4.53139 29.6025 5.00004 29.8731L12.7257 34.3335C13.2203 34.619 13.7837 34.7334 14.3335 34.6766M14.3335 6.3335V11.5299M14.3335 39.6668V34.6766" stroke="#1F1F1F" stroke-width="2" stroke-linecap="round"/>
<path id="Vector_3" d="M24.9995 18.3335V27.6668" stroke="#1F1F1F" stroke-width="2" stroke-linecap="round"/>
<path id="Vector_4" d="M16.9989 3.66667C16.9989 5.13943 15.805 6.33334 14.3322 6.33334C12.8594 6.33334 11.6655 5.13943 11.6655 3.66667C11.6655 2.19391 12.8594 1 14.3322 1C15.805 1 16.9989 2.19391 16.9989 3.66667Z" stroke="#1F1F1F" stroke-width="2"/>
<path id="Vector_5" d="M16.9989 42.3332C16.9989 43.8059 15.805 44.9998 14.3322 44.9998C12.8594 44.9998 11.6655 43.8059 11.6655 42.3332C11.6655 40.8604 12.8594 39.6665 14.3322 39.6665C15.805 39.6665 16.9989 40.8604 16.9989 42.3332Z" stroke="#1F1F1F" stroke-width="2"/>
<path id="Vector_6" d="M38.3324 3.66667C38.3324 5.13943 37.1385 6.33334 35.6657 6.33334C34.1929 6.33334 32.999 5.13943 32.999 3.66667C32.999 2.19391 34.1929 1 35.6657 1C37.1385 1 38.3324 2.19391 38.3324 3.66667Z" stroke="#1F1F1F" stroke-width="2"/>
<path id="Vector_7" d="M38.3324 42.3332C38.3324 43.8059 37.1385 44.9998 35.6657 44.9998C34.1929 44.9998 32.999 43.8059 32.999 42.3332C32.999 40.8604 34.1929 39.6665 35.6657 39.6665C37.1385 39.6665 38.3324 40.8604 38.3324 42.3332Z" stroke="#1F1F1F" stroke-width="2"/>
</g>
</svg>
