<svg width="40" height="36" viewBox="0 0 40 36" fill="none" xmlns="http://www.w3.org/2000/svg">
<g id="Hexagon Cell">
<path id="Vector" d="M21.6055 12.376L26.757 9.40178C27.0758 9.21774 27.4315 9.12572 27.7873 9.12571M21.6055 23.7833L26.757 26.7575C27.0758 26.9416 27.4315 27.0336 27.7873 27.0336M38.0903 12.3333L35.6267 13.7666M38.0903 23.6667L35.6745 22.2812M35.6267 13.7666C35.4511 13.3876 35.1614 13.0644 34.7874 12.8485L28.8176 9.40178C28.4988 9.21774 28.1431 9.12571 27.7873 9.12571M35.6267 13.7666C35.7506 14.0338 35.8177 14.3286 35.8177 14.633V21.5263C35.8177 21.7889 35.7677 22.0444 35.6745 22.2812M35.6745 22.2812C35.5064 22.7081 35.1975 23.0741 34.7874 23.3109L28.8176 26.7575C28.4988 26.9416 28.1431 27.0336 27.7873 27.0336M27.7873 5.12122V9.12571M27.7873 30.8788V27.0336" stroke="#996391" stroke-width="2" stroke-linecap="round"/>
<path id="Vector_2" d="M17.2725 12.376L12.1209 9.40178C11.8656 9.25435 11.5865 9.16597 11.3027 9.13664M17.2725 23.7833L12.1209 26.7575C11.8656 26.905 11.5865 26.9934 11.3027 27.0227M0.999658 12.3333L3.32288 13.6263M0.999658 23.6667L3.26818 22.4285M3.32288 13.6263C3.50112 13.308 3.76364 13.0372 4.09052 12.8485L10.0603 9.40178C10.4425 9.18112 10.8779 9.09274 11.3027 9.13664M3.32288 13.6263C3.15348 13.9288 3.06022 14.2743 3.06022 14.633V21.5263C3.06022 21.8444 3.13351 22.152 3.26818 22.4285M3.26818 22.4285C3.44523 22.792 3.72839 23.1018 4.09052 23.3109L10.0603 26.7575C10.4425 26.9782 10.8779 27.0666 11.3027 27.0227M11.3027 5.12122V9.13664M11.3027 30.8788V27.0227" stroke="#996391" stroke-width="2" stroke-linecap="round"/>
<path id="Vector_3" d="M19.5449 14.3939V21.606" stroke="#996391" stroke-width="2" stroke-linecap="round"/>
<path id="Vector_4" d="M13.3634 3.06061C13.3634 4.19865 12.4408 5.12121 11.3028 5.12121C10.1648 5.12121 9.24219 4.19865 9.24219 3.06061C9.24219 1.92256 10.1648 1 11.3028 1C12.4408 1 13.3634 1.92256 13.3634 3.06061Z" stroke="#996391" stroke-width="2"/>
<path id="Vector_5" d="M13.3634 32.9394C13.3634 34.0774 12.4408 35 11.3028 35C10.1648 35 9.24219 34.0774 9.24219 32.9394C9.24219 31.8013 10.1648 30.8788 11.3028 30.8788C12.4408 30.8788 13.3634 31.8013 13.3634 32.9394Z" stroke="#996391" stroke-width="2"/>
<path id="Vector_6" d="M29.8478 3.06061C29.8478 4.19865 28.9252 5.12121 27.7872 5.12121C26.6491 5.12121 25.7266 4.19865 25.7266 3.06061C25.7266 1.92256 26.6491 1 27.7872 1C28.9252 1 29.8478 1.92256 29.8478 3.06061Z" stroke="#996391" stroke-width="2"/>
<path id="Vector_7" d="M29.8478 32.9394C29.8478 34.0774 28.9252 35 27.7872 35C26.6491 35 25.7266 34.0774 25.7266 32.9394C25.7266 31.8013 26.6491 30.8788 27.7872 30.8788C28.9252 30.8788 29.8478 31.8013 29.8478 32.9394Z" stroke="#996391" stroke-width="2"/>
</g>
</svg>
