<svg width="101" height="187" viewBox="0 0 101 187" fill="none" xmlns="http://www.w3.org/2000/svg">
<path d="M36.9585 74.157C34.2535 72.804 26.0995 90.19 30.3865 91.995C34.6735 93.799 40.3795 75.868 36.9585 74.157Z" fill="#F2D701"/>
<path d="M99.2534 93.7819C96.5484 92.4299 88.3944 109.815 92.6814 111.62C96.9684 113.425 102.674 95.4929 99.2534 93.7819Z" fill="#F2D701"/>
<path d="M7.99157 101.265C3.81857 102.568 -2.66043 116.086 1.16257 119.801C4.98457 123.517 12.2286 99.9422 7.99157 101.265Z" fill="#F2D701"/>
<path d="M43.1592 118.218C40.0232 117.616 31.9702 135.991 35.8982 137.927C39.8252 139.863 46.8092 118.92 43.1592 118.218Z" fill="#F2D701"/>
<path d="M62.6816 142.279C59.5456 141.677 51.4926 160.052 55.4206 161.988C59.3476 163.924 66.3316 142.981 62.6816 142.279Z" fill="#F2D701"/>
<path d="M59.8382 89.4373C58.1692 87.8343 53.0122 100.332 54.7862 103.149C56.5602 105.966 62.3932 91.8933 59.8382 89.4373Z" fill="#F2D701"/>
<path d="M74.0707 105.226C72.4017 103.623 67.2447 116.121 69.0187 118.938C70.7927 121.755 76.6267 107.682 74.0707 105.226Z" fill="#F2D701"/>
<path d="M62.2573 60.4801C59.8483 58.7091 54.3023 73.7711 56.9953 74.7631C59.6873 75.7551 64.6163 62.2141 62.2573 60.4801Z" fill="#F2D701"/>
<path d="M29.5757 172.22C27.1657 170.449 21.6207 185.511 24.3137 186.503C27.0067 187.496 31.9347 173.955 29.5757 172.22Z" fill="#F2D701"/>
<path d="M22.8482 39.544C19.4832 37.34 11.1682 57.158 14.7092 61.635C18.2512 66.112 25.8692 41.522 22.8482 39.544Z" fill="#F2D701"/>
<path d="M18.6699 132.613C11.9019 138.87 5.9849 153.461 10.1799 155.656C14.3749 157.851 21.2499 130.227 18.6699 132.613Z" fill="#F2D701"/>
<path d="M55.5161 24.1823C51.2751 25.7923 44.6282 40.9353 47.9382 44.7503C51.2482 48.5653 59.7571 22.5723 55.5161 24.1823Z" fill="#F2D701"/>
<path d="M92.5445 31.1919C89.4435 31.7799 80.8375 49.6619 85.0605 51.5059C89.2835 53.3499 95.6455 30.6039 92.5445 31.1919Z" fill="#F2D701"/>
<path d="M82.2451 6.01096e-05C79.2211 0.0390601 73.2151 13.1111 76.1641 16.5051C79.1131 19.8981 85.2691 -0.0399399 82.2451 6.01096e-05Z" fill="#F2D701"/>
<path d="M90.6342 70.898C89.0432 70.022 83.6162 83.097 86.5572 84.313C89.4972 85.528 93.5112 72.482 90.6342 70.898Z" fill="#F2D701"/>
</svg>
