<svg width="856" height="561" viewBox="0 0 856 561" fill="none" xmlns="http://www.w3.org/2000/svg">
<path d="M379.748 50.7874C170.024 50.7874 0 220.965 0 430.88C0 640.794 170.024 810.972 379.748 810.972C589.473 810.972 759.497 640.794 759.497 430.88C759.497 220.965 589.473 50.7874 379.748 50.7874ZM379.748 807.318C172.045 807.318 3.68043 638.771 3.68043 430.88C3.68043 222.988 172.045 54.4712 379.748 54.4712C587.451 54.4712 755.816 222.988 755.816 430.88C755.816 638.771 587.451 807.318 379.748 807.318Z" fill="#EDD582" fill-opacity="0.2"/>
<path d="M475.801 0C266.076 0 96.0522 170.178 96.0522 380.092C96.0522 590.006 266.076 760.184 475.801 760.184C685.525 760.184 855.549 590.006 855.549 380.092C855.549 170.178 685.525 0 475.801 0ZM475.801 756.5C268.098 756.5 99.7327 587.983 99.7327 380.062C99.7327 172.141 268.098 3.68377 475.801 3.68377C683.504 3.68377 851.869 172.201 851.869 380.092C851.869 587.983 683.504 756.531 475.801 756.531V756.5Z" fill="#EDD582" fill-opacity="0.2"/>
<path d="M457.671 85.2701C247.947 85.2701 77.9229 255.448 77.9229 465.362C77.9229 675.276 247.947 845.454 457.671 845.454C667.396 845.454 837.419 675.276 837.419 465.362C837.419 255.448 667.396 85.2701 457.671 85.2701ZM457.671 841.771C249.968 841.771 81.6033 673.253 81.6033 465.332C81.6033 257.411 249.968 88.9237 457.671 88.9237C665.374 88.9237 833.739 257.441 833.739 465.332C833.739 673.223 665.374 841.771 457.671 841.771Z" fill="#EDD582" fill-opacity="0.2"/>
</svg>
