<svg width="77" height="66" viewBox="0 0 77 66" fill="none" xmlns="http://www.w3.org/2000/svg">
<g id="06">
<path id="Vector" d="M56.2988 0.700953C49.5653 0.00980592 41.0072 3.49527 38.863 9.30313C36.9566 3.41352 26.6854 -0.391505 19.9296 0.032101C2.10359 1.14685 -4.33265 21.1864 2.93599 34.8942C6.84901 42.2701 12.5532 48.7654 18.8036 54.6216C20.5242 56.2342 23.1403 58.4415 25.8827 60.6821C25.8679 60.6784 25.853 60.6747 25.8382 60.671C28.1235 62.5363 30.487 64.4203 32.4899 65.9958C32.9136 62.8856 33.5267 59.0249 33.4115 57.9918C33.17 55.8106 32.2112 53.8004 30.6059 52.2917C28.9671 50.7497 27.2094 49.4268 25.8084 47.6395C25.1953 46.8555 24.7085 45.9897 24.1362 45.1796C23.5602 44.3658 22.9433 43.5781 22.3079 42.8089C21.0073 41.2334 19.6286 39.721 18.2425 38.2198C17.0645 36.9416 15.8122 35.6968 14.768 34.3071C14.0619 33.3669 13.2481 31.9884 14.2217 30.9442C14.9203 30.1973 15.8531 29.7551 16.8192 30.1825C17.9341 30.673 18.8631 31.6205 19.6992 32.4789C20.7546 33.5602 21.7319 34.7158 22.7092 35.8677C23.3187 36.5849 23.9355 37.525 24.7419 38.0378C26.1577 38.937 28.6178 38.9779 29.766 37.6179C30.6505 36.5737 30.5241 35.0465 30.2306 33.8054C29.7958 31.9772 29.1715 30.1973 28.7553 28.358C27.96 24.8391 27.3543 21.2236 27.1982 17.6118C27.1536 16.5973 27.083 15.4863 27.3469 14.4905C27.5104 13.8625 27.9972 13.5689 28.5732 13.32C30.9552 12.3018 31.7579 15.4046 31.9845 17.125C32.2781 19.3508 32.4676 21.532 33.1885 23.6797C33.6382 25.0174 34.2328 26.4146 35.1989 27.4699C35.4256 27.7189 35.9199 28.3543 36.1205 27.8415C36.3955 27.1318 36.3026 26.1954 36.3361 25.4485C36.3844 24.3783 36.5553 23.3193 36.5888 22.2491C36.6259 21.0489 36.559 19.845 36.4847 18.6485C36.3844 16.9689 36.1205 15.1333 36.5293 13.4723C36.7969 12.3984 37.659 11.3506 38.8853 11.4992C40.0336 11.6367 40.42 12.993 40.5612 13.9554C40.6541 14.5871 40.669 15.2299 40.6467 15.869C40.6207 16.6419 40.6021 17.3925 40.6095 18.1691C40.643 20.9337 40.6541 23.8172 41.2859 26.5224C41.3788 26.92 41.4828 27.5554 41.7875 27.8601C42.1591 28.2354 42.4416 27.626 42.5679 27.3064C43.1625 25.8089 43.1885 24.0216 43.2591 22.4312C43.326 20.9709 43.3855 19.518 43.2368 18.0614C43.1068 16.7831 43.0547 15.059 43.9317 14.0074C44.582 13.2271 45.7303 13.1528 46.4103 13.9145C47.1461 14.7394 47.3022 16.04 47.4062 17.0915C47.6664 19.8004 47.4843 22.6542 47.1164 25.3482C46.938 26.6413 46.7968 27.9492 46.7894 29.2535C46.7894 29.7477 46.6853 31.9029 47.6404 31.353C48.7626 30.7064 49.2048 29.1755 49.4761 28.0087C49.8031 26.593 49.9369 25.1438 50.1636 23.7132C50.3197 22.7173 50.4646 21.4762 51.1335 20.6699C51.5385 20.1794 52.4155 19.845 53.0435 20.0531C53.731 20.2835 53.8685 21.1121 53.9242 21.7364C54.0543 23.2301 53.9131 24.7573 53.8611 26.2548C53.7422 29.692 53.4486 33.0474 52.8614 36.4399C52.2557 39.9514 51.4828 43.448 50.4534 46.8592C50.0447 48.2192 49.595 49.5717 49.019 50.8686C48.4245 52.2063 47.5029 53.3619 46.938 54.7145C46.7559 55.1529 46.559 55.6546 46.5813 56.1414C46.6073 56.7396 46.8488 57.3602 46.9269 57.9658C46.9529 58.1591 46.9715 58.3523 46.9975 58.5455C47.0792 59.2441 47.3728 61.0426 47.6404 62.7147C51.1781 60.0913 54.8235 57.3007 57.0457 55.3833C63.5303 49.7835 69.4946 43.5186 73.7049 36.3025C81.5272 22.8957 74.0542 2.52543 56.2877 0.697237L56.2988 0.700953Z" fill="#1F1F1F" fill-opacity="0.2"/>
<path id="Vector_2" d="M48.3055 39.6887C46.2543 39.6812 44.1993 39.6738 42.148 39.6664C41.9548 39.6664 41.7652 39.6664 41.572 39.6664C41.5757 38.1726 41.5832 36.6751 41.5869 35.1813C41.5869 34.4307 41.5906 33.6801 41.5943 32.9295C41.5943 32.6806 41.3825 32.4651 41.1335 32.4651C39.8589 32.4613 38.5806 32.4576 37.306 32.4502C37.057 32.4502 36.8415 32.662 36.8415 32.911C36.834 34.9621 36.8266 37.017 36.8192 39.0681C36.8192 39.2613 36.8192 39.4508 36.8192 39.6441C35.3253 39.6404 33.8277 39.6329 32.3339 39.6292C31.5832 39.6292 30.8326 39.6255 30.0819 39.6218C29.8329 39.6218 29.6174 39.8336 29.6174 40.0825C29.6137 41.3571 29.61 42.6353 29.6025 43.9099C29.6025 44.0511 29.6546 44.1588 29.7326 44.2331C29.8069 44.3149 29.9147 44.3743 30.0633 44.3743C32.1146 44.3818 34.1696 44.3892 36.2209 44.3966C36.4141 44.3966 36.6036 44.3966 36.7969 44.3966C36.7931 45.8904 36.7857 47.3879 36.782 48.8817C36.782 49.6323 36.7783 50.3829 36.7746 51.1335C36.7746 51.3824 36.9864 51.5979 37.2354 51.5979C38.51 51.6017 39.7883 51.6054 41.0629 51.6128C41.2041 51.6128 41.3119 51.5608 41.3862 51.4828C41.4717 51.4084 41.5274 51.3007 41.5274 51.152C41.5349 49.1009 41.5423 47.046 41.5497 44.9949C41.5497 44.8017 41.5497 44.6122 41.5497 44.4189C43.0436 44.4226 44.5412 44.4301 46.035 44.4338C46.7857 44.4338 47.5363 44.4375 48.287 44.4412C48.5359 44.4412 48.7515 44.2294 48.7515 43.9805C48.7552 42.7059 48.7589 41.4277 48.7663 40.1531C48.7663 39.9042 48.5545 39.6887 48.3055 39.6887Z" fill="#1F1F1F" fill-opacity="0.2"/>
</g>
</svg>
