<svg width="61" height="54" viewBox="0 0 61 54" fill="none" xmlns="http://www.w3.org/2000/svg">
<g id="05">
<path id="Vector" d="M30.2023 35.719C37.9993 35.719 44.3201 29.3982 44.3201 21.6012C44.3201 13.8042 37.9993 7.4834 30.2023 7.4834C22.4052 7.4834 16.0845 13.8042 16.0845 21.6012C16.0845 29.3982 22.4052 35.719 30.2023 35.719Z" fill="#1F1F1F" fill-opacity="0.3"/>
<path id="Vector_2" d="M39.6684 19.487V23.7199C39.6684 24.7412 38.8399 25.5697 37.8155 25.5697H34.164V29.2212C34.164 30.2455 33.3325 31.074 32.3112 31.074H28.0783C27.0569 31.074 26.2284 30.2455 26.2284 29.2212V25.5697H22.577C21.5526 25.5697 20.7241 24.7412 20.7241 23.7199V19.487C20.7241 18.4656 21.5526 17.6371 22.577 17.6371H26.2284V13.9857C26.2284 12.9613 27.0569 12.1328 28.0783 12.1328H32.3112C33.3325 12.1328 34.164 12.9613 34.164 13.9857V17.6371H37.8155C38.8399 17.6371 39.6684 18.4656 39.6684 19.487Z" fill="#C5ED82"/>
<path id="Vector_3" d="M53.1083 0H7.29327C1.68652 0 -1.81732 6.07071 0.987559 10.9273L23.764 50.3583C26.5599 55.1998 33.5404 55.2179 36.3634 50.3884L59.396 10.9604C62.231 6.10385 58.7301 0 53.1053 0H53.1083ZM30.2023 36.8129C21.8027 36.8129 14.9909 30.0041 14.9909 21.6015C14.9909 13.1989 21.7997 6.39007 30.2023 6.39007C38.6049 6.39007 45.4137 13.1989 45.4137 21.6015C45.4137 30.0041 38.6049 36.8129 30.2023 36.8129Z" fill="#1F1F1F" fill-opacity="0.3"/>
</g>
</svg>
