<svg width="74" height="66" viewBox="0 0 74 66" fill="none" xmlns="http://www.w3.org/2000/svg">
<g id="05">
<path id="Vector" d="M36.9137 43.6554C46.4434 43.6554 54.1688 35.9306 54.1688 26.4014C54.1688 16.8723 46.4434 9.14746 36.9137 9.14746C27.384 9.14746 19.6587 16.8723 19.6587 26.4014C19.6587 35.9306 27.384 43.6554 36.9137 43.6554Z" fill="#1F1F1F" fill-opacity="0.2"/>
<path id="Vector_2" d="M48.4836 23.816V28.9892C48.4836 30.2374 47.471 31.25 46.219 31.25H41.7561V35.7126C41.7561 36.9645 40.7398 37.977 39.4915 37.977H34.318C33.0697 37.977 32.0571 36.9645 32.0571 35.7126V31.25H27.5942C26.3422 31.25 25.3296 30.2374 25.3296 28.9892V23.816C25.3296 22.5677 26.3422 21.5552 27.5942 21.5552H32.0571V17.0926C32.0571 15.8407 33.0697 14.8281 34.318 14.8281H39.4915C40.7398 14.8281 41.7561 15.8407 41.7561 17.0926V21.5552H46.219C47.471 21.5552 48.4836 22.5677 48.4836 23.816Z" fill="white"/>
<path id="Vector_3" d="M64.91 0H8.91397C2.0613 0 -2.22117 7.41929 1.20701 13.3547L29.0449 61.5451C32.462 67.4621 40.9938 67.4842 44.444 61.5819L72.5949 13.3952C76.0599 7.45979 71.7811 0 64.9063 0H64.91ZM36.9138 44.9907C26.6477 44.9907 18.3221 36.6693 18.3221 26.4001C18.3221 16.131 26.644 7.80958 36.9138 7.80958C47.1836 7.80958 55.5055 16.131 55.5055 26.4001C55.5055 36.6693 47.1836 44.9907 36.9138 44.9907Z" fill="#1F1F1F" fill-opacity="0.2"/>
</g>
</svg>
