<svg width="79" height="66" viewBox="0 0 79 66" fill="none" xmlns="http://www.w3.org/2000/svg">
<g id="02">
<path id="Vector" d="M15.0316 34.6455C15.0316 34.6455 4.49148 40.9924 6.74569 50.0652C9.22608 60.0469 34.9662 58.0867 44.5513 56.7289C33.3529 60.5111 12.561 65.2978 3.36192 57.7691C-4.89605 51.0104 3.23347 37.9481 15.0316 34.6455Z" fill="#1F1F1F" fill-opacity="0.2"/>
<path id="Vector_2" d="M53.5947 19.6244C53.5947 19.6244 68.0267 18.7455 68.084 30.4536C68.1796 49.9492 37.7719 66.7944 9.25049 63.6175C28.991 69.4079 55.8991 65.2063 71.6639 44.824C85.444 27.0086 76.1228 13.7704 53.5947 19.6244Z" fill="#1F1F1F" fill-opacity="0.2"/>
<path id="Vector_3" d="M45.0783 39.1317C47.5811 34.5572 47.6816 24.2963 47.6816 24.2963C47.6816 24.2963 45.315 23.386 42.9484 18.6531C37.0319 25.9346 25.1081 24.2963 25.1081 24.2963C25.1081 24.2963 25.2086 34.5572 27.7114 39.1317C29.0762 41.6259 30.4473 43.2412 31.6843 44.2869C27.6632 43.7263 21.6566 42.1913 16.0361 38.0392C16.0361 38.0392 21.0395 35.2134 20.2304 27.9597C19.607 22.3689 19.5616 16.4486 22.1006 12.115L23.8578 16.9142L24.5363 18.7592L26.3891 18.1002C26.4331 18.0841 30.8578 16.533 36.3938 16.533C41.9047 16.533 46.3147 18.0702 46.3985 18.0995L48.2519 18.7648L50.687 12.1143C53.226 16.4479 53.1806 22.3689 52.5572 27.959C51.7481 35.2127 56.7515 38.0385 56.7515 38.0385C51.131 42.1906 45.1251 43.7256 41.104 44.2862C42.3431 43.2419 43.7135 41.6259 45.0783 39.1317ZM24.1356 54.1799C26.2125 53.9859 28.3466 53.4218 28.3466 53.4218C28.3466 53.4218 28.0053 54.6777 27.4908 55.8518C27.9138 55.8581 28.3306 55.8679 28.7669 55.8679C30.4152 55.8679 32.0236 55.8218 33.5525 55.7506C29.5488 50.6205 28.2957 45.4729 28.2957 45.4729L24.5398 44.6841L18.3287 47.2321C19.9141 49.4784 22.6061 52.966 24.1356 54.1799ZM44.5561 54.7468C44.6643 54.7468 44.7712 54.7565 44.8759 54.774C44.6071 54.0187 44.4445 53.4218 44.4445 53.4218C44.4445 53.4218 46.099 53.8588 47.912 54.0955C48.6143 53.7115 49.3019 53.315 49.9763 52.9074C51.4549 51.3088 53.2714 48.92 54.4631 47.2321L48.2519 44.6841L44.4968 45.4729C44.4968 45.4729 43.3135 50.335 39.5716 55.3178C41.8042 55.1021 43.4831 54.8794 44.2762 54.767C44.3704 54.7538 44.464 54.7468 44.5561 54.7468ZM23.1548 55.6661C21.0381 53.3451 18.8572 50.728 16.7657 47.8387L9.52344 51.2222C11.4384 53.6012 16.1792 55.1447 23.1548 55.6661Z" fill="#1F1F1F" fill-opacity="0.2"/>
<path id="Vector_4" d="M36.397 0C27.7857 0 21.6675 5.15245 21.6675 5.15245L25.7242 16.2315C25.7242 16.2315 30.4127 14.5492 36.397 14.5492C42.3819 14.5492 47.0697 16.2315 47.0697 16.2315L51.1265 5.15245C51.1265 5.15245 45.0082 0 36.397 0ZM41.5442 9.64523H38.2574V12.9317H34.5365V9.64523H31.2498V5.92452H34.5365V2.63801H38.2574V5.92452H41.5442V9.64523Z" fill="#1F1F1F" fill-opacity="0.2"/>
</g>
</svg>
