<svg width="78" height="66" viewBox="0 0 78 66" fill="none" xmlns="http://www.w3.org/2000/svg">
<g id="03">
<path id="Vector" d="M51.2382 28.3386H43.9929V21.0938H36.6379V28.3386H29.3926V35.6932H36.6379V42.9381H43.9929V35.6932H51.2382V28.3386Z" fill="#1F1F1F"/>
<path id="Vector_2" d="M50.0435 48.1093C48.3967 48.9145 40.4026 48.1093 40.3158 49.065C40.0652 51.8244 45.5125 52.7675 46.9835 53.0663C53.1093 54.3103 57.9924 50.6723 65.1502 43.9412C72.5394 36.9929 78.2054 26.6112 77.5478 17.249C76.621 4.04778 64.7639 -2.66328 54.2125 0.986578C47.3061 3.37608 43.1703 7.24763 41.147 9.61933C40.3388 10.5661 38.8871 10.5661 38.0796 9.61933C36.057 7.24763 31.9205 3.37534 25.0141 0.986578C14.4634 -2.66328 2.69461 4.40291 0.439164 16.8768C-2.27894 31.9063 7.81793 49.1947 25.2461 59.953C29.605 62.6435 42.9042 67.5085 49.6082 65.5379C53.9835 64.2523 65.0694 55.4921 63.8601 54.2881C60.8195 51.2602 53.5682 58.8446 48.1328 58.4747C43.0369 58.127 39.6789 57.201 37.9417 54.6536C35.1191 50.5136 35.6944 45.0785 34.3272 45.536C31.0397 44.4365 33.2648 52.8742 30.4784 51.192C18.7089 44.088 11.8588 32.5008 13.6775 22.4424C15.1708 14.1841 22.9625 9.50515 29.9476 11.9221C34.0336 13.3352 36.6553 15.5326 38.1219 17.1051C38.933 17.974 40.2928 17.974 41.104 17.1051C42.5713 15.5334 45.193 13.3359 49.2783 11.9221C56.2634 9.50515 64.0551 14.1841 65.5491 22.4424C66.7117 28.8703 64.322 35.9187 59.3811 42.0262C57.2554 41.2166 52.5347 38.4342 51.1593 40.562C50.3274 41.8505 53.1634 42.755 53.5163 43.7685C54.0391 45.2624 51.2957 47.4977 50.0435 48.1093Z" fill="#1F1F1F"/>
</g>
</svg>
